<svg width="120" height="120" viewBox="0 0 120 120" fill="none" xmlns="http://www.w3.org/2000/svg">
<path fillRule="evenodd" clipRule="evenodd" d="M60 120C93.1371 120 120 93.1371 120 60C120 26.8629 93.1371 0 60 0C26.8629 0 0 26.8629 0 60C0 93.1371 26.8629 120 60 120ZM24.232 82.9953C28.3842 86.9984 33.3902 89 39.25 89H85.6136C90.4432 89 94.5489 87.3327 97.9309 83.998C101.31 80.6608 103 76.6094 103 71.8438C103 67.4594 101.536 63.6304 98.607 60.3567C95.6758 57.0856 91.9886 55.1958 87.5454 54.6875C87.5454 47.2531 84.9208 40.946 79.6714 35.7661C74.4245 30.5887 68.0341 28 60.5 28C54.3826 28 48.9091 29.8109 44.0795 33.4328C39.25 37.0547 36.0303 41.7885 34.4205 47.6344C29.5265 48.7146 25.5663 51.1927 22.5398 55.0688C19.5133 58.9448 18 63.3609 18 68.3172C18 74.0995 20.0773 78.9922 24.232 82.9953Z" fill="white" fillOpacity="0.4"/>
</svg>
