<svg width="120" height="120" viewBox="0 0 120 120" fill="none" xmlns="http://www.w3.org/2000/svg">
<path d="M60 0C52.1207 0 44.3185 1.59048 37.039 4.68062C29.7595 7.77076 23.1451 12.3001 17.5736 18.0099C6.32141 29.5414 0 45.1816 0 61.4896C0 88.668 17.22 111.727 41.04 119.905C44.04 120.397 45 118.49 45 116.83V106.439C28.38 110.128 24.84 98.1989 24.84 98.1989C22.08 91.0661 18.18 89.1599 18.18 89.1599C12.72 85.3476 18.6 85.4706 18.6 85.4706C24.6 85.901 27.78 91.804 27.78 91.804C33 101.15 41.82 98.3834 45.24 96.9076C45.78 92.9108 47.34 90.2053 49.02 88.668C35.7 87.1308 21.72 81.8427 21.72 58.4151C21.72 51.5898 24 46.1172 27.9 41.7515C27.3 40.2142 25.2 33.8193 28.5 25.5182C28.5 25.5182 33.54 23.858 45 31.7901C49.74 30.4374 54.9 29.761 60 29.761C65.1 29.761 70.26 30.4374 75 31.7901C86.46 23.858 91.5 25.5182 91.5 25.5182C94.8 33.8193 92.7 40.2142 92.1 41.7515C96 46.1172 98.28 51.5898 98.28 58.4151C98.28 81.9042 84.24 87.0693 70.86 88.6065C73.02 90.5127 75 94.2636 75 99.9821V116.83C75 118.49 75.96 120.458 79.02 119.905C102.84 111.665 120 88.668 120 61.4896C120 53.4147 118.448 45.4188 115.433 37.9586C112.417 30.4983 107.998 23.7197 102.426 18.0099C96.8549 12.3001 90.2405 7.77076 82.961 4.68062C75.6815 1.59048 67.8793 0 60 0V0Z" fill="white" fill-opacity="0.4"/>
</svg>
