<svg width="97" height="101" viewBox="0 0 97 101" fill="none" xmlns="http://www.w3.org/2000/svg">
<path d="M61.2824 34.592H57.0138L63.3241 45.5218L49.0211 70.2953H37.0682L39.2025 73.9921H51.1554L67.5927 45.5218L61.2824 34.592Z" fill="#2AA1E3"/>
<path fill-rule="evenodd" clip-rule="evenodd" d="M32.9332 0.340576C29.7891 0.340576 27.2404 2.88931 27.2404 6.03332C27.2404 9.17734 29.7891 11.7261 32.9332 11.7261C35.4302 11.7261 37.5517 10.1184 38.3192 7.88161H49.0351L61.2549 29.0469H39.7252L26.0775 52.6855C25.8632 52.6567 25.6444 52.6418 25.4222 52.6418C22.7296 52.6418 20.5469 54.8245 20.5469 57.5171C20.5469 60.2097 22.7296 62.3925 25.4222 62.3925C25.6444 62.3925 25.8632 62.3776 26.0775 62.3488L39.7251 85.9873H42.6517L47.6727 94.6836L75.1395 94.6836L96.5977 57.5169L76.2542 22.281C77.2276 21.2595 77.8252 19.8767 77.8252 18.3543C77.8252 15.2103 75.2765 12.6616 72.1324 12.6616C68.9884 12.6616 66.4397 15.2103 66.4397 18.3543C66.4397 21.4984 68.9884 24.0471 72.1324 24.0471C72.417 24.0471 72.6966 24.0262 72.9699 23.9859L92.3291 57.5169L73.0052 90.9869L49.807 90.9868L46.9204 85.9873H72.5995L89.0369 57.517L72.5996 29.0469H65.5235L51.1694 4.18487H38.3191C37.5516 1.9482 35.4301 0.340576 32.9332 0.340576ZM30.9372 6.03332C30.9372 4.93095 31.8308 4.03731 32.9332 4.03731C34.0355 4.03731 34.9292 4.93095 34.9292 6.03332C34.9292 7.13569 34.0355 8.02933 32.9332 8.02933C31.8308 8.02933 30.9372 7.13569 30.9372 6.03332ZM29.2788 54.5342L41.8595 32.7436H70.4653L84.7682 57.517L70.4652 82.2905H41.8594L29.2788 60.5001C29.9174 59.6756 30.2976 58.6408 30.2976 57.5171C30.2976 56.3935 29.9174 55.3587 29.2788 54.5342ZM70.1364 18.3543C70.1364 17.252 71.0301 16.3583 72.1324 16.3583C73.2348 16.3583 74.1285 17.252 74.1285 18.3543C74.1285 19.4567 73.2348 20.3504 72.1324 20.3504C71.0301 20.3504 70.1364 19.4567 70.1364 18.3543Z" fill="#2AA1E3"/>
<path fill-rule="evenodd" clip-rule="evenodd" d="M18.2811 17.0517L1.84387 45.5219L8.29054 56.688L0.728516 69.786L16.1498 96.4963H29.0001C29.7676 98.733 31.8891 100.341 34.3861 100.341C37.5301 100.341 40.0788 97.7918 40.0788 94.6478C40.0788 91.5038 37.5301 88.9551 34.3861 88.9551C31.889 88.9551 29.7675 90.5628 29.0001 92.7996H18.2841L4.99713 69.7859L10.4249 60.3847L18.281 73.9921H30.6652L28.5309 70.2953H20.4153L6.11249 45.5219L20.4154 20.7484H49.0212L52.7452 27.1985H57.0138L51.1555 17.0517H18.2811ZM34.3861 96.6438C35.4884 96.6438 36.3821 95.7502 36.3821 94.6478C36.3821 93.5455 35.4884 92.6518 34.3861 92.6518C33.2837 92.6518 32.3901 93.5455 32.3901 94.6478C32.3901 95.7502 33.2837 96.6438 34.3861 96.6438Z" fill="#2AA1E3"/>
</svg>
