<svg width="1039" height="88" viewBox="0 0 1039 88" fill="none" xmlns="http://www.w3.org/2000/svg">
  <path d="M776.487 18.2668C776.487 19.7396 775.293 20.9335 773.82 20.9335C772.348 20.9335 771.154 19.7396 771.154 18.2668C771.154 16.7941 772.348 15.6002 773.82 15.6002C775.293 15.6002 776.487 16.7941 776.487 18.2668ZM947.399 18.2668V17.7668H947.606L947.753 17.9133L947.399 18.2668ZM754.216 25.1367V25.6367H754.009L753.863 25.4902L754.216 25.1367ZM946.793 25.1367C946.793 26.6094 945.599 27.8033 944.126 27.8033C942.653 27.8033 941.459 26.6094 941.459 25.1367C941.459 23.6639 942.653 22.47 944.126 22.47C945.599 22.47 946.793 23.6639 946.793 25.1367ZM742.796 31.8162C742.796 33.289 741.602 34.4829 740.129 34.4829C738.657 34.4829 737.463 33.289 737.463 31.8162C737.463 30.3435 738.657 29.1496 740.129 29.1496C741.602 29.1496 742.796 30.3435 742.796 31.8162ZM917.778 31.8162V31.3162H917.985L918.132 31.4627L917.778 31.8162ZM742.796 38.6595C742.796 40.1323 741.602 41.3262 740.129 41.3262C738.657 41.3262 737.463 40.1323 737.463 38.6595C737.463 37.1868 738.657 35.9929 740.129 35.9929C741.602 35.9929 742.796 37.1868 742.796 38.6595ZM914.766 38.6595V38.1595H914.973L915.12 38.306L914.766 38.6595ZM960.948 31.8162V32.3162H960.741L960.595 32.1698L960.948 31.8162ZM997.766 31.8162L998.12 32.1698L997.973 32.3162H997.766V31.8162ZM1004.45 25.1367L1004.09 24.7831L1004.24 24.6367H1004.45V25.1367ZM1038.36 25.1367C1038.36 26.6094 1037.17 27.8033 1035.7 27.8033C1034.22 27.8033 1033.03 26.6094 1033.03 25.1367C1033.03 23.6639 1034.22 22.47 1035.7 22.47C1037.17 22.47 1038.36 23.6639 1038.36 25.1367ZM776.487 10.2604C776.487 11.7332 775.293 12.9271 773.82 12.9271C772.348 12.9271 771.154 11.7332 771.154 10.2604C771.154 8.78763 772.348 7.59373 773.82 7.59373C775.293 7.59373 776.487 8.78763 776.487 10.2604ZM884.672 10.2604L885.026 10.6139L884.88 10.7604H884.672V10.2604ZM924.621 38.6595V39.1595H924.414L924.268 39.0131L924.621 38.6595ZM947.399 38.6595V38.1595H947.606L947.753 38.306L947.399 38.6595ZM954.042 45.3021V45.8021H953.834L953.688 45.6556L954.042 45.3021ZM1000.43 45.3021C1000.43 46.7748 999.239 47.9687 997.766 47.9687C996.293 47.9687 995.099 46.7748 995.099 45.3021C995.099 43.8293 996.293 42.6354 997.766 42.6354C999.239 42.6354 1000.43 43.8293 1000.43 45.3021ZM921.409 45.3021L921.762 44.9485L921.909 45.095V45.3021H921.409ZM921.409 54.8507L921.055 55.2042L920.909 55.0578V54.8507H921.409ZM889.994 4.9389L889.64 4.58535L889.787 4.4389H889.994V4.9389ZM904.955 4.9389C904.955 6.41166 903.761 7.60557 902.288 7.60557C900.816 7.60557 899.622 6.41166 899.622 4.9389C899.622 3.46614 900.816 2.27224 902.288 2.27224C903.761 2.27224 904.955 3.46614 904.955 4.9389ZM747.347 18.2668V17.7668H747.554L747.7 17.9133L747.347 18.2668ZM742.796 18.2668C742.796 19.7396 741.602 20.9335 740.129 20.9335C738.657 20.9335 737.463 19.7396 737.463 18.2668C737.463 16.7941 738.657 15.6002 740.129 15.6002C741.602 15.6002 742.796 16.7941 742.796 18.2668ZM892.661 45.3021C892.661 46.7748 891.467 47.9687 889.994 47.9687C888.521 47.9687 887.327 46.7748 887.327 45.3021C887.327 43.8293 888.521 42.6354 889.994 42.6354C891.467 42.6354 892.661 43.8293 892.661 45.3021ZM796.927 45.3021L796.573 44.9485L796.72 44.8021H796.927V45.3021ZM790.323 51.9062L790.676 52.2597L790.53 52.4062H790.323V51.9062ZM773.82 51.9062L773.467 51.5526L773.613 51.4062H773.82V51.9062ZM770.326 58.0674C770.326 59.5402 769.132 60.7341 767.659 60.7341C766.186 60.7341 764.992 59.5402 764.992 58.0674C764.992 56.5947 766.186 55.4008 767.659 55.4008C769.132 55.4008 770.326 56.5947 770.326 58.0674ZM262.599 20.2668L262.953 20.6203L262.806 20.7668H262.599V20.2668ZM142.954 20.2668V20.7668H142.747L142.6 20.6203L142.954 20.2668ZM136.026 13.3392V12.8392H136.233L136.38 12.9857L136.026 13.3392ZM43.9106 13.3392V13.8392H43.7036L43.5571 13.6928L43.9106 13.3392ZM34.1985 3.6272V3.1272H34.4056L34.5521 3.27364L34.1985 3.6272ZM12.4879 3.6272L12.1343 3.27364L12.2808 3.1272H12.4879V3.6272ZM5.44238 13.3392C5.44238 14.812 4.24854 16.0059 2.77576 16.0059C1.30298 16.0059 0.109131 14.812 0.109131 13.3392C0.109131 11.8664 1.30298 10.6725 2.77576 10.6725C4.24854 10.6725 5.44238 11.8664 5.44238 13.3392ZM306.202 27.1366C306.202 28.6094 305.008 29.8033 303.535 29.8033C302.062 29.8033 300.868 28.6094 300.868 27.1366C300.868 25.6639 302.062 24.47 303.535 24.47C305.008 24.47 306.202 25.6639 306.202 27.1366ZM106.513 27.1366V27.6366H106.305L106.159 27.4902L106.513 27.1366ZM306.202 33.8162C306.202 35.289 305.008 36.4829 303.535 36.4829C302.062 36.4829 300.868 35.289 300.868 33.8162C300.868 32.3434 302.062 31.1495 303.535 31.1495C305.008 31.1495 306.202 32.3434 306.202 33.8162ZM170.431 33.8162L170.078 33.4626L170.224 33.3162H170.431V33.8162ZM306.202 40.6595C306.202 42.1322 305.008 43.3262 303.535 43.3262C302.062 43.3262 300.868 42.1322 300.868 40.6595C300.868 39.1867 302.062 37.9928 303.535 37.9928C305.008 37.9928 306.202 39.1867 306.202 40.6595ZM172.575 40.6595L172.222 40.3059L172.368 40.1595H172.575V40.6595ZM99.6426 20.2668V19.7668H99.8497L99.9962 19.9132L99.6426 20.2668ZM43.9106 20.2668L43.5571 19.9132L43.7036 19.7668H43.9106V20.2668ZM39.7075 27.1366C39.7075 28.6094 38.5135 29.8033 37.0408 29.8033C35.568 29.8033 34.3741 28.6094 34.3741 27.1366C34.3741 25.6639 35.568 24.47 37.0408 24.47C38.5135 24.47 39.7075 25.6639 39.7075 27.1366ZM166.807 46.428L167.16 46.7816L167.014 46.928H166.807V46.428ZM133.887 46.428V46.928H133.68L133.534 46.7816L133.887 46.428ZM121.276 33.8162V33.3162H121.483L121.629 33.4626L121.276 33.8162ZM103.14 33.8162V34.3162H102.933L102.786 34.1697L103.14 33.8162ZM96.4601 27.1366V26.6366H96.6672L96.8137 26.7831L96.4601 27.1366ZM50.4603 27.1366C50.4603 28.6094 49.2664 29.8033 47.7936 29.8033C46.3209 29.8033 45.127 28.6094 45.127 27.1366C45.127 25.6639 46.3209 24.47 47.7936 24.47C49.2664 24.47 50.4603 25.6639 50.4603 27.1366ZM163.588 40.6595L163.942 41.013L163.795 41.1595H163.588V40.6595ZM139.824 40.6595C139.824 42.1322 138.63 43.3262 137.157 43.3262C135.684 43.3262 134.49 42.1322 134.49 40.6595C134.49 39.1867 135.684 37.9928 137.157 37.9928C138.63 37.9928 139.824 39.1867 139.824 40.6595ZM269.526 13.3392L269.173 12.9857L269.319 12.8392H269.526V13.3392ZM285.667 13.3392L286.02 13.6928L285.874 13.8392H285.667V13.3392ZM295.379 3.6272L295.025 3.27364L295.172 3.1272H295.379V3.6272ZM306.202 3.6272C306.202 5.09996 305.008 6.29386 303.535 6.29386C302.062 6.29386 300.868 5.09996 300.868 3.6272C300.868 2.15444 302.062 0.960531 303.535 0.960531C305.008 0.960531 306.202 2.15444 306.202 3.6272ZM207.077 52.9398L206.724 52.5863L206.87 52.4398H207.077V52.9398ZM285.667 52.9398V52.4398H285.874L286.02 52.5863L285.667 52.9398ZM298.045 62.6518C298.045 64.1246 296.851 65.3185 295.379 65.3185C293.906 65.3185 292.712 64.1246 292.712 62.6518C292.712 61.1791 293.906 59.9852 295.379 59.9852C296.851 59.9852 298.045 61.1791 298.045 62.6518ZM937.548 70.9904L937.902 70.6368L938.048 70.7833V70.9904H937.548ZM940.215 84.4884C940.215 85.9612 939.021 87.1551 937.548 87.1551C936.076 87.1551 934.882 85.9612 934.882 84.4884C934.882 83.0157 936.076 81.8218 937.548 81.8218C939.021 81.8218 940.215 83.0157 940.215 84.4884ZM197.365 62.6518H196.865V62.4447L197.012 62.2983L197.365 62.6518ZM200.032 83.6017C200.032 85.0745 198.838 86.2684 197.365 86.2684C195.893 86.2684 194.699 85.0745 194.699 83.6017C194.699 82.1289 195.893 80.935 197.365 80.935C198.838 80.935 200.032 82.1289 200.032 83.6017ZM773.82 17.7668H947.399V18.7668H773.82V17.7668ZM754.216 24.6367H944.126V25.6367H754.216V24.6367ZM740.129 31.3162H917.778V32.3162H740.129V31.3162ZM740.129 38.1595H914.766V39.1595H740.129V38.1595ZM947.753 17.9133L961.302 31.4627L960.595 32.1698L947.045 18.6204L947.753 17.9133ZM960.948 31.3162H997.766V32.3162H960.948V31.3162ZM997.412 31.4627L1004.09 24.7831L1004.8 25.4902L998.12 32.1698L997.412 31.4627ZM1004.45 24.6367H1035.7V25.6367H1004.45V24.6367ZM773.82 9.76039H884.672V10.7604H773.82V9.76039ZM918.132 31.4627L924.975 38.306L924.268 39.0131L917.425 32.1698L918.132 31.4627ZM924.621 38.1595H947.399V39.1595H924.621V38.1595ZM947.753 38.306L954.395 44.9485L953.688 45.6556L947.045 39.0131L947.753 38.306ZM954.042 44.8021H997.766V45.8021H954.042V44.8021ZM915.12 38.306L921.762 44.9485L921.055 45.6556L914.413 39.0131L915.12 38.306ZM921.909 45.3021V54.8507H920.909V45.3021H921.909ZM884.319 9.90684L889.64 4.58535L890.347 5.29246L885.026 10.6139L884.319 9.90684ZM889.994 4.4389H902.288V5.4389H889.994V4.4389ZM753.863 25.4902L746.993 18.6204L747.7 17.9133L754.57 24.7831L753.863 25.4902ZM747.347 18.7668H740.129V17.7668H747.347V18.7668ZM889.994 45.8021H796.927V44.8021H889.994V45.8021ZM797.28 45.6556L790.676 52.2597L789.969 51.5526L796.573 44.9485L797.28 45.6556ZM790.323 52.4062H773.82V51.4062H790.323V52.4062ZM774.174 52.2597L768.013 58.421L767.305 57.7139L773.467 51.5526L774.174 52.2597ZM262.599 20.7668H142.954V19.7668H262.599V20.7668ZM142.6 20.6203L135.673 13.6928L136.38 12.9857L143.307 19.9132L142.6 20.6203ZM136.026 13.8392H43.9106V12.8392H136.026V13.8392ZM43.5571 13.6928L33.8449 3.98075L34.5521 3.27364L44.2642 12.9857L43.5571 13.6928ZM34.1985 4.1272H12.4879V3.1272H34.1985V4.1272ZM12.8415 3.98075L3.12927 13.6928L2.42224 12.9857L12.1343 3.27364L12.8415 3.98075ZM303.535 27.6366H106.513V26.6366H303.535V27.6366ZM303.535 34.3162H170.431V33.3162H303.535V34.3162ZM303.535 41.1595H172.575V40.1595H303.535V41.1595ZM106.159 27.4902L99.2891 20.6203L99.9962 19.9132L106.866 26.7831L106.159 27.4902ZM99.6426 20.7668H43.9106V19.7668H99.6426V20.7668ZM44.2642 20.6203L37.3943 27.4902L36.6872 26.7831L43.5571 19.9132L44.2642 20.6203ZM172.929 41.013L167.16 46.7816L166.453 46.0745L172.222 40.3059L172.929 41.013ZM166.807 46.928H133.887V45.928H166.807V46.928ZM133.534 46.7816L120.922 34.1697L121.629 33.4626L134.241 46.0745L133.534 46.7816ZM121.276 34.3162H103.14V33.3162H121.276V34.3162ZM102.786 34.1697L96.1065 27.4902L96.8137 26.7831L103.493 33.4626L102.786 34.1697ZM96.4601 27.6366H47.7936V26.6366H96.4601V27.6366ZM170.785 34.1697L163.942 41.013L163.234 40.3059L170.078 33.4626L170.785 34.1697ZM163.588 41.1595H137.157V40.1595H163.588V41.1595ZM262.245 19.9132L269.173 12.9857L269.88 13.6928L262.953 20.6203L262.245 19.9132ZM269.526 12.8392H285.667V13.8392H269.526V12.8392ZM285.313 12.9857L295.025 3.27364L295.732 3.98075L286.02 13.6928L285.313 12.9857ZM295.379 3.1272H303.535V4.1272H295.379V3.1272ZM207.077 52.4398H285.667V53.4398H207.077V52.4398ZM286.02 52.5863L295.732 62.2983L295.025 63.0054L285.313 53.2934L286.02 52.5863ZM921.762 54.4971L937.902 70.6368L937.195 71.3439L921.055 55.2042L921.762 54.4971ZM938.048 70.9904V84.4884H937.048V70.9904H938.048ZM207.431 53.2934L197.719 63.0054L197.012 62.2983L206.724 52.5863L207.431 53.2934ZM197.865 62.6518V83.6017H196.865V62.6518H197.865Z" fill="#C624FF" />
</svg>