<svg width="1039" height="87" viewBox="0 0 1039 87" fill="none" xmlns="http://www.w3.org/2000/svg">
  <path d="M262.248 17.77C262.248 19.2428 263.442 20.4367 264.915 20.4367C266.388 20.4367 267.581 19.2428 267.581 17.77C267.581 16.2972 266.388 15.1033 264.915 15.1033C263.442 15.1033 262.248 16.2972 262.248 17.77ZM91.3356 17.77V17.27H91.1285L90.982 17.4164L91.3356 17.77ZM296.519 24.6399V25.1399H296.726L296.872 24.9934L296.519 24.6399ZM91.942 24.6399C91.942 26.1126 93.1359 27.3065 94.6087 27.3065C96.0814 27.3065 97.2753 26.1126 97.2753 24.6399C97.2753 23.1671 96.0814 21.9732 94.6087 21.9732C93.1359 21.9732 91.942 23.1671 91.942 24.6399ZM307.939 31.3194C307.939 32.7922 309.133 33.9861 310.606 33.9861C312.079 33.9861 313.272 32.7922 313.272 31.3194C313.272 29.8467 312.079 28.6528 310.606 28.6528C309.133 28.6528 307.939 29.8467 307.939 31.3194ZM120.957 31.3194V30.8194H120.749L120.603 30.9659L120.957 31.3194ZM307.939 38.1627C307.939 39.6355 309.133 40.8294 310.606 40.8294C312.079 40.8294 313.272 39.6355 313.272 38.1627C313.272 36.69 312.079 35.4961 310.606 35.4961C309.133 35.4961 307.939 36.69 307.939 38.1627ZM123.969 38.1627V37.6627H123.761L123.615 37.8092L123.969 38.1627ZM77.7862 31.3194V31.8194H77.9933L78.1397 31.673L77.7862 31.3194ZM40.9685 31.3194L40.615 31.673L40.7614 31.8194H40.9685V31.3194ZM34.2889 24.6399L34.6425 24.2863L34.4961 24.1399H34.2889V24.6399ZM0.371907 24.6399C0.371907 26.1126 1.56581 27.3065 3.03857 27.3065C4.51133 27.3065 5.70524 26.1126 5.70524 24.6399C5.70524 23.1671 4.51133 21.9732 3.03857 21.9732C1.56581 21.9732 0.371907 23.1671 0.371907 24.6399ZM262.248 9.76357C262.248 11.2363 263.442 12.4302 264.915 12.4302C266.388 12.4302 267.581 11.2363 267.581 9.76357C267.581 8.29081 266.388 7.0969 264.915 7.0969C263.442 7.0969 262.248 8.29081 262.248 9.76357ZM154.062 9.76357L153.709 10.1171L153.855 10.2636H154.062V9.76357ZM114.113 38.1627V38.6627H114.32L114.467 38.5163L114.113 38.1627ZM91.3356 38.1627V37.6627H91.1285L90.982 37.8092L91.3356 38.1627ZM84.6931 44.8052V45.3052H84.9002L85.0466 45.1588L84.6931 44.8052ZM38.3018 44.8052C38.3018 46.278 39.4958 47.4719 40.9685 47.4719C42.4413 47.4719 43.6352 46.278 43.6352 44.8052C43.6352 43.3325 42.4413 42.1386 40.9685 42.1386C39.4958 42.1386 38.3018 43.3325 38.3018 44.8052ZM117.326 44.8052L116.972 44.4517L116.826 44.5981V44.8052H117.326ZM114.659 54.3538C114.659 55.8266 115.853 57.0205 117.326 57.0205C118.799 57.0205 119.993 55.8266 119.993 54.3538C119.993 52.8811 118.799 51.6872 117.326 51.6872C115.853 51.6872 114.659 52.8811 114.659 54.3538ZM148.741 4.44208L149.094 4.08852L148.948 3.94208H148.741V4.44208ZM133.78 4.44208C133.78 5.91484 134.974 7.10874 136.446 7.10874C137.919 7.10874 139.113 5.91484 139.113 4.44208C139.113 2.96932 137.919 1.77541 136.446 1.77541C134.974 1.77541 133.78 2.96932 133.78 4.44208ZM303.389 17.77V17.27H303.181L303.035 17.4165L303.389 17.77ZM307.939 17.77C307.939 19.2428 309.133 20.4367 310.606 20.4367C312.079 20.4367 313.272 19.2428 313.272 17.77C313.272 16.2972 312.079 15.1033 310.606 15.1033C309.133 15.1033 307.939 16.2972 307.939 17.77ZM146.074 44.8052C146.074 46.278 147.268 47.4719 148.741 47.4719C150.214 47.4719 151.408 46.278 151.408 44.8052C151.408 43.3325 150.214 42.1386 148.741 42.1386C147.268 42.1386 146.074 43.3325 146.074 44.8052ZM241.808 44.8052L242.162 44.4517L242.015 44.3052H241.808V44.8052ZM248.412 51.4093L248.059 51.7629L248.205 51.9093H248.412V51.4093ZM264.915 51.4093L265.268 51.0558L265.122 50.9093H264.915V51.4093ZM271.076 57.5706H271.576V57.3635L271.43 57.217L271.076 57.5706ZM271.076 77.5448H270.576V77.752L270.723 77.8984L271.076 77.5448ZM274.205 83.3405C274.205 84.8133 275.399 86.0072 276.872 86.0072C278.345 86.0072 279.538 84.8133 279.538 83.3405C279.538 81.8678 278.345 80.6739 276.872 80.6739C275.399 80.6739 274.205 81.8678 274.205 83.3405ZM763.138 19.7699L762.784 20.1235L762.93 20.2699H763.138V19.7699ZM895.783 19.7699V20.2699H895.99L896.137 20.1235L895.783 19.7699ZM902.711 12.8424V12.3424H902.504L902.357 12.4888L902.711 12.8424ZM994.826 12.8424V13.3424H995.034L995.18 13.1959L994.826 12.8424ZM1004.54 3.13037V2.63037H1004.33L1004.19 2.77682L1004.54 3.13037ZM1026.25 3.13037L1026.6 2.77682L1026.46 2.63037H1026.25V3.13037ZM1033.29 12.8424C1033.29 14.3151 1034.49 15.509 1035.96 15.509C1037.43 15.509 1038.63 14.3151 1038.63 12.8424C1038.63 11.3696 1037.43 10.1757 1035.96 10.1757C1034.49 10.1757 1033.29 11.3696 1033.29 12.8424ZM719.535 26.6398C719.535 28.1126 720.729 29.3065 722.201 29.3065C723.674 29.3065 724.868 28.1126 724.868 26.6398C724.868 25.167 723.674 23.9731 722.201 23.9731C720.729 23.9731 719.535 25.167 719.535 26.6398ZM932.224 26.6398V27.1398H932.432L932.578 26.9934L932.224 26.6398ZM719.535 33.3194C719.535 34.7921 720.729 35.986 722.201 35.986C723.674 35.986 724.868 34.7921 724.868 33.3194C724.868 31.8466 723.674 30.6527 722.201 30.6527C720.729 30.6527 719.535 31.8466 719.535 33.3194ZM868.305 33.3194L868.659 32.9658L868.513 32.8194H868.305V33.3194ZM719.535 40.1627C719.535 41.6354 720.729 42.8293 722.201 42.8293C723.674 42.8293 724.868 41.6354 724.868 40.1627C724.868 38.6899 723.674 37.496 722.201 37.496C720.729 37.496 719.535 38.6899 719.535 40.1627ZM866.162 40.1627L866.515 39.8091L866.369 39.6627H866.162V40.1627ZM939.094 19.7699V19.2699H938.887L938.741 19.4164L939.094 19.7699ZM994.826 19.7699L995.18 19.4164L995.034 19.2699H994.826V19.7699ZM999.03 26.6398C999.03 28.1126 1000.22 29.3065 1001.7 29.3065C1003.17 29.3065 1004.36 28.1126 1004.36 26.6398C1004.36 25.167 1003.17 23.9731 1001.7 23.9731C1000.22 23.9731 999.03 25.167 999.03 26.6398ZM871.93 45.9312L871.577 46.2848L871.723 46.4312H871.93V45.9312ZM904.849 45.9312V46.4312H905.057L905.203 46.2848L904.849 45.9312ZM917.461 33.3194V32.8194H917.254L917.108 32.9658L917.461 33.3194ZM935.597 33.3194V33.8194H935.804L935.951 33.6729L935.597 33.3194ZM942.277 26.6398V26.1398H942.07L941.923 26.2862L942.277 26.6398ZM988.277 26.6398C988.277 28.1126 989.471 29.3065 990.943 29.3065C992.416 29.3065 993.61 28.1126 993.61 26.6398C993.61 25.167 992.416 23.9731 990.943 23.9731C989.471 23.9731 988.277 25.167 988.277 26.6398ZM875.149 40.1627L874.795 40.5162L874.942 40.6627H875.149V40.1627ZM898.913 40.1627C898.913 41.6354 900.107 42.8293 901.58 42.8293C903.053 42.8293 904.247 41.6354 904.247 40.1627C904.247 38.6899 903.053 37.496 901.58 37.496C900.107 37.496 898.913 38.6899 898.913 40.1627ZM756.21 12.8424L756.564 12.4888L756.417 12.3424H756.21V12.8424ZM740.07 12.8424L739.716 13.1959L739.863 13.3424H740.07V12.8424ZM730.358 3.13037L730.711 2.77682L730.565 2.63037H730.358V3.13037ZM719.535 3.13037C719.535 4.60313 720.729 5.79704 722.201 5.79704C723.674 5.79704 724.868 4.60313 724.868 3.13037C724.868 1.65761 723.674 0.463704 722.201 0.463704C720.729 0.463704 719.535 1.65761 719.535 3.13037ZM835.504 45.9312C835.504 47.404 836.698 48.5979 838.171 48.5979C839.644 48.5979 840.838 47.404 840.838 45.9312C840.838 44.4584 839.644 43.2645 838.171 43.2645C836.698 43.2645 835.504 44.4584 835.504 45.9312ZM831.659 52.443V52.943H831.866L832.013 52.7966L831.659 52.443ZM740.07 52.443V51.943H739.863L739.716 52.0895L740.07 52.443ZM727.691 62.155C727.691 63.6278 728.885 64.8217 730.358 64.8217C731.831 64.8217 733.024 63.6278 733.024 62.155C733.024 60.6823 731.831 59.4883 730.358 59.4883C728.885 59.4883 727.691 60.6823 727.691 62.155ZM264.915 17.27H91.3356V18.27H264.915V17.27ZM296.519 24.1399H94.6087V25.1399H296.519V24.1399ZM310.606 30.8194H120.957V31.8194H310.606V30.8194ZM310.606 37.6627H123.969V38.6627H310.606V37.6627ZM90.982 17.4164L77.4326 30.9659L78.1397 31.673L91.6891 18.1236L90.982 17.4164ZM77.7862 30.8194H40.9685V31.8194H77.7862V30.8194ZM41.3221 30.9659L34.6425 24.2863L33.9354 24.9934L40.615 31.673L41.3221 30.9659ZM34.2889 24.1399H3.03857V25.1399H34.2889V24.1399ZM264.915 9.26357H154.062V10.2636H264.915V9.26357ZM120.603 30.9659L113.76 37.8092L114.467 38.5163L121.31 31.673L120.603 30.9659ZM114.113 37.6627H91.3356V38.6627H114.113V37.6627ZM90.982 37.8092L84.3395 44.4517L85.0466 45.1588L91.6891 38.5163L90.982 37.8092ZM84.6931 44.3052H40.9685V45.3052H84.6931V44.3052ZM123.615 37.8092L116.972 44.4517L117.68 45.1588L124.322 38.5163L123.615 37.8092ZM116.826 44.8052V54.3538H117.826V44.8052H116.826ZM154.416 9.41001L149.094 4.08852L148.387 4.79563L153.709 10.1171L154.416 9.41001ZM148.741 3.94208H136.446V4.94208H148.741V3.94208ZM296.872 24.9934L303.742 18.1236L303.035 17.4165L296.165 24.2863L296.872 24.9934ZM303.389 18.27H310.606V17.27H303.389V18.27ZM148.741 45.3052H241.808V44.3052H148.741V45.3052ZM241.455 45.1588L248.059 51.7629L248.766 51.0558L242.162 44.4517L241.455 45.1588ZM248.412 51.9093H264.915V50.9093H248.412V51.9093ZM264.561 51.7629L270.723 57.9242L271.43 57.217L265.268 51.0558L264.561 51.7629ZM270.576 57.5706V77.5448H271.576V57.5706H270.576ZM270.723 77.8984L276.518 83.6941L277.225 82.987L271.43 77.1913L270.723 77.8984ZM763.138 20.2699H895.783V19.2699H763.138V20.2699ZM896.137 20.1235L903.064 13.1959L902.357 12.4888L895.429 19.4164L896.137 20.1235ZM902.711 13.3424H994.826V12.3424H902.711V13.3424ZM995.18 13.1959L1004.89 3.48393L1004.19 2.77682L994.473 12.4888L995.18 13.1959ZM1004.54 3.63037H1026.25V2.63037H1004.54V3.63037ZM1025.9 3.48393L1035.61 13.1959L1036.31 12.4888L1026.6 2.77682L1025.9 3.48393ZM722.201 27.1398H932.224V26.1398H722.201V27.1398ZM722.201 33.8194H868.305V32.8194H722.201V33.8194ZM722.201 40.6627H866.162V39.6627H722.201V40.6627ZM932.578 26.9934L939.448 20.1235L938.741 19.4164L931.871 26.2862L932.578 26.9934ZM939.094 20.2699H994.826V19.2699H939.094V20.2699ZM994.473 20.1235L1001.34 26.9934L1002.05 26.2862L995.18 19.4164L994.473 20.1235ZM865.808 40.5162L871.577 46.2848L872.284 45.5776L866.515 39.8091L865.808 40.5162ZM871.93 46.4312H904.849V45.4312H871.93V46.4312ZM905.203 46.2848L917.815 33.6729L917.108 32.9658L904.496 45.5776L905.203 46.2848ZM917.461 33.8194H935.597V32.8194H917.461V33.8194ZM935.951 33.6729L942.63 26.9934L941.923 26.2862L935.244 32.9658L935.951 33.6729ZM942.277 27.1398H990.943V26.1398H942.277V27.1398ZM867.952 33.6729L874.795 40.5162L875.502 39.8091L868.659 32.9658L867.952 33.6729ZM875.149 40.6627H901.58V39.6627H875.149V40.6627ZM763.491 19.4164L756.564 12.4888L755.856 13.1959L762.784 20.1235L763.491 19.4164ZM756.21 12.3424H740.07V13.3424H756.21V12.3424ZM740.423 12.4888L730.711 2.77682L730.004 3.48392L739.716 13.1959L740.423 12.4888ZM730.358 2.63037H722.201V3.63037H730.358V2.63037ZM837.818 45.5776L831.306 52.0895L832.013 52.7966L838.525 46.2848L837.818 45.5776ZM831.659 51.943H740.07V52.943H831.659V51.943ZM739.716 52.0895L730.004 61.8015L730.711 62.5086L740.423 52.7966L739.716 52.0895Z" fill="#2490FF" />
</svg>