<svg width="1039" height="87" viewBox="0 0 1039 87" fill="none" xmlns="http://www.w3.org/2000/svg">
  <path d="M290.797 18.1618C290.797 19.6346 291.991 20.8285 293.464 20.8285C294.937 20.8285 296.131 19.6346 296.131 18.1618C296.131 16.6891 294.937 15.4952 293.464 15.4952C291.991 15.4952 290.797 16.6891 290.797 18.1618ZM91.3356 18.1618V17.6618H91.1285L90.982 17.8083L91.3356 18.1618ZM296.519 25.0317V25.5317H296.726L296.872 25.3853L296.519 25.0317ZM91.942 25.0317C91.942 26.5045 93.1359 27.6984 94.6087 27.6984C96.0814 27.6984 97.2753 26.5045 97.2753 25.0317C97.2753 23.5589 96.0814 22.365 94.6087 22.365C93.1359 22.365 91.942 23.5589 91.942 25.0317ZM338.034 31.7113C338.034 33.184 339.227 34.3779 340.7 34.3779C342.173 34.3779 343.367 33.184 343.367 31.7113C343.367 30.2385 342.173 29.0446 340.7 29.0446C339.227 29.0446 338.034 30.2385 338.034 31.7113ZM120.957 31.7113V31.2113H120.749L120.603 31.3577L120.957 31.7113ZM310.606 38.5546L310.959 38.201L310.813 38.0546H310.606V38.5546ZM123.969 38.5546V38.0546H123.761L123.615 38.201L123.969 38.5546ZM77.7862 31.7113V32.2113H77.9933L78.1397 32.0648L77.7862 31.7113ZM40.9685 31.7113L40.615 32.0648L40.7614 32.2113H40.9685V31.7113ZM34.2889 25.0317L34.6425 24.6781L34.4961 24.5317H34.2889V25.0317ZM0.371907 25.0317C0.371907 26.5045 1.56581 27.6984 3.03857 27.6984C4.51133 27.6984 5.70524 26.5045 5.70524 25.0317C5.70524 23.5589 4.51133 22.365 3.03857 22.365C1.56581 22.365 0.371907 23.5589 0.371907 25.0317ZM264.915 10.1554V10.6554H265.122L265.268 10.509L264.915 10.1554ZM154.062 10.1554L153.709 10.509L153.855 10.6554H154.062V10.1554ZM114.113 38.5546V39.0546H114.32L114.467 38.9081L114.113 38.5546ZM91.3356 38.5546V38.0546H91.1285L90.982 38.201L91.3356 38.5546ZM84.6931 45.1971V45.6971H84.9002L85.0466 45.5506L84.6931 45.1971ZM38.3018 45.1971C38.3018 46.6698 39.4958 47.8638 40.9685 47.8638C42.4413 47.8638 43.6352 46.6698 43.6352 45.1971C43.6352 43.7243 42.4413 42.5304 40.9685 42.5304C39.4958 42.5304 38.3018 43.7243 38.3018 45.1971ZM117.326 45.1971L116.972 44.8435L116.826 44.99V45.1971H117.326ZM114.659 54.7457C114.659 56.2184 115.853 57.4123 117.326 57.4123C118.799 57.4123 119.993 56.2184 119.993 54.7457C119.993 53.2729 118.799 52.079 117.326 52.079C115.853 52.079 114.659 53.2729 114.659 54.7457ZM148.741 4.83392L149.094 4.48037L148.948 4.33392H148.741V4.83392ZM133.78 4.83392C133.78 6.30668 134.974 7.50059 136.446 7.50059C137.919 7.50059 139.113 6.30668 139.113 4.83392C139.113 3.36116 137.919 2.16726 136.446 2.16726C134.974 2.16726 133.78 3.36116 133.78 4.83392ZM303.389 18.1618V17.6618H303.181L303.035 17.8083L303.389 18.1618ZM338.034 18.1618C338.034 19.6346 339.227 20.8285 340.7 20.8285C342.173 20.8285 343.367 19.6346 343.367 18.1618C343.367 16.6891 342.173 15.4952 340.7 15.4952C339.227 15.4952 338.034 16.6891 338.034 18.1618ZM146.074 45.1971C146.074 46.6698 147.268 47.8638 148.741 47.8638C150.214 47.8638 151.408 46.6698 151.408 45.1971C151.408 43.7243 150.214 42.5304 148.741 42.5304C147.268 42.5304 146.074 43.7243 146.074 45.1971ZM241.808 45.1971L242.162 44.8435L242.015 44.6971H241.808V45.1971ZM248.412 51.8012L248.059 52.1547L248.205 52.3012H248.412V51.8012ZM264.915 51.8012L265.268 51.4476L265.122 51.3012H264.915V51.8012ZM271.076 57.9624H271.576V57.7553L271.43 57.6089L271.076 57.9624ZM271.076 77.9367H270.576V78.1438L270.723 78.2902L271.076 77.9367ZM274.205 83.7324C274.205 85.2051 275.399 86.399 276.872 86.399C278.345 86.399 279.538 85.2051 279.538 83.7324C279.538 82.2596 278.345 81.0657 276.872 81.0657C275.399 81.0657 274.205 82.2596 274.205 83.7324ZM763.138 20.1618L762.784 20.5153L762.93 20.6618H763.138V20.1618ZM895.783 20.1618V20.6618H895.99L896.137 20.5153L895.783 20.1618ZM902.711 13.2342V12.7342H902.504L902.357 12.8807L902.711 13.2342ZM994.826 13.2342V13.7342H995.034L995.18 13.5878L994.826 13.2342ZM1004.54 3.52222V3.02222H1004.33L1004.19 3.16866L1004.54 3.52222ZM1026.25 3.52222L1026.6 3.16866L1026.46 3.02222H1026.25V3.52222ZM1033.29 13.2342C1033.29 14.707 1034.49 15.9009 1035.96 15.9009C1037.43 15.9009 1038.63 14.707 1038.63 13.2342C1038.63 11.7615 1037.43 10.5676 1035.96 10.5676C1034.49 10.5676 1033.29 11.7615 1033.29 13.2342ZM681.54 27.0316C681.54 28.5044 682.734 29.6983 684.207 29.6983C685.68 29.6983 686.874 28.5044 686.874 27.0316C686.874 25.5589 685.68 24.365 684.207 24.365C682.734 24.365 681.54 25.5589 681.54 27.0316ZM932.224 27.0316V27.5316H932.432L932.578 27.3852L932.224 27.0316ZM681.54 33.7112C681.54 35.184 682.734 36.3779 684.207 36.3779C685.68 36.3779 686.874 35.184 686.874 33.7112C686.874 32.2385 685.68 31.0445 684.207 31.0445C682.734 31.0445 681.54 32.2385 681.54 33.7112ZM868.305 33.7112L868.659 33.3577L868.513 33.2112H868.305V33.7112ZM722.201 40.5545V40.0545H721.994L721.848 40.201L722.201 40.5545ZM866.162 40.5545L866.515 40.201L866.369 40.0545H866.162V40.5545ZM939.094 20.1618V19.6618H938.887L938.741 19.8082L939.094 20.1618ZM994.826 20.1618L995.18 19.8082L995.034 19.6618H994.826V20.1618ZM999.03 27.0316C999.03 28.5044 1000.22 29.6983 1001.7 29.6983C1003.17 29.6983 1004.36 28.5044 1004.36 27.0316C1004.36 25.5589 1003.17 24.365 1001.7 24.365C1000.22 24.365 999.03 25.5589 999.03 27.0316ZM871.93 46.323L871.577 46.6766L871.723 46.823H871.93V46.323ZM904.849 46.323V46.823H905.057L905.203 46.6766L904.849 46.323ZM917.461 33.7112V33.2112H917.254L917.108 33.3577L917.461 33.7112ZM935.597 33.7112V34.2112H935.804L935.951 34.0648L935.597 33.7112ZM942.277 27.0316V26.5316H942.07L941.923 26.6781L942.277 27.0316ZM988.277 27.0316C988.277 28.5044 989.471 29.6983 990.943 29.6983C992.416 29.6983 993.61 28.5044 993.61 27.0316C993.61 25.5589 992.416 24.365 990.943 24.365C989.471 24.365 988.277 25.5589 988.277 27.0316ZM875.149 40.5545L874.795 40.9081L874.942 41.0545H875.149V40.5545ZM898.913 40.5545C898.913 42.0273 900.107 43.2212 901.58 43.2212C903.053 43.2212 904.247 42.0273 904.247 40.5545C904.247 39.0817 903.053 37.8878 901.58 37.8878C900.107 37.8878 898.913 39.0817 898.913 40.5545ZM756.21 13.2342L756.564 12.8807L756.417 12.7342H756.21V13.2342ZM740.07 13.2342L739.716 13.5878L739.863 13.7342H740.07V13.2342ZM730.358 3.52222L730.711 3.16866L730.565 3.02222H730.358V3.52222ZM681.54 3.52222C681.54 4.99498 682.734 6.18888 684.207 6.18888C685.68 6.18888 686.874 4.99498 686.874 3.52222C686.874 2.04946 685.68 0.85555 684.207 0.85555C682.734 0.85555 681.54 2.04946 681.54 3.52222ZM835.504 46.323C835.504 47.7958 836.698 48.9897 838.171 48.9897C839.644 48.9897 840.838 47.7958 840.838 46.323C840.838 44.8503 839.644 43.6564 838.171 43.6564C836.698 43.6564 835.504 44.8503 835.504 46.323ZM831.659 52.8349V53.3349H831.866L832.013 53.1884L831.659 52.8349ZM740.07 52.8349V52.3349H739.863L739.716 52.4813L740.07 52.8349ZM727.691 62.5469C727.691 64.0196 728.885 65.2135 730.358 65.2135C731.831 65.2135 733.024 64.0196 733.024 62.5469C733.024 61.0741 731.831 59.8802 730.358 59.8802C728.885 59.8802 727.691 61.0741 727.691 62.5469ZM716.433 46.323V46.823H716.64L716.786 46.6766L716.433 46.323ZM681.54 46.323C681.54 47.7958 682.734 48.9897 684.207 48.9897C685.68 48.9897 686.874 47.7958 686.874 46.323C686.874 44.8503 685.68 43.6564 684.207 43.6564C682.734 43.6564 681.54 44.8503 681.54 46.323ZM317.248 45.1971L316.895 45.5506L317.041 45.6971H317.248V45.1971ZM338.034 45.1971C338.034 46.6698 339.227 47.8638 340.7 47.8638C342.173 47.8638 343.367 46.6698 343.367 45.1971C343.367 43.7243 342.173 42.5304 340.7 42.5304C339.227 42.5304 338.034 43.7243 338.034 45.1971ZM270.236 4.83392V4.33392H270.029L269.883 4.48037L270.236 4.83392ZM300.722 4.83392C300.722 6.30668 301.916 7.50059 303.389 7.50059C304.861 7.50059 306.055 6.30668 306.055 4.83392C306.055 3.36116 304.861 2.16726 303.389 2.16726C301.916 2.16726 300.722 3.36116 300.722 4.83392ZM293.464 17.6618H91.3356V18.6618H293.464V17.6618ZM296.519 24.5317H94.6087V25.5317H296.519V24.5317ZM340.7 31.2113H120.957V32.2113H340.7V31.2113ZM310.606 38.0546H123.969V39.0546H310.606V38.0546ZM90.982 17.8083L77.4326 31.3577L78.1397 32.0648L91.6891 18.5154L90.982 17.8083ZM77.7862 31.2113H40.9685V32.2113H77.7862V31.2113ZM41.3221 31.3577L34.6425 24.6781L33.9354 25.3853L40.615 32.0648L41.3221 31.3577ZM34.2889 24.5317H3.03857V25.5317H34.2889V24.5317ZM264.915 9.65541H154.062V10.6554H264.915V9.65541ZM120.603 31.3577L113.76 38.201L114.467 38.9081L121.31 32.0648L120.603 31.3577ZM114.113 38.0546H91.3356V39.0546H114.113V38.0546ZM90.982 38.201L84.3395 44.8435L85.0466 45.5506L91.6891 38.9081L90.982 38.201ZM84.6931 44.6971H40.9685V45.6971H84.6931V44.6971ZM123.615 38.201L116.972 44.8435L117.68 45.5506L124.322 38.9081L123.615 38.201ZM116.826 45.1971V54.7457H117.826V45.1971H116.826ZM154.416 9.80186L149.094 4.48037L148.387 5.18748L153.709 10.509L154.416 9.80186ZM148.741 4.33392H136.446V5.33392H148.741V4.33392ZM296.872 25.3853L303.742 18.5154L303.035 17.8083L296.165 24.6781L296.872 25.3853ZM303.389 18.6618H340.7V17.6618H303.389V18.6618ZM148.741 45.6971H241.808V44.6971H148.741V45.6971ZM241.455 45.5506L248.059 52.1547L248.766 51.4476L242.162 44.8435L241.455 45.5506ZM248.412 52.3012H264.915V51.3012H248.412V52.3012ZM264.561 52.1547L270.723 58.316L271.43 57.6089L265.268 51.4476L264.561 52.1547ZM270.576 57.9624V77.9367H271.576V57.9624H270.576ZM270.723 78.2902L276.518 84.0859L277.225 83.3788L271.43 77.5831L270.723 78.2902ZM763.138 20.6618H895.783V19.6618H763.138V20.6618ZM896.137 20.5153L903.064 13.5878L902.357 12.8807L895.429 19.8082L896.137 20.5153ZM902.711 13.7342H994.826V12.7342H902.711V13.7342ZM995.18 13.5878L1004.89 3.87577L1004.19 3.16866L994.473 12.8807L995.18 13.5878ZM1004.54 4.02222H1026.25V3.02222H1004.54V4.02222ZM1025.9 3.87577L1035.61 13.5878L1036.31 12.8807L1026.6 3.16866L1025.9 3.87577ZM684.207 27.5316H932.224V26.5316H684.207V27.5316ZM684.207 34.2112H868.305V33.2112H684.207V34.2112ZM722.201 41.0545H866.162V40.0545H722.201V41.0545ZM932.578 27.3852L939.448 20.5153L938.741 19.8082L931.871 26.6781L932.578 27.3852ZM939.094 20.6618H994.826V19.6618H939.094V20.6618ZM994.473 20.5153L1001.34 27.3852L1002.05 26.6781L995.18 19.8082L994.473 20.5153ZM865.808 40.9081L871.577 46.6766L872.284 45.9695L866.515 40.201L865.808 40.9081ZM871.93 46.823H904.849V45.823H871.93V46.823ZM905.203 46.6766L917.815 34.0648L917.108 33.3577L904.496 45.9695L905.203 46.6766ZM917.461 34.2112H935.597V33.2112H917.461V34.2112ZM935.951 34.0648L942.63 27.3852L941.923 26.6781L935.244 33.3577L935.951 34.0648ZM942.277 27.5316H990.943V26.5316H942.277V27.5316ZM867.952 34.0648L874.795 40.9081L875.502 40.201L868.659 33.3577L867.952 34.0648ZM875.149 41.0545H901.58V40.0545H875.149V41.0545ZM763.491 19.8082L756.564 12.8807L755.856 13.5878L762.784 20.5153L763.491 19.8082ZM756.21 12.7342H740.07V13.7342H756.21V12.7342ZM740.423 12.8807L730.711 3.16866L730.004 3.87577L739.716 13.5878L740.423 12.8807ZM730.358 3.02222H684.207V4.02222H730.358V3.02222ZM837.818 45.9695L831.306 52.4813L832.013 53.1884L838.525 46.6766L837.818 45.9695ZM831.659 52.3349H740.07V53.3349H831.659V52.3349ZM739.716 52.4813L730.004 62.1933L730.711 62.9004L740.423 53.1884L739.716 52.4813ZM721.848 40.201L716.079 45.9695L716.786 46.6766L722.555 40.9081L721.848 40.201ZM716.433 45.823H684.207V46.823H716.433V45.823ZM310.252 38.9081L316.895 45.5506L317.602 44.8435L310.959 38.201L310.252 38.9081ZM317.248 45.6971H340.7V44.6971H317.248V45.6971ZM265.268 10.509L270.59 5.18748L269.883 4.48037L264.561 9.80186L265.268 10.509ZM270.236 5.33392H303.389V4.33392H270.236V5.33392Z" fill="#6C69F7" />
</svg>