<svg width="52" height="51" viewBox="0 0 52 51" fill="none" xmlns="http://www.w3.org/2000/svg">
  <path fill-rule="evenodd" clip-rule="evenodd" d="M31.7822 0.405273H33.0322H50.0958H51.3458V1.65527V15.875V17.125H50.0958H47.1108V27.6444V28.8944H45.8608H42.674V34.0834H50.0958H51.3458V35.3334V49.553V50.803H50.0958H33.0322H31.7822V49.553V47.0591H5.92915H4.67915V45.8091V42.9233H1.3075H0.0574951V41.6733V27.4536V26.2036H1.3075H18.3711H19.6211V27.4536V30.4114H21.8092V19.7683H19.6211V22.7437V23.9937H18.3711H1.3075H0.0574951V22.7437V8.52402V7.27402H1.3075H18.3711H19.6211V8.52402V11.7431H21.8092V6.54717V5.29717H23.0592H31.7822V1.65527V0.405273ZM34.2822 7.79717H35.1311C35.4982 8.25639 36.0631 8.55055 36.6967 8.55055C37.8032 8.55055 38.7001 7.65361 38.7001 6.54718C38.7001 5.44076 37.8032 4.54382 36.6967 4.54382C36.0631 4.54382 35.4982 4.83797 35.1311 5.29717H34.2822V2.90527H48.8458V14.625H47.1108V13.0716C47.57 12.7045 47.8642 12.1396 47.8642 11.5059C47.8642 10.3995 46.9673 9.50256 45.8609 9.50256C44.7544 9.50256 43.8575 10.3995 43.8575 11.5059C43.8575 12.1395 44.1516 12.7044 44.6108 13.0715V14.625H34.2822V12.82H35.1846C35.5519 13.2423 36.0931 13.5093 36.6967 13.5093C37.8032 13.5093 38.7001 12.6124 38.7001 11.5059C38.7001 10.3995 37.8032 9.50256 36.6967 9.50256C36.0341 9.50256 35.4466 9.82428 35.0819 10.32H34.2822V7.79717ZM31.7822 7.79717H24.3092V12.9931V14.2431H23.0592H19.6211V17.2683H23.0592H24.3092V18.5183V31.6614V32.9114H23.0592H19.6211V36.7737H27.0766V11.57V10.32H28.3266H31.7822V7.79717ZM31.7822 12.82H29.5766V38.0237V39.2737H28.3266H19.6211V41.6733V42.9233H18.3711H7.17915V44.5591H31.7822V35.3334V34.0834H33.0322H40.174V27.6444V26.3944H41.424H44.6108V17.125H33.0322H31.7822V15.875V12.82ZM40.174 36.5834H34.2822V44.5591H35.1309C35.498 44.0998 36.063 43.8056 36.6967 43.8056C37.8032 43.8056 38.7001 44.7025 38.7001 45.8089C38.7001 46.9154 37.8032 47.8123 36.6967 47.8123C36.0632 47.8123 35.4983 47.5182 35.1312 47.0591H34.2822V48.303H48.8458V36.5834H42.674V38.0028C43.1117 38.3703 43.39 38.9216 43.39 39.5378C43.39 40.6443 42.4931 41.5412 41.3866 41.5412C40.2802 41.5412 39.3833 40.6443 39.3833 39.5378C39.3833 38.8872 39.6934 38.309 40.174 37.9431V36.5834ZM7.17915 40.4233H17.1211V39.2737H16.0498C15.6829 39.7379 15.1149 40.0358 14.4772 40.0358C13.3708 40.0358 12.4739 39.1389 12.4739 38.0325C12.4739 36.926 13.3708 36.0291 14.4772 36.0291C15.1068 36.0291 15.6686 36.3195 16.0359 36.7737H17.1211V32.9114H16.0596C15.6931 33.3828 15.1206 33.686 14.4772 33.686C13.3708 33.686 12.4739 32.7891 12.4739 31.6826C12.4739 30.5762 13.3708 29.6793 14.4772 29.6793C15.101 29.6793 15.6583 29.9644 16.0257 30.4114H17.1211V28.7036H2.5575V40.4233H4.67915V39.5981C4.21995 39.231 3.9258 38.6661 3.9258 38.0325C3.9258 36.926 4.82273 36.0291 5.92916 36.0291C7.03559 36.0291 7.93253 36.926 7.93253 38.0325C7.93253 38.6661 7.63836 39.231 7.17915 39.5981V40.4233ZM17.1211 17.2683V14.2431H16.0288C15.6614 14.6923 15.1028 14.9791 14.4772 14.9791C13.3708 14.9791 12.4739 14.0821 12.4739 12.9757C12.4739 11.8693 13.3708 10.9723 14.4772 10.9723C15.1188 10.9723 15.69 11.274 16.0567 11.7431H17.1211V9.77402H2.5575V21.4937H17.1211V19.7683H16.0955C15.731 20.2667 15.1419 20.5904 14.4772 20.5904C13.3708 20.5904 12.4739 19.6935 12.4739 18.5871C12.4739 17.4806 13.3708 16.5837 14.4772 16.5837C15.0786 16.5837 15.6181 16.8487 15.9854 17.2683H17.1211Z" fill="#335FFB" />
</svg>