<svg width="63" height="42" viewBox="0 0 63 42" fill="none" xmlns="http://www.w3.org/2000/svg">
  <path fill-rule="evenodd" clip-rule="evenodd" d="M26.1842 1.11475L25.5592 0.753906L24.9342 1.11475L13.8794 7.49731L13.2544 7.85816V8.57984V14.2407L5.01721 18.9964C4.56875 18.6964 4.02956 18.5215 3.44951 18.5215C1.89025 18.5215 0.626221 19.7855 0.626221 21.3448C0.626221 22.4552 1.26728 23.4159 2.19949 23.877L2.19947 31.6905C1.26727 32.1516 0.626221 33.1123 0.626221 34.2227C0.626221 35.782 1.89025 37.046 3.44951 37.046C4.06821 37.046 4.64044 36.847 5.10565 36.5095L13.8793 41.5749L14.5043 41.9358L15.1293 41.5749L25.5592 35.5533L35.989 41.5749L36.614 41.9358L37.239 41.5749L48.0038 35.3599H52.6423H53.1601L53.5262 34.9938L59.9087 28.6112L62.0426 26.4774H59.0248H48.9189V21.3448V20.6232L48.2939 20.2623L37.8641 14.2407V10.6797C38.8 10.2199 39.4442 9.25725 39.4442 8.1441C39.4442 6.58485 38.1802 5.32082 36.6209 5.32082C35.8932 5.32082 35.2299 5.59611 34.7292 6.04822L26.1842 1.11475ZM33.8094 8.4039L25.5592 3.64066L15.7544 9.30153V14.9623V15.684L15.1294 16.0449L6.26695 21.1616C6.27083 21.2222 6.2728 21.2833 6.2728 21.3448C6.2728 22.4552 5.63172 23.4159 4.69949 23.877L4.69947 31.6905C5.63171 32.1516 6.2728 33.1123 6.2728 34.2227C6.2728 34.2472 6.27248 34.2717 6.27186 34.296L14.5043 39.049L24.9342 33.0274L25.5592 32.6665L26.1842 33.0274L36.614 39.049L47.0439 33.0273L47.334 32.8599H47.6689H52.1245L56.0071 28.9774H47.6689H46.4189V27.7274V22.0665L35.9891 16.0449L35.3641 15.684V14.9623V10.6729C34.509 10.2471 33.9003 9.40032 33.8094 8.4039Z" fill="#0FCDC2" />
</svg>