<svg width="64" height="63" viewBox="0 0 64 63" fill="none" xmlns="http://www.w3.org/2000/svg">
  <path fill-rule="evenodd" clip-rule="evenodd" d="M32.023 3.16984C30.8897 3.16984 29.9709 4.0886 29.9709 5.22193C29.9709 6.35525 30.8897 7.274 32.023 7.274C33.1564 7.274 34.0751 6.35527 34.0751 5.22193C34.0751 4.0886 33.1564 3.16984 32.023 3.16984ZM27.1124 5.22193C27.1124 2.50985 29.3109 0.311279 32.023 0.311279C34.7351 0.311279 36.9337 2.50985 36.9337 5.22193C36.9337 7.43687 35.4673 9.30929 33.4523 9.92132L33.4524 15.599C37.8817 15.9585 41.8429 17.9736 44.7163 21.0247L49.159 17.4819C48.3813 15.5249 48.9309 13.211 50.6627 11.83C52.7831 10.1391 55.8728 10.4873 57.5637 12.6077C59.2546 14.7282 58.9064 17.8179 56.786 19.5088C55.0543 20.8897 52.676 20.9106 50.9413 19.7168L46.4999 23.2586C48.3668 26.0349 49.4563 29.3776 49.4563 32.9747C49.4563 33.8153 49.3968 34.6419 49.2818 35.4507L54.8173 36.7151C55.8625 34.887 58.0143 33.8741 60.1736 34.3671C62.8177 34.9707 64.4718 37.6035 63.8681 40.2475C63.2645 42.8916 60.6317 44.5457 57.9877 43.942C55.8283 43.449 54.3292 41.6026 54.181 39.5019L48.6477 38.2381C47.3382 42.3779 44.5252 45.8494 40.8496 48.0117L43.3137 53.1295C45.3947 52.8069 47.5282 53.8577 48.4891 55.8534C49.6657 58.297 48.6385 61.2317 46.1949 62.4082C43.7513 63.5848 40.8166 62.5576 39.6401 60.114C38.6792 58.1184 39.1882 55.7952 40.7381 54.3696L38.2749 49.2536C36.3341 49.9995 34.2261 50.4083 32.0227 50.4083C29.8187 50.4083 27.7103 49.9993 25.7691 49.2531L23.3041 54.3707C24.854 55.7963 25.3629 58.1194 24.4021 60.115C23.2255 62.5586 20.2908 63.5858 17.8472 62.4092C15.4036 61.2327 14.3765 58.298 15.5531 55.8544C16.514 53.8587 18.6476 52.8078 20.7286 53.1305L23.1945 48.0109C19.5191 45.8483 16.7064 42.3766 15.3973 38.2367L9.86434 39.4999C9.71613 41.6005 8.21707 43.4469 6.05767 43.9399C3.41362 44.5435 0.780858 42.8894 0.177231 40.2454C-0.426395 37.6013 1.2277 34.9685 3.87175 34.3649C6.03113 33.8719 8.18296 34.8848 9.2281 36.713L14.7635 35.4493C14.6486 34.6409 14.5892 33.8148 14.5892 32.9747C14.5892 29.3773 15.6788 26.0344 17.546 23.258L13.1055 19.717C11.3708 20.9108 8.99255 20.8899 7.2608 19.509C5.14037 17.8181 4.79217 14.7284 6.48307 12.6079C8.17397 10.4875 11.2637 10.1393 13.3841 11.8302C15.1158 13.2111 15.6655 15.5251 14.8878 17.482L19.3296 21.0242C22.2032 17.9732 26.1645 15.9582 30.5938 15.5989L30.5938 9.92133C28.5788 9.3093 27.1124 7.43689 27.1124 5.22193ZM30.5938 18.4689C27.068 18.812 23.9102 20.4114 21.5736 22.8137L30.5939 30.0069L30.5938 18.4689ZM28.8118 32.242L19.79 25.0475C18.3084 27.3292 17.4478 30.0515 17.4478 32.9747C17.4478 33.5964 17.4867 34.2091 17.5622 34.8103L28.8118 32.242ZM18.1962 37.5977C19.2946 40.8844 21.5322 43.6496 24.4403 45.4245L29.4474 35.029L18.1962 37.5977ZM32.023 36.269L27.0149 46.6666C28.5765 47.2379 30.2632 47.5497 32.0227 47.5497C33.7818 47.5497 35.4681 47.2381 37.0294 46.667L32.023 36.269ZM39.6042 45.4251C42.5124 43.6504 44.7502 40.8854 45.8489 37.5988L34.5987 35.0292L39.6042 45.4251ZM35.2344 32.2422L46.4831 34.8115C46.5587 34.2099 46.5977 33.5968 46.5977 32.9747C46.5977 30.0517 45.7372 27.3297 44.2558 25.0481L35.2344 32.2422ZM42.4723 22.8142C40.1359 20.4118 36.9782 18.8122 33.4524 18.469L33.4525 30.007L42.4723 22.8142ZM55.3288 14.39C54.6222 13.5039 53.331 13.3584 52.4449 14.065C51.5588 14.7716 51.4133 16.0627 52.12 16.9488C52.8266 17.8349 54.1177 17.9804 55.0038 17.2738C55.8899 16.5672 56.0354 15.2761 55.3288 14.39ZM11.6019 14.0652C10.7158 13.3585 9.42463 13.5041 8.71803 14.3902C8.01143 15.2763 8.15693 16.5674 9.04303 17.274C9.92911 17.9806 11.2202 17.8351 11.9269 16.949C12.6335 16.0629 12.488 14.7718 11.6019 14.0652ZM6.9653 38.6957C6.71306 37.5907 5.61288 36.8995 4.50798 37.1518C3.40307 37.404 2.71185 38.5042 2.96409 39.6091C3.21634 40.714 4.31653 41.4053 5.42144 41.153C6.52634 40.9008 7.21756 39.8006 6.9653 38.6957ZM59.5374 37.1539C58.4325 36.9017 57.3323 37.5929 57.0801 38.6978C56.8278 39.8027 57.519 40.9029 58.6239 41.1552C59.7288 41.4074 60.829 40.7162 61.0813 39.6113C61.3335 38.5064 60.6423 37.4062 59.5374 37.1539ZM45.9135 57.0935C45.4219 56.0724 44.1955 55.6432 43.1744 56.1348C42.1532 56.6265 41.724 57.8528 42.2157 58.874C42.7073 59.8951 43.9337 60.3243 44.9548 59.8327C45.976 59.341 46.4052 58.1146 45.9135 57.0935ZM20.8678 56.1358C19.8466 55.6441 18.6203 56.0733 18.1286 57.0945C17.637 58.1156 18.0662 59.342 19.0873 59.8336C20.1085 60.3253 21.3348 59.8961 21.8265 58.8749C22.3181 57.8538 21.8889 56.6274 20.8678 56.1358Z" fill="#399BFF" />
</svg>