<svg width="64" height="63" viewBox="0 0 64 63" fill="none" xmlns="http://www.w3.org/2000/svg">
  <path fill-rule="evenodd" clip-rule="evenodd" d="M31.9553 0.311035L45.8183 8.31486L45.8183 24.3225L31.9552 32.3264L18.0922 24.3226L18.0922 8.31492L31.9553 0.311035ZM31.9553 3.28546L20.6681 9.80213L20.6681 22.8353L31.9552 29.352L43.2424 22.8353L43.2424 9.80208L31.9553 3.28546ZM12.8572 22.8372L12.8572 9.06032L15.4331 9.06032L15.4331 24.3244L2.21399 31.9564L0.926026 29.7256L12.8572 22.8372ZM51.1885 22.8882L51.1885 9.11141L48.6126 9.1114L48.6125 24.3754L61.8316 32.0075L63.1195 29.7766L51.1885 22.8882ZM16.7611 26.6281L30.6241 34.632L30.6241 50.6396L16.761 58.6435L2.89798 50.6397L2.89803 34.632L16.7611 26.6281ZM47.2713 26.6985L61.1344 34.7023L61.1344 50.71L47.2713 58.7138L33.4082 50.71L33.4083 34.7024L47.2713 26.6985ZM16.7611 29.6026L5.47396 36.1192L5.47392 49.1525L16.761 55.6691L28.0482 49.1524L28.0482 36.1192L16.7611 29.6026ZM35.9842 36.1896L35.9842 49.2228L47.2713 55.7394L58.5584 49.2227L58.5584 36.1895L47.2713 29.6729L35.9842 36.1896ZM32.0669 53.0333L45.2859 60.6654L43.9979 62.8962L32.0669 56.0078L20.1357 62.8962L18.8478 60.6654L32.0669 53.0333Z" fill="#0DD4E0" />
</svg>