<svg width="53" height="61" viewBox="0 0 53 61" fill="none" xmlns="http://www.w3.org/2000/svg">
  <path fill-rule="evenodd" clip-rule="evenodd" d="M26.3811 2.91194C25.5246 2.91194 24.8303 3.60629 24.8303 4.46282C24.8303 5.31934 25.5246 6.0137 26.3811 6.0137C27.2377 6.0137 27.932 5.31934 27.932 4.46282C27.932 3.60629 27.2377 2.91194 26.3811 2.91194ZM22.5226 4.46282C22.5226 2.33179 24.2501 0.604248 26.3811 0.604248C28.5122 0.604248 30.2397 2.33179 30.2397 4.46282C30.2397 6.19227 29.1019 7.65598 27.534 8.14621V11.5886L41.1183 19.4314L41.1184 14.8491L41.1184 13.6953H42.2723H44.6611C45.1517 12.1279 46.6151 10.9906 48.3442 10.9906C50.4753 10.9906 52.2028 12.7181 52.2028 14.8491C52.2028 16.9802 50.4753 18.7077 48.3442 18.7077C46.6152 18.7077 45.1517 17.5704 44.6612 16.003H43.4261L43.4259 21.3003H43.4258V21.4298V29.4509H44.6611C45.1517 27.8835 46.6151 26.7461 48.3442 26.7461C50.4753 26.7461 52.2028 28.4736 52.2028 30.6047C52.2028 32.7357 50.4753 34.4632 48.3442 34.4632C46.6152 34.4632 45.1517 33.3259 44.6612 31.7585H43.4258V39.7794V39.9085H43.4259L43.4261 45.2059H44.6611C45.1516 43.6384 46.6151 42.5011 48.3442 42.5011C50.4753 42.5011 52.2028 44.2286 52.2028 46.3596C52.2028 48.4907 50.4753 50.2182 48.3442 50.2182C46.6152 50.2182 45.1517 49.0809 44.6612 47.5136H42.2723H41.1184L41.1184 46.3597L41.1183 41.7778L27.5346 49.6203V53.0625C29.1022 53.5529 30.2397 55.0164 30.2397 56.7457C30.2397 58.8767 28.5122 60.6042 26.3811 60.6042C24.2501 60.6042 22.5226 58.8767 22.5226 56.7457C22.5226 55.0167 23.6597 53.5534 25.2269 53.0627V49.6203L11.6428 41.7776V46.3597L11.6428 47.5136H10.4889H8.09999C7.60944 49.0809 6.146 50.2182 4.41692 50.2182C2.28589 50.2182 0.55835 48.4907 0.55835 46.3596C0.55835 44.2286 2.28589 42.5011 4.41692 42.5011C6.14604 42.5011 7.60952 43.6384 8.10003 45.2059H9.33509V39.9086H9.33559V39.7794V31.7585H8.1C7.60946 33.3259 6.14601 34.4632 4.41692 34.4632C2.28589 34.4632 0.55835 32.7357 0.55835 30.6047C0.55835 28.4736 2.28589 26.7461 4.41692 26.7461C6.14603 26.7461 7.6095 27.8835 8.10002 29.4509H9.33559V21.4298V21.3003H9.33509V16.003H8.1C7.60946 17.5704 6.14601 18.7077 4.41692 18.7077C2.28589 18.7077 0.55835 16.9802 0.55835 14.8491C0.55835 12.7181 2.28589 10.9906 4.41692 10.9906C6.14603 10.9906 7.6095 12.1279 8.10002 13.6953H10.4889H11.6428V14.8492V19.4315L25.2263 11.5891V8.14561C23.6595 7.65478 22.5226 6.19157 22.5226 4.46282ZM26.3807 47.6218L11.6433 39.1132L11.6433 22.0959L26.3806 13.5873L41.1181 22.096V39.1132L26.3807 47.6218ZM13.9453 37.0938V37.76L14.5223 38.0931L25.8038 44.6064L26.3807 44.9395L26.9576 44.6064L38.2391 38.0931L38.816 37.76V37.0939V24.0672V23.401L38.2391 23.0679L26.9576 16.5545L26.3806 16.2214L25.8037 16.5545L14.5223 23.0679L13.9453 23.4009V24.0671L13.9453 37.0938ZM26.3807 42.2748L16.253 36.4276L16.253 24.7333L26.3806 18.8861L36.5083 24.7333V36.4277L26.3807 42.2748ZM48.3442 13.2983C47.4877 13.2983 46.7934 13.9926 46.7934 14.8491C46.7934 15.7057 47.4877 16.4 48.3442 16.4C49.2008 16.4 49.8951 15.7057 49.8951 14.8491C49.8951 13.9926 49.2008 13.2983 48.3442 13.2983ZM24.8303 56.7457C24.8303 55.8892 25.5246 55.1948 26.3811 55.1948C27.2377 55.1948 27.932 55.8892 27.932 56.7457C27.932 57.6022 27.2377 58.2966 26.3811 58.2966C25.5246 58.2966 24.8303 57.6022 24.8303 56.7457ZM2.86604 14.8491C2.86604 13.9926 3.5604 13.2983 4.41692 13.2983C5.27345 13.2983 5.9678 13.9926 5.9678 14.8491C5.9678 15.7057 5.27345 16.4 4.41692 16.4C3.5604 16.4 2.86604 15.7057 2.86604 14.8491ZM48.3442 44.8088C47.4877 44.8088 46.7934 45.5031 46.7934 46.3596C46.7934 47.2162 47.4877 47.9105 48.3442 47.9105C49.2008 47.9105 49.8951 47.2162 49.8951 46.3596C49.8951 45.5031 49.2008 44.8088 48.3442 44.8088ZM2.86604 46.3596C2.86604 45.5031 3.5604 44.8088 4.41692 44.8088C5.27345 44.8088 5.9678 45.5031 5.9678 46.3596C5.9678 47.2162 5.27345 47.9105 4.41692 47.9105C3.5604 47.9105 2.86604 47.2162 2.86604 46.3596ZM48.3442 29.0538C47.4877 29.0538 46.7934 29.7481 46.7934 30.6047C46.7934 31.4612 47.4877 32.1555 48.3442 32.1555C49.2008 32.1555 49.8951 31.4612 49.8951 30.6047C49.8951 29.7481 49.2008 29.0538 48.3442 29.0538ZM2.86604 30.6047C2.86604 29.7481 3.5604 29.0538 4.41692 29.0538C5.27345 29.0538 5.9678 29.7481 5.9678 30.6047C5.9678 31.4612 5.27345 32.1555 4.41692 32.1555C3.5604 32.1555 2.86604 31.4612 2.86604 30.6047Z" fill="#3C38E4" />
</svg>