<svg width="574" height="263" viewBox="0 0 574 263" fill="none" xmlns="http://www.w3.org/2000/svg">
  <path d="M532.714 2.927C532.714 4.39976 533.908 5.59367 535.381 5.59367C536.853 5.59367 538.047 4.39976 538.047 2.927C538.047 1.45424 536.853 0.260335 535.381 0.260335C533.908 0.260335 532.714 1.45424 532.714 2.927ZM535.381 24.2341L535.734 24.5876L535.881 24.4412V24.2341H535.381ZM539.693 2.927C539.693 4.39976 540.887 5.59367 542.36 5.59367C543.833 5.59367 545.027 4.39976 545.027 2.927C545.027 1.45424 543.833 0.260335 542.36 0.260335C540.887 0.260335 539.693 1.45424 539.693 2.927ZM542.36 26.3199L542.714 26.6735L542.86 26.5271V26.3199H542.36ZM519.259 37.6893C519.259 39.162 520.453 40.3559 521.925 40.3559C523.398 40.3559 524.592 39.162 524.592 37.6893C524.592 36.2165 523.398 35.0226 521.925 35.0226C520.453 35.0226 519.259 36.2165 519.259 37.6893ZM519.259 46.7548C519.259 48.2275 520.453 49.4214 521.925 49.4214C523.398 49.4214 524.592 48.2275 524.592 46.7548C524.592 45.282 523.398 44.0881 521.925 44.0881C520.453 44.0881 519.259 45.282 519.259 46.7548ZM546.966 2.927C546.966 4.39976 548.16 5.59367 549.633 5.59367C551.106 5.59367 552.3 4.39976 552.3 2.927C552.3 1.45424 551.106 0.260335 549.633 0.260335C548.16 0.260335 546.966 1.45424 546.966 2.927ZM549.633 29.3496L549.987 29.7032L550.133 29.5567V29.3496H549.633ZM535.045 43.9373L534.692 43.5837L534.545 43.7301V43.9373H535.045ZM535.045 73.6774L535.399 74.0309L535.545 73.8845V73.6774H535.045ZM348.882 213.171C348.882 214.644 350.076 215.838 351.549 215.838C353.022 215.838 354.215 214.644 354.215 213.171C354.215 211.698 353.022 210.504 351.549 210.504C350.076 210.504 348.882 211.698 348.882 213.171ZM179.706 213.171V212.671H179.499L179.352 212.817L179.706 213.171ZM155.899 236.977V237.477H156.106L156.253 237.331L155.899 236.977ZM13.9523 236.977C13.9523 238.45 15.1462 239.644 16.6189 239.644C18.0917 239.644 19.2856 238.45 19.2856 236.977C19.2856 235.504 18.0917 234.311 16.6189 234.311C15.1462 234.311 13.9523 235.504 13.9523 236.977ZM348.882 206.699C348.882 208.172 350.076 209.366 351.549 209.366C353.022 209.366 354.215 208.172 354.215 206.699C354.215 205.226 353.022 204.032 351.549 204.032C350.076 204.032 348.882 205.226 348.882 206.699ZM317.067 206.699C317.067 208.172 318.261 209.366 319.734 209.366C321.207 209.366 322.401 208.172 322.401 206.699C322.401 205.226 321.207 204.032 319.734 204.032C318.261 204.032 317.067 205.226 317.067 206.699ZM348.882 219.944C348.882 221.417 350.076 222.611 351.549 222.611C353.022 222.611 354.215 221.417 354.215 219.944C354.215 218.471 353.022 217.277 351.549 217.277C350.076 217.277 348.882 218.471 348.882 219.944ZM182.844 219.944V219.444H182.637L182.49 219.591L182.844 219.944ZM159.027 243.761V244.261H159.234L159.38 244.115L159.027 243.761ZM27.7715 243.761V243.261H27.5644L27.4179 243.408L27.7715 243.761ZM20.6284 250.904V251.404H20.8355L20.9819 251.258L20.6284 250.904ZM13.9523 250.904C13.9523 252.377 15.1462 253.571 16.6189 253.571C18.0917 253.571 19.2856 252.377 19.2856 250.904C19.2856 249.432 18.0917 248.238 16.6189 248.238C15.1462 248.238 13.9523 249.432 13.9523 250.904ZM169.271 243.761V243.261H169.064L168.917 243.408L169.271 243.761ZM367.953 243.761V244.261H368.16L368.307 244.115L367.953 243.761ZM377.187 231.861C377.187 233.334 378.381 234.527 379.854 234.527C381.327 234.527 382.52 233.334 382.52 231.861C382.52 230.388 381.327 229.194 379.854 229.194C378.381 229.194 377.187 230.388 377.187 231.861ZM162.128 250.904V251.404H162.335L162.481 251.258L162.128 250.904ZM30.869 250.904C30.869 252.377 32.0629 253.571 33.5357 253.571C35.0085 253.571 36.2024 252.377 36.2024 250.904C36.2024 249.432 35.0085 248.238 33.5357 248.238C32.0629 248.238 30.869 249.432 30.869 250.904ZM372.968 250.904V251.404H373.176L373.322 251.258L372.968 250.904ZM389.345 231.861C389.345 233.334 390.539 234.527 392.012 234.527C393.485 234.527 394.679 233.334 394.679 231.861C394.679 230.388 393.485 229.194 392.012 229.194C390.539 229.194 389.345 230.388 389.345 231.861ZM191.387 250.904V250.404H191.18L191.034 250.551L191.387 250.904ZM182.844 259.448V259.948H183.051L183.197 259.801L182.844 259.448ZM2.02352 259.448C2.02352 260.92 3.21743 262.114 4.69019 262.114C6.16294 262.114 7.35685 260.92 7.35685 259.448C7.35685 257.975 6.16294 256.781 4.69019 256.781C3.21743 256.781 2.02352 257.975 2.02352 259.448ZM519.259 86.7974C519.259 88.2702 520.453 89.4641 521.925 89.4641C523.398 89.4641 524.592 88.2702 524.592 86.7974C524.592 85.3247 523.398 84.1308 521.925 84.1308C520.453 84.1308 519.259 85.3247 519.259 86.7974ZM554.022 2.927C554.022 4.39976 555.216 5.59367 556.688 5.59367C558.161 5.59367 559.355 4.39976 559.355 2.927C559.355 1.45424 558.161 0.260335 556.688 0.260335C555.216 0.260335 554.022 1.45424 554.022 2.927ZM556.688 32.648L557.042 33.0016L557.188 32.8551V32.648H556.688ZM549.633 39.7032L549.28 39.3496L549.133 39.4961V39.7032H549.633ZM549.633 86.7974L549.987 87.151L550.133 87.0045V86.7974H549.633ZM542.36 94.0704L542.007 93.7168L541.86 93.8633V94.0704H542.36ZM542.36 174.05H541.86V174.257L542.007 174.403L542.36 174.05ZM549.633 181.323H550.133V181.116L549.987 180.969L549.633 181.323ZM549.633 231.861L549.987 232.214L550.133 232.068V231.861H549.633ZM537.732 243.761L537.379 243.408L537.232 243.554V243.761H537.732ZM535.066 250.904C535.066 252.377 536.26 253.571 537.732 253.571C539.205 253.571 540.399 252.377 540.399 250.904C540.399 249.432 539.205 248.238 537.732 248.238C536.26 248.238 535.066 249.432 535.066 250.904ZM546.966 250.904C546.966 252.377 548.16 253.571 549.633 253.571C551.106 253.571 552.3 252.377 552.3 250.904C552.3 249.432 551.106 248.238 549.633 248.238C548.16 248.238 546.966 249.432 546.966 250.904ZM549.633 243.761L549.28 243.408L549.133 243.554V243.761H549.633ZM556.688 236.706L557.042 237.06L557.188 236.913V236.706H556.688ZM554.022 43.9373C554.022 45.41 555.216 46.6039 556.688 46.6039C558.161 46.6039 559.355 45.41 559.355 43.9373C559.355 42.4645 558.161 41.2706 556.688 41.2706C555.216 41.2706 554.022 42.4645 554.022 43.9373ZM561.554 43.9373C561.554 45.41 562.747 46.6039 564.22 46.6039C565.693 46.6039 566.887 45.41 566.887 43.9373C566.887 42.4645 565.693 41.2706 564.22 41.2706C562.747 41.2706 561.554 42.4645 561.554 43.9373ZM564.22 140.255H563.72V140.462L563.867 140.608L564.22 140.255ZM570.545 146.58H571.045V146.373L570.899 146.226L570.545 146.58ZM567.879 250.904C567.879 252.377 569.073 253.571 570.545 253.571C572.018 253.571 573.212 252.377 573.212 250.904C573.212 249.432 572.018 248.238 570.545 248.238C569.073 248.238 567.879 249.432 567.879 250.904ZM534.881 2.927V24.2341H535.881V2.927H534.881ZM541.86 2.927V26.3199H542.86V2.927H541.86ZM535.027 23.8805L521.572 37.3357L522.279 38.0428L535.734 24.5876L535.027 23.8805ZM542.007 25.9664L521.572 46.4012L522.279 47.1083L542.714 26.6735L542.007 25.9664ZM549.133 2.927V29.3496H550.133V2.927H549.133ZM549.28 28.9961L534.692 43.5837L535.399 44.2908L549.987 29.7032L549.28 28.9961ZM534.545 43.9373V73.6774H535.545V43.9373H534.545ZM351.549 212.671H179.706V213.671H351.549V212.671ZM179.352 212.817L155.546 236.624L156.253 237.331L180.059 213.525L179.352 212.817ZM155.899 236.477H16.6189V237.477H155.899V236.477ZM351.549 206.199H319.734V207.199H351.549V206.199ZM351.549 219.444H182.844V220.444H351.549V219.444ZM182.49 219.591L158.673 243.408L159.38 244.115L183.197 220.298L182.49 219.591ZM159.027 243.261H27.7715V244.261H159.027V243.261ZM27.4179 243.408L20.2748 250.551L20.9819 251.258L28.125 244.115L27.4179 243.408ZM20.6284 250.404H16.6189V251.404H20.6284V250.404ZM169.271 244.261H367.953V243.261H169.271V244.261ZM368.307 244.115L380.207 232.214L379.5 231.507L367.6 243.408L368.307 244.115ZM168.917 243.408L161.774 250.551L162.481 251.258L169.624 244.115L168.917 243.408ZM162.128 250.404H33.5357V251.404H162.128V250.404ZM373.322 251.258L392.366 232.214L391.659 231.507L372.615 250.551L373.322 251.258ZM372.968 250.404H191.387V251.404H372.968V250.404ZM191.034 250.551L182.49 259.094L183.197 259.801L191.741 251.258L191.034 250.551ZM182.844 258.948H4.69019V259.948H182.844V258.948ZM534.692 73.3238L521.572 86.4439L522.279 87.151L535.399 74.0309L534.692 73.3238ZM556.188 2.927V32.648H557.188V2.927H556.188ZM556.335 32.2945L549.28 39.3496L549.987 40.0567L557.042 33.0016L556.335 32.2945ZM549.133 39.7032V86.7974H550.133V39.7032H549.133ZM549.28 86.4439L542.007 93.7168L542.714 94.4239L549.987 87.151L549.28 86.4439ZM541.86 94.0704V174.05H542.86V94.0704H541.86ZM542.007 174.403L549.28 181.676L549.987 180.969L542.714 173.696L542.007 174.403ZM549.133 181.323V231.861H550.133V181.323H549.133ZM549.28 231.507L537.379 243.408L538.086 244.115L549.987 232.214L549.28 231.507ZM537.232 243.761V250.904H538.232V243.761H537.232ZM550.133 250.904V243.761H549.133V250.904H550.133ZM549.987 244.115L557.042 237.06L556.335 236.353L549.28 243.408L549.987 244.115ZM557.188 236.706V43.9373H556.188V236.706H557.188ZM563.72 43.9373V140.255H564.72V43.9373H563.72ZM563.867 140.608L570.192 146.933L570.899 146.226L564.574 139.901L563.867 140.608ZM570.045 146.58V250.904H571.045V146.58H570.045Z" fill="url(#paint0_linear_1284_705)" />
  <path d="M110.633 128.408C110.633 130.663 112.462 132.491 114.717 132.491C116.972 132.491 118.8 130.663 118.8 128.408C118.8 126.776 117.843 125.368 116.46 124.714M106.409 128.408C106.409 132.803 109.823 136.401 114.143 136.696M92.5451 62.8643L94.9705 64.2646M92.5451 62.8643V60.5323H94.5203M92.5451 62.8643L90.1895 66.9442M94.9705 64.2646H101.309V60.5323H99.3882M94.9705 64.2646L92.615 68.3446M134.546 149.73L131.991 148.917L130.125 151.446L122.451 145.783L123.863 143.87M134.546 149.73L137.254 146.062M134.546 149.73L136.056 150.845L137.41 149.01M137.254 146.062L135.724 143.86L137.591 141.331L129.917 135.668L128.505 137.58M137.254 146.062L138.764 147.176L137.41 149.01M137.41 149.01L144.624 154.334M193.114 137.112L194.06 138.456L196.647 138.646L208.25 130.485L204.467 125.107L192.864 133.268L192.168 135.767L193.114 137.112ZM193.114 137.112L185.21 142.672M196.418 108.075V116.671C196.418 116.892 196.397 117.108 196.358 117.318M196.418 108.075H181.379M196.418 108.075L196.418 113.46H199.328L199.328 92.7627H178.469V113.46H181.379V108.075M181.379 108.075V116.671C181.379 118.578 182.925 120.123 184.832 120.123H187.885M78.4409 123.984V150.884H74.2727M78.4409 123.984H42.124M78.4409 123.984L75.875 130.174M42.124 123.984L44.6899 130.174M42.124 123.984V131.26M75.875 130.174V148.631H74.2727M75.875 130.174H44.6899M44.6899 130.174V148.631H46.2923M322.527 164.788V161.158H12.0385V164.788M322.527 164.788H85.5404M322.527 164.788V169.453L319.943 172.037M12.0385 164.788H35.0243M12.0385 164.788V169.453L14.6229 172.037M313.579 172.037V168.248L85.5404 168.248M20.9869 172.037V168.248H35.0243M313.579 198.143V201.933H163.896M20.9869 198.143V201.933H23.2514M35.0243 172.037V168.248M35.0243 172.037V182.099M35.0243 172.037H14.6229M35.0243 168.248V164.788M85.5404 168.248V172.037M85.5404 168.248V164.788M85.5404 172.037V182.099M85.5404 172.037H319.943M35.0243 198.143H14.4335C7.2246 198.143 1.38061 192.299 1.38062 185.09C1.38062 177.881 7.22461 172.037 14.4335 172.037H14.6229M35.0243 198.143V201.933M35.0243 198.143V188.311M35.0243 201.933H23.2514M35.0243 201.933V206.513M85.5404 201.933V198.143M85.5404 201.933V206.513M85.5404 201.933H163.896M85.5404 198.143L320.132 198.143C327.341 198.143 333.185 192.299 333.185 185.09C333.185 177.881 327.341 172.037 320.132 172.037H319.943M85.5404 198.143V188.311M35.0243 182.099H30.4216C28.9914 182.099 27.8319 183.258 27.8319 184.689V185.722C27.8319 187.152 28.9914 188.311 30.4216 188.311H35.0243M35.0243 182.099V188.311M85.5404 188.311H304.144C305.574 188.311 306.734 187.152 306.734 185.722V184.689C306.734 183.258 305.574 182.099 304.144 182.099H85.5404M85.5404 188.311V182.099M23.2514 201.933L27.8319 206.513H35.0243M35.0243 206.513L35.0243 224.342H85.5404V206.513M85.5404 206.513H159.315L163.896 201.933M46.2923 148.631V134.258H65.1138M46.2923 148.631V150.884M46.2923 150.884H42.124V131.26M46.2923 150.884V158.234M74.2727 148.631V134.258H71.3888M74.2727 148.631V150.884M74.2727 150.884V161.158H46.2923V158.234M42.124 131.26H38.8388C36.455 131.26 34.5226 133.193 34.5226 135.577V153.918C34.5226 156.301 36.455 158.234 38.8388 158.234H46.2923M65.1138 134.258V137.989H71.3888V134.258M65.1138 134.258V130.174H71.3888V134.258M35.0243 164.788V161.158H85.5404V164.788M234.076 123.94H212.769V157.371H262.379V123.94H241.073M234.076 123.94H241.073M234.076 123.94V127.53H241.073V123.94M216.106 133.655V155.157H259.043V133.655M216.106 133.655V129.478H259.043V133.655M216.106 133.655H259.043M289.678 123.94H268.371V157.371H317.981V123.94H296.674M289.678 123.94H296.674M289.678 123.94V127.53H296.674V123.94M271.707 133.655V155.157H314.644V133.655M271.707 133.655V129.478H314.644V133.655M271.707 133.655H314.644M58.952 41.3539C59.0697 41.3285 59.192 41.3151 59.3174 41.3151H87.8509C87.9762 41.3151 88.0984 41.3285 88.2161 41.3538M58.952 41.3539C58.174 41.5215 57.5909 42.2135 57.5909 43.0416V44.3526C57.5909 45.1807 58.174 45.8727 58.952 46.0403M58.952 41.3539V37.9124H88.2161V41.3538M58.952 46.0403V48.436C58.952 49.3895 59.7249 50.1625 60.6784 50.1625H86.4897C87.4432 50.1625 88.2161 49.3895 88.2161 48.436V46.0404M58.952 46.0403C59.0697 46.0657 59.192 46.0791 59.3174 46.0791H87.8509C87.9762 46.0791 88.0984 46.0657 88.2161 46.0404M88.2161 41.3538C88.9942 41.5214 89.5774 42.2134 89.5774 43.0416V44.3526C89.5774 45.1808 88.9942 45.8728 88.2161 46.0404M63.716 56.1316C61.5982 58.531 60.3132 61.6829 60.3132 65.1348C60.3132 72.6521 66.4072 78.7461 73.9244 78.7461C76.5845 78.7461 79.0663 77.983 81.163 76.6638M63.716 56.1316V59.0097L67.1188 63.0931H80.73L84.1328 59.0097V56.1315M63.716 56.1316V50.1624H84.1328V56.1315M84.1328 56.1315C86.2506 58.531 87.5357 61.6828 87.5357 65.1348C87.5357 65.2269 87.5348 65.3188 87.533 65.4105M67.4303 67.1765C68.2975 69.9376 70.877 71.9405 73.9244 71.9405C76.9717 71.9405 79.5512 69.9376 80.4184 67.1765M67.4303 67.1765H66.8037C65.8502 67.1765 65.0772 66.4035 65.0772 65.45V64.8196C65.0772 63.8661 65.8502 63.0931 66.8037 63.0931H81.0454C81.9989 63.0931 82.7718 63.8661 82.7718 64.8196V65.45C82.7718 66.4035 81.9989 67.1765 81.0454 67.1765H80.4184M67.4303 67.1765H80.4184M87.533 65.4105C87.4387 70.153 84.9189 74.3007 81.163 76.6638M87.533 65.4105L90.1895 66.9442M81.163 76.6638L100.297 87.7111M90.1895 66.9442L92.615 68.3446M92.615 68.3446L106.794 76.5311M94.5203 60.5323V61.8062H99.3882V60.5323M94.5203 60.5323V41.3151H99.3882V60.5323M102.127 88.7675L111.482 94.1683C112.433 94.7193 113.538 95.0796 114.717 95.0796C118.287 95.0796 121.182 92.1425 121.182 88.5718C121.182 86.1777 119.881 84.0875 117.947 82.97L108.629 77.5905M102.127 88.7675C102.209 95.6504 107.814 101.205 114.717 101.205C121.67 101.205 127.307 95.5677 127.307 88.6142C127.307 81.6607 121.67 76.0238 114.717 76.0238C112.509 76.0238 110.434 76.5922 108.629 77.5905M102.127 88.7675L100.297 87.7111M100.297 87.7111C100.279 88.0098 100.27 88.3109 100.27 88.6142C100.27 89.4256 100.336 90.2214 100.465 90.9964M108.629 77.5905L106.794 76.5311M106.794 76.5311C109.069 75.0367 111.791 74.1673 114.716 74.1673C122.695 74.1673 129.163 80.6354 129.163 88.6142C129.163 94.2688 125.915 99.1646 121.182 101.537M100.465 90.9964H97.5574V106.309H103.383M100.465 90.9964C100.873 93.4542 101.901 95.7025 103.383 97.5748M103.383 106.309V128.408H116.46V124.714M103.383 106.309V97.5748M103.383 97.5748C104.691 99.2261 106.352 100.585 108.251 101.537M108.251 101.537C110.197 102.512 112.392 103.061 114.716 103.061C117.041 103.061 119.237 102.512 121.182 101.537M108.251 101.537V112.094L114.717 115.497L116.46 114.579M116.46 114.579L121.182 112.094V101.537M116.46 114.579V120.284M116.46 124.714V120.284M116.46 120.284C120.211 121.084 123.024 124.418 123.024 128.408C123.024 129.965 122.596 131.423 121.85 132.669M114.143 136.696C114.333 136.709 114.524 136.715 114.717 136.715C117.747 136.715 120.399 135.093 121.85 132.669M114.143 136.696L123.863 143.87M121.85 132.669L128.505 137.58M123.863 143.87L127.922 146.865L132.563 140.576L128.505 137.58M187.885 120.123H192.965C194.651 120.123 196.055 118.915 196.358 117.318M187.885 120.123L195.719 131.26L202.707 126.345L196.358 117.318M173.565 77.854H170.121V84.741H177.008V81.2975M177.008 81.2975H173.565V50.6302L200.788 50.6302M177.008 81.2975H181.379M204.232 77.854H207.675V84.741H200.788V81.2975M204.232 77.854V81.2975H196.418M204.232 77.854V54.0737M200.788 50.6302V47.1867H207.675V54.0737H204.232M200.788 50.6302L204.232 50.6302V54.0737M177.008 50.6302V47.1867H170.121V54.0737H173.565M181.379 73.6238V63.0769C181.379 61.1699 182.925 59.624 184.832 59.624H192.965C194.872 59.624 196.418 61.1699 196.418 63.0769V73.6237M181.379 73.6238C180.244 72.5252 179.538 70.9857 179.538 69.2815V62.6462C179.538 59.309 182.243 56.6036 185.581 56.6036H192.216C195.553 56.6036 198.259 59.309 198.259 62.6462V69.2815C198.259 70.9857 197.553 72.5252 196.418 73.6237M181.379 73.6238V81.2975M196.418 73.6237V81.2975M181.379 81.2975V92.7627H196.418V81.2975M397.692 62.3281H419.371M397.692 62.3281V96.3431M397.692 62.3281V59.6238H505.587V62.3281M419.371 62.3281H426.49M419.371 62.3281V65.9805H426.49V62.3281M426.49 62.3281H448.169V96.3431M448.169 96.3431H397.692M448.169 96.3431H455.11M397.692 96.3431V99.4212M401.086 72.2123V94.0909H444.774V72.2123M401.086 72.2123V67.9624H444.774V72.2123M401.086 72.2123H444.774M476.789 62.3281H455.11V96.3431M476.789 62.3281H483.908M476.789 62.3281V65.9805H483.908V62.3281M483.908 62.3281H505.587M505.587 62.3281V96.3431M505.587 96.3431H455.11M505.587 96.3431V99.4212M458.505 72.2123V94.0909H502.193V72.2123M458.505 72.2123V67.9624H502.193V72.2123M458.505 72.2123H502.193M397.692 102.499H419.371M397.692 102.499V136.514M397.692 102.499V99.4212M419.371 102.499H426.49M419.371 102.499V106.152H426.49V102.499M426.49 102.499H448.169V136.514M448.169 136.514H397.692M448.169 136.514H455.11M397.692 136.514C397.692 136.974 397.692 138.25 397.692 139.592M401.086 112.384V134.262H444.774V112.384M401.086 112.384V108.134H444.774V112.384M401.086 112.384H444.774M476.789 102.499H455.11V136.514M476.789 102.499H483.908M476.789 102.499V106.152H483.908V102.499M483.908 102.499H505.587M505.587 102.499V136.514M505.587 102.499V99.4212M505.587 136.514H455.11M505.587 136.514V139.592M458.505 112.384V134.262H502.193V112.384M458.505 112.384V108.134H502.193V112.384M458.505 112.384H502.193M397.692 142.67H419.371M397.692 142.67V176.685M397.692 142.67C397.692 141.894 397.692 140.72 397.692 139.592M419.371 142.67H426.49M419.371 142.67V146.323H426.49V142.67M426.49 142.67H448.169V176.685M448.169 176.685H397.692M448.169 176.685H455.11M397.692 176.685V179.763M401.086 152.555V174.433H444.774V152.555M401.086 152.555V148.305H444.774V152.555M401.086 152.555H444.774M476.789 142.67H455.11V176.685M476.789 142.67H483.908M476.789 142.67V146.323H483.908V142.67M483.908 142.67H505.587M505.587 142.67V176.685M505.587 142.67V139.592M505.587 176.685H455.11M505.587 176.685V179.763M458.505 152.555V174.433H502.193V152.555M458.505 152.555V148.305H502.193V152.555M458.505 152.555H502.193M397.692 182.842H419.371M397.692 182.842V216.856M397.692 182.842V179.763M419.371 182.842H426.49M419.371 182.842V186.494H426.49V182.842M426.49 182.842H448.169V216.856M448.169 216.856H397.692M448.169 216.856H455.11M397.692 216.856V219.48M401.086 192.726V214.604H444.774V192.726M401.086 192.726V188.476H444.774V192.726M401.086 192.726H444.774M476.789 182.842H455.11V216.856M476.789 182.842H483.908M476.789 182.842V186.494H483.908V182.842M483.908 182.842H505.587M505.587 182.842V216.856M505.587 182.842V179.763M505.587 216.856H455.11M505.587 216.856V219.48M458.505 192.726V214.604H502.193V192.726M458.505 192.726V188.476H502.193V192.726M458.505 192.726H502.193M387.441 222.103H397.692V219.48M387.441 222.103H361.127V154.844L369.649 146.323H387.441M387.441 222.103V171.53M397.692 219.48H505.587M505.587 219.48V222.103H515.837V45.2052H387.441V146.323M505.587 179.763H397.692M505.587 139.592H397.692M505.587 99.4212H397.692M387.441 146.323V151.1M387.441 151.1H376.817V164.675H387.441M387.441 151.1V164.675M387.441 164.675V168.366M387.441 168.366H376.817V171.53H387.441M387.441 168.366V171.53M192.816 114.099C192.816 116.263 191.062 118.017 188.898 118.017C186.735 118.017 184.981 116.263 184.981 114.099C184.981 111.936 186.735 110.182 188.898 110.182C191.062 110.182 192.816 111.936 192.816 114.099ZM118.8 88.6143C118.8 90.8694 116.972 92.6976 114.717 92.6976C112.461 92.6976 110.633 90.8694 110.633 88.6143C110.633 86.3591 112.461 84.5309 114.717 84.5309C116.972 84.5309 118.8 86.3591 118.8 88.6143ZM116.46 110.392C116.46 111.52 115.545 112.434 114.418 112.434C113.29 112.434 112.376 111.52 112.376 110.392C112.376 109.265 113.29 108.351 114.418 108.351C115.545 108.351 116.46 109.265 116.46 110.392ZM92.037 37.9124H101.872V41.3152H92.037V37.9124ZM199.328 96.0343H202.176V110.188H199.328V96.0343ZM175.62 96.0343H178.469V110.188H175.62V96.0343ZM157.043 157.371H175.384C177.768 157.371 179.7 155.438 179.7 153.054V134.713C179.7 132.33 177.768 130.397 175.384 130.397H157.043C154.659 130.397 152.727 132.33 152.727 134.713V153.054C152.727 155.438 154.659 157.371 157.043 157.371ZM157.663 142.632H164.098C164.575 142.632 164.961 142.245 164.961 141.769V135.333C164.961 134.857 164.575 134.47 164.098 134.47H157.663C157.186 134.47 156.8 134.857 156.8 135.333V141.769C156.8 142.245 157.186 142.632 157.663 142.632ZM157.663 153.298H164.098C164.575 153.298 164.961 152.911 164.961 152.434V145.999C164.961 145.522 164.575 145.136 164.098 145.136H157.663C157.186 145.136 156.8 145.522 156.8 145.999V152.434C156.8 152.911 157.186 153.298 157.663 153.298ZM168.329 142.632H174.764C175.241 142.632 175.627 142.245 175.627 141.769V135.333C175.627 134.857 175.241 134.47 174.764 134.47H168.329C167.852 134.47 167.466 134.857 167.466 135.333V141.769C167.466 142.245 167.852 142.632 168.329 142.632ZM168.329 153.298H174.764C175.241 153.298 175.627 152.911 175.627 152.434V145.999C175.627 145.522 175.241 145.136 174.764 145.136H168.329C167.852 145.136 167.466 145.522 167.466 145.999V152.434C167.466 152.911 167.852 153.298 168.329 153.298ZM69.853 137.989V161.158H66.6494V137.989H69.853ZM21.3539 164.788H15.178C15.8007 165.845 16.9505 166.555 18.266 166.555C19.5814 166.555 20.7313 165.845 21.3539 164.788ZM31.6307 164.788H25.4549C26.0775 165.845 27.2273 166.555 28.5428 166.555C29.8583 166.555 31.0081 165.845 31.6307 164.788ZM25.4548 161.158H31.6308C31.0081 160.101 29.8583 159.392 28.5428 159.392C27.2273 159.392 26.0774 160.101 25.4548 161.158ZM90.205 166.555C88.8895 166.555 87.7397 165.845 87.1171 164.788H93.2929C92.6703 165.845 91.5205 166.555 90.205 166.555ZM87.117 161.158H93.293C92.6704 160.101 91.5205 159.392 90.205 159.392C88.8895 159.392 87.7396 160.101 87.117 161.158ZM97.3941 164.788C98.0167 165.845 99.1666 166.555 100.482 166.555C101.798 166.555 102.947 165.845 103.57 164.788H97.3941ZM97.3941 161.158H103.57C102.947 160.101 101.798 159.392 100.482 159.392C99.1665 159.392 98.0167 160.101 97.3941 161.158ZM110.759 166.555C109.444 166.555 108.294 165.845 107.671 164.788H113.847C113.224 165.845 112.075 166.555 110.759 166.555ZM107.671 161.158H113.847C113.224 160.101 112.075 159.392 110.759 159.392C109.444 159.392 108.294 160.101 107.671 161.158ZM117.948 164.788C118.571 165.845 119.721 166.555 121.036 166.555C122.352 166.555 123.501 165.845 124.124 164.788H117.948ZM117.948 161.158H124.124C123.501 160.101 122.352 159.392 121.036 159.392C119.721 159.392 118.571 160.101 117.948 161.158ZM131.313 166.555C129.998 166.555 128.848 165.845 128.225 164.788H134.401C133.778 165.845 132.629 166.555 131.313 166.555ZM128.225 161.158H134.401C133.779 160.101 132.629 159.392 131.313 159.392C129.998 159.392 128.848 160.101 128.225 161.158ZM138.502 164.788C139.125 165.845 140.275 166.555 141.59 166.555C142.906 166.555 144.055 165.845 144.678 164.788H138.502ZM138.502 161.158H144.678C144.056 160.101 142.906 159.392 141.59 159.392C140.275 159.392 139.125 160.101 138.502 161.158ZM151.867 166.555C150.552 166.555 149.402 165.845 148.779 164.788H154.955C154.333 165.845 153.183 166.555 151.867 166.555ZM148.779 161.158H154.955C154.333 160.101 153.183 159.392 151.867 159.392C150.552 159.392 149.402 160.101 148.779 161.158ZM159.056 164.788C159.679 165.845 160.829 166.555 162.144 166.555C163.46 166.555 164.61 165.845 165.232 164.788H159.056ZM159.056 161.158H165.232C164.61 160.101 163.46 159.392 162.144 159.392C160.829 159.392 159.679 160.101 159.056 161.158ZM172.421 166.555C171.106 166.555 169.956 165.845 169.333 164.788H175.509C174.887 165.845 173.737 166.555 172.421 166.555ZM169.333 161.158H175.509C174.887 160.101 173.737 159.392 172.421 159.392C171.106 159.392 169.956 160.101 169.333 161.158ZM179.61 164.788C180.233 165.845 181.383 166.555 182.698 166.555C184.014 166.555 185.164 165.845 185.786 164.788H179.61ZM179.61 161.158H185.786C185.164 160.101 184.014 159.392 182.698 159.392C181.383 159.392 180.233 160.101 179.61 161.158ZM192.975 166.555C191.66 166.555 190.51 165.845 189.887 164.788H196.063C195.441 165.845 194.291 166.555 192.975 166.555ZM189.887 161.158H196.063C195.441 160.101 194.291 159.392 192.975 159.392C191.66 159.392 190.51 160.101 189.887 161.158ZM200.164 164.788C200.787 165.845 201.937 166.555 203.252 166.555C204.568 166.555 205.718 165.845 206.34 164.788H200.164ZM200.164 161.158H206.34C205.718 160.101 204.568 159.392 203.252 159.392C201.937 159.392 200.787 160.101 200.164 161.158ZM213.529 166.555C212.214 166.555 211.064 165.845 210.442 164.788H216.617C215.995 165.845 214.845 166.555 213.529 166.555ZM210.441 161.158H216.617C215.995 160.101 214.845 159.392 213.529 159.392C212.214 159.392 211.064 160.101 210.441 161.158ZM220.719 164.788C221.341 165.845 222.491 166.555 223.806 166.555C225.122 166.555 226.272 165.845 226.894 164.788H220.719ZM220.718 161.158H226.894C226.272 160.101 225.122 159.392 223.806 159.392C222.491 159.392 221.341 160.101 220.718 161.158ZM234.084 166.555C232.768 166.555 231.618 165.845 230.996 164.788H237.171C236.549 165.845 235.399 166.555 234.084 166.555ZM230.996 161.158H237.171C236.549 160.101 235.399 159.392 234.084 159.392C232.768 159.392 231.618 160.101 230.996 161.158ZM241.273 164.788C241.895 165.845 243.045 166.555 244.361 166.555C245.676 166.555 246.826 165.845 247.448 164.788H241.273ZM241.273 161.158H247.449C246.826 160.101 245.676 159.392 244.361 159.392C243.045 159.392 241.895 160.101 241.273 161.158ZM254.638 166.555C253.322 166.555 252.172 165.845 251.55 164.788H257.725C257.103 165.845 255.953 166.555 254.638 166.555ZM251.55 161.158H257.726C257.103 160.101 255.953 159.392 254.638 159.392C253.322 159.392 252.172 160.101 251.55 161.158ZM261.827 164.788C262.449 165.845 263.599 166.555 264.915 166.555C266.23 166.555 267.38 165.845 268.003 164.788H261.827ZM261.827 161.158H268.003C267.38 160.101 266.23 159.392 264.915 159.392C263.599 159.392 262.449 160.101 261.827 161.158ZM275.192 166.555C273.876 166.555 272.726 165.845 272.104 164.788H278.28C277.657 165.845 276.507 166.555 275.192 166.555ZM272.104 161.158H278.28C277.657 160.101 276.507 159.392 275.192 159.392C273.876 159.392 272.726 160.101 272.104 161.158ZM285.469 166.555C284.153 166.555 283.003 165.845 282.381 164.788H288.557C287.934 165.845 286.784 166.555 285.469 166.555ZM282.381 161.158H288.557C287.934 160.101 286.784 159.392 285.469 159.392C284.153 159.392 283.003 160.101 282.381 161.158ZM292.658 164.788C293.28 165.845 294.43 166.555 295.746 166.555C297.061 166.555 298.211 165.845 298.834 164.788H292.658ZM292.658 161.158H298.834C298.211 160.101 297.061 159.392 295.746 159.392C294.43 159.392 293.28 160.101 292.658 161.158ZM302.935 164.788C303.557 165.845 304.707 166.555 306.023 166.555C307.338 166.555 308.488 165.845 309.111 164.788H302.935ZM302.935 161.158H309.111C308.488 160.101 307.338 159.392 306.023 159.392C304.707 159.392 303.557 160.101 302.935 161.158ZM316.3 166.555C314.984 166.555 313.835 165.845 313.212 164.788H319.388C318.765 165.845 317.615 166.555 316.3 166.555ZM313.212 161.158H319.388C318.765 160.101 317.615 159.392 316.3 159.392C314.984 159.392 313.834 160.101 313.212 161.158ZM15.178 161.158H21.3539C20.7313 160.101 19.5815 159.392 18.266 159.392C16.9505 159.392 15.8006 160.101 15.178 161.158ZM86.5761 131.26H104.917C107.301 131.26 109.233 133.193 109.233 135.577V153.918C109.233 156.301 107.301 158.234 104.917 158.234H86.5761C84.1923 158.234 82.2599 156.301 82.2599 153.918V135.577C82.2599 133.193 84.1923 131.26 86.5761 131.26ZM329.051 185.09C329.051 189.226 325.698 192.579 321.562 192.579C317.426 192.579 314.073 189.226 314.073 185.09C314.073 180.954 317.426 177.602 321.562 177.602C325.698 177.602 329.051 180.954 329.051 185.09ZM20.4929 185.09C20.4929 189.226 17.1401 192.579 13.0042 192.579C8.86833 192.579 5.51554 189.226 5.51554 185.09C5.51554 180.954 8.86833 177.602 13.0042 177.602C17.1401 177.602 20.4929 180.954 20.4929 185.09ZM69.993 213.351V218.669H81.88V213.351H69.993ZM79.4817 210.849H76.145V208.242H79.4817V210.849ZM297.27 192.152H303.824V194.7H297.27V192.152ZM219.507 131.566C219.507 131.93 219.212 132.225 218.848 132.225C218.484 132.225 218.189 131.93 218.189 131.566C218.189 131.202 218.484 130.907 218.848 130.907C219.212 130.907 219.507 131.202 219.507 131.566ZM226.556 131.566C226.556 131.93 226.261 132.225 225.897 132.225C225.533 132.225 225.238 131.93 225.238 131.566C225.238 131.202 225.533 130.907 225.897 130.907C226.261 130.907 226.556 131.202 226.556 131.566ZM223.032 131.566C223.032 131.93 222.737 132.225 222.373 132.225C222.009 132.225 221.713 131.93 221.713 131.566C221.713 131.202 222.009 130.907 222.373 130.907C222.737 130.907 223.032 131.202 223.032 131.566ZM275.108 131.566C275.108 131.93 274.813 132.225 274.449 132.225C274.085 132.225 273.79 131.93 273.79 131.566C273.79 131.202 274.085 130.907 274.449 130.907C274.813 130.907 275.108 131.202 275.108 131.566ZM282.158 131.566C282.158 131.93 281.863 132.225 281.499 132.225C281.135 132.225 280.84 131.93 280.84 131.566C280.84 131.202 281.135 130.907 281.499 130.907C281.863 130.907 282.158 131.202 282.158 131.566ZM278.633 131.566C278.633 131.93 278.338 132.225 277.974 132.225C277.61 132.225 277.315 131.93 277.315 131.566C277.315 131.202 277.61 130.907 277.974 130.907C278.338 130.907 278.633 131.202 278.633 131.566ZM404.547 70.0876C404.547 70.458 404.247 70.7582 403.876 70.7582C403.506 70.7582 403.206 70.458 403.206 70.0876C403.206 69.7172 403.506 69.417 403.876 69.417C404.247 69.417 404.547 69.7172 404.547 70.0876ZM411.72 70.0876C411.72 70.458 411.419 70.7582 411.049 70.7582C410.679 70.7582 410.378 70.458 410.378 70.0876C410.378 69.7172 410.679 69.417 411.049 69.417C411.419 69.417 411.72 69.7172 411.72 70.0876ZM408.133 70.0876C408.133 70.458 407.833 70.7582 407.463 70.7582C407.092 70.7582 406.792 70.458 406.792 70.0876C406.792 69.7172 407.092 69.417 407.463 69.417C407.833 69.417 408.133 69.7172 408.133 70.0876ZM461.965 70.0876C461.965 70.458 461.665 70.7582 461.294 70.7582C460.924 70.7582 460.624 70.458 460.624 70.0876C460.624 69.7172 460.924 69.417 461.294 69.417C461.665 69.417 461.965 69.7172 461.965 70.0876ZM469.138 70.0876C469.138 70.458 468.837 70.7582 468.467 70.7582C468.097 70.7582 467.797 70.458 467.797 70.0876C467.797 69.7172 468.097 69.417 468.467 69.417C468.837 69.417 469.138 69.7172 469.138 70.0876ZM465.552 70.0876C465.552 70.458 465.251 70.7582 464.881 70.7582C464.511 70.7582 464.21 70.458 464.21 70.0876C464.21 69.7172 464.511 69.417 464.881 69.417C465.251 69.417 465.552 69.7172 465.552 70.0876ZM404.547 110.259C404.547 110.629 404.247 110.929 403.876 110.929C403.506 110.929 403.206 110.629 403.206 110.259C403.206 109.889 403.506 109.588 403.876 109.588C404.247 109.588 404.547 109.889 404.547 110.259ZM411.72 110.259C411.72 110.629 411.419 110.929 411.049 110.929C410.679 110.929 410.378 110.629 410.378 110.259C410.378 109.889 410.679 109.588 411.049 109.588C411.419 109.588 411.72 109.889 411.72 110.259ZM408.133 110.259C408.133 110.629 407.833 110.929 407.463 110.929C407.092 110.929 406.792 110.629 406.792 110.259C406.792 109.889 407.092 109.588 407.463 109.588C407.833 109.588 408.133 109.889 408.133 110.259ZM461.965 110.259C461.965 110.629 461.665 110.929 461.294 110.929C460.924 110.929 460.624 110.629 460.624 110.259C460.624 109.889 460.924 109.588 461.294 109.588C461.665 109.588 461.965 109.889 461.965 110.259ZM469.138 110.259C469.138 110.629 468.837 110.929 468.467 110.929C468.097 110.929 467.797 110.629 467.797 110.259C467.797 109.889 468.097 109.588 468.467 109.588C468.837 109.588 469.138 109.889 469.138 110.259ZM465.552 110.259C465.552 110.629 465.251 110.929 464.881 110.929C464.511 110.929 464.21 110.629 464.21 110.259C464.21 109.889 464.511 109.588 464.881 109.588C465.251 109.588 465.552 109.889 465.552 110.259ZM404.547 150.43C404.547 150.8 404.247 151.1 403.876 151.1C403.506 151.1 403.206 150.8 403.206 150.43C403.206 150.059 403.506 149.759 403.876 149.759C404.247 149.759 404.547 150.059 404.547 150.43ZM411.72 150.43C411.72 150.8 411.419 151.1 411.049 151.1C410.679 151.1 410.378 150.8 410.378 150.43C410.378 150.059 410.679 149.759 411.049 149.759C411.419 149.759 411.72 150.059 411.72 150.43ZM408.133 150.43C408.133 150.8 407.833 151.1 407.463 151.1C407.092 151.1 406.792 150.8 406.792 150.43C406.792 150.059 407.092 149.759 407.463 149.759C407.833 149.759 408.133 150.059 408.133 150.43ZM461.965 150.43C461.965 150.8 461.665 151.1 461.294 151.1C460.924 151.1 460.624 150.8 460.624 150.43C460.624 150.059 460.924 149.759 461.294 149.759C461.665 149.759 461.965 150.059 461.965 150.43ZM469.138 150.43C469.138 150.8 468.837 151.1 468.467 151.1C468.097 151.1 467.797 150.8 467.797 150.43C467.797 150.059 468.097 149.759 468.467 149.759C468.837 149.759 469.138 150.059 469.138 150.43ZM465.552 150.43C465.552 150.8 465.251 151.1 464.881 151.1C464.511 151.1 464.21 150.8 464.21 150.43C464.21 150.059 464.511 149.759 464.881 149.759C465.251 149.759 465.552 150.059 465.552 150.43ZM404.547 190.601C404.547 190.971 404.247 191.272 403.876 191.272C403.506 191.272 403.206 190.971 403.206 190.601C403.206 190.231 403.506 189.93 403.876 189.93C404.247 189.93 404.547 190.231 404.547 190.601ZM411.72 190.601C411.72 190.971 411.419 191.272 411.049 191.272C410.679 191.272 410.378 190.971 410.378 190.601C410.378 190.231 410.679 189.93 411.049 189.93C411.419 189.93 411.72 190.231 411.72 190.601ZM408.133 190.601C408.133 190.971 407.833 191.272 407.463 191.272C407.092 191.272 406.792 190.971 406.792 190.601C406.792 190.231 407.092 189.93 407.463 189.93C407.833 189.93 408.133 190.231 408.133 190.601ZM461.965 190.601C461.965 190.971 461.665 191.272 461.294 191.272C460.924 191.272 460.624 190.971 460.624 190.601C460.624 190.231 460.924 189.93 461.294 189.93C461.665 189.93 461.965 190.231 461.965 190.601ZM469.138 190.601C469.138 190.971 468.837 191.272 468.467 191.272C468.097 191.272 467.797 190.971 467.797 190.601C467.797 190.231 468.097 189.93 468.467 189.93C468.837 189.93 469.138 190.231 469.138 190.601ZM465.552 190.601C465.552 190.971 465.251 191.272 464.881 191.272C464.511 191.272 464.21 190.971 464.21 190.601C464.21 190.231 464.511 189.93 464.881 189.93C465.251 189.93 465.552 190.231 465.552 190.601Z" stroke="url(#paint1_linear_1284_705)" stroke-width="1.5" />
  <defs>
    <linearGradient id="paint0_linear_1284_705" x1="287.618" y1="2.927" x2="287.313" y2="259.447" gradientUnits="userSpaceOnUse">
      <stop stop-color="#F840C5" />
      <stop offset="1" stop-color="#F85C3A" />
    </linearGradient>
    <linearGradient id="paint1_linear_1284_705" x1="1.38062" y1="37.9124" x2="515.837" y2="224.342" gradientUnits="userSpaceOnUse">
      <stop stop-color="#F83AE1" />
      <stop offset="1" stop-color="#EE885C" />
    </linearGradient>
  </defs>
</svg>