<svg width="573" height="198" viewBox="0 0 573 198" fill="none" xmlns="http://www.w3.org/2000/svg">
  <path d="M254.086 82.3019C254.086 83.7746 255.279 84.9685 256.752 84.9685C258.225 84.9685 259.419 83.7746 259.419 82.3019C259.419 80.8291 258.225 79.6352 256.752 79.6352C255.279 79.6352 254.086 80.8291 254.086 82.3019ZM129.298 82.3019L128.944 82.6554L129.09 82.8019H129.298V82.3019ZM96.1357 49.14L96.4893 48.7865L96.3428 48.64H96.1357V49.14ZM27.0235 49.14C27.0235 50.6128 28.2174 51.8067 29.6902 51.8067C31.163 51.8067 32.3569 50.6128 32.3569 49.14C32.3569 47.6673 31.163 46.4733 29.6902 46.4733C28.2174 46.4733 27.0235 47.6673 27.0235 49.14ZM247.918 75.5007C247.918 76.9735 249.111 78.1674 250.584 78.1674C252.057 78.1674 253.251 76.9735 253.251 75.5007C253.251 74.028 252.057 72.8341 250.584 72.8341C249.111 72.8341 247.918 74.028 247.918 75.5007ZM131.754 75.5007L131.401 75.8543L131.547 76.0007H131.754V75.5007ZM98.5019 42.2482L98.8555 41.8946L98.709 41.7482H98.5019V42.2482ZM27.0235 42.2482C27.0235 43.7209 28.2174 44.9148 29.6902 44.9148C31.163 44.9148 32.3569 43.7209 32.3569 42.2482C32.3569 40.7754 31.163 39.5815 29.6902 39.5815C28.2174 39.5815 27.0235 40.7754 27.0235 42.2482ZM243.416 68.3473C243.416 69.82 244.609 71.014 246.082 71.014C247.555 71.014 248.749 69.82 248.749 68.3473C248.749 66.8745 247.555 65.6806 246.082 65.6806C244.609 65.6806 243.416 66.8745 243.416 68.3473ZM134.845 68.3473L134.491 68.7008L134.638 68.8473H134.845V68.3473ZM101.514 35.017L101.868 34.6634L101.722 34.517H101.514V35.017ZM29.6902 35.017L29.3367 35.3705L29.4831 35.517H29.6902V35.017ZM32.5603 28.0369L32.2067 28.3904L32.3532 28.5369H32.5603V28.0369ZM104.795 28.0369L105.149 27.6833L105.002 27.5369H104.795V28.0369ZM22.5333 27.8601L22.8869 27.5066L22.7405 27.3601H22.5333V27.8601ZM0.847005 27.8601C0.847005 29.3329 2.04091 30.5268 3.51367 30.5268C4.98643 30.5268 6.18034 29.3329 6.18034 27.8601C6.18034 26.3873 4.98643 25.1934 3.51367 25.1934C2.04091 25.1934 0.847005 26.3873 0.847005 27.8601ZM24.9627 20.4392L25.3162 20.0857L25.1698 19.9392H24.9627V20.4392ZM0.847005 20.4392C0.847005 21.912 2.04091 23.1059 3.51367 23.1059C4.98643 23.1059 6.18034 21.912 6.18034 20.4392C6.18034 18.9664 4.98643 17.7725 3.51367 17.7725C2.04091 17.7725 0.847005 18.9664 0.847005 20.4392ZM138.112 61.3538L137.759 61.7073L137.905 61.8538H138.112V61.3538ZM256.752 61.3538L257.106 61.0002L256.959 60.8538H256.752V61.3538ZM261.079 68.3473C261.079 69.82 262.273 71.014 263.746 71.014C265.219 71.014 266.412 69.82 266.412 68.3473C266.412 66.8745 265.219 65.6806 263.746 65.6806C262.273 65.6806 261.079 66.8745 261.079 68.3473ZM247.917 110.193C247.917 111.666 249.111 112.859 250.584 112.859C252.057 112.859 253.251 111.666 253.251 110.193C253.251 108.72 252.057 107.526 250.584 107.526C249.111 107.526 247.917 108.72 247.917 110.193ZM226.282 110.193V109.693H226.075L225.929 109.839L226.282 110.193ZM247.917 103.392C247.917 104.864 249.111 106.058 250.584 106.058C252.057 106.058 253.251 104.864 253.251 103.392C253.251 101.919 252.057 100.725 250.584 100.725C249.111 100.725 247.917 101.919 247.917 103.392ZM131.754 103.392V102.892H131.547L131.401 103.038L131.754 103.392ZM247.917 96.2382C247.917 97.7109 249.111 98.9048 250.584 98.9048C252.057 98.9048 253.251 97.7109 253.251 96.2382C253.251 94.7654 252.057 93.5715 250.584 93.5715C249.111 93.5715 247.917 94.7654 247.917 96.2382ZM114.374 96.2382L114.02 96.5917L114.167 96.7382H114.374V96.2382ZM126.334 89.2446L125.98 89.5982L126.127 89.7446H126.334V89.2446ZM250.917 89.2446C250.917 90.7174 252.111 91.9113 253.584 91.9113C255.057 91.9113 256.251 90.7174 256.251 89.2446C256.251 87.7719 255.057 86.578 253.584 86.578C252.111 86.578 250.917 87.7719 250.917 89.2446ZM247.918 117.226C247.918 118.699 249.111 119.893 250.584 119.893C252.057 119.893 253.251 118.699 253.251 117.226C253.251 115.753 252.057 114.56 250.584 114.56C249.111 114.56 247.918 115.753 247.918 117.226ZM229.307 117.226V116.726H229.1L228.954 116.873L229.307 117.226ZM169.85 176.684V177.184H170.057L170.203 177.038L169.85 176.684ZM90.075 176.684V176.184H89.8679L89.7214 176.33L90.075 176.684ZM72.1123 194.647V195.147H72.3194L72.4658 195L72.1123 194.647ZM27.0235 194.647C27.0235 196.119 28.2174 197.313 29.6902 197.313C31.163 197.313 32.3569 196.119 32.3569 194.647C32.3569 193.174 31.163 191.98 29.6902 191.98C28.2174 191.98 27.0235 193.174 27.0235 194.647ZM167.37 169.105V169.605H167.577L167.723 169.459L167.37 169.105ZM90.075 169.105L89.7214 169.459L89.8679 169.605H90.075V169.105ZM83.1852 162.215L83.5387 161.862L83.3923 161.715H83.1852V162.215ZM58.3333 162.215L57.9798 162.569L58.1262 162.715H58.3333V162.215ZM43.7533 147.635L44.1068 147.282L43.9604 147.135H43.7533V147.635ZM0.847005 147.635C0.847005 149.108 2.04091 150.302 3.51367 150.302C4.98643 150.302 6.18034 149.108 6.18034 147.635C6.18034 146.163 4.98643 144.969 3.51367 144.969C2.04091 144.969 0.847005 146.163 0.847005 147.635ZM219.249 117.226V117.726H219.456L219.602 117.58L219.249 117.226ZM209.996 117.226V116.726H209.789L209.643 116.873L209.996 117.226ZM193.102 134.12L192.749 133.766L192.602 133.913V134.12H193.102ZM193.102 143.373L193.456 143.726L193.602 143.58V143.373H193.102ZM175.999 61.3538V61.8538H176.206L176.353 61.7073L175.999 61.3538ZM182.603 54.7496V54.2496H182.396L182.25 54.3961L182.603 54.7496ZM233.207 54.7496L233.561 54.3961L233.414 54.2496H233.207V54.7496ZM239.811 61.3538L239.458 61.7073L239.604 61.8538H239.811V61.3538ZM213.295 110.193C213.295 111.666 214.488 112.859 215.961 112.859C217.434 112.859 218.628 111.666 218.628 110.193C218.628 108.72 217.434 107.526 215.961 107.526C214.488 107.526 213.295 108.72 213.295 110.193ZM206.411 110.193V109.693H206.204L206.057 109.839L206.411 110.193ZM189.147 127.456V127.956H189.354L189.501 127.81L189.147 127.456ZM124.604 127.456L124.25 127.81L124.397 127.956H124.604V127.456ZM114.374 117.226L114.727 116.873L114.581 116.726H114.374V117.226ZM68.1218 117.226L67.7682 117.58L67.9147 117.726H68.1218V117.226ZM47.1337 96.2382L47.4873 95.8846L47.3408 95.7382H47.1337V96.2382ZM22.5333 96.2382V95.7382H22.3262L22.1798 95.8846L22.5333 96.2382ZM15.3799 103.392V103.892H15.587L15.7335 103.745L15.3799 103.392ZM0.847005 103.392C0.847005 104.864 2.04091 106.058 3.51367 106.058C4.98643 106.058 6.18034 104.864 6.18034 103.392C6.18034 101.919 4.98643 100.725 3.51367 100.725C2.04091 100.725 0.847005 101.919 0.847005 103.392ZM181.95 134.12C181.95 135.593 183.144 136.787 184.617 136.787C186.09 136.787 187.284 135.593 187.284 134.12C187.284 132.647 186.09 131.453 184.617 131.453C183.144 131.453 181.95 132.647 181.95 134.12ZM156.521 162.215V162.715H156.728L156.875 162.569L156.521 162.215ZM114.374 162.215L114.02 162.569L114.167 162.715H114.374V162.215ZM107.081 154.922L107.434 154.569L107.288 154.422H107.081V154.922ZM61.4209 154.922L61.0674 155.276L61.2138 155.422H61.4209V154.922ZM47.1337 140.635L47.4873 140.282L47.3408 140.135H47.1337V140.635ZM0.847005 140.635C0.847005 142.108 2.04091 143.302 3.51367 143.302C4.98643 143.302 6.18034 142.108 6.18034 140.635C6.18034 139.162 4.98643 137.968 3.51367 137.968C2.04091 137.968 0.847005 139.162 0.847005 140.635ZM92.6586 55.5693L93.0122 55.2158L92.8657 55.0693H92.6586V55.5693ZM68.1218 55.5693V55.0693H67.9147L67.7682 55.2158L68.1218 55.5693ZM62.3373 61.3538V61.8538H62.5445L62.6909 61.7073L62.3373 61.3538ZM19.8667 61.3538C19.8667 62.8265 21.0606 64.0204 22.5333 64.0204C24.0061 64.0204 25.2 62.8265 25.2 61.3538C25.2 59.881 24.0061 58.6871 22.5333 58.6871C21.0606 58.6871 19.8667 59.881 19.8667 61.3538ZM86.4829 68.3473L86.8365 67.9937L86.69 67.8473H86.4829V68.3473ZM12.7132 68.3473C12.7132 69.82 13.9071 71.014 15.3799 71.014C16.8527 71.014 18.0466 69.82 18.0466 68.3473C18.0466 66.8745 16.8527 65.6806 15.3799 65.6806C13.9071 65.6806 12.7132 66.8745 12.7132 68.3473ZM124.953 110.193V110.693H125.16L125.307 110.546L124.953 110.193ZM70.9001 110.193L70.5465 110.546L70.693 110.693H70.9001V110.193ZM49.952 89.2446L50.3055 88.8911L50.1591 88.7446H49.952V89.2446ZM0.847005 89.2446C0.847005 90.7174 2.04091 91.9113 3.51367 91.9113C4.98643 91.9113 6.18034 90.7174 6.18034 89.2446C6.18034 87.7719 4.98643 86.578 3.51367 86.578C2.04091 86.578 0.847005 87.7719 0.847005 89.2446ZM240.261 54.7496C240.261 56.2224 241.455 57.4163 242.928 57.4163C244.401 57.4163 245.595 56.2224 245.595 54.7496C245.595 53.2769 244.401 52.083 242.928 52.083C241.455 52.083 240.261 53.2769 240.261 54.7496ZM235.824 47.6451L236.177 47.2916L236.031 47.1451H235.824V47.6451ZM215.961 47.6451L215.608 47.9987L215.754 48.1451H215.961V47.6451ZM196.353 28.0369L196.706 27.6833L196.56 27.5369H196.353V28.0369ZM173.332 28.0369C173.332 29.5096 174.526 30.7035 175.999 30.7035C177.472 30.7035 178.666 29.5096 178.666 28.0369C178.666 26.5641 177.472 25.3702 175.999 25.3702C174.526 25.3702 173.332 26.5641 173.332 28.0369ZM256.752 81.8019H129.298V82.8019H256.752V81.8019ZM129.651 81.9483L96.4893 48.7865L95.7822 49.4936L128.944 82.6554L129.651 81.9483ZM96.1357 48.64H29.6902V49.64H96.1357V48.64ZM250.584 75.0007H131.754V76.0007H250.584V75.0007ZM132.108 75.1472L98.8555 41.8946L98.1484 42.6017L131.401 75.8543L132.108 75.1472ZM98.5019 41.7482H29.6902V42.7482H98.5019V41.7482ZM246.082 67.8473H134.845V68.8473H246.082V67.8473ZM135.198 67.9937L101.868 34.6634L101.161 35.3705L134.491 68.7008L135.198 67.9937ZM101.514 34.517H29.6902V35.517H101.514V34.517ZM32.5603 28.5369H104.795V27.5369H32.5603V28.5369ZM30.0438 34.6634L22.8869 27.5066L22.1798 28.2137L29.3367 35.3705L30.0438 34.6634ZM22.5333 27.3601H3.51367V28.3601H22.5333V27.3601ZM32.9138 27.6833L25.3162 20.0857L24.6091 20.7928L32.2067 28.3904L32.9138 27.6833ZM24.9627 19.9392H3.51367V20.9392H24.9627V19.9392ZM104.442 28.3904L137.759 61.7073L138.466 61.0002L105.149 27.6833L104.442 28.3904ZM256.399 61.7073L263.392 68.7008L264.099 67.9937L257.106 61.0002L256.399 61.7073ZM250.584 109.693H226.282V110.693H250.584V109.693ZM250.584 102.892H131.754V103.892H250.584V102.892ZM250.584 95.7382H114.374V96.7382H250.584V95.7382ZM126.334 89.7446H253.584V88.7446H126.334V89.7446ZM250.584 116.726H229.307V117.726H250.584V116.726ZM228.954 116.873L169.496 176.33L170.203 177.038L229.661 117.58L228.954 116.873ZM169.85 176.184H90.075V177.184H169.85V176.184ZM89.7214 176.33L71.7587 194.293L72.4658 195L90.4285 177.038L89.7214 176.33ZM72.1123 194.147H29.6902V195.147H72.1123V194.147ZM167.37 168.605H90.075V169.605H167.37V168.605ZM90.4285 168.752L83.5387 161.862L82.8316 162.569L89.7214 169.459L90.4285 168.752ZM83.1852 161.715H58.3333V162.715H83.1852V161.715ZM58.6869 161.862L44.1068 147.282L43.3997 147.989L57.9798 162.569L58.6869 161.862ZM43.7533 147.135H3.51367V148.135H43.7533V147.135ZM225.929 109.839L218.895 116.873L219.602 117.58L226.636 110.546L225.929 109.839ZM219.249 116.726H209.996V117.726H219.249V116.726ZM209.643 116.873L192.749 133.766L193.456 134.473L210.35 117.58L209.643 116.873ZM192.749 143.019L167.016 168.752L167.723 169.459L193.456 143.726L192.749 143.019ZM192.602 134.12V143.373H193.602V134.12H192.602ZM138.112 61.8538H175.999V60.8538H138.112V61.8538ZM176.353 61.7073L182.957 55.1032L182.25 54.3961L175.645 61.0002L176.353 61.7073ZM182.603 55.2496H233.207V54.2496H182.603V55.2496ZM239.811 61.8538H256.752V60.8538H239.811V61.8538ZM232.854 55.1032L239.458 61.7073L240.165 61.0002L233.561 54.3961L232.854 55.1032ZM215.961 109.693H206.411V110.693H215.961V109.693ZM206.057 109.839L188.794 127.103L189.501 127.81L206.764 110.546L206.057 109.839ZM189.147 126.956H124.604V127.956H189.147V126.956ZM124.957 127.103L114.727 116.873L114.02 117.58L124.25 127.81L124.957 127.103ZM114.374 116.726H68.1218V117.726H114.374V116.726ZM68.4753 116.873L47.4873 95.8846L46.7802 96.5917L67.7682 117.58L68.4753 116.873ZM47.1337 95.7382H22.5333V96.7382H47.1337V95.7382ZM22.1798 95.8846L15.0264 103.038L15.7335 103.745L22.8869 96.5917L22.1798 95.8846ZM15.3799 102.892H3.51367V103.892H15.3799V102.892ZM184.263 133.766L156.168 161.862L156.875 162.569L184.971 134.473L184.263 133.766ZM156.521 161.715H114.374V162.715H156.521V161.715ZM114.727 161.862L107.434 154.569L106.727 155.276L114.02 162.569L114.727 161.862ZM107.081 154.422H61.4209V155.422H107.081V154.422ZM61.7745 154.569L47.4873 140.282L46.7802 140.989L61.0674 155.276L61.7745 154.569ZM47.1337 140.135H3.51367V141.135H47.1337V140.135ZM126.688 88.8911L93.0122 55.2158L92.3051 55.9229L125.98 89.5982L126.688 88.8911ZM92.6586 55.0693H68.1218V56.0693H92.6586V55.0693ZM67.7682 55.2158L61.9838 61.0002L62.6909 61.7073L68.4753 55.9229L67.7682 55.2158ZM62.3373 60.8538H22.5333V61.8538H62.3373V60.8538ZM114.727 95.8846L86.8365 67.9937L86.1294 68.7008L114.02 96.5917L114.727 95.8846ZM86.4829 67.8473H15.3799V68.8473H86.4829V67.8473ZM131.401 103.038L124.6 109.839L125.307 110.546L132.108 103.745L131.401 103.038ZM124.953 109.693H70.9001V110.693H124.953V109.693ZM71.2536 109.839L50.3055 88.8911L49.5984 89.5982L70.5465 110.546L71.2536 109.839ZM49.952 88.7446H3.51367V89.7446H49.952V88.7446ZM243.282 54.3961L236.177 47.2916L235.47 47.9987L242.575 55.1032L243.282 54.3961ZM235.824 47.1451H215.961V48.1451H235.824V47.1451ZM216.315 47.2916L196.706 27.6833L195.999 28.3904L215.608 47.9987L216.315 47.2916ZM196.353 27.5369H175.999V28.5369H196.353V27.5369Z" fill="url(#paint0_linear_1284_706)" />
  <path d="M334.097 71.1949V67.5886L267.584 1.07593L248.973 1.07593L244.816 5.23291L270.287 57.3372L287.385 64.5314M334.097 71.1949V73.1123M334.097 71.1949H486.534M310.181 124.627H500.615L552.378 118.515L571.479 111.066V109.332M310.181 124.627L287.945 117.905M310.181 124.627H294.465L264.097 122.484V120.976L287.945 117.905M285.542 113.358V117.178L287.945 117.905M285.542 113.358L279.238 115.65H260.902V101.133L265.295 92.9201L275.609 94.8302L286.879 101.133M285.542 113.358L286.879 101.133M286.879 101.133L288.499 96.0896H291.266M291.266 96.0896V92.1372M291.266 96.0896V103.444M291.266 92.1372H293.094M291.266 92.1372H287.385V90.9768L279.238 90.5808L265.295 86.4541L273.212 63.6866L284.775 71.7965L287.385 69.1866V64.5314M352.88 113.358H314.902V109.607H291.266V103.444M352.88 113.358L385.452 108.408H387.721M352.88 113.358H390.018M512.907 113.52L471.832 108.408H464.889M512.907 113.52V108.408M512.907 113.52H554.522L571.479 109.332M512.907 96.244L530.888 99.0645M512.907 96.244L509.659 92.9963M512.907 96.244V108.408M530.888 99.0645H537.396M530.888 99.0645V87.9098M549.927 93.386L571.479 103.808V109.332M549.927 93.386V99.0645H540.071M549.927 93.386L545.955 91.4658M513.788 71.1949H515.771L526.761 82.1842L527.73 82.6532M513.788 71.1949V73.1123M513.788 71.1949H504.598M527.73 82.6532L530.888 84.1799M527.73 82.6532L525.957 85.3932M513.788 73.1123V73.6695L515.771 75.6525V77.165H509.069L507.147 79.0875V84.5055L518.158 86.7776L522.614 85.0299L525.061 86.7776L525.957 85.3932M513.788 73.1123H510.1V75.0788H502.844M334.097 73.1123V88.1679L332.215 88.6012M334.097 73.1123H337.993M502.844 75.0788V73.1123L496.728 73.1123M502.844 75.0788V91.6245H508.287L509.659 92.9963M509.659 92.9963H505.204L500.615 97.5851V105.127L503.896 108.408H512.907M293.094 92.1372V95.2962H303.128M293.094 92.1372H303.128M303.128 95.2962V92.1372M303.128 95.2962V96.7776H303.801M303.128 92.1372H305.754M305.754 92.1372H316.859L328.852 89.3756M305.754 92.1372V96.7776H303.801M303.801 96.7776V103.444H291.266M456.579 108.408V103.811H464.889V108.408M456.579 108.408H464.889M456.579 108.408H444.166M530.888 84.1799L539.239 88.2181M530.888 84.1799V87.9098M539.239 88.2181V93.386L537.396 99.0645M539.239 88.2181L545.955 91.4658M537.396 99.0645H540.071M540.071 99.0645L542.032 93.386H543.726L544.818 94.4777H545.955V91.4658M525.957 85.3932L530.888 87.9098M496.728 73.1123C496.471 74.1016 494.556 85.1702 493.631 90.5808H490.818M496.728 73.1123H493.631M332.215 88.6012V90.5808H337.993M332.215 88.6012L328.852 89.3756M493.631 73.1123C493.631 73.558 491.756 84.9437 490.818 90.5808M493.631 73.1123H455.758M490.818 90.5808H455.758M453.376 73.1123V90.5808M453.376 73.1123H455.758M453.376 73.1123H416.232M453.376 90.5808H455.758M453.376 90.5808H416.232M455.758 90.5808V73.1123M413.478 73.1123V90.5808M413.478 73.1123H416.232M413.478 73.1123H376.24M413.478 90.5808H416.232M413.478 90.5808H376.24M416.232 73.1123V90.5808M373.405 73.1123V90.5808M373.405 73.1123H376.24M373.405 73.1123H340.879M373.405 90.5808H376.24M373.405 90.5808H340.879M376.24 73.1123V90.5808M337.993 73.1123V90.5808M337.993 73.1123H340.879M337.993 90.5808H340.879M340.879 73.1123V90.5808M287.385 64.5314L291.111 64.8931M328.852 89.3756V85.8146M328.852 85.8146V70.3378L318.875 67.5886L302.5 65.9989M328.852 85.8146L318.875 88.1679H282.638V85.8146H276.094L274.171 84.0686L277.667 76.0289H286.879L291.111 71.7965V64.8931M291.111 64.8931L300.831 65.8369M302.5 65.9989L303.801 62.6661L327.907 65.7077L271.413 9.2134H267.584C268.386 10.688 290.705 43.7426 301.764 60.0856L300.831 65.8369M302.5 65.9989L300.831 65.8369M265.295 38.6767L252.244 12.654H258.879L272.519 33.9477M265.295 38.6767L272.519 53.0815H284.775L272.519 33.9477M265.295 38.6767L272.519 33.9477M504.598 71.1949L502.455 69.0523L488.676 69.0523L486.534 71.1949M504.598 71.1949L486.534 71.1949M444.166 108.408V113.358H390.018M444.166 108.408H387.721M387.721 108.408V111.061L390.018 113.358M317.605 94.0841H327.907V103.107H317.605V94.0841ZM431.855 106.273H444.166V99.8099H431.855V106.273ZM450.732 95.8088V98.271H456.579V95.8088H450.732ZM425.904 95.8088V98.271H420.057V95.8088H425.904ZM508.468 101.931C508.468 102.999 507.602 103.866 506.533 103.866C505.464 103.866 504.598 102.999 504.598 101.931C504.598 100.862 505.464 99.9954 506.533 99.9954C507.602 99.9954 508.468 100.862 508.468 101.931ZM337.993 95.8088V99.8099H392.026V95.8088H337.993Z" stroke="url(#paint1_linear_1284_706)" stroke-width="1.5" />
  <defs>
    <linearGradient id="paint0_linear_1284_706" x1="133.63" y1="20.4392" x2="133.423" y2="194.646" gradientUnits="userSpaceOnUse">
      <stop stopColor="#F8813A" />
      <stop offset="0.978885" stopColor="#F83AE5" />
    </linearGradient>
    <linearGradient id="paint1_linear_1284_706" x1="408.148" y1="1.07593" x2="408.148" y2="124.627" gradientUnits="userSpaceOnUse">
      <stop stopColor="#F8813A" />
      <stop offset="1" stopColor="#F83AC3" />
    </linearGradient>
  </defs>
</svg>