<svg width="575" height="284" viewBox="0 0 575 284" fill="none" xmlns="http://www.w3.org/2000/svg">
  <path d="M245.101 87.5437L239.959 92.6861V153.816M245.101 87.5437H249.294M245.101 87.5437V148.673L239.959 153.816M312.184 244.778L320.57 239.038M312.184 244.778L307.992 241.908M312.184 244.778L312.184 232.749L316.377 228.556V212.793L320.57 208.601V187.652M379.267 87.5437L384.41 92.6861V154.387M379.267 87.5437H375.075M379.267 87.5437V149.245L384.41 154.387M300.416 147.602H302.966M300.416 147.602H290.317L286.616 151.303L288.089 173.205M300.416 147.602L296.193 136.921M302.966 147.602L298.33 132.646M302.966 147.602H307.576M296.193 136.921L293.747 130.732V130.273M296.193 136.921L291.221 139.677M288.876 184.902L289.061 187.652H291.221M288.876 184.902L286.126 187.652H278.643M288.876 184.902L288.089 173.205M288.089 173.205H281.723L280.336 171.818M298.33 132.646L297.737 130.732V124.751L303.134 119.355H321.237L326.634 124.751V130.732L326.04 132.646M298.33 132.646L307.576 147.602M307.576 147.602H316.795M323.955 147.602H321.405M323.955 147.602H334.053L337.754 151.303L336.281 173.205M323.955 147.602L328.177 136.921M321.405 147.602L326.04 132.646M321.405 147.602H316.795M328.177 136.921L330.624 130.732V122.493L328.955 120.825M328.177 136.921C328.547 137.111 329.416 137.677 330.597 138.425M335.494 184.902L335.309 187.652H324.762M335.494 184.902L338.244 187.652H341.533M335.494 184.902L336.281 173.205M336.281 173.205H342.647L344.034 171.818M326.04 132.646L316.795 147.602M278.643 87.5437H274.45M278.643 87.5437H282.836M278.643 87.5437V105.138L287.028 113.523M261.872 87.5437H257.679M261.872 87.5437H266.065M261.872 87.5437V133.804L266.065 137.997V163.436L270.403 167.774M295.414 87.5437H299.606M295.414 87.5437V105.138L300.418 110.142M295.414 87.5437H287.028M345.726 87.5437H341.533M345.726 87.5437H349.918M345.726 87.5437V99.6372L333.148 112.215V135.875L330.597 138.425M328.955 87.5437V95.4445L333.148 99.6372L323.59 109.195M328.955 87.5437H341.533M328.955 87.5437H299.606M362.497 87.5437H358.304M362.497 87.5437H366.689M362.497 87.5437V142.49L354.111 150.875V168.108M253.487 87.5437H249.294M253.487 87.5437H257.679M253.487 87.5437V138.297L257.679 142.49V168.114L253.487 172.307V194.431M270.258 87.5437H266.065M270.258 87.5437H274.45M270.258 87.5437V108.407L282.836 120.985V145.052M287.028 87.5437H282.836M287.028 87.5437V102.402L298.852 114.226M354.111 87.5437H349.918M354.111 87.5437H358.304M354.111 87.5437V103.858L341.533 116.436V140.117L345.726 144.31M370.882 87.5437H366.689M370.882 87.5437H375.075M370.882 87.5437V153.426L375.075 157.619V187.945M249.294 87.5437V151.303L245.101 155.495V181.459M257.679 87.5437V135.924L261.872 140.117V170.66L257.679 174.853V200.918M266.065 87.5437V110.322L278.643 122.9V149.99M274.45 87.5437V106.667L287.028 119.245V129.315L291.221 133.507V139.677M282.836 87.5437V103.858L291.221 112.244V127.747L293.747 130.273M299.606 87.5437V103.858L301.973 106.225M341.533 87.5437V97.6145L328.955 110.193V120.825M349.918 87.5437V101.842L337.34 114.42V142.321M358.304 87.5437V140.117L349.918 148.503V158.416M366.689 87.5437V145.052L362.497 149.245V207.404M375.075 87.5437V151.303L379.267 155.495V181.459M245.101 181.459L239.959 173.503V153.816M245.101 181.459L249.294 187.945M253.487 194.431L257.679 200.918M253.487 194.431L249.294 187.945M257.679 200.918L265.271 212.662L270.258 216.076M270.403 167.774L266.74 176.241V184.872L269.519 187.652H274.45M270.403 167.774L272.353 163.265M274.45 187.652V202.28L270.258 206.473V216.076M274.45 187.652H278.643M270.258 216.076L274.45 218.946M379.267 181.459L384.41 173.503V154.387M379.267 181.459L375.075 187.945M278.643 187.652V204.408L274.45 208.601V218.946M274.45 218.946L278.643 221.817M278.643 149.99L277.528 151.303L274.45 158.418M278.643 149.99L282.836 145.052M282.836 145.052L284.002 143.679L291.221 139.677M272.353 163.265L270.258 161.169V135.875L266.065 131.682V116.366L274.45 124.751V158.418M272.353 163.265L274.45 158.418M282.836 187.652V206.473L278.643 210.666V221.817M278.643 221.817L287.028 227.557M354.111 168.108L357.629 176.241V184.872L354.85 187.652H341.533M354.111 168.108L349.918 158.416M362.497 207.404L359.098 212.662L337.34 227.557M362.497 207.404L370.882 194.431M253.487 145.052V165.902L249.294 170.095V187.945M375.075 187.945L370.882 194.431M366.689 151.303V161.582L370.882 165.775V194.431M293.747 130.273V122.493L296.885 119.355L298.852 114.226M295.414 187.652V211.929L291.221 216.122V224.364L295.414 228.556V233.298M295.414 187.652H291.221M295.414 187.652H299.606M295.414 233.298L287.028 227.557M295.414 233.298L307.992 241.908M291.221 187.652V209.776M287.028 186.75V227.557M349.918 158.416L346.841 151.303L345.726 149.989M345.726 144.31V149.989M345.726 144.31V119.245L354.111 110.859M345.726 149.989L340.368 143.679C339.372 143.292 338.35 142.826 337.34 142.321M337.34 142.321C334.807 141.052 332.355 139.538 330.597 138.425M354.111 187.652V206.473L337.34 223.244V227.557M337.34 227.557L328.955 233.297M298.852 114.226L300.418 110.142M300.418 110.142L301.887 106.31L301.973 106.225M301.973 106.225L304.339 103.858H320.032L322.484 106.31L323.59 109.195M328.955 120.825L327.485 119.355L323.59 109.195M299.606 187.652V202.28L307.992 210.666V241.908M299.606 187.652H320.57M324.762 187.652V210.666L320.57 214.858V239.038M324.762 187.652H320.57M320.57 239.038L328.955 233.297M341.533 187.652V206.473L328.955 219.051V233.297M252.623 78.3612L245.101 70.8393V62.3964L239.959 57.2539H232.36V175.712L259.992 218.08L312.184 254.001L364.377 218.08L392.009 175.712V57.2539H384.41L379.267 62.3964V70.8393L371.745 78.3612H252.623ZM316.498 168.114C316.498 170.698 314.403 172.793 311.819 172.793C309.235 172.793 307.14 170.698 307.14 168.114C307.14 165.53 309.235 163.436 311.819 163.436C314.403 163.436 316.498 165.53 316.498 168.114ZM315.743 158.226C315.743 160.1 314.223 161.619 312.349 161.619C312.177 161.619 312.009 161.607 311.844 161.582C311.828 161.447 311.819 161.309 311.819 161.169C311.819 159.295 313.339 157.775 315.213 157.775C315.384 157.775 315.553 157.788 315.718 157.813C315.734 157.948 315.743 158.086 315.743 158.226Z" stroke="url(#paint0_linear_1284_707)" stroke-width="1.5" />
  <path d="M221.064 109.421C221.064 110.894 222.258 112.088 223.731 112.088C225.204 112.088 226.398 110.894 226.398 109.421C226.398 107.948 225.204 106.755 223.731 106.755C222.258 106.755 221.064 107.948 221.064 109.421ZM133.439 109.421L133.086 109.775L133.232 109.921H133.439V109.421ZM221.064 116.627C221.064 118.1 222.258 119.294 223.731 119.294C225.204 119.294 226.398 118.1 226.398 116.627C226.398 115.155 225.204 113.961 223.731 113.961C222.258 113.961 221.064 115.155 221.064 116.627ZM130.27 116.627L129.917 116.981L130.063 117.127H130.27V116.627ZM197.605 123.565L197.959 123.212L197.812 123.065H197.605V123.565ZM127.331 123.565L126.977 123.919L127.124 124.065H127.331V123.565ZM193.98 130.321L194.333 129.968L194.187 129.821H193.98V130.321ZM24.136 130.321L23.7824 130.675L23.9289 130.821H24.136V130.321ZM187.853 137.291C187.853 138.764 189.047 139.958 190.52 139.958C191.993 139.958 193.186 138.764 193.186 137.291C193.186 135.818 191.993 134.624 190.52 134.624C189.047 134.624 187.853 135.818 187.853 137.291ZM187.853 144.229C187.853 145.702 189.047 146.895 190.52 146.895C191.992 146.895 193.186 145.702 193.186 144.229C193.186 142.756 191.992 141.562 190.52 141.562C189.047 141.562 187.853 142.756 187.853 144.229ZM187.853 151.295C187.853 152.768 189.047 153.961 190.52 153.961C191.993 153.961 193.186 152.768 193.186 151.295C193.186 149.822 191.993 148.628 190.52 148.628C189.047 148.628 187.853 149.822 187.853 151.295ZM194.938 158.501C194.938 159.974 196.132 161.168 197.605 161.168C199.078 161.168 200.272 159.974 200.272 158.501C200.272 157.028 199.078 155.834 197.605 155.834C196.132 155.834 194.938 157.028 194.938 158.501ZM200.949 165.439V165.939H201.156L201.303 165.792L200.949 165.439ZM127.331 165.439V164.939H127.124L126.977 165.085L127.331 165.439ZM221.064 172.195C221.064 173.668 222.258 174.862 223.731 174.862C225.204 174.862 226.398 173.668 226.398 172.195C226.398 170.722 225.204 169.528 223.731 169.528C222.258 169.528 221.064 170.722 221.064 172.195ZM130.27 172.195V171.695H130.063L129.917 171.841L130.27 172.195ZM221.064 179.165C221.064 180.637 222.258 181.831 223.731 181.831C225.204 181.831 226.398 180.637 226.398 179.165C226.398 177.692 225.204 176.498 223.731 176.498C222.258 176.498 221.064 177.692 221.064 179.165ZM133.439 179.165V178.665H133.232L133.086 178.811L133.439 179.165ZM225.557 186.102C225.557 187.575 226.751 188.769 228.223 188.769C229.696 188.769 230.89 187.575 230.89 186.102C230.89 184.63 229.696 183.436 228.223 183.436C226.751 183.436 225.557 184.63 225.557 186.102ZM136.281 186.102V185.602H136.073L135.927 185.749L136.281 186.102ZM221.064 67.2257C221.064 68.6985 222.258 69.8924 223.731 69.8924C225.204 69.8924 226.398 68.6985 226.398 67.2257C226.398 65.753 225.204 64.5591 223.731 64.5591C222.258 64.5591 221.064 65.753 221.064 67.2257ZM204.361 67.2257L204.008 67.5793L204.154 67.7257H204.361V67.2257ZM221.064 74.1106C221.064 75.5833 222.258 76.7772 223.731 76.7772C225.204 76.7772 226.398 75.5833 226.398 74.1106C226.398 72.6378 225.204 71.4439 223.731 71.4439C222.258 71.4439 221.064 72.6378 221.064 74.1106ZM200.949 74.1106L200.596 74.4641L200.742 74.6106H200.949V74.1106ZM221.064 81.2849C221.064 82.7577 222.258 83.9516 223.731 83.9516C225.204 83.9516 226.398 82.7577 226.398 81.2849C226.398 79.8121 225.204 78.6182 223.731 78.6182C222.258 78.6182 221.064 79.8121 221.064 81.2849ZM174.281 81.2849C174.281 82.7577 175.475 83.9516 176.948 83.9516C178.42 83.9516 179.614 82.7577 179.614 81.2849C179.614 79.8121 178.42 78.6182 176.948 78.6182C175.475 78.6182 174.281 79.8121 174.281 81.2849ZM221.064 88.4473C221.064 89.9201 222.258 91.114 223.731 91.114C225.204 91.114 226.398 89.9201 226.398 88.4473C226.398 86.9746 225.204 85.7807 223.731 85.7807C222.258 85.7807 221.064 86.9746 221.064 88.4473ZM174.281 88.6726C174.281 90.1454 175.475 91.3393 176.948 91.3393C178.42 91.3393 179.614 90.1454 179.614 88.6726C179.614 87.1999 178.42 86.006 176.948 86.006C175.475 86.006 174.281 87.1999 174.281 88.6726ZM221.064 95.4169C221.064 96.8897 222.258 98.0836 223.731 98.0836C225.204 98.0836 226.398 96.8897 226.398 95.4169C226.398 93.9442 225.204 92.7503 223.731 92.7503C222.258 92.7503 221.064 93.9442 221.064 95.4169ZM138.643 95.4169L138.289 95.7705L138.436 95.9169H138.643V95.4169ZM221.064 102.355C221.064 103.828 222.258 105.021 223.731 105.021C225.204 105.021 226.398 103.828 226.398 102.355C226.398 100.882 225.204 99.6881 223.731 99.6881C222.258 99.6881 221.064 100.882 221.064 102.355ZM136.281 102.355L135.927 102.708L136.073 102.855H136.281V102.355ZM493.257 116.627V117.127H493.464L493.61 116.981L493.257 116.627ZM397.971 116.627C397.971 118.1 399.165 119.294 400.638 119.294C402.111 119.294 403.305 118.1 403.305 116.627C403.305 115.155 402.111 113.961 400.638 113.961C399.165 113.961 397.971 115.155 397.971 116.627ZM499.323 130.321V130.821H499.53L499.676 130.675L499.323 130.321ZM397.971 130.321C397.971 131.794 399.165 132.988 400.638 132.988C402.111 132.988 403.305 131.794 403.305 130.321C403.305 128.849 402.111 127.655 400.638 127.655C399.165 127.655 397.971 128.849 397.971 130.321ZM502.45 137.291V137.791H502.657L502.803 137.645L502.45 137.291ZM397.971 137.291C397.971 138.764 399.165 139.958 400.638 139.958C402.111 139.958 403.305 138.764 403.305 137.291C403.305 135.818 402.111 134.624 400.638 134.624C399.165 134.624 397.971 135.818 397.971 137.291ZM505.782 144.229V144.729H505.989L506.136 144.582L505.782 144.229ZM397.971 144.229C397.971 145.702 399.165 146.895 400.638 146.895C402.111 146.895 403.305 145.702 403.305 144.229C403.305 142.756 402.111 141.562 400.638 141.562C399.165 141.562 397.971 142.756 397.971 144.229ZM508.857 151.295V151.795H509.064L509.211 151.648L508.857 151.295ZM397.971 151.295C397.971 152.768 399.165 153.961 400.638 153.961C402.111 153.961 403.305 152.768 403.305 151.295C403.305 149.822 402.111 148.628 400.638 148.628C399.165 148.628 397.971 149.822 397.971 151.295ZM456.755 158.501C456.755 159.974 457.949 161.168 459.422 161.168C460.894 161.168 462.088 159.974 462.088 158.501C462.088 157.028 460.894 155.834 459.422 155.834C457.949 155.834 456.755 157.028 456.755 158.501ZM419.469 158.501C419.469 159.974 420.663 161.168 422.136 161.168C423.609 161.168 424.803 159.974 424.803 158.501C424.803 157.028 423.609 155.834 422.136 155.834C420.663 155.834 419.469 157.028 419.469 158.501ZM456.755 165.439C456.755 166.911 457.949 168.105 459.422 168.105C460.894 168.105 462.088 166.911 462.088 165.439C462.088 163.966 460.894 162.772 459.422 162.772C457.949 162.772 456.755 163.966 456.755 165.439ZM419.469 165.439C419.469 166.911 420.663 168.105 422.136 168.105C423.609 168.105 424.803 166.911 424.803 165.439C424.803 163.966 423.609 162.772 422.136 162.772C420.663 162.772 419.469 163.966 419.469 165.439ZM536.892 172.195V172.695H537.099L537.246 172.548L536.892 172.195ZM397.971 172.195C397.971 173.668 399.165 174.862 400.638 174.862C402.111 174.862 403.305 173.668 403.305 172.195C403.305 170.722 402.111 169.528 400.638 169.528C399.165 169.528 397.971 170.722 397.971 172.195ZM465.678 179.165L466.032 178.811L465.885 178.665H465.678V179.165ZM397.971 179.165C397.971 180.637 399.165 181.831 400.638 181.831C402.111 181.831 403.305 180.637 403.305 179.165C403.305 177.692 402.111 176.498 400.638 176.498C399.165 176.498 397.971 177.692 397.971 179.165ZM462.466 186.102L462.819 185.749L462.673 185.602H462.466V186.102ZM393.492 186.102C393.492 187.575 394.686 188.769 396.158 188.769C397.631 188.769 398.825 187.575 398.825 186.102C398.825 184.63 397.631 183.436 396.158 183.436C394.686 183.436 393.492 184.63 393.492 186.102ZM426.207 67.2257C426.207 68.6985 427.401 69.8924 428.874 69.8924C430.346 69.8924 431.54 68.6985 431.54 67.2257C431.54 65.753 430.346 64.5591 428.874 64.5591C427.401 64.5591 426.207 65.753 426.207 67.2257ZM397.971 67.2257C397.971 68.6985 399.165 69.8924 400.638 69.8924C402.111 69.8924 403.305 68.6985 403.305 67.2257C403.305 65.753 402.111 64.5591 400.638 64.5591C399.165 64.5591 397.971 65.753 397.971 67.2257ZM459.422 74.1106L459.775 73.757L459.629 73.6106H459.422V74.1106ZM397.971 74.1106C397.971 75.5833 399.165 76.7772 400.638 76.7772C402.111 76.7772 403.305 75.5833 403.305 74.1106C403.305 72.6378 402.111 71.4439 400.638 71.4439C399.165 71.4439 397.971 72.6378 397.971 74.1106ZM428.874 81.2849L429.227 80.9313L429.081 80.7849H428.874V81.2849ZM397.971 81.2849C397.971 82.7577 399.165 83.9516 400.638 83.9516C402.111 83.9516 403.305 82.7577 403.305 81.2849C403.305 79.8121 402.111 78.6182 400.638 78.6182C399.165 78.6182 397.971 79.8121 397.971 81.2849ZM221.064 193.265C221.064 194.738 222.258 195.932 223.731 195.932C225.204 195.932 226.398 194.738 226.398 193.265C226.398 191.792 225.204 190.599 223.731 190.599C222.258 190.599 221.064 191.792 221.064 193.265ZM138.643 193.265V192.765H138.436L138.289 192.912L138.643 193.265ZM225.855 200.331V200.831H226.062L226.209 200.685L225.855 200.331ZM156.634 200.331C156.634 201.804 157.828 202.998 159.301 202.998C160.773 202.998 161.967 201.804 161.967 200.331C161.967 198.858 160.773 197.665 159.301 197.665C157.828 197.665 156.634 198.858 156.634 200.331ZM230.455 207.537V208.037H230.662L230.809 207.891L230.455 207.537ZM131.522 207.537C131.522 209.01 132.715 210.204 134.188 210.204C135.661 210.204 136.855 209.01 136.855 207.537C136.855 206.065 135.661 204.871 134.188 204.871C132.715 204.871 131.522 206.065 131.522 207.537ZM221.065 214.475C221.065 215.948 222.258 217.142 223.731 217.142C225.204 217.142 226.398 215.948 226.398 214.475C226.398 213.002 225.204 211.809 223.731 211.809C222.258 211.809 221.065 213.002 221.065 214.475ZM124.584 214.475C124.584 215.948 125.778 217.142 127.25 217.142C128.723 217.142 129.917 215.948 129.917 214.475C129.917 213.002 128.723 211.809 127.25 211.809C125.778 211.809 124.584 213.002 124.584 214.475ZM223.189 221.231C223.189 222.704 224.383 223.898 225.855 223.898C227.328 223.898 228.522 222.704 228.522 221.231C228.522 219.759 227.328 218.565 225.855 218.565C224.383 218.565 223.189 219.759 223.189 221.231ZM117.828 221.231C117.828 222.704 119.022 223.898 120.494 223.898C121.967 223.898 123.161 222.704 123.161 221.231C123.161 219.759 121.967 218.565 120.494 218.565C119.022 218.565 117.828 219.759 117.828 221.231ZM228.223 228.201V228.701H228.43L228.577 228.555L228.223 228.201ZM173.192 228.201V227.701H172.985L172.838 227.847L173.192 228.201ZM230.669 235.139V235.639H230.876L231.023 235.492L230.669 235.139ZM176.948 235.139V234.639H176.74L176.594 234.785L176.948 235.139ZM459.422 193.265L459.775 192.912L459.629 192.765H459.422V193.265ZM397.971 193.265C397.971 194.738 399.165 195.932 400.638 195.932C402.111 195.932 403.305 194.738 403.305 193.265C403.305 191.792 402.111 190.599 400.638 190.599C399.165 190.599 397.971 191.792 397.971 193.265ZM414.93 200.331L415.283 199.978L415.137 199.831H414.93V200.331ZM397.971 200.331C397.971 201.804 399.165 202.998 400.638 202.998C402.111 202.998 403.305 201.804 403.305 200.331C403.305 198.858 402.111 197.665 400.638 197.665C399.165 197.665 397.971 198.858 397.971 200.331ZM472.616 221.231L472.97 220.878L472.823 220.731H472.616V221.231ZM400.638 221.231L400.284 221.585L400.431 221.731H400.638V221.231ZM456.755 228.201C456.755 229.674 457.949 230.868 459.422 230.868C460.894 230.868 462.088 229.674 462.088 228.201C462.088 226.728 460.894 225.534 459.422 225.534C457.949 225.534 456.755 226.728 456.755 228.201ZM397.638 228.201L397.284 228.555L397.431 228.701H397.638V228.201ZM459.422 235.139L459.775 234.785L459.629 234.639H459.422V235.139ZM391.033 235.139C391.033 236.612 392.227 237.805 393.7 237.805C395.173 237.805 396.367 236.612 396.367 235.139C396.367 233.666 395.173 232.472 393.7 232.472C392.227 232.472 391.033 233.666 391.033 235.139ZM245.57 217.571C245.57 219.044 246.764 220.238 248.236 220.238C249.709 220.238 250.903 219.044 250.903 217.571C250.903 216.099 249.709 214.905 248.236 214.905C246.764 214.905 245.57 216.099 245.57 217.571ZM234.995 200.331C234.995 201.804 236.189 202.998 237.661 202.998C239.134 202.998 240.328 201.804 240.328 200.331C240.328 198.858 239.134 197.665 237.661 197.665C236.189 197.665 234.995 198.858 234.995 200.331ZM230.255 193.265C230.255 194.738 231.449 195.932 232.921 195.932C234.394 195.932 235.588 194.738 235.588 193.265C235.588 191.792 234.394 190.599 232.921 190.599C231.449 190.599 230.255 191.792 230.255 193.265ZM381.587 204.847C381.587 206.32 382.781 207.514 384.254 207.514C385.727 207.514 386.92 206.32 386.92 204.847C386.92 203.374 385.727 202.181 384.254 202.181C382.781 202.181 381.587 203.374 381.587 204.847ZM428.874 53.4931V53.9931H429.081L429.227 53.8466L428.874 53.4931ZM397.971 53.4931C397.971 54.9658 399.165 56.1597 400.638 56.1597C402.111 56.1597 403.305 54.9658 403.305 53.4931C403.305 52.0203 402.111 50.8264 400.638 50.8264C399.165 50.8264 397.971 52.0203 397.971 53.4931ZM426.207 60.2492C426.207 61.722 427.401 62.9159 428.874 62.9159C430.346 62.9159 431.54 61.722 431.54 60.2492C431.54 58.7765 430.346 57.5826 428.874 57.5826C427.401 57.5826 426.207 58.7765 426.207 60.2492ZM397.971 60.2492C397.971 61.722 399.165 62.9159 400.638 62.9159C402.111 62.9159 403.305 61.722 403.305 60.2492C403.305 58.7765 402.111 57.5826 400.638 57.5826C399.165 57.5826 397.971 58.7765 397.971 60.2492ZM378.068 211.298C378.068 212.771 379.262 213.965 380.735 213.965C382.208 213.965 383.402 212.771 383.402 211.298C383.402 209.825 382.208 208.631 380.735 208.631C379.262 208.631 378.068 209.825 378.068 211.298ZM422.136 207.537L421.783 207.891L421.929 208.037H422.136V207.537ZM496.244 207.537V208.037H496.451L496.597 207.891L496.244 207.537ZM503.45 200.331V199.831H503.243L503.096 199.978L503.45 200.331ZM528.454 200.331L528.807 199.978L528.661 199.831H528.454V200.331ZM556.323 228.201L555.97 228.555L556.116 228.701H556.323V228.201ZM568.673 228.201C568.673 229.674 569.867 230.868 571.339 230.868C572.812 230.868 574.006 229.674 574.006 228.201C574.006 226.728 572.812 225.534 571.339 225.534C569.867 225.534 568.673 226.728 568.673 228.201ZM466.488 200.331L466.134 200.685L466.281 200.831H466.488V200.331ZM493.257 200.331V200.831H493.464L493.61 200.685L493.257 200.331ZM500.323 193.265V192.765H500.116L499.969 192.912L500.323 193.265ZM532.892 193.265L533.246 192.912L533.099 192.765H532.892V193.265ZM558.192 221.231C558.192 222.704 559.385 223.898 560.858 223.898C562.331 223.898 563.525 222.704 563.525 221.231C563.525 219.759 562.331 218.565 560.858 218.565C559.385 218.565 558.192 219.759 558.192 221.231ZM469.629 193.265L469.275 193.619L469.422 193.765H469.629V193.265ZM490.205 193.265V193.765H490.412L490.559 193.619L490.205 193.265ZM497.368 186.102V185.602H497.161L497.015 185.749L497.368 186.102ZM532.892 186.102V186.602H533.099L533.246 186.456L532.892 186.102ZM546.8 172.195V171.695H546.592L546.446 171.841L546.8 172.195ZM558.192 172.195C558.192 173.668 559.385 174.862 560.858 174.862C562.331 174.862 563.525 173.668 563.525 172.195C563.525 170.722 562.331 169.528 560.858 169.528C559.385 169.528 558.192 170.722 558.192 172.195ZM514.467 95.4169V94.9169H514.26L514.114 95.0634L514.467 95.4169ZM553.657 95.4169C553.657 96.8897 554.851 98.0836 556.323 98.0836C557.796 98.0836 558.99 96.8897 558.99 95.4169C558.99 93.9442 557.796 92.7503 556.323 92.7503C554.851 92.7503 553.657 93.9442 553.657 95.4169ZM496.244 123.565V124.065H496.451L496.597 123.919L496.244 123.565ZM517.454 102.355V101.855H517.247L517.101 102.001L517.454 102.355ZM553.657 102.355C553.657 103.828 554.851 105.021 556.323 105.021C557.796 105.021 558.99 103.828 558.99 102.355C558.99 100.882 557.796 99.6881 556.323 99.6881C554.851 99.6881 553.657 100.882 553.657 102.355ZM397.971 123.565C397.971 125.038 399.165 126.232 400.638 126.232C402.111 126.232 403.305 125.038 403.305 123.565C403.305 122.092 402.111 120.899 400.638 120.899C399.165 120.899 397.971 122.092 397.971 123.565ZM520.223 109.421V108.921H520.016L519.87 109.068L520.223 109.421ZM553.657 109.421C553.657 110.894 554.851 112.088 556.323 112.088C557.796 112.088 558.99 110.894 558.99 109.421C558.99 107.948 557.796 106.755 556.323 106.755C554.851 106.755 553.657 107.948 553.657 109.421ZM523.114 116.627V116.127H522.906L522.76 116.274L523.114 116.627ZM553.657 116.627C553.657 118.1 554.851 119.294 556.323 119.294C557.796 119.294 558.99 118.1 558.99 116.627C558.99 115.155 557.796 113.961 556.323 113.961C554.851 113.961 553.657 115.155 553.657 116.627ZM529.831 130.321V129.821H529.623L529.477 129.968L529.831 130.321ZM544.133 130.321C544.133 131.794 545.327 132.988 546.8 132.988C548.272 132.988 549.466 131.794 549.466 130.321C549.466 128.849 548.272 127.655 546.8 127.655C545.327 127.655 544.133 128.849 544.133 130.321ZM526.446 123.565V123.065H526.239L526.092 123.212L526.446 123.565ZM544.133 123.565C544.133 125.038 545.327 126.232 546.8 126.232C548.272 126.232 549.466 125.038 549.466 123.565C549.466 122.092 548.272 120.899 546.8 120.899C545.327 120.899 544.133 122.092 544.133 123.565ZM472.616 186.102L472.262 186.456L472.409 186.602H472.616V186.102ZM483.673 186.102C483.673 187.575 484.867 188.769 486.339 188.769C487.812 188.769 489.006 187.575 489.006 186.102C489.006 184.63 487.812 183.436 486.339 183.436C484.867 183.436 483.673 184.63 483.673 186.102ZM543.648 165.439V164.939H543.441L543.295 165.085L543.648 165.439ZM553.657 165.439C553.657 166.911 554.851 168.105 556.323 168.105C557.796 168.105 558.99 166.911 558.99 165.439C558.99 163.966 557.796 162.772 556.323 162.772C554.851 162.772 553.657 163.966 553.657 165.439ZM17.1664 137.291L16.8128 137.645L16.9593 137.791H17.1664V137.291ZM69.8191 144.229C69.8191 145.702 71.013 146.895 72.4857 146.895C73.9585 146.895 75.1524 145.702 75.1524 144.229C75.1524 142.756 73.9585 141.562 72.4857 141.562C71.013 141.562 69.8191 142.756 69.8191 144.229ZM69.819 151.295C69.819 152.768 71.0129 153.961 72.4857 153.961C73.9584 153.961 75.1523 152.768 75.1523 151.295C75.1523 149.822 73.9584 148.628 72.4857 148.628C71.0129 148.628 69.819 149.822 69.819 151.295ZM101.152 158.501V158.001H100.944L100.798 158.147L101.152 158.501ZM103.707 228.201V228.701H103.914L104.061 228.555L103.707 228.201ZM90.4826 228.201C90.4826 229.674 91.6765 230.868 93.1492 230.868C94.622 230.868 95.8159 229.674 95.8159 228.201C95.8159 226.728 94.622 225.534 93.1492 225.534C91.6765 225.534 90.4826 226.728 90.4826 228.201ZM83.513 221.231C83.513 222.704 84.7069 223.898 86.1796 223.898C87.6524 223.898 88.8463 222.704 88.8463 221.231C88.8463 219.759 87.6524 218.565 86.1796 218.565C84.7069 218.565 83.513 219.759 83.513 221.231ZM101.152 221.231V221.731H101.359L101.505 221.585L101.152 221.231ZM76.7568 214.475C76.7568 215.948 77.9507 217.142 79.4235 217.142C80.8962 217.142 82.0901 215.948 82.0901 214.475C82.0901 213.002 80.8962 211.809 79.4235 211.809C77.9507 211.809 76.7568 213.002 76.7568 214.475ZM98.1286 214.475V214.975H98.3357L98.4821 214.829L98.1286 214.475ZM69.819 207.537C69.819 209.01 71.0129 210.204 72.4857 210.204C73.9584 210.204 75.1523 209.01 75.1523 207.537C75.1523 206.065 73.9584 204.871 72.4857 204.871C71.0129 204.871 69.819 206.065 69.819 207.537ZM94.9278 207.537V208.037H95.1349L95.2813 207.891L94.9278 207.537ZM62.6129 200.331C62.6129 201.804 63.8068 202.998 65.2795 202.998C66.7523 202.998 67.9462 201.804 67.9462 200.331C67.9462 198.858 66.7523 197.665 65.2795 197.665C63.8068 197.665 62.6129 198.858 62.6129 200.331ZM92.4383 200.331V200.831H92.6454L92.7919 200.685L92.4383 200.331ZM154.871 246.522V247.022H155.078L155.225 246.875L154.871 246.522ZM120.494 246.522V246.022H120.287L120.141 246.168L120.494 246.522ZM111.564 252.786C111.564 254.258 112.758 255.452 114.231 255.452C115.703 255.452 116.897 254.258 116.897 252.786C116.897 251.313 115.703 250.119 114.231 250.119C112.758 250.119 111.564 251.313 111.564 252.786ZM159.301 252.786L158.947 252.432L158.801 252.579V252.786H159.301ZM156.634 273.926C156.634 275.398 157.828 276.592 159.301 276.592C160.773 276.592 161.967 275.398 161.967 273.926C161.967 272.453 160.773 271.259 159.301 271.259C157.828 271.259 156.634 272.453 156.634 273.926ZM472.616 248.333H473.116V248.126L472.97 247.98L472.616 248.333ZM472.616 273.926H472.116V274.133L472.262 274.279L472.616 273.926ZM476.985 280.961C476.985 282.434 478.179 283.628 479.652 283.628C481.124 283.628 482.318 282.434 482.318 280.961C482.318 279.488 481.124 278.295 479.652 278.295C478.179 278.295 476.985 279.488 476.985 280.961ZM241.975 211.783C241.975 213.256 243.169 214.45 244.641 214.45C246.114 214.45 247.308 213.256 247.308 211.783C247.308 210.31 246.114 209.116 244.641 209.116C243.169 209.116 241.975 210.31 241.975 211.783ZM486.523 235.139L486.17 235.492L486.316 235.639H486.523V235.139ZM525.787 235.139C525.787 236.612 526.981 237.805 528.454 237.805C529.927 237.805 531.121 236.612 531.121 235.139C531.121 233.666 529.927 232.472 528.454 232.472C526.981 232.472 525.787 233.666 525.787 235.139ZM92.4383 88.6726L92.7919 88.3191L92.6454 88.1726H92.4383V88.6726ZM62.6129 88.6726C62.6129 90.1454 63.8068 91.3393 65.2795 91.3393C66.7523 91.3393 67.9462 90.1454 67.9462 88.6726C67.9462 87.1999 66.7523 86.006 65.2795 86.006C63.8068 86.006 62.6129 87.1999 62.6129 88.6726ZM94.9278 81.2849L95.2813 80.9313L95.1349 80.7849H94.9278V81.2849ZM69.819 81.2849C69.819 82.7577 71.0129 83.9516 72.4857 83.9516C73.9584 83.9516 75.1523 82.7577 75.1523 81.2849C75.1523 79.8121 73.9584 78.6182 72.4857 78.6182C71.0129 78.6182 69.819 79.8121 69.819 81.2849ZM98.1286 74.1106L98.4821 73.757L98.3357 73.6106H98.1286V74.1106ZM76.7568 74.1106C76.7568 75.5833 77.9507 76.7772 79.4235 76.7772C80.8962 76.7772 82.0901 75.5833 82.0901 74.1106C82.0901 72.6378 80.8962 71.4439 79.4235 71.4439C77.9507 71.4439 76.7568 72.6378 76.7568 74.1106ZM101.152 67.2257L101.505 66.8722L101.359 66.7257H101.152V67.2257ZM83.513 67.2257C83.513 68.6985 84.7069 69.8924 86.1796 69.8924C87.6524 69.8924 88.8463 68.6985 88.8463 67.2257C88.8463 65.753 87.6524 64.5591 86.1796 64.5591C84.7069 64.5591 83.513 65.753 83.513 67.2257ZM103.707 60.4811L104.061 60.1276L103.914 59.9811H103.707V60.4811ZM93.1492 60.4811L92.7957 60.8347L92.9421 60.9811H93.1492V60.4811ZM204.361 130.321L204.008 130.675L204.154 130.821H204.361V130.321ZM221.064 130.321C221.064 131.794 222.258 132.988 223.731 132.988C225.204 132.988 226.398 131.794 226.398 130.321C226.398 128.849 225.204 127.655 223.731 127.655C222.258 127.655 221.064 128.849 221.064 130.321ZM200.949 137.291L200.596 137.645L200.742 137.791H200.949V137.291ZM221.064 137.291C221.064 138.764 222.258 139.958 223.731 139.958C225.204 139.958 226.398 138.764 226.398 137.291C226.398 135.818 225.204 134.624 223.731 134.624C222.258 134.624 221.064 135.818 221.064 137.291ZM207.887 158.501V158.001H207.68L207.534 158.147L207.887 158.501ZM221.064 158.501C221.064 159.974 222.258 161.168 223.731 161.168C225.204 161.168 226.398 159.974 226.398 158.501C226.398 157.028 225.204 155.834 223.731 155.834C222.258 155.834 221.064 157.028 221.064 158.501ZM185.288 48.1528H184.788V48.3599L184.935 48.5063L185.288 48.1528ZM185.288 32.5065H185.788V32.2994L185.642 32.153L185.288 32.5065ZM173.085 22.9701C173.085 24.4429 174.279 25.6368 175.752 25.6368C177.225 25.6368 178.419 24.4429 178.419 22.9701C178.419 21.4974 177.225 20.3035 175.752 20.3035C174.279 20.3035 173.085 21.4974 173.085 22.9701ZM194.065 67.2257L194.418 66.8722L194.272 66.7257H194.065V67.2257ZM176.948 67.2257V66.7257H176.74L176.594 66.8722L176.948 67.2257ZM170.063 74.1106V74.6106H170.27L170.416 74.4641L170.063 74.1106ZM135.976 74.1106C135.976 75.5833 137.17 76.7772 138.643 76.7772C140.115 76.7772 141.309 75.5833 141.309 74.1106C141.309 72.6378 140.115 71.4439 138.643 71.4439C137.17 71.4439 135.976 72.6378 135.976 74.1106ZM476.879 94.2347C476.879 95.7075 478.073 96.9014 479.546 96.9014C481.019 96.9014 482.212 95.7075 482.212 94.2347C482.212 92.762 481.019 91.5681 479.546 91.5681C478.073 91.5681 476.879 92.762 476.879 94.2347ZM446.538 35.8289L446.891 36.1824L447.038 36.036V35.8289H446.538ZM446.538 11.7063L446.184 11.3527L446.038 11.4992V11.7063H446.538ZM452.589 2.98853C452.589 4.46128 453.783 5.65519 455.255 5.65519C456.728 5.65519 457.922 4.46128 457.922 2.98853C457.922 1.51577 456.728 0.321859 455.255 0.321859C453.783 0.321859 452.589 1.51577 452.589 2.98853ZM0.569173 109.421C0.569173 110.894 1.76308 112.088 3.23584 112.088C4.7086 112.088 5.90251 110.894 5.90251 109.421C5.90251 107.948 4.7086 106.755 3.23584 106.755C1.76308 106.755 0.569173 107.948 0.569173 109.421ZM7.5301 130.321C7.5301 131.794 8.72401 132.988 10.1968 132.988C11.6695 132.988 12.8634 131.794 12.8634 130.321C12.8634 128.849 11.6695 127.655 10.1968 127.655C8.72401 127.655 7.5301 128.849 7.5301 130.321ZM87.4575 172.195V172.695H87.6646L87.8111 172.548L87.4575 172.195ZM65.2795 172.195V171.695H65.0724L64.926 171.841L65.2795 172.195ZM51.3721 186.102V186.602H51.5792L51.7257 186.456L51.3721 186.102ZM14.4997 186.102C14.4997 187.575 15.6936 188.769 17.1664 188.769C18.6391 188.769 19.833 187.575 19.833 186.102C19.833 184.63 18.6391 183.436 17.1664 183.436C15.6936 183.436 14.4997 184.63 14.4997 186.102ZM80.8209 48.1528H80.3209V48.3599L80.4673 48.5063L80.8209 48.1528ZM78.1542 32.5065C78.1542 33.9793 79.3481 35.1732 80.8209 35.1732C82.2936 35.1732 83.4875 33.9793 83.4875 32.5065C83.4875 31.0338 82.2936 29.8399 80.8209 29.8399C79.3481 29.8399 78.1542 31.0338 78.1542 32.5065ZM436.261 88.6726L435.908 89.0262L436.054 89.1726H436.261V88.6726ZM459.422 88.6726L459.775 88.3191L459.629 88.1726H459.422V88.6726ZM473.104 102.355L472.75 102.708L472.897 102.855H473.104V102.355ZM493.257 102.355V102.855H493.464L493.61 102.708L493.257 102.355ZM514.327 81.2849V80.7849H514.12L513.973 80.9313L514.327 81.2849ZM527.164 81.2849C527.164 82.7577 528.358 83.9516 529.831 83.9516C531.303 83.9516 532.497 82.7577 532.497 81.2849C532.497 79.8121 531.303 78.6182 529.831 78.6182C528.358 78.6182 527.164 79.8121 527.164 81.2849ZM223.731 108.921H133.439V109.921H223.731V108.921ZM223.731 116.127H130.27V117.127H223.731V116.127ZM197.605 123.065H127.331V124.065H197.605V123.065ZM193.98 129.821H24.136V130.821H193.98V129.821ZM200.949 164.939H127.331V165.939H200.949V164.939ZM223.731 171.695H130.27V172.695H223.731V171.695ZM223.731 178.665H133.439V179.665H223.731V178.665ZM228.223 185.602H136.281V186.602H228.223V185.602ZM223.731 66.7257H204.361V67.7257H223.731V66.7257ZM223.731 73.6106H200.949V74.6106H223.731V73.6106ZM223.731 80.7849H176.948V81.7849H223.731V80.7849ZM223.729 87.9473L176.945 88.1726L176.95 89.1726L223.734 88.9473L223.729 87.9473ZM223.731 94.9169H138.643V95.9169H223.731V94.9169ZM223.731 101.855H136.281V102.855H223.731V101.855ZM493.257 116.127H400.638V117.127H493.257V116.127ZM499.323 129.821H400.638V130.821H499.323V129.821ZM502.45 136.791H400.638V137.791H502.45V136.791ZM505.782 143.729H400.638V144.729H505.782V143.729ZM508.857 150.795H400.638V151.795H508.857V150.795ZM459.422 158.001H422.136V159.001H459.422V158.001ZM459.422 164.939H422.136V165.939H459.422V164.939ZM536.892 171.695H400.638V172.695H536.892V171.695ZM465.678 178.665H400.638V179.665H465.678V178.665ZM462.466 185.602H396.158V186.602H462.466V185.602ZM428.874 66.7257H400.638V67.7257H428.874V66.7257ZM459.422 73.6106H400.638V74.6106H459.422V73.6106ZM428.874 80.7849H400.638V81.7849H428.874V80.7849ZM223.731 192.765H138.643V193.765H223.731V192.765ZM225.855 199.831H159.301V200.831H225.855V199.831ZM230.455 207.037H134.188V208.037H230.455V207.037ZM223.731 213.975H127.25V214.975H223.731V213.975ZM225.855 220.731H120.494V221.731H225.855V220.731ZM228.223 227.701H173.192V228.701H228.223V227.701ZM230.669 234.639H176.948V235.639H230.669V234.639ZM459.422 192.765H400.638V193.765H459.422V192.765ZM414.93 199.831H400.638V200.831H414.93V199.831ZM472.616 220.731H400.638V221.731H472.616V220.731ZM459.422 227.701H397.638V228.701H459.422V227.701ZM459.422 234.639H393.7V235.639H459.422V234.639ZM231.023 235.492L248.59 217.925L247.883 217.218L230.315 234.785L231.023 235.492ZM230.809 207.891L238.015 200.685L237.308 199.978L230.102 207.184L230.809 207.891ZM226.209 200.685L233.275 193.619L232.568 192.912L225.502 199.978L226.209 200.685ZM400.991 220.878L384.607 204.494L383.9 205.201L400.284 221.585L400.991 220.878ZM428.874 52.9931H400.638V53.9931H428.874V52.9931ZM428.874 59.7492H400.638V60.7492H428.874V59.7492ZM397.991 227.847L381.089 210.945L380.381 211.652L397.284 228.555L397.991 227.847ZM414.576 200.685L421.783 207.891L422.49 207.184L415.283 199.978L414.576 200.685ZM422.136 208.037H496.244V207.037H422.136V208.037ZM496.597 207.891L503.803 200.685L503.096 199.978L495.89 207.184L496.597 207.891ZM503.45 200.831H528.454V199.831H503.45V200.831ZM528.1 200.685L555.97 228.555L556.677 227.847L528.807 199.978L528.1 200.685ZM556.323 228.701H571.339V227.701H556.323V228.701ZM459.068 193.619L466.134 200.685L466.841 199.978L459.775 192.912L459.068 193.619ZM466.488 200.831H493.257V199.831H466.488V200.831ZM493.61 200.685L500.676 193.619L499.969 192.912L492.903 199.978L493.61 200.685ZM500.323 193.765H532.892V192.765H500.323V193.765ZM532.539 193.619L560.505 221.585L561.212 220.878L533.246 192.912L532.539 193.619ZM462.112 186.456L469.275 193.619L469.982 192.912L462.819 185.749L462.112 186.456ZM469.629 193.765H490.205V192.765H469.629V193.765ZM490.559 193.619L497.722 186.456L497.015 185.749L489.852 192.912L490.559 193.619ZM497.368 186.602H532.892V185.602H497.368V186.602ZM533.246 186.456L547.153 172.548L546.446 171.841L532.539 185.749L533.246 186.456ZM546.8 172.695H560.858V171.695H546.8V172.695ZM493.61 116.981L514.821 95.7705L514.114 95.0634L492.903 116.274L493.61 116.981ZM514.467 95.9169H556.323V94.9169H514.467V95.9169ZM496.597 123.919L517.808 102.708L517.101 102.001L495.89 123.212L496.597 123.919ZM517.454 102.855H556.323V101.855H517.454V102.855ZM496.244 123.065H400.638V124.065H496.244V123.065ZM499.676 130.675L520.577 109.775L519.87 109.068L498.969 129.968L499.676 130.675ZM520.223 109.921H556.323V108.921H520.223V109.921ZM502.803 137.645L523.467 116.981L522.76 116.274L502.096 136.937L502.803 137.645ZM523.114 117.127H556.323V116.127H523.114V117.127ZM509.211 151.648L530.184 130.675L529.477 129.968L508.504 150.941L509.211 151.648ZM529.831 130.821H546.8V129.821H529.831V130.821ZM506.136 144.582L526.799 123.919L526.092 123.212L505.429 143.875L506.136 144.582ZM526.446 124.065H546.8V123.065H526.446V124.065ZM465.325 179.518L472.262 186.456L472.97 185.749L466.032 178.811L465.325 179.518ZM472.616 186.602H486.339V185.602H472.616V186.602ZM537.246 172.548L544.002 165.792L543.295 165.085L536.539 171.841L537.246 172.548ZM543.648 165.939H556.323V164.939H543.648V165.939ZM190.52 136.791H17.1664V137.791H190.52V136.791ZM190.52 143.729H72.4857V144.729H190.52V143.729ZM190.52 150.795H72.4857V151.795H190.52V150.795ZM197.605 158.001H101.152V159.001H197.605V158.001ZM138.289 192.912L103.353 227.847L104.061 228.555L138.996 193.619L138.289 192.912ZM103.707 227.701H93.1492V228.701H103.707V227.701ZM86.1796 221.731H101.152V220.731H86.1796V221.731ZM101.505 221.585L136.634 186.456L135.927 185.749L100.798 220.878L101.505 221.585ZM79.4235 214.975H98.1286V213.975H79.4235V214.975ZM98.4821 214.829L133.793 179.518L133.086 178.811L97.775 214.122L98.4821 214.829ZM72.4857 208.037H94.9278V207.037H72.4857V208.037ZM95.2813 207.891L130.624 172.548L129.917 171.841L94.5742 207.184L95.2813 207.891ZM65.2795 200.831H92.4383V199.831H65.2795V200.831ZM92.7919 200.685L127.684 165.792L126.977 165.085L92.0847 199.978L92.7919 200.685ZM172.838 227.847L154.518 246.168L155.225 246.875L173.546 228.555L172.838 227.847ZM154.871 246.022H120.494V247.022H154.871V246.022ZM120.141 246.168L113.877 252.432L114.584 253.139L120.848 246.875L120.141 246.168ZM176.594 234.785L158.947 252.432L159.654 253.139L177.301 235.492L176.594 234.785ZM158.801 252.786V273.926H159.801V252.786H158.801ZM459.068 235.492L472.262 248.687L472.97 247.98L459.775 234.785L459.068 235.492ZM472.116 248.333V273.926H473.116V248.333H472.116ZM472.262 274.279L479.298 281.315L480.005 280.608L472.97 273.572L472.262 274.279ZM228.577 228.555L244.995 212.137L244.288 211.429L227.87 227.847L228.577 228.555ZM472.262 221.585L486.17 235.492L486.877 234.785L472.97 220.878L472.262 221.585ZM486.523 235.639H528.454V234.639H486.523V235.639ZM127.684 123.212L92.7919 88.3191L92.0847 89.0262L126.977 123.919L127.684 123.212ZM92.4383 88.1726H65.2795V89.1726H92.4383V88.1726ZM130.624 116.274L95.2813 80.9313L94.5742 81.6384L129.917 116.981L130.624 116.274ZM94.9278 80.7849H72.4857V81.7849H94.9278V80.7849ZM133.793 109.068L98.4821 73.757L97.775 74.4641L133.086 109.775L133.793 109.068ZM98.1286 73.6106H79.4235V74.6106H98.1286V73.6106ZM136.634 102.001L101.505 66.8722L100.798 67.5793L135.927 102.708L136.634 102.001ZM101.152 66.7257H86.1796V67.7257H101.152V66.7257ZM138.996 95.0634L104.061 60.1276L103.353 60.8347L138.289 95.7705L138.996 95.0634ZM103.707 59.9811H93.1492V60.9811H103.707V59.9811ZM197.251 123.919L204.008 130.675L204.715 129.968L197.959 123.212L197.251 123.919ZM204.361 130.821H223.731V129.821H204.361V130.821ZM193.626 130.675L200.596 137.645L201.303 136.937L194.333 129.968L193.626 130.675ZM200.949 137.791H223.731V136.791H200.949V137.791ZM201.303 165.792L208.241 158.854L207.534 158.147L200.596 165.085L201.303 165.792ZM207.887 159.001H223.731V158.001H207.887V159.001ZM204.715 66.8722L185.642 47.7992L184.935 48.5063L204.008 67.5793L204.715 66.8722ZM185.788 48.1528V32.5065H184.788V48.1528H185.788ZM185.642 32.153L176.105 22.6166L175.398 23.3237L184.935 32.8601L185.642 32.153ZM201.303 73.757L194.418 66.8722L193.711 67.5793L200.596 74.4641L201.303 73.757ZM194.065 66.7257H176.948V67.7257H194.065V66.7257ZM176.594 66.8722L169.709 73.757L170.416 74.4641L177.301 67.5793L176.594 66.8722ZM170.063 73.6106H138.643V74.6106H170.063V73.6106ZM459.068 74.4641L479.192 94.5883L479.899 93.8812L459.775 73.757L459.068 74.4641ZM429.227 53.8466L446.891 36.1824L446.184 35.4753L428.52 53.1395L429.227 53.8466ZM447.038 35.8289V11.7063H446.038V35.8289H447.038ZM446.891 12.0598L455.609 3.34208L454.902 2.63497L446.184 11.3527L446.891 12.0598ZM24.4895 129.968L3.58939 109.068L2.88229 109.775L23.7824 130.675L24.4895 129.968ZM17.5199 136.937L10.5503 129.968L9.84322 130.675L16.8128 137.645L17.5199 136.937ZM100.798 158.147L87.104 171.841L87.8111 172.548L101.505 158.854L100.798 158.147ZM87.4575 171.695H65.2795V172.695H87.4575V171.695ZM64.926 171.841L51.0185 185.749L51.7257 186.456L65.6331 172.548L64.926 171.841ZM51.3721 185.602H17.1664V186.602H51.3721V185.602ZM93.5028 60.1276L81.1744 47.7992L80.4673 48.5063L92.7957 60.8347L93.5028 60.1276ZM81.3209 48.1528V32.5065H80.3209V48.1528H81.3209ZM428.52 81.6384L435.908 89.0262L436.615 88.3191L429.227 80.9313L428.52 81.6384ZM436.261 89.1726H459.422V88.1726H436.261V89.1726ZM459.068 89.0262L472.75 102.708L473.457 102.001L459.775 88.3191L459.068 89.0262ZM473.104 102.855H493.257V101.855H473.104V102.855ZM493.61 102.708L514.68 81.6384L513.973 80.9313L492.903 102.001L493.61 102.708ZM514.327 81.7849H529.831V80.7849H514.327V81.7849Z" fill="url(#paint1_linear_1284_707)" />
  <defs>
    <linearGradient id="paint0_linear_1284_707" x1="232.36" y1="57.2539" x2="392.009" y2="254" gradientUnits="userSpaceOnUse">
      <stop stop-color="#BE7CFF" />
      <stop offset="1" stop-color="#5E81FF" />
    </linearGradient>
    <linearGradient id="paint1_linear_1284_707" x1="284.784" y1="2.98852" x2="284.784" y2="280.961" gradientUnits="userSpaceOnUse">
      <stop stop-color="#9C4EFF" />
      <stop offset="1" stop-color="#739AFF" />
    </linearGradient>
  </defs>
</svg>