<svg width="607" height="326" viewBox="0 0 607 326" fill="none" xmlns="http://www.w3.org/2000/svg">
  <path d="M240.103 111.757C254.411 101.263 272.067 95.0645 291.171 95.0645C309.39 95.0645 326.292 100.701 340.228 110.326M240.103 111.757L243.077 114.732H246.896L253.009 108.619H261.139L267.778 115.258V118.034H254.983L245.569 122.138L238.327 129.018V133.242L241.887 136.803V140.484H246.293L249.431 137.346V129.018L254.983 123.465H258.242L261.682 126.905H267.053V132.518L272.787 138.251V142.174L262.467 146.64V151.951L246.293 161.003L236.516 173.435V179.229H230.723L227.826 176.332L222.662 181.496V186.592H229.516L231.809 194.075L236.516 198.782V201.559H229.516L216.782 188.825L212.497 176.332L205.388 170.858M240.103 111.757C221.358 125.507 208.361 146.632 205.388 170.858M205.388 170.858C204.96 174.344 204.74 177.894 204.74 181.496C204.74 222.732 233.616 257.224 272.251 265.851M340.228 110.326C362.808 125.919 377.603 151.98 377.603 181.496C377.603 212.374 361.412 239.47 337.056 254.757M340.228 110.326L335.823 114.732V120.689L333.046 123.465V130.244H341.39L345.536 134.39L347.409 132.518L343.908 129.018V122.138H347.409V126.905L351.911 131.408V137.346L342.395 141.3L337.056 146.64V151.951H330.711L329.252 153.41L332.093 160.146H340.228L346.965 153.41H352.572L359.308 160.146H364.634V153.41H368.403V164.041L370.978 166.617V171.831H362.121L350.436 164.041H342.395L337.056 169.381H333.046L325.183 177.736V183.012L320.66 193.315V201.559L328.348 209.247H337.056L345.16 205.879L348.528 209.247V218.191L351.241 220.905V226.232L338.626 243.193L337.056 254.757M337.056 254.757C323.759 263.102 308.029 267.928 291.171 267.928C287.283 267.928 283.454 267.672 279.702 267.174M279.702 267.174V261.003L275.21 256.511V250.009L298.987 226.232V219.636L292.643 213.291H279.702L267.515 201.104H254.7L250.93 197.335H242.764V208.266L240.251 210.779V220.327L257.464 233.017L261.61 246.334L272.251 265.851M279.702 267.174C277.182 266.84 274.697 266.397 272.251 265.851M275.744 102.584L286.124 98.9633L294.09 101.739L300.246 100.05L305.074 102.584V108.619L306.884 111.757V116.827L301.936 119.482L294.935 120.689L289.624 125.276L287.21 129.018H282.865L278.46 124.612V108.619L275.744 105.904V102.584ZM474.353 79.4664C474.353 82.9642 471.518 85.7997 468.02 85.7997C464.522 85.7997 461.687 82.9642 461.687 79.4664C461.687 75.9687 464.522 73.1332 468.02 73.1332C471.518 73.1332 474.353 75.9687 474.353 79.4664ZM476.982 100.497V93.6234C476.982 91.4143 475.191 89.6234 472.982 89.6234H463.058C460.849 89.6234 459.058 91.4143 459.058 93.6234V100.497H476.982ZM521.782 79.4664C521.782 82.9642 518.946 85.7997 515.449 85.7997C511.951 85.7997 509.115 82.9642 509.115 79.4664C509.115 75.9687 511.951 73.1332 515.449 73.1332C518.946 73.1332 521.782 75.9687 521.782 79.4664ZM524.411 100.497V93.6234C524.411 91.4143 522.62 89.6234 520.411 89.6234H510.487C508.277 89.6234 506.487 91.4143 506.487 93.6234V100.497H524.411ZM498.068 79.4664C498.068 82.9642 495.232 85.7997 491.734 85.7997C488.237 85.7997 485.401 82.9642 485.401 79.4664C485.401 75.9687 488.237 73.1332 491.734 73.1332C495.232 73.1332 498.068 75.9687 498.068 79.4664ZM500.697 100.497V93.6234C500.697 91.4143 498.906 89.6234 496.697 89.6234H486.772C484.563 89.6234 482.772 91.4143 482.772 93.6234V100.497H500.697ZM474.353 111.804C474.353 115.302 471.518 118.137 468.02 118.137C464.522 118.137 461.687 115.302 461.687 111.804C461.687 108.306 464.522 105.471 468.02 105.471C471.518 105.471 474.353 108.306 474.353 111.804ZM476.982 132.835V125.961C476.982 123.752 475.191 121.961 472.982 121.961H463.058C460.849 121.961 459.058 123.752 459.058 125.961V132.835H476.982ZM387.882 264.119C387.882 267.616 385.047 270.452 381.549 270.452C378.051 270.452 375.216 267.616 375.216 264.119C375.216 260.621 378.051 257.785 381.549 257.785C385.047 257.785 387.882 260.621 387.882 264.119ZM390.511 285.149V278.276C390.511 276.066 388.72 274.276 386.511 274.276H376.587C374.378 274.276 372.587 276.066 372.587 278.276V285.149H390.511ZM552.458 167.104C552.458 170.601 549.623 173.437 546.125 173.437C542.627 173.437 539.792 170.601 539.792 167.104C539.792 163.606 542.627 160.77 546.125 160.77C549.623 160.77 552.458 163.606 552.458 167.104ZM555.088 188.134V181.26C555.088 179.051 553.297 177.26 551.088 177.26H541.163C538.954 177.26 537.163 179.051 537.163 181.26V188.134H555.088ZM47.8264 196.739C47.8264 200.237 44.9909 203.073 41.4932 203.073C37.9954 203.073 35.1599 200.237 35.1599 196.739C35.1599 193.242 37.9954 190.406 41.4932 190.406C44.9909 190.406 47.8264 193.242 47.8264 196.739ZM50.4554 217.77V210.896C50.4554 208.687 48.6646 206.896 46.4554 206.896H36.531C34.3219 206.896 32.531 208.687 32.531 210.896V217.77H50.4554ZM521.782 111.804C521.782 115.302 518.946 118.137 515.449 118.137C511.951 118.137 509.115 115.302 509.115 111.804C509.115 108.306 511.951 105.471 515.449 105.471C518.946 105.471 521.782 108.306 521.782 111.804ZM524.411 132.835V125.961C524.411 123.752 522.62 121.961 520.411 121.961H510.487C508.277 121.961 506.487 123.752 506.487 125.961V132.835H524.411ZM498.068 111.804C498.068 115.302 495.232 118.137 491.734 118.137C488.237 118.137 485.401 115.302 485.401 111.804C485.401 108.306 488.237 105.471 491.734 105.471C495.232 105.471 498.068 108.306 498.068 111.804ZM500.697 132.835V125.961C500.697 123.752 498.906 121.961 496.697 121.961H486.772C484.563 121.961 482.772 123.752 482.772 125.961V132.835H500.697ZM569.211 79.4664C569.211 82.9642 566.375 85.7997 562.877 85.7997C559.38 85.7997 556.544 82.9642 556.544 79.4664C556.544 75.9687 559.38 73.1332 562.877 73.1332C566.375 73.1332 569.211 75.9687 569.211 79.4664ZM571.84 100.497V93.6234C571.84 91.4143 570.049 89.6234 567.84 89.6234H557.915C555.706 89.6234 553.915 91.4143 553.915 93.6234V100.497H571.84ZM545.496 79.4664C545.496 82.9642 542.661 85.7997 539.163 85.7997C535.665 85.7997 532.83 82.9642 532.83 79.4664C532.83 75.9687 535.665 73.1332 539.163 73.1332C542.661 73.1332 545.496 75.9687 545.496 79.4664ZM548.125 100.497V93.6234C548.125 91.4143 546.335 89.6234 544.125 89.6234H534.201C531.992 89.6234 530.201 91.4143 530.201 93.6234V100.497H548.125ZM569.211 111.804C569.211 115.302 566.375 118.137 562.877 118.137C559.38 118.137 556.544 115.302 556.544 111.804C556.544 108.306 559.38 105.471 562.877 105.471C566.375 105.471 569.211 108.306 569.211 111.804ZM571.84 132.835V125.961C571.84 123.752 570.049 121.961 567.84 121.961H557.915C555.706 121.961 553.915 123.752 553.915 125.961V132.835H571.84ZM545.496 111.804C545.496 115.302 542.661 118.137 539.163 118.137C535.665 118.137 532.83 115.302 532.83 111.804C532.83 108.306 535.665 105.471 539.163 105.471C542.661 105.471 545.496 108.306 545.496 111.804ZM548.125 132.835V125.961C548.125 123.752 546.335 121.961 544.125 121.961H534.201C531.992 121.961 530.201 123.752 530.201 125.961V132.835H548.125ZM369.958 68.4382C369.958 71.936 367.123 74.7715 363.625 74.7715C360.127 74.7715 357.292 71.936 357.292 68.4382C357.292 64.9405 360.127 62.105 363.625 62.105C367.123 62.105 369.958 64.9405 369.958 68.4382ZM372.587 89.469V82.5952C372.587 80.3861 370.796 78.5952 368.587 78.5952H358.663C356.453 78.5952 354.663 80.3861 354.663 82.5952V89.469H372.587ZM578.309 153.422C578.309 156.919 575.474 159.755 571.976 159.755C568.478 159.755 565.643 156.919 565.643 153.422C565.643 149.924 568.478 147.088 571.976 147.088C575.474 147.088 578.309 149.924 578.309 153.422ZM580.938 174.452V167.578C580.938 165.369 579.147 163.578 576.938 163.578H567.014C564.805 163.578 563.014 165.369 563.014 167.578V174.452H580.938ZM103.217 105.78C103.217 109.277 100.382 112.113 96.884 112.113C93.3863 112.113 90.5508 109.277 90.5508 105.78C90.5508 102.282 93.3863 99.4463 96.884 99.4463C100.382 99.4463 103.217 102.282 103.217 105.78ZM105.846 126.81V119.937C105.846 117.727 104.055 115.937 101.846 115.937H91.9219C89.7127 115.937 87.9219 117.727 87.9219 119.937V126.81H105.846ZM150.646 105.78C150.646 109.277 147.811 112.113 144.313 112.113C140.815 112.113 137.979 109.277 137.979 105.78C137.979 102.282 140.815 99.4463 144.313 99.4463C147.811 99.4463 150.646 102.282 150.646 105.78ZM153.275 126.81V119.937C153.275 117.727 151.484 115.937 149.275 115.937H139.351C137.141 115.937 135.351 117.727 135.351 119.937V126.81H153.275ZM174.36 105.78C174.36 109.277 171.525 112.113 168.027 112.113C164.529 112.113 161.694 109.277 161.694 105.78C161.694 102.282 164.529 99.4463 168.027 99.4463C171.525 99.4463 174.36 102.282 174.36 105.78ZM176.989 126.81V119.937C176.989 117.727 175.199 115.937 172.989 115.937H163.065C160.856 115.937 159.065 117.727 159.065 119.937V126.81H176.989ZM126.932 105.78C126.932 109.277 124.096 112.113 120.598 112.113C117.101 112.113 114.265 109.277 114.265 105.78C114.265 102.282 117.101 99.4463 120.598 99.4463C124.096 99.4463 126.932 102.282 126.932 105.78ZM129.561 126.81V119.937C129.561 117.727 127.77 115.937 125.561 115.937H115.636C113.427 115.937 111.636 117.727 111.636 119.937V126.81H129.561ZM55.7886 105.78C55.7886 109.277 52.9531 112.113 49.4553 112.113C45.9576 112.113 43.1221 109.277 43.1221 105.78C43.1221 102.282 45.9576 99.4463 49.4553 99.4463C52.9531 99.4463 55.7886 102.282 55.7886 105.78ZM58.4176 126.81V119.937C58.4176 117.727 56.6267 115.937 54.4176 115.937H44.4932C42.284 115.937 40.4932 117.727 40.4932 119.937V126.81H58.4176ZM79.503 105.78C79.503 109.277 76.6675 112.113 73.1697 112.113C69.6719 112.113 66.8364 109.277 66.8364 105.78C66.8364 102.282 69.6719 99.4463 73.1697 99.4463C76.6675 99.4463 79.503 102.282 79.503 105.78ZM82.1319 126.81V119.937C82.1319 117.727 80.3411 115.937 78.1319 115.937H68.2075C65.9984 115.937 64.2075 117.727 64.2075 119.937V126.81H82.1319ZM103.217 138.117C103.217 141.615 100.382 144.45 96.884 144.45C93.3863 144.45 90.5508 141.615 90.5508 138.117C90.5508 134.619 93.3863 131.784 96.884 131.784C100.382 131.784 103.217 134.619 103.217 138.117ZM105.846 159.148V152.274C105.846 150.065 104.055 148.274 101.846 148.274H91.9219C89.7127 148.274 87.9219 150.065 87.9219 152.274V159.148H105.846ZM79.5032 138.117C79.5032 141.615 76.6677 144.45 73.1699 144.45C69.6722 144.45 66.8367 141.615 66.8367 138.117C66.8367 134.619 69.6722 131.784 73.1699 131.784C76.6677 131.784 79.5032 134.619 79.5032 138.117ZM82.1322 159.148V152.274C82.1322 150.065 80.3413 148.274 78.1322 148.274H68.2078C65.9986 148.274 64.2078 150.065 64.2078 152.274V159.148H82.1322ZM150.646 138.117C150.646 141.615 147.811 144.45 144.313 144.45C140.815 144.45 137.979 141.615 137.979 138.117C137.979 134.619 140.815 131.784 144.313 131.784C147.811 131.784 150.646 134.619 150.646 138.117ZM153.275 159.148V152.274C153.275 150.065 151.484 148.274 149.275 148.274H139.351C137.141 148.274 135.351 150.065 135.351 152.274V159.148H153.275ZM126.932 138.117C126.932 141.615 124.096 144.45 120.598 144.45C117.101 144.45 114.265 141.615 114.265 138.117C114.265 134.619 117.101 131.784 120.598 131.784C124.096 131.784 126.932 134.619 126.932 138.117ZM129.561 159.148V152.274C129.561 150.065 127.77 148.274 125.561 148.274H115.636C113.427 148.274 111.636 150.065 111.636 152.274V159.148H129.561ZM103.217 73.4415C103.217 76.9393 100.382 79.7748 96.884 79.7748C93.3863 79.7748 90.5508 76.9393 90.5508 73.4415C90.5508 69.9438 93.3863 67.1083 96.884 67.1083C100.382 67.1083 103.217 69.9438 103.217 73.4415ZM105.846 94.4723V87.5985C105.846 85.3894 104.055 83.5985 101.846 83.5985H91.9219C89.7127 83.5985 87.9219 85.3894 87.9219 87.5985V94.4723H105.846ZM79.5032 73.4415C79.5032 76.9393 76.6677 79.7748 73.1699 79.7748C69.6722 79.7748 66.8367 76.9393 66.8367 73.4415C66.8367 69.9438 69.6722 67.1083 73.1699 67.1083C76.6677 67.1083 79.5032 69.9438 79.5032 73.4415ZM82.1322 94.4723V87.5985C82.1322 85.3894 80.3413 83.5985 78.1322 83.5985H68.2078C65.9986 83.5985 64.2078 85.3894 64.2078 87.5985V94.4723H82.1322ZM150.646 73.4415C150.646 76.9393 147.811 79.7748 144.313 79.7748C140.815 79.7748 137.979 76.9393 137.979 73.4415C137.979 69.9438 140.815 67.1083 144.313 67.1083C147.811 67.1083 150.646 69.9438 150.646 73.4415ZM153.275 94.4723V87.5985C153.275 85.3894 151.484 83.5985 149.275 83.5985H139.351C137.141 83.5985 135.351 85.3894 135.351 87.5985V94.4723H153.275ZM126.932 73.4415C126.932 76.9393 124.096 79.7748 120.598 79.7748C117.101 79.7748 114.265 76.9393 114.265 73.4415C114.265 69.9438 117.101 67.1083 120.598 67.1083C124.096 67.1083 126.932 69.9438 126.932 73.4415ZM129.561 94.4723V87.5985C129.561 85.3894 127.77 83.5985 125.561 83.5985H115.636C113.427 83.5985 111.636 85.3894 111.636 87.5985V94.4723H129.561ZM463.391 219.099C463.391 222.597 460.556 225.432 457.058 225.432C453.56 225.432 450.725 222.597 450.725 219.099C450.725 215.601 453.56 212.766 457.058 212.766C460.556 212.766 463.391 215.601 463.391 219.099ZM466.02 240.13V233.256C466.02 231.047 464.229 229.256 462.02 229.256H452.096C449.887 229.256 448.096 231.047 448.096 233.256V240.13H466.02ZM487.105 219.099C487.105 222.597 484.27 225.432 480.772 225.432C477.274 225.432 474.439 222.597 474.439 219.099C474.439 215.601 477.274 212.766 480.772 212.766C484.27 212.766 487.105 215.601 487.105 219.099ZM489.734 240.13V233.256C489.734 231.047 487.944 229.256 485.734 229.256H475.81C473.601 229.256 471.81 231.047 471.81 233.256V240.13H489.734ZM463.391 251.436C463.391 254.934 460.556 257.77 457.058 257.77C453.56 257.77 450.725 254.934 450.725 251.436C450.725 247.939 453.56 245.103 457.058 245.103C460.556 245.103 463.391 247.939 463.391 251.436ZM466.02 272.467V265.593C466.02 263.384 464.229 261.593 462.02 261.593H452.096C449.887 261.593 448.096 263.384 448.096 265.593V272.467H466.02ZM439.677 237.755C439.677 241.252 436.841 244.088 433.344 244.088C429.846 244.088 427.01 241.252 427.01 237.755C427.01 234.257 429.846 231.421 433.344 231.421C436.841 231.421 439.677 234.257 439.677 237.755ZM442.306 258.785V251.911C442.306 249.702 440.515 247.911 438.306 247.911H428.381C426.172 247.911 424.381 249.702 424.381 251.911V258.785H442.306ZM510.82 237.755C510.82 241.252 507.984 244.088 504.487 244.088C500.989 244.088 498.153 241.252 498.153 237.755C498.153 234.257 500.989 231.421 504.487 231.421C507.984 231.421 510.82 234.257 510.82 237.755ZM513.449 258.785V251.911C513.449 249.702 511.658 247.911 509.449 247.911H499.524C497.315 247.911 495.524 249.702 495.524 251.911V258.785H513.449ZM487.105 251.436C487.105 254.934 484.27 257.77 480.772 257.77C477.274 257.77 474.439 254.934 474.439 251.436C474.439 247.939 477.274 245.103 480.772 245.103C484.27 245.103 487.105 247.939 487.105 251.436ZM489.734 272.467V265.593C489.734 263.384 487.944 261.593 485.734 261.593H475.81C473.601 261.593 471.81 263.384 471.81 265.593V272.467H489.734ZM113.18 219.586C113.18 223.083 110.344 225.919 106.846 225.919C103.349 225.919 100.513 223.083 100.513 219.586C100.513 216.088 103.349 213.252 106.846 213.252C110.344 213.252 113.18 216.088 113.18 219.586ZM115.809 240.616V233.743C115.809 231.533 114.018 229.743 111.809 229.743H101.884C99.6751 229.743 97.8843 231.533 97.8843 233.743V240.616H115.809ZM160.608 219.586C160.608 223.083 157.773 225.919 154.275 225.919C150.777 225.919 147.942 223.083 147.942 219.586C147.942 216.088 150.777 213.252 154.275 213.252C157.773 213.252 160.608 216.088 160.608 219.586ZM163.237 240.616V233.743C163.237 231.533 161.447 229.743 159.237 229.743H149.313C147.104 229.743 145.313 231.533 145.313 233.743V240.616H163.237ZM136.894 219.586C136.894 223.083 134.059 225.919 130.561 225.919C127.063 225.919 124.228 223.083 124.228 219.586C124.228 216.088 127.063 213.252 130.561 213.252C134.059 213.252 136.894 216.088 136.894 219.586ZM139.523 240.616V233.743C139.523 231.533 137.732 229.743 135.523 229.743H125.599C123.389 229.743 121.599 231.533 121.599 233.743V240.616H139.523ZM113.18 251.923C113.18 255.421 110.344 258.257 106.846 258.257C103.349 258.257 100.513 255.421 100.513 251.923C100.513 248.426 103.349 245.59 106.846 245.59C110.344 245.59 113.18 248.426 113.18 251.923ZM115.809 272.954V266.08C115.809 263.871 114.018 262.08 111.809 262.08H101.884C99.6751 262.08 97.8843 263.871 97.8843 266.08V272.954H115.809ZM160.608 251.923C160.608 255.421 157.773 258.257 154.275 258.257C150.777 258.257 147.942 255.421 147.942 251.923C147.942 248.426 150.777 245.59 154.275 245.59C157.773 245.59 160.608 248.426 160.608 251.923ZM163.237 272.954V266.08C163.237 263.871 161.447 262.08 159.237 262.08H149.313C147.104 262.08 145.313 263.871 145.313 266.08V272.954H163.237ZM184.323 238.242C184.323 241.739 181.487 244.575 177.99 244.575C174.492 244.575 171.656 241.739 171.656 238.242C171.656 234.744 174.492 231.908 177.99 231.908C181.487 231.908 184.323 234.744 184.323 238.242ZM186.952 259.272V252.399C186.952 250.189 185.161 248.399 182.952 248.399H173.027C170.818 248.399 169.027 250.189 169.027 252.399V259.272H186.952ZM89.4654 238.242C89.4654 241.739 86.6299 244.575 83.1321 244.575C79.6343 244.575 76.7988 241.739 76.7988 238.242C76.7988 234.744 79.6343 231.908 83.1321 231.908C86.6299 231.908 89.4654 234.744 89.4654 238.242ZM92.0943 259.272V252.399C92.0943 250.189 90.3035 248.399 88.0943 248.399H78.1699C75.9608 248.399 74.1699 250.189 74.1699 252.399V259.272H92.0943ZM136.894 251.923C136.894 255.421 134.059 258.257 130.561 258.257C127.063 258.257 124.228 255.421 124.228 251.923C124.228 248.426 127.063 245.59 130.561 245.59C134.059 245.59 136.894 248.426 136.894 251.923ZM139.523 272.954V266.08C139.523 263.871 137.732 262.08 135.523 262.08H125.599C123.389 262.08 121.599 263.871 121.599 266.08V272.954H139.523Z" stroke="url(#paint0_linear_1284_708)" stroke-width="1.5" />
  <path d="M451.114 197.127L451.468 196.774L451.321 196.627H451.114V197.127ZM387.175 197.127C387.175 198.6 388.368 199.794 389.841 199.794C391.314 199.794 392.508 198.6 392.508 197.127C392.508 195.655 391.314 194.461 389.841 194.461C388.368 194.461 387.175 195.655 387.175 197.127ZM414.714 155.253V155.753H414.921L415.068 155.607L414.714 155.253ZM383.605 155.253C383.605 156.726 384.799 157.92 386.272 157.92C387.745 157.92 388.939 156.726 388.939 155.253C388.939 153.781 387.745 152.587 386.272 152.587C384.799 152.587 383.605 153.781 383.605 155.253ZM475.22 162.459V162.959H475.427L475.574 162.813L475.22 162.459ZM385.631 162.459C385.631 163.932 386.825 165.126 388.298 165.126C389.77 165.126 390.964 163.932 390.964 162.459C390.964 160.987 389.77 159.793 388.298 159.793C386.825 159.793 385.631 160.987 385.631 162.459ZM465.837 169.397C465.837 170.87 467.031 172.064 468.504 172.064C469.976 172.064 471.17 170.87 471.17 169.397C471.17 167.924 469.976 166.731 468.504 166.731C467.031 166.731 465.837 167.924 465.837 169.397ZM387.175 169.397C387.175 170.87 388.368 172.064 389.841 172.064C391.314 172.064 392.508 170.87 392.508 169.397C392.508 167.924 391.314 166.731 389.841 166.731C388.368 166.731 387.175 167.924 387.175 169.397ZM471.842 176.153V176.653H472.049L472.195 176.507L471.842 176.153ZM388.664 176.153C388.664 177.626 389.858 178.82 391.331 178.82C392.803 178.82 393.997 177.626 393.997 176.153C393.997 174.681 392.803 173.487 391.331 173.487C389.858 173.487 388.664 174.681 388.664 176.153ZM475.22 183.123V183.623H475.427L475.574 183.477L475.22 183.123ZM388.664 183.123C388.664 184.596 389.858 185.79 391.331 185.79C392.803 185.79 393.997 184.596 393.997 183.123C393.997 181.65 392.803 180.456 391.331 180.456C389.858 180.456 388.664 181.65 388.664 183.123ZM499.302 190.061L499.655 189.707L499.509 189.561H499.302V190.061ZM388.664 190.061C388.664 191.534 389.858 192.727 391.331 192.727C392.803 192.727 393.997 191.534 393.997 190.061C393.997 188.588 392.803 187.394 391.331 187.394C389.858 187.394 388.664 188.588 388.664 190.061ZM457.599 206.278C457.599 207.751 458.793 208.945 460.265 208.945C461.738 208.945 462.932 207.751 462.932 206.278C462.932 204.806 461.738 203.612 460.265 203.612C458.793 203.612 457.599 204.806 457.599 206.278ZM506.368 197.127L506.015 197.481L506.161 197.627H506.368V197.127ZM545.822 197.127L546.176 196.774L546.029 196.627H545.822V197.127ZM488.946 169.397V168.897H488.739L488.593 169.044L488.946 169.397ZM527.831 169.397C527.831 170.87 529.025 172.064 530.498 172.064C531.971 172.064 533.165 170.87 533.165 169.397C533.165 167.924 531.971 166.731 530.498 166.731C529.025 166.731 527.831 167.924 527.831 169.397ZM485.536 162.459V161.959H485.329L485.182 162.106L485.536 162.459ZM514.003 162.459V162.959H514.21L514.357 162.813L514.003 162.459ZM534.97 141.493V140.993H534.763L534.616 141.139L534.97 141.493ZM601.441 141.493C601.441 142.966 602.635 144.16 604.108 144.16C605.581 144.16 606.775 142.966 606.775 141.493C606.775 140.02 605.581 138.826 604.108 138.826C602.635 138.826 601.441 140.02 601.441 141.493ZM439.633 130.334V129.834H439.426L439.28 129.981L439.633 130.334ZM448.448 130.334C448.448 131.807 449.642 133.001 451.114 133.001C452.587 133.001 453.781 131.807 453.781 130.334C453.781 128.862 452.587 127.668 451.114 127.668C449.642 127.668 448.448 128.862 448.448 130.334ZM496.187 141.493V140.993H495.98L495.833 141.139L496.187 141.493ZM521.753 141.493C521.753 142.966 522.947 144.16 524.419 144.16C525.892 144.16 527.086 142.966 527.086 141.493C527.086 140.02 525.892 138.826 524.419 138.826C522.947 138.826 521.753 140.02 521.753 141.493ZM573.715 225.02L573.361 225.373L573.508 225.52H573.715V225.02ZM601.441 225.02C601.441 226.493 602.635 227.687 604.108 227.687C605.581 227.687 606.775 226.493 606.775 225.02C606.775 223.547 605.581 222.353 604.108 222.353C602.635 222.353 601.441 223.547 601.441 225.02ZM360.755 97.0644C360.755 98.5372 361.949 99.7311 363.422 99.7311C364.895 99.7311 366.089 98.5372 366.089 97.0644C366.089 95.5916 364.895 94.3977 363.422 94.3977C361.949 94.3977 360.755 95.5916 360.755 97.0644ZM363.422 103.112L363.776 103.465L363.922 103.319V103.112H363.422ZM354.158 109.709C354.158 111.181 355.352 112.375 356.825 112.375C358.298 112.375 359.492 111.181 359.492 109.709C359.492 108.236 358.298 107.042 356.825 107.042C355.352 107.042 354.158 108.236 354.158 109.709ZM378.919 219.802C378.919 221.275 380.113 222.469 381.586 222.469C383.059 222.469 384.253 221.275 384.253 219.802C384.253 218.329 383.059 217.135 381.586 217.135C380.113 217.135 378.919 218.329 378.919 219.802ZM388.298 226.514L387.944 226.867L388.091 227.014H388.298V226.514ZM400.597 226.514L400.95 226.16L400.804 226.014H400.597V226.514ZM413.137 239.055H413.637V238.847L413.491 238.701L413.137 239.055ZM413.137 279.128H412.637V279.335L412.784 279.481L413.137 279.128ZM420.305 286.296H420.805V286.089L420.659 285.942L420.305 286.296ZM417.639 322.721C417.639 324.194 418.833 325.388 420.305 325.388C421.778 325.388 422.972 324.194 422.972 322.721C422.972 321.248 421.778 320.054 420.305 320.054C418.833 320.054 417.639 321.248 417.639 322.721ZM367.839 239.055C367.839 240.527 369.033 241.721 370.505 241.721C371.978 241.721 373.172 240.527 373.172 239.055C373.172 237.582 371.978 236.388 370.505 236.388C369.033 236.388 367.839 237.582 367.839 239.055ZM377.716 246.265H378.216V246.058L378.069 245.911L377.716 246.265ZM375.049 253.485C375.049 254.957 376.243 256.151 377.716 256.151C379.188 256.151 380.382 254.957 380.382 253.485C380.382 252.012 379.188 250.818 377.716 250.818C376.243 250.818 375.049 252.012 375.049 253.485ZM208.784 239.055C208.784 240.527 209.978 241.721 211.451 241.721C212.924 241.721 214.118 240.527 214.118 239.055C214.118 237.582 212.924 236.388 211.451 236.388C209.978 236.388 208.784 237.582 208.784 239.055ZM204.241 246.265L203.887 245.911L203.741 246.058V246.265H204.241ZM204.241 274.432L204.594 274.785L204.741 274.639V274.432H204.241ZM190.955 287.718V288.218H191.162L191.308 288.071L190.955 287.718ZM148.074 287.718L147.72 288.071L147.867 288.218H148.074V287.718ZM137.229 279.539C137.229 281.012 138.423 282.206 139.895 282.206C141.368 282.206 142.562 281.012 142.562 279.539C142.562 278.066 141.368 276.872 139.895 276.872C138.423 276.872 137.229 278.066 137.229 279.539ZM214.45 246.265C214.45 247.737 215.644 248.931 217.117 248.931C218.589 248.931 219.783 247.737 219.783 246.265C219.783 244.792 218.589 243.598 217.117 243.598C215.644 243.598 214.45 244.792 214.45 246.265ZM212.504 250.878L212.15 250.524L212.004 250.67V250.878H212.504ZM212.504 279.539L212.857 279.893L213.004 279.746V279.539H212.504ZM204.241 287.802L203.887 287.449L203.741 287.595V287.802H204.241ZM201.574 307.27C201.574 308.743 202.768 309.936 204.241 309.936C205.713 309.936 206.907 308.743 206.907 307.27C206.907 305.797 205.713 304.603 204.241 304.603C202.768 304.603 201.574 305.797 201.574 307.27ZM373.041 130.334C373.041 131.807 374.235 133.001 375.708 133.001C377.18 133.001 378.374 131.807 378.374 130.334C378.374 128.862 377.18 127.668 375.708 127.668C374.235 127.668 373.041 128.862 373.041 130.334ZM426.937 130.334V130.834H427.144L427.291 130.688L426.937 130.334ZM435.99 121.282V120.782H435.783L435.636 120.928L435.99 121.282ZM448.448 121.282C448.448 122.755 449.642 123.948 451.114 123.948C452.587 123.948 453.781 122.755 453.781 121.282C453.781 119.809 452.587 118.615 451.114 118.615C449.642 118.615 448.448 119.809 448.448 121.282ZM159.685 155.253C159.685 156.726 160.879 157.92 162.351 157.92C163.824 157.92 165.018 156.726 165.018 155.253C165.018 153.781 163.824 152.587 162.351 152.587C160.879 152.587 159.685 153.781 159.685 155.253ZM190.955 155.253L191.308 154.9L191.162 154.753H190.955V155.253ZM193.142 160.107C193.142 161.58 194.336 162.774 195.808 162.774C197.281 162.774 198.475 161.58 198.475 160.107C198.475 158.634 197.281 157.44 195.808 157.44C194.336 157.44 193.142 158.634 193.142 160.107ZM185.345 162.459C185.345 163.932 186.539 165.126 188.011 165.126C189.484 165.126 190.678 163.932 190.678 162.459C190.678 160.987 189.484 159.793 188.011 159.793C186.539 159.793 185.345 160.987 185.345 162.459ZM162.351 162.459V161.959H162.144L161.998 162.106L162.351 162.459ZM148.657 176.153V176.653H148.865L149.011 176.507L148.657 176.153ZM51.1039 176.153L50.7504 176.507L50.8968 176.653H51.1039V176.153ZM37.4099 162.459L37.7635 162.106L37.617 161.959H37.4099V162.459ZM0.915731 162.459C0.915731 163.932 2.10964 165.126 3.5824 165.126C5.05516 165.126 6.24906 163.932 6.24906 162.459C6.24906 160.987 5.05516 159.793 3.5824 159.793C2.10964 159.793 0.915731 160.987 0.915731 162.459ZM425.048 322.721C425.048 324.194 426.242 325.388 427.715 325.388C429.188 325.388 430.382 324.194 430.382 322.721C430.382 321.248 429.188 320.054 427.715 320.054C426.242 320.054 425.048 321.248 425.048 322.721ZM427.715 283.151H428.215V282.943L428.068 282.797L427.715 283.151ZM420.305 275.741H419.805V275.948L419.952 276.095L420.305 275.741ZM417.639 267.884C417.639 269.356 418.833 270.55 420.305 270.55C421.778 270.55 422.972 269.356 422.972 267.884C422.972 266.411 421.778 265.217 420.305 265.217C418.833 265.217 417.639 266.411 417.639 267.884ZM220.663 109.709C220.663 111.181 221.857 112.375 223.33 112.375C224.803 112.375 225.996 111.181 225.996 109.709C225.996 108.236 224.803 107.042 223.33 107.042C221.857 107.042 220.663 108.236 220.663 109.709ZM204.241 90.6195L204.594 90.266L204.448 90.1195H204.241V90.6195ZM188.011 90.6195L187.658 90.9731L187.804 91.1195H188.011V90.6195ZM148.657 51.2656L149.011 50.9121L148.865 50.7656H148.657V51.2656ZM121.622 51.2656L121.269 51.6192L121.415 51.7656H121.622V51.2656ZM115.883 45.526H115.383V45.7332L115.529 45.8796L115.883 45.526ZM115.883 18.3743L115.529 18.0207L115.383 18.1672V18.3743H115.883ZM121.622 12.6347L121.976 12.9883L122.122 12.8418V12.6347H121.622ZM118.955 3.57471C118.955 5.04747 120.149 6.24137 121.622 6.24137C123.095 6.24137 124.289 5.04747 124.289 3.57471C124.289 2.10195 123.095 0.90804 121.622 0.90804C120.149 0.90804 118.955 2.10195 118.955 3.57471ZM126.088 3.57471C126.088 5.04747 127.282 6.24137 128.755 6.24137C130.228 6.24137 131.421 5.04747 131.421 3.57471C131.421 2.10195 130.228 0.90804 128.755 0.90804C127.282 0.90804 126.088 2.10195 126.088 3.57471ZM128.755 15.0882L129.108 15.4418L129.255 15.2953V15.0882H128.755ZM122.576 21.2667L122.223 20.9131L122.076 21.0596V21.2667H122.576ZM122.576 42.233H122.076V42.4401L122.223 42.5866L122.576 42.233ZM124.551 44.2081L124.198 44.5617L124.344 44.7081H124.551V44.2081ZM151.646 44.2081L151.999 43.8546L151.853 43.7081H151.646V44.2081ZM190.955 83.5171L190.601 83.8707L190.747 84.0171H190.955V83.5171ZM249.691 83.5171L250.045 83.1636L249.898 83.0171H249.691V83.5171ZM254.127 90.6195C254.127 92.0923 255.321 93.2862 256.794 93.2862C258.266 93.2862 259.46 92.0923 259.46 90.6195C259.46 89.1468 258.266 87.9529 256.794 87.9529C255.321 87.9529 254.127 89.1468 254.127 90.6195ZM50.1828 83.5171C50.1828 84.9899 51.3767 86.1838 52.8495 86.1838C54.3223 86.1838 55.5162 84.9899 55.5162 83.5171C55.5162 82.0443 54.3223 80.8504 52.8495 80.8504C51.3767 80.8504 50.1828 82.0443 50.1828 83.5171ZM45.386 76.0537L45.7396 75.7001L45.5932 75.5537H45.386V76.0537ZM0.915731 76.0537C0.915731 77.5264 2.10964 78.7203 3.5824 78.7203C5.05516 78.7203 6.24906 77.5264 6.24906 76.0537C6.24906 74.5809 5.05516 73.387 3.5824 73.387C2.10964 73.387 0.915731 74.5809 0.915731 76.0537ZM38.9008 226.514C38.9008 227.986 40.0947 229.18 41.5675 229.18C43.0402 229.18 44.2341 227.986 44.2341 226.514C44.2341 225.041 43.0402 223.847 41.5675 223.847C40.0947 223.847 38.9008 225.041 38.9008 226.514ZM72.351 226.514V227.014H72.5581L72.7045 226.867L72.351 226.514ZM108.804 190.061V189.561H108.597L108.45 189.707L108.804 190.061ZM188.288 190.061C188.288 191.534 189.482 192.727 190.955 192.727C192.427 192.727 193.621 191.534 193.621 190.061C193.621 188.588 192.427 187.394 190.955 187.394C189.482 187.394 188.288 188.588 188.288 190.061ZM188.288 183.123C188.288 184.596 189.482 185.79 190.955 185.79C192.427 185.79 193.621 184.596 193.621 183.123C193.621 181.65 192.427 180.456 190.955 180.456C189.482 180.456 188.288 181.65 188.288 183.123ZM105.707 183.123V182.623H105.5L105.353 182.769L105.707 183.123ZM67.0793 219.084C67.0793 220.557 68.2732 221.751 69.7459 221.751C71.2187 221.751 72.4126 220.557 72.4126 219.084C72.4126 217.611 71.2187 216.417 69.7459 216.417C68.2732 216.417 67.0793 217.611 67.0793 219.084ZM189.055 197.127C189.055 198.6 190.249 199.794 191.722 199.794C193.195 199.794 194.388 198.6 194.388 197.127C194.388 195.655 193.195 194.461 191.722 194.461C190.249 194.461 189.055 195.655 189.055 197.127ZM137.229 197.127C137.229 198.6 138.423 199.794 139.895 199.794C141.368 199.794 142.562 198.6 142.562 197.127C142.562 195.655 141.368 194.461 139.895 194.461C138.423 194.461 137.229 195.655 137.229 197.127ZM290.035 83.5171C290.035 84.9899 291.229 86.1838 292.702 86.1838C294.174 86.1838 295.368 84.9899 295.368 83.5171C295.368 82.0443 294.174 80.8504 292.702 80.8504C291.229 80.8504 290.035 82.0443 290.035 83.5171ZM292.702 60.0415L292.348 59.688L292.202 59.8344V60.0415H292.702ZM301.477 51.2656L301.831 51.6192L301.977 51.4727V51.2656H301.477ZM298.811 15.0882C298.811 16.561 300.005 17.7549 301.477 17.7549C302.95 17.7549 304.144 16.561 304.144 15.0882C304.144 13.6155 302.95 12.4215 301.477 12.4215C300.005 12.4215 298.811 13.6155 298.811 15.0882ZM573.715 183.123V182.623H573.508L573.361 182.769L573.715 183.123ZM564.11 190.061C564.11 191.534 565.304 192.727 566.777 192.727C568.25 192.727 569.444 191.534 569.444 190.061C569.444 188.588 568.25 187.394 566.777 187.394C565.304 187.394 564.11 188.588 564.11 190.061ZM592.585 183.123C592.585 184.596 593.779 185.79 595.252 185.79C596.724 185.79 597.918 184.596 597.918 183.123C597.918 181.65 596.724 180.456 595.252 180.456C593.779 180.456 592.585 181.65 592.585 183.123ZM451.114 196.627H389.841V197.627H451.114V196.627ZM414.714 154.753H386.272V155.753H414.714V154.753ZM475.22 161.959H388.298V162.959H475.22V161.959ZM468.504 168.897H389.841V169.897H468.504V168.897ZM471.842 175.653H391.331V176.653H471.842V175.653ZM475.22 182.623H391.331V183.623H475.22V182.623ZM499.302 189.561H391.331V190.561H499.302V189.561ZM450.761 197.481L459.912 206.632L460.619 205.925L451.468 196.774L450.761 197.481ZM498.948 190.414L506.015 197.481L506.722 196.774L499.655 189.707L498.948 190.414ZM506.368 197.627H545.822V196.627H506.368V197.627ZM475.574 183.477L489.3 169.751L488.593 169.044L474.867 182.769L475.574 183.477ZM488.946 169.897H530.498V168.897H488.946V169.897ZM472.195 176.507L485.889 162.813L485.182 162.106L471.488 175.8L472.195 176.507ZM485.536 162.959H514.003V161.959H485.536V162.959ZM514.357 162.813L535.323 141.847L534.616 141.139L513.65 162.106L514.357 162.813ZM534.97 141.993H604.108V140.993H534.97V141.993ZM415.068 155.607L439.987 130.688L439.28 129.981L414.361 154.9L415.068 155.607ZM439.633 130.834H451.114V129.834H439.633V130.834ZM475.574 162.813L496.54 141.847L495.833 141.139L474.867 162.106L475.574 162.813ZM496.187 141.993H524.419V140.993H496.187V141.993ZM545.469 197.481L573.361 225.373L574.068 224.666L546.176 196.774L545.469 197.481ZM573.715 225.52H604.108V224.52H573.715V225.52ZM362.922 97.0644V103.112H363.922V97.0644H362.922ZM363.069 102.758L356.472 109.355L357.179 110.062L363.776 103.465L363.069 102.758ZM381.232 220.155L387.944 226.867L388.651 226.16L381.94 219.448L381.232 220.155ZM388.298 227.014H400.597V226.014H388.298V227.014ZM400.243 226.867L412.784 239.408L413.491 238.701L400.95 226.16L400.243 226.867ZM412.637 239.055V279.128H413.637V239.055H412.637ZM412.784 279.481L419.952 286.65L420.659 285.942L413.491 278.774L412.784 279.481ZM419.805 286.296V322.721H420.805V286.296H419.805ZM370.152 239.408L377.362 246.618L378.069 245.911L370.859 238.701L370.152 239.408ZM377.216 246.265V253.485H378.216V246.265H377.216ZM211.097 238.701L203.887 245.911L204.594 246.618L211.804 239.408L211.097 238.701ZM203.741 246.265V274.432H204.741V246.265H203.741ZM203.887 274.078L190.601 287.364L191.308 288.071L204.594 274.785L203.887 274.078ZM190.955 287.218H148.074V288.218H190.955V287.218ZM148.428 287.364L140.249 279.186L139.542 279.893L147.72 288.071L148.428 287.364ZM216.763 245.911L212.15 250.524L212.857 251.231L217.47 246.618L216.763 245.911ZM212.004 250.878V279.539H213.004V250.878H212.004ZM212.15 279.186L203.887 287.449L204.594 288.156L212.857 279.893L212.15 279.186ZM203.741 287.802V307.27H204.741V287.802H203.741ZM375.708 130.834H426.937V129.834H375.708V130.834ZM427.291 130.688L436.343 121.635L435.636 120.928L426.584 129.981L427.291 130.688ZM435.99 121.782H451.114V120.782H435.99V121.782ZM162.351 155.753H190.955V154.753H162.351V155.753ZM190.601 155.607L195.455 160.461L196.162 159.754L191.308 154.9L190.601 155.607ZM188.011 161.959H162.351V162.959H188.011V161.959ZM161.998 162.106L148.304 175.8L149.011 176.507L162.705 162.813L161.998 162.106ZM148.657 175.653H51.1039V176.653H148.657V175.653ZM51.4575 175.8L37.7635 162.106L37.0564 162.813L50.7504 176.507L51.4575 175.8ZM37.4099 161.959H3.5824V162.959H37.4099V161.959ZM428.215 322.721V283.151H427.215V322.721H428.215ZM428.068 282.797L420.659 275.388L419.952 276.095L427.361 283.504L428.068 282.797ZM420.805 275.741V267.884H419.805V275.741H420.805ZM223.683 109.355L204.594 90.266L203.887 90.9731L222.976 110.062L223.683 109.355ZM204.241 90.1195H188.011V91.1195H204.241V90.1195ZM188.365 90.266L149.011 50.9121L148.304 51.6192L187.658 90.9731L188.365 90.266ZM148.657 50.7656H121.622V51.7656H148.657V50.7656ZM121.976 50.9121L116.236 45.1725L115.529 45.8796L121.269 51.6192L121.976 50.9121ZM116.383 45.526V18.3743H115.383V45.526H116.383ZM116.236 18.7278L121.976 12.9883L121.269 12.2811L115.529 18.0207L116.236 18.7278ZM122.122 12.6347V3.57471H121.122V12.6347H122.122ZM128.255 3.57471V15.0882H129.255V3.57471H128.255ZM128.401 14.7347L122.223 20.9131L122.93 21.6203L129.108 15.4418L128.401 14.7347ZM122.076 21.2667V42.233H123.076V21.2667H122.076ZM122.223 42.5866L124.198 44.5617L124.905 43.8546L122.93 41.8795L122.223 42.5866ZM124.551 44.7081H151.646V43.7081H124.551V44.7081ZM151.292 44.5617L190.601 83.8707L191.308 83.1636L151.999 43.8546L151.292 44.5617ZM190.955 84.0171H249.691V83.0171H190.955V84.0171ZM249.338 83.8707L256.44 90.9731L257.147 90.266L250.045 83.1636L249.338 83.8707ZM53.203 83.1636L45.7396 75.7001L45.0325 76.4072L52.4959 83.8707L53.203 83.1636ZM45.386 75.5537H3.5824V76.5537H45.386V75.5537ZM41.5675 227.014H72.351V226.014H41.5675V227.014ZM72.7045 226.867L109.157 190.414L108.45 189.707L71.9974 226.16L72.7045 226.867ZM108.804 190.561H190.955V189.561H108.804V190.561ZM190.955 182.623H105.707V183.623H190.955V182.623ZM105.353 182.769L69.3924 218.73L70.0995 219.438L106.06 183.477L105.353 182.769ZM191.722 196.627H139.895V197.627H191.722V196.627ZM293.202 83.5171V60.0415H292.202V83.5171H293.202ZM293.055 60.3951L301.831 51.6192L301.124 50.9121L292.348 59.688L293.055 60.3951ZM301.977 51.2656V15.0882H300.977V51.2656H301.977ZM573.361 182.769L566.424 189.707L567.131 190.414L574.068 183.477L573.361 182.769ZM573.715 183.623H595.252V182.623H573.715V183.623Z" fill="url(#paint1_linear_1284_708)" />
  <defs>
    <linearGradient id="paint0_linear_1284_708" x1="32.531" y1="65.105" x2="580.938" y2="285.149" gradientUnits="userSpaceOnUse">
      <stop stopColor="#0038FF" />
      <stop offset="1" stopColor="#00C2FF" />
    </linearGradient>
    <linearGradient id="paint1_linear_1284_708" x1="303.845" y1="3.57472" x2="303.845" y2="322.721" gradientUnits="userSpaceOnUse">
      <stop stopColor="#1164E1" />
      <stop offset="1" stopColor="#44DDFF" />
    </linearGradient>
  </defs>
</svg>