<svg width="581" height="226" viewBox="0 0 581 226" fill="none" xmlns="http://www.w3.org/2000/svg">
  <path d="M100.952 158.58V160.103H102.109M100.952 158.58H94.7767M100.952 158.58V117.437V113.157V82.1893V74.6921V70.6595V63.7224M105.197 160.103V163.151L100.952 167.341H86.8243M105.197 160.103H102.109M105.197 160.103V155.913M78.8011 167.341H61.9723H57.727H54.4068H11.9531M3.92986 167.341H2.53842L1.38062 166.199V158.58H4.08215M4.08215 158.58L5.62589 154.77H6.78369M4.08215 158.58H94.7767M21.0633 154.77V155.913H24.9226V154.77M21.0633 154.77V150.961H24.9226V154.77M21.0633 154.77H18.7476H12.1868H6.78369M24.9226 154.77H94.7767M94.7767 154.77V158.58M94.7767 154.77V147.151H89.3736M12.1868 139.151H10.2571L8.5204 145.627L6.78369 152.103V154.77M12.1868 139.151V133.437L13.7305 131.913H21.8351M12.1868 139.151L24.1507 145.956M24.1507 145.956L34.9569 152.103H76.2518L82.8127 148.595M24.1507 145.956V131.913H21.8351M21.8351 131.913L33.0272 120.484L57.727 115.913L57.75 115.92L61.9723 117.31L62.3582 117.437L64.8141 122.77M82.8127 148.595L85.5143 147.151H89.3736M82.8127 148.595V142.58L78.5674 138.389H74.3222M89.3736 147.151V123.468M89.3736 63.7224H100.952M89.3736 63.7224H86.2861V61.0558H100.952V63.7224M89.3736 63.7224V70.6595V74.6921V82.1893V95.7224V100.294V113.157V117.437V117.5M102.109 160.103V117.437V113.157V111.341H105.197V113.157V117.5V152.865M105.197 152.865V155.913M105.197 152.865H108.284M105.197 155.913H107.127V164.675H114.845V158.58H120.859H124.964H127.195V164.675H135.3V158.58H148.036V164.675H155.368V158.58M155.368 151.722V149.437H151.895V151.722L150.737 152.865H148.036M155.368 151.722H158.842V153.627H155.368M155.368 151.722V153.627M155.368 153.627V156.675M155.368 156.675H158.842V158.58H155.368M155.368 156.675V158.58M108.284 152.865V132.294H120.859H123.722M108.284 152.865H148.036M148.036 152.865V132.294H131.44M123.722 132.294V134.961H131.44V132.294M123.722 132.294H124.964H131.44M64.8141 122.77L72.0066 138.389H74.3222M64.8141 122.77H67.3754L73.1644 135.786M74.3222 138.389L73.7335 137.065M73.1644 135.786C73.7819 135.43 80.4113 128.738 83.6489 125.437M73.1644 135.786L73.7335 137.065M83.6489 125.437L82.4911 124.294L89.3736 117.5M83.6489 125.437L84.5816 126.357M89.3736 123.468L85.5143 127.278L84.5816 126.357M89.3736 123.468V117.5M84.5816 126.357L73.7335 137.065M211.041 136.9H265.156M211.041 136.9V138.069M211.041 136.9V131.77M265.156 136.9V127.939L251.039 102.225H248.425M265.156 136.9V138.069M265.156 138.069V141.705L262.28 144.393M265.156 138.069H211.041M211.041 138.069V141.056L217.707 147.679M252.927 153.134L251.954 154.043H245.418M252.927 153.134L262.28 144.393M252.927 153.134H255.969M262.28 144.393L259.012 153.134H255.969M248.425 102.225H238.883V122.614M248.425 102.225V100.536H236.367M225.55 127.939H223.458L219.537 122.225H217.053M225.55 127.939H238.883V124.303M225.55 127.939V124.303H228.295M238.883 124.303V122.614M238.883 124.303H237.706H231.563H228.295M217.053 122.225H214.57L211.041 127.419V128.913M217.053 122.225V118.963M228.295 124.303L232.739 120.926H236.007L238.883 122.614M219.425 92.6325L215.877 89.1077M209.265 103.966L199.407 94.1726V91.4453L199.865 90.9908M215.877 89.1077L210.126 83.3934H208.557M215.877 89.1077H224.373L228.255 92.964M225.615 154.043H227.118V150.926H232.216V154.043H240.713M225.615 154.043H224.112L219.799 149.757M225.615 154.043L231.563 157.549H234.7M240.713 154.043H245.418M240.713 154.043V156.64M255.969 153.134V157.549L263.849 162.05M234.7 157.549H240.713V156.64M234.7 157.549L226.203 164.822H220.977M245.418 154.043L247.538 156.64M263.849 162.05L266.202 163.393V169.627H211.041V166.056M263.849 162.05V164.822H249.34V158.848L247.538 156.64M240.713 156.64H247.538M202.544 77.4194L204.636 75.3414L187.512 58.3285H185.029L184.31 59.0427M202.544 77.4194L208.557 83.3934M202.544 77.4194L201.956 78.0038L199.277 80.6661L195.094 84.822M208.557 83.3934H207.511L199.865 90.9908M195.094 84.822L194.048 85.8609H192.741L176.402 69.6272V66.8999L176.794 66.5103M195.094 84.822L198.231 87.9389V89.3674L199.865 90.9908M174.459 50.2765H175.487L184.31 59.0427M184.31 59.0427L177.186 66.1207M177.186 66.1207V64.1726L181.761 59.6272L178.101 55.9908L177.186 55.0817L176.14 54.0427L173.788 51.7051M177.186 66.1207L176.794 66.5103M176.794 66.5103L166.83 56.6106M150.39 56.2505V54.4324L155.347 49.5076M150.39 56.2505L154.965 60.796M150.39 56.2505L148.952 57.6791M154.965 60.796L155.749 61.5752L153.527 63.783L152.612 62.8739M154.965 60.796L155.749 60.0168H157.971L161.776 56.2361M148.952 57.6791L148.168 58.4583L150.586 60.8609L152.612 62.8739M148.952 57.6791L147.514 56.2505L145.292 58.4583V60.4064L145.75 60.8609L140.456 66.1207V68.4583M140.456 68.4583L144.508 72.4843M140.456 68.4583H139.279L132.874 74.822V76.2505L133.267 76.6402M144.508 72.4843L146.338 70.6661V69.1077L152.612 62.8739M144.508 72.4843V74.6921L138.757 80.4064H137.057L136.534 79.8869M133.267 76.6402L131.801 78.0965M133.267 76.6402L136.534 79.8869M136.534 79.8869L135.355 81.0583M128.2 83.2323L129.25 82.1893M131.021 84.0663L130.062 85.0191M124.117 93.2379V100.926M124.117 100.926H126.862M124.117 100.926L120.859 103.493L120.326 103.913L120.859 104.562M126.862 100.926V93.2045M126.862 100.926L130.522 103.913L130.062 104.562M120.859 104.562L122.679 106.782M120.859 104.562L117.902 107.5L117.329 108.069V110.536L118.573 113.157L119.672 115.471V113.157M130.062 104.562L133.591 108.069V110.536L131.175 115.471V108.978L128.49 106.782M130.062 104.562L128.49 106.782M122.679 106.782L123.202 107.419H124.964H128.038L128.49 106.782M122.679 106.782L120.859 108.111L119.672 108.978V113.157M219.799 149.757H185.324M219.799 149.757L217.707 147.679M191.434 166.056H211.041M191.434 166.056L193.913 163.582M191.434 166.056H188.843M220.977 164.822H211.041V166.056M220.977 164.822L219.734 163.582M185.324 149.757H181.761L177.467 154.043V166.056H180.373M185.324 149.757V147.679H186.755M217.707 147.679H186.755M186.755 147.679V128.913H202.544M211.041 128.913H202.544M211.041 128.913V131.77M202.544 128.913V131.77H211.041M193.913 163.582L196.776 160.725L198.923 158.582M193.913 163.582H196.776H198.923M219.734 163.582H216.871H214.724M219.734 163.582L216.871 160.725L214.724 158.582M198.923 163.582V158.582M198.923 163.582H201.07H203.217M198.923 158.582L201.07 156.439L203.217 154.296M203.217 163.582V154.296M203.217 163.582H205.364H208.227H210.43M203.217 154.296L204.382 153.134H205.364H208.227H209.265L210.43 154.296M210.43 154.296V163.582M210.43 154.296L212.522 156.384L214.724 158.582M210.43 163.582H212.522H214.724M214.724 158.582V163.582M180.373 166.056C180.714 168.083 182.48 169.627 184.608 169.627C186.736 169.627 188.502 168.083 188.843 166.056M180.373 166.056H188.843M27.4788 57.9278C27.4788 61.4239 24.6073 64.2581 21.0653 64.2581C17.5232 64.2581 14.6518 61.4239 14.6518 57.9278M37.6649 79.8979C34.5395 79.8979 32.0059 77.3971 32.0059 74.3123C32.0059 71.2274 34.5395 68.7266 37.6649 68.7266M14.6518 58.3001V52.1588M14.6518 41.9156V52.1588M27.4788 58.3001V52.1588M27.4788 41.9156V52.1588M37.2876 68.7266H44.2429M53.8873 68.7266H44.2429M37.2876 79.8979H44.2429M53.8873 79.8979H47.5847H44.2429M29.8143 70.6595L24.766 65.6766M33.9642 66.5634L28.9159 61.5805M14.6518 52.1588C13.2456 53.681 12.3882 55.7055 12.3882 57.9278C12.3882 62.6579 16.273 66.4924 21.0653 66.4924C22.389 66.4924 23.6435 66.1998 24.766 65.6766M27.4788 52.1588C28.8849 53.681 29.7423 55.7055 29.7423 57.9278C29.7423 59.2343 29.4459 60.4725 28.9159 61.5805M24.766 65.6766C26.5847 64.8289 28.057 63.3757 28.9159 61.5805M44.2429 68.7266C42.6517 66.9026 40.2949 65.7476 37.6649 65.7476C32.8727 65.7476 28.9878 69.5822 28.9878 74.3123C28.9878 76.1088 29.5482 77.7761 30.5058 79.1532C31.4322 80.4854 32.7304 81.546 34.2527 82.1893C35.3001 82.6319 36.4535 82.8769 37.6649 82.8769C40.2949 82.8769 42.6517 81.722 44.2429 79.8979M66.926 68.7813C68.206 70.2735 68.9779 72.2039 68.9779 74.3123C68.9779 74.6515 68.9579 74.9862 68.919 75.3151M66.926 68.7813C68.6017 69.0184 70.2317 69.6445 71.6664 70.6595C72.141 70.9953 72.5942 71.3736 73.0206 71.7945C73.9009 72.6634 74.5974 73.6449 75.1101 74.6921C75.4075 75.2994 75.643 75.9287 75.8168 76.5709L73.5235 78.8345C73.2146 78.1965 72.7925 77.5985 72.2571 77.07C71.3097 76.1349 70.1421 75.55 68.919 75.3151M66.926 68.7813C66.425 68.1972 65.8461 67.6802 65.2052 67.246C64.2483 66.5977 63.1531 66.1339 61.9723 65.9064C61.4314 65.8022 60.8726 65.7476 60.3008 65.7476C59.4046 65.7476 58.5402 65.8817 57.727 66.1307C54.1915 67.2131 51.6237 70.4667 51.6237 74.3123C51.6237 76.9341 52.8172 79.2807 54.6972 80.8517M54.6972 80.8517C55.0169 83.0527 56.0345 85.174 57.75 86.8672C58.9783 88.0796 60.4289 88.9389 61.9723 89.445C62.1764 89.5119 62.3821 89.5726 62.5891 89.6272L64.8824 87.3636C64.236 87.0588 63.6301 86.6421 63.0947 86.1136C62.1474 85.1786 61.5548 84.026 61.3168 82.8188M54.6972 80.8517C56.209 82.1151 58.1648 82.8769 60.3008 82.8769C60.6445 82.8769 60.9835 82.8572 61.3168 82.8188M61.3168 82.8188C65.297 82.3606 68.4548 79.2438 68.919 75.3151M227.552 42.4843V60.3415C227.552 63.4817 228.621 66.3729 230.415 68.6724M230.415 42.4843V52.0105M251.887 42.4843V52.0105M254.75 42.4843V60.3415C254.75 63.4817 253.681 66.3729 251.887 68.6724M230.415 68.6724C232.903 71.8616 236.787 73.9129 241.151 73.9129C245.515 73.9129 249.399 71.8616 251.887 68.6724M230.415 68.6724V52.0105M251.887 68.6724V52.0105M230.415 52.0105C232.903 48.8214 236.787 46.7701 241.151 46.7701C245.515 46.7701 249.399 48.8214 251.887 52.0105M120.859 113.157H119.672M8.5204 169.627V169.592M8.5204 169.592C10.8049 169.311 12.5727 167.387 12.5727 165.056C12.5727 162.531 10.4992 160.484 7.9415 160.484C5.38375 160.484 3.31029 162.531 3.31029 165.056C3.31029 167.58 5.38375 169.627 7.9415 169.627C8.13755 169.627 8.33075 169.615 8.5204 169.592ZM479.237 143.025H415.357L410.396 138.069V67.1051L415.357 62.1493H552.419L557.381 67.1051V138.069L552.419 143.025H490.09M479.237 143.025H490.09M479.237 143.025V163.742H467.453L464.352 166.84V169.627H505.905V166.84L502.804 163.742H490.09V143.025M436.444 112.326H422.799V76.3971H467.453V89.406M436.444 112.326H467.453V89.406M436.444 112.326V124.716H488.85V89.406H467.453M415.357 132.769V67.1051H552.419V107.99M415.357 132.769V135.247H528.852M415.357 132.769H528.852M528.852 132.769V107.99H552.419M528.852 132.769V135.247M552.419 107.99V135.247H528.852M87.4439 165.056C87.4439 167.58 85.3705 169.627 82.8127 169.627C80.255 169.627 78.1815 167.58 78.1815 165.056C78.1815 162.531 80.255 160.484 82.8127 160.484C85.3705 160.484 87.4439 162.531 87.4439 165.056ZM42.6756 135.786V139.151H51.1661V135.786H42.6756ZM237.575 106.251C237.575 114.069 231.197 120.406 223.328 120.406C215.459 120.406 209.08 114.069 209.08 106.251C209.08 98.4325 215.459 92.0947 223.328 92.0947C231.197 92.0947 237.575 98.4325 237.575 106.251ZM243.85 149.757C243.85 150.905 242.913 151.835 241.758 151.835C240.603 151.835 239.667 150.905 239.667 149.757C239.667 148.609 240.603 147.679 241.758 147.679C242.913 147.679 243.85 148.609 243.85 149.757ZM229.733 106.38C229.733 109.967 226.807 112.874 223.197 112.874C219.587 112.874 216.661 109.967 216.661 106.38C216.661 102.794 219.587 99.8869 223.197 99.8869C226.807 99.8869 229.733 102.794 229.733 106.38ZM233.785 164.822H246.725L244.895 160.406L233.785 164.822ZM175.095 46.7701C175.095 52.2929 170.588 56.7701 165.03 56.7701C159.471 56.7701 154.965 52.2929 154.965 46.7701C154.965 41.2472 159.471 36.7701 165.03 36.7701C170.588 36.7701 175.095 41.2472 175.095 46.7701ZM168.036 46.8999C168.036 48.6213 166.632 50.0168 164.899 50.0168C163.167 50.0168 161.762 48.6213 161.762 46.8999C161.762 45.1785 163.167 43.783 164.899 43.783C166.632 43.783 168.036 45.1785 168.036 46.8999ZM135.358 81.1856C135.358 82.9071 133.953 84.3025 132.221 84.3025C130.488 84.3025 129.084 82.9071 129.084 81.1856C129.084 79.4642 130.488 78.0688 132.221 78.0688C133.953 78.0688 135.358 79.4642 135.358 81.1856ZM130.914 87.9389C130.914 90.9514 128.456 93.3934 125.424 93.3934C123.52 93.3934 121.843 92.4311 120.859 90.9695C120.274 90.1027 119.934 89.0603 119.934 87.9389C119.934 86.8175 120.274 85.7751 120.859 84.9083C121.763 83.5656 123.252 82.6443 124.964 82.5032C125.115 82.4907 125.269 82.4844 125.424 82.4844C128.456 82.4844 130.914 84.9264 130.914 87.9389ZM41.0603 74.3123C41.0603 76.1632 39.5401 77.6637 37.6649 77.6637C35.7897 77.6637 34.2695 76.1632 34.2695 74.3123C34.2695 72.4614 35.7897 70.9609 37.6649 70.9609C39.5401 70.9609 41.0603 72.4614 41.0603 74.3123ZM65.2052 74.3123C65.2052 76.9858 63.0094 79.1532 60.3008 79.1532C57.5921 79.1532 55.3963 76.9858 55.3963 74.3123C55.3963 71.6387 57.5921 69.4714 60.3008 69.4714C63.0094 69.4714 65.2052 71.6387 65.2052 74.3123ZM35.0241 29.6272C35.0241 31.4365 34.663 33.2282 33.9615 34.8998C33.26 36.5714 32.2318 38.0903 30.9356 39.3696C29.6394 40.649 28.1006 41.6639 26.4071 42.3563C24.7135 43.0487 22.8984 43.4051 21.0653 43.4051C19.2322 43.4051 17.417 43.0487 15.7235 42.3563C14.0299 41.6639 12.4911 40.649 11.1949 39.3696C9.89871 38.0902 8.87052 36.5714 8.16902 34.8998C7.46753 33.2282 7.10647 31.4365 7.10647 29.6272L35.0241 29.6272ZM249.024 63.1986C249.024 67.538 245.499 71.0558 241.151 71.0558C236.803 71.0558 233.278 67.538 233.278 63.1986C233.278 58.8592 236.803 55.3415 241.151 55.3415C245.499 55.3415 249.024 58.8592 249.024 63.1986ZM246.161 64.6272C246.161 67.3886 243.918 69.6272 241.151 69.6272C238.384 69.6272 236.141 67.3886 236.141 64.6272C236.141 61.8658 238.384 59.6272 241.151 59.6272C243.918 59.6272 246.161 61.8658 246.161 64.6272ZM243.298 66.0558C243.298 66.4503 242.978 66.7701 242.582 66.7701C242.187 66.7701 241.867 66.4503 241.867 66.0558C241.867 65.6613 242.187 65.3415 242.582 65.3415C242.978 65.3415 243.298 65.6613 243.298 66.0558ZM257.613 42.4843V33.9129C257.613 31.546 255.69 29.6272 253.318 29.6272L228.98 29.6272C226.61 29.629 224.689 31.5471 224.689 33.9129V42.4843H257.613ZM525.441 76.3971H543.426V99.6272H525.441V76.3971ZM532.883 111.707V116.663H549.008V111.707H532.883ZM532.883 120.07H543.426V122.548H532.883V120.07ZM425.881 79.6272V81.6272H428.881V79.6272H425.881ZM432.381 79.6272V88.1272H461.881V79.6272H432.381Z" stroke="url(#paint0_linear_1284_703)" stroke-width="1.5" />
  <path d="M38.8697 179.279C38.8697 180.752 40.0636 181.946 41.5364 181.946C43.0092 181.946 44.2031 180.752 44.2031 179.279C44.2031 177.806 43.0092 176.612 41.5364 176.612C40.0636 176.612 38.8697 177.806 38.8697 179.279ZM68.5141 206.217L68.1609 206.571L68.3073 206.717H68.5141V206.217ZM302.631 206.217V206.717H302.838L302.985 206.571L302.631 206.217ZM348.835 160.082V159.582H348.628L348.481 159.728L348.835 160.082ZM420.155 160.082V160.582H420.362L420.508 160.436L420.155 160.082ZM408.214 150.174C408.214 151.647 409.408 152.841 410.881 152.841C412.353 152.841 413.547 151.647 413.547 150.174C413.547 148.701 412.353 147.507 410.881 147.507C409.408 147.507 408.214 148.701 408.214 150.174ZM346.354 150.174V149.674H346.147L346.001 149.82L346.354 150.174ZM301.081 195.38V195.88H301.288L301.434 195.734L301.081 195.38ZM228.21 195.38L227.857 195.734L228.003 195.88H228.21V195.38ZM222.008 189.187L222.361 188.833L222.215 188.687H222.008V189.187ZM204.953 189.187L204.6 189.541L204.746 189.687H204.953V189.187ZM190.813 177.731C190.813 179.204 192.007 180.398 193.48 180.398C194.953 180.398 196.147 179.204 196.147 177.731C196.147 176.258 194.953 175.064 193.48 175.064C192.007 175.064 190.813 176.258 190.813 177.731ZM182.86 159.261C182.86 160.734 184.053 161.928 185.526 161.928C186.999 161.928 188.193 160.734 188.193 159.261C188.193 157.789 186.999 156.595 185.526 156.595C184.053 156.595 182.86 157.789 182.86 159.261ZM209.605 183.304L209.251 183.658L209.398 183.804H209.605V183.304ZM298.91 183.304V183.804H299.117L299.264 183.658L298.91 183.304ZM310.384 171.848L310.737 172.202L310.884 172.055V171.848H310.384ZM319.376 156.676V156.176H319.169L319.023 156.322L319.376 156.676ZM325.578 156.676V157.176H325.785L325.931 157.03L325.578 156.676ZM343.563 138.718V138.218H343.356L343.21 138.364L343.563 138.718ZM399.813 138.718C399.813 140.19 401.007 141.384 402.48 141.384C403.953 141.384 405.147 140.19 405.147 138.718C405.147 137.245 403.953 136.051 402.48 136.051C401.007 136.051 399.813 137.245 399.813 138.718ZM18.7139 19.2005C18.7139 20.6733 19.9079 21.8672 21.3806 21.8672C22.8534 21.8672 24.0473 20.6733 24.0473 19.2005C24.0473 17.7278 22.8534 16.5339 21.3806 16.5339C19.9079 16.5339 18.7139 17.7278 18.7139 19.2005ZM26.9622 13.6272V13.1272H26.7553L26.6089 13.2734L26.9622 13.6272ZM265.421 13.6272L265.774 13.2734L265.628 13.1272H265.421V13.6272ZM295.809 43.9709L295.456 44.3247L295.603 44.4709H295.809V43.9709ZM302.631 43.9709L302.985 43.6171L302.838 43.4709H302.631V43.9709ZM332.71 74.005H333.21V73.7977L333.063 73.6512L332.71 74.005ZM332.71 80.1976H332.21V80.4049L332.357 80.5514L332.71 80.1976ZM340.772 88.2479L340.419 88.6017L340.565 88.7479H340.772V88.2479ZM399.813 88.2479C399.813 89.7207 401.007 90.9146 402.48 90.9146C403.953 90.9146 405.147 89.7207 405.147 88.2479C405.147 86.7752 403.953 85.5813 402.48 85.5813C401.007 85.5813 399.813 86.7752 399.813 88.2479ZM238.536 37.159C238.536 38.6318 239.73 39.8257 241.203 39.8257C242.675 39.8257 243.869 38.6318 243.869 37.159C243.869 35.6863 242.675 34.4924 241.203 34.4924C239.73 34.4924 238.536 35.6863 238.536 37.159ZM274.413 37.159L274.767 36.8052L274.62 36.659H274.413V37.159ZM337.671 100.323L337.318 100.677L337.465 100.823H337.671V100.323ZM399.813 100.323C399.813 101.796 401.007 102.99 402.48 102.99C403.953 102.99 405.147 101.796 405.147 100.323C405.147 98.8507 403.953 97.6568 402.48 97.6568C401.007 97.6568 399.813 98.8507 399.813 100.323ZM310.384 165.655L310.03 165.302L309.884 165.448V165.655H310.384ZM399.813 144.291C399.813 145.764 401.007 146.958 402.48 146.958C403.953 146.958 405.147 145.764 405.147 144.291C405.147 142.818 403.953 141.624 402.48 141.624C401.007 141.624 399.813 142.818 399.813 144.291ZM345.114 144.291V143.791H344.907L344.76 143.937L345.114 144.291ZM323.097 166.275V166.775H323.304L323.451 166.628L323.097 166.275ZM316.71 166.275C316.71 167.747 317.903 168.941 319.376 168.941C320.849 168.941 322.043 167.747 322.043 166.275C322.043 164.802 320.849 163.608 319.376 163.608C317.903 163.608 316.71 164.802 316.71 166.275ZM427.411 150.174C427.411 151.647 428.605 152.841 430.078 152.841C431.551 152.841 432.745 151.647 432.745 150.174C432.745 148.701 431.551 147.507 430.078 147.507C428.605 147.507 427.411 148.701 427.411 150.174ZM417.488 150.174C417.488 151.647 418.682 152.841 420.155 152.841C421.628 152.841 422.822 151.647 422.822 150.174C422.822 148.701 421.628 147.507 420.155 147.507C418.682 147.507 417.488 148.701 417.488 150.174ZM415.504 154.818V155.318H415.711L415.857 155.172L415.504 154.818ZM347.904 154.818V154.318H347.698L347.551 154.464L347.904 154.818ZM302.011 200.643V201.143H302.218L302.365 200.997L302.011 200.643ZM204.023 200.643L203.67 200.997L203.816 201.143H204.023V200.643ZM187.278 183.923L187.632 183.57L187.485 183.423H187.278V183.923ZM122.78 183.923V183.423H122.573L122.426 183.57L122.78 183.923ZM106.306 200.38V200.88H106.513L106.66 200.734L106.306 200.38ZM71.4676 200.38L71.1142 200.734L71.2606 200.88H71.4676V200.38ZM32.0633 163.689C32.0633 165.162 33.2572 166.356 34.73 166.356C36.2027 166.356 37.3966 165.162 37.3966 163.689C37.3966 162.216 36.2027 161.023 34.73 161.023C33.2572 161.023 32.0633 162.216 32.0633 163.689ZM399.813 94.4405C399.813 95.9133 401.007 97.1072 402.48 97.1072C403.953 97.1072 405.147 95.9133 405.147 94.4405C405.147 92.9678 403.953 91.7739 402.48 91.7739C401.007 91.7739 399.813 92.9678 399.813 94.4405ZM338.602 94.4405L338.248 94.7943L338.395 94.9405H338.602V94.4405ZM263.25 19.2005L263.603 18.8467L263.457 18.7005H263.25V19.2005ZM184.798 19.2005V18.7005H184.591L184.444 18.8467L184.798 19.2005ZM179.526 24.4642V24.9642H179.733L179.879 24.818L179.526 24.4642ZM94.2515 24.4642L93.8982 24.818L94.0446 24.9642H94.2515V24.4642ZM88.98 19.2005L89.3333 18.8467L89.1869 18.7005H88.98V19.2005ZM38.5905 19.2005V18.7005H38.3836L38.2372 18.8467L38.5905 19.2005ZM399.813 105.897C399.813 107.37 401.007 108.563 402.48 108.563C403.953 108.563 405.147 107.37 405.147 105.897C405.147 104.424 403.953 103.23 402.48 103.23C401.007 103.23 399.813 104.424 399.813 105.897ZM335.501 105.897L335.148 106.251L335.294 106.397H335.501V105.897ZM325.888 96.2983L326.241 95.9445L326.095 95.7983H325.888V96.2983ZM316.895 96.2983L316.542 96.6521L316.689 96.7983H316.895V96.2983ZM294.879 74.3146L295.232 73.9608L295.086 73.8146H294.879V74.3146ZM279.499 74.3146C279.499 75.7874 280.693 76.9813 282.166 76.9813C283.638 76.9813 284.832 75.7874 284.832 74.3146C284.832 72.8418 283.638 71.6479 282.166 71.6479C280.693 71.6479 279.499 72.8418 279.499 74.3146ZM408.062 164.726L408.415 164.373L408.269 164.226H408.062V164.726ZM350.385 164.726V164.226H350.178L350.032 164.373L350.385 164.726ZM331.16 183.923L330.806 183.57L330.66 183.716V183.923H331.16ZM331.16 191.045L331.513 191.399L331.66 191.252V191.045H331.16ZM305.422 216.744V217.244H305.629L305.776 217.098L305.422 216.744ZM275.654 216.744V216.244H275.447L275.3 216.39L275.654 216.744ZM267.095 222.627C267.095 224.1 268.289 225.294 269.762 225.294C271.235 225.294 272.429 224.1 272.429 222.627C272.429 221.154 271.235 219.961 269.762 219.961C268.289 219.961 267.095 221.154 267.095 222.627ZM412.713 169.371L412.36 169.725L412.506 169.871H412.713V169.371ZM420.155 169.371V169.871H420.362L420.508 169.725L420.155 169.371ZM436.714 150.174C436.714 151.647 437.908 152.841 439.381 152.841C440.853 152.841 442.047 151.647 442.047 150.174C442.047 148.701 440.853 147.507 439.381 147.507C437.908 147.507 436.714 148.701 436.714 150.174ZM399.813 81.4361C399.813 82.9088 401.007 84.1027 402.48 84.1027C403.953 84.1027 405.147 82.9088 405.147 81.4361C405.147 79.9633 403.953 78.7694 402.48 78.7694C401.007 78.7694 399.813 79.9633 399.813 81.4361ZM370.851 81.4361L370.498 81.7899L370.644 81.9361H370.851V81.4361ZM355.967 66.5739L356.32 66.2201L356.174 66.0739H355.967V66.5739ZM332.71 66.5739L332.357 66.9277L332.503 67.0739H332.71V66.5739ZM320.431 56.9753C320.431 58.4481 321.625 59.642 323.097 59.642C324.57 59.642 325.764 58.4481 325.764 56.9753C325.764 55.5026 324.57 54.3087 323.097 54.3087C321.625 54.3087 320.431 55.5026 320.431 56.9753ZM18.7139 36.385C18.7139 37.8577 19.9079 39.0516 21.3806 39.0516C22.8534 39.0516 24.0473 37.8577 24.0473 36.385C24.0473 34.9122 22.8534 33.7183 21.3806 33.7183C19.9079 33.7183 18.7139 34.9122 18.7139 36.385ZM399.813 133.175C399.813 134.648 401.007 135.842 402.48 135.842C403.953 135.842 405.147 134.648 405.147 133.175C405.147 131.702 403.953 130.509 402.48 130.509C401.007 130.509 399.813 131.702 399.813 133.175ZM342.09 133.175V132.675H341.883L341.737 132.821L342.09 133.175ZM324.09 151.149V151.649H324.296L324.443 151.503L324.09 151.149ZM267.576 151.149L267.222 151.503L267.369 151.649H267.576V151.149ZM256.118 142.371C256.118 143.844 257.312 145.038 258.785 145.038C260.258 145.038 261.451 143.844 261.451 142.371C261.451 140.898 260.258 139.705 258.785 139.705C257.312 139.705 256.118 140.898 256.118 142.371ZM399.813 75.1272C399.813 76.6 401.007 77.7939 402.48 77.7939C403.953 77.7939 405.147 76.6 405.147 75.1272C405.147 73.6544 403.953 72.4605 402.48 72.4605C401.007 72.4605 399.813 73.6544 399.813 75.1272ZM372.881 75.1272L372.527 75.4808L372.674 75.6272H372.881V75.1272ZM303.881 6.1272L304.234 5.77364L304.088 5.6272H303.881V6.1272ZM227.381 6.1272L227.027 6.48075L227.174 6.6272H227.381V6.1272ZM221.881 0.627197L222.234 0.273644L222.088 0.127197H221.881V0.627197ZM184.798 0.627197V0.127197H184.59L184.444 0.273644L184.798 0.627197ZM179.298 6.1272V6.6272H179.505L179.651 6.48075L179.298 6.1272ZM128.714 6.1272C128.714 7.59996 129.908 8.79386 131.381 8.79386C132.853 8.79386 134.047 7.59996 134.047 6.1272C134.047 4.65444 132.853 3.46053 131.381 3.46053C129.908 3.46053 128.714 4.65444 128.714 6.1272ZM563.098 133.175C563.098 134.648 564.292 135.842 565.764 135.842C567.237 135.842 568.431 134.648 568.431 133.175C568.431 131.702 567.237 130.509 565.764 130.509C564.292 130.509 563.098 131.702 563.098 133.175ZM571.307 138.718H571.807V138.51L571.66 138.364L571.307 138.718ZM571.307 206.217H570.807V206.424L570.953 206.57L571.307 206.217ZM574.86 212.437C574.86 213.91 576.054 215.104 577.527 215.104C579 215.104 580.194 213.91 580.194 212.437C580.194 210.964 579 209.77 577.527 209.77C576.054 209.77 574.86 210.964 574.86 212.437ZM549.147 150.174C549.147 151.647 550.341 152.841 551.814 152.841C553.287 152.841 554.481 151.647 554.481 150.174C554.481 148.701 553.287 147.507 551.814 147.507C550.341 147.507 549.147 148.701 549.147 150.174ZM565.764 164.124H566.264V163.917L566.118 163.771L565.764 164.124ZM565.764 210.157H565.264V210.364L565.411 210.51L565.764 210.157ZM574.86 221.919C574.86 223.392 576.054 224.586 577.527 224.586C579 224.586 580.194 223.392 580.194 221.919C580.194 220.447 579 219.253 577.527 219.253C576.054 219.253 574.86 220.447 574.86 221.919ZM41.1831 179.633L68.1609 206.571L68.8674 205.863L41.8897 178.925L41.1831 179.633ZM68.5141 206.717H302.631V205.717H68.5141V206.717ZM302.985 206.571L349.188 160.436L348.481 159.728L302.278 205.863L302.985 206.571ZM348.835 160.582H420.155V159.582H348.835V160.582ZM410.881 149.674H346.354V150.674H410.881V149.674ZM346.001 149.82L300.728 195.026L301.434 195.734L346.707 150.528L346.001 149.82ZM301.081 194.88H228.21V195.88H301.081V194.88ZM228.563 195.026L222.361 188.833L221.655 189.541L227.857 195.734L228.563 195.026ZM222.008 188.687H204.953V189.687H222.008V188.687ZM205.307 188.833L193.833 177.377L193.127 178.085L204.6 189.541L205.307 188.833ZM185.173 159.615L209.251 183.658L209.958 182.95L185.88 158.908L185.173 159.615ZM209.605 183.804H298.91V182.804H209.605V183.804ZM299.264 183.658L310.737 172.202L310.03 171.494L298.557 182.95L299.264 183.658ZM319.376 157.176H325.578V156.176H319.376V157.176ZM325.931 157.03L343.916 139.071L343.21 138.364L325.225 156.322L325.931 157.03ZM343.563 139.218H402.48V138.218H343.563V139.218ZM21.7339 19.5543L27.3155 13.981L26.6089 13.2734L21.0273 18.8467L21.7339 19.5543ZM26.9622 14.1272H265.421V13.1272H26.9622V14.1272ZM265.067 13.981L295.456 44.3247L296.163 43.6171L265.774 13.2734L265.067 13.981ZM295.809 44.4709H302.631V43.4709H295.809V44.4709ZM302.278 44.3247L332.357 74.3588L333.063 73.6512L302.985 43.6171L302.278 44.3247ZM332.21 74.005V80.1976H333.21V74.005H332.21ZM332.357 80.5514L340.419 88.6017L341.126 87.8941L333.063 79.8438L332.357 80.5514ZM340.772 88.7479H402.48V87.7479H340.772V88.7479ZM241.203 37.659H274.413V36.659H241.203V37.659ZM274.06 37.5129L337.318 100.677L338.025 99.9697L274.767 36.8052L274.06 37.5129ZM337.671 100.823H402.48V99.8235H337.671V100.823ZM319.023 156.322L310.03 165.302L310.737 166.009L319.729 157.03L319.023 156.322ZM309.884 165.655V171.848H310.884V165.655H309.884ZM402.48 143.791H345.114V144.791H402.48V143.791ZM344.76 143.937L322.744 165.921L323.451 166.628L345.467 144.645L344.76 143.937ZM323.097 165.775H319.376V166.775H323.097V165.775ZM420.508 160.436L430.431 150.528L429.725 149.82L419.802 159.728L420.508 160.436ZM419.802 149.82L415.15 154.464L415.857 155.172L420.508 150.528L419.802 149.82ZM415.504 154.318H347.904V155.318H415.504V154.318ZM347.551 154.464L301.658 200.29L302.365 200.997L348.258 155.172L347.551 154.464ZM302.011 200.143H204.023V201.143H302.011V200.143ZM204.376 200.29L187.632 183.57L186.925 184.277L203.67 200.997L204.376 200.29ZM187.278 183.423H122.78V184.423H187.278V183.423ZM122.426 183.57L105.953 200.026L106.66 200.734L123.133 184.277L122.426 183.57ZM106.306 199.88H71.4676V200.88H106.306V199.88ZM71.8209 200.026L35.0833 163.335L34.3766 164.043L71.1142 200.734L71.8209 200.026ZM402.48 93.9405H338.602V94.9405H402.48V93.9405ZM338.955 94.0867L263.603 18.8467L262.897 19.5543L338.248 94.7943L338.955 94.0867ZM263.25 18.7005H184.798V19.7005H263.25V18.7005ZM184.444 18.8467L179.173 24.1104L179.879 24.818L185.151 19.5543L184.444 18.8467ZM179.526 23.9642H94.2515V24.9642H179.526V23.9642ZM94.6048 24.1104L89.3333 18.8467L88.6267 19.5543L93.8982 24.818L94.6048 24.1104ZM88.98 18.7005H38.5905V19.7005H88.98V18.7005ZM402.48 105.397H335.501V106.397H402.48V105.397ZM335.854 105.543L326.241 95.9445L325.535 96.6521L335.148 106.251L335.854 105.543ZM325.888 95.7983H316.895V96.7983H325.888V95.7983ZM317.249 95.9445L295.232 73.9608L294.526 74.6684L316.542 96.6521L317.249 95.9445ZM294.879 73.8146H282.166V74.8146H294.879V73.8146ZM408.062 164.226H350.385V165.226H408.062V164.226ZM350.032 164.373L330.806 183.57L331.513 184.277L350.738 165.08L350.032 164.373ZM330.66 183.923V191.045H331.66V183.923H330.66ZM330.806 190.691L305.069 216.39L305.776 217.098L331.513 191.399L330.806 190.691ZM305.422 216.244H275.654V217.244H305.422V216.244ZM275.3 216.39L269.409 222.273L270.115 222.981L276.007 217.098L275.3 216.39ZM407.708 165.08L412.36 169.725L413.066 169.017L408.415 164.373L407.708 165.08ZM412.713 169.871H420.155V168.871H412.713V169.871ZM420.508 169.725L439.734 150.528L439.027 149.82L419.802 169.017L420.508 169.725ZM402.48 80.9361H370.851V81.9361H402.48V80.9361ZM371.204 81.0823L356.32 66.2201L355.613 66.9277L370.498 81.7899L371.204 81.0823ZM355.967 66.0739H332.71V67.0739H355.967V66.0739ZM333.063 66.2201L323.451 56.6215L322.744 57.3292L332.357 66.9277L333.063 66.2201ZM38.2372 18.8467L21.0273 36.0311L21.7339 36.7388L38.9438 19.5543L38.2372 18.8467ZM402.48 132.675H342.09V133.675H402.48V132.675ZM341.737 132.821L323.736 150.795L324.443 151.503L342.444 133.529L341.737 132.821ZM324.09 150.649H267.576V151.649H324.09V150.649ZM267.929 150.795L259.138 142.017L258.432 142.725L267.222 151.503L267.929 150.795ZM402.48 74.6272H372.881V75.6272H402.48V74.6272ZM373.234 74.7736L304.234 5.77364L303.527 6.48075L372.527 75.4808L373.234 74.7736ZM303.881 5.6272H227.381V6.6272H303.881V5.6272ZM227.734 5.77364L222.234 0.273644L221.527 0.980751L227.027 6.48075L227.734 5.77364ZM221.881 0.127197H184.798V1.1272H221.881V0.127197ZM184.444 0.273644L178.944 5.77364L179.651 6.48075L185.151 0.980751L184.444 0.273644ZM179.298 5.6272H131.381V6.6272H179.298V5.6272ZM565.411 133.529L570.953 139.071L571.66 138.364L566.118 132.822L565.411 133.529ZM570.807 138.718V206.217H571.807V138.718H570.807ZM570.953 206.57L577.173 212.791L577.88 212.083L571.66 205.863L570.953 206.57ZM551.461 150.527L565.411 164.478L566.118 163.771L552.168 149.82L551.461 150.527ZM565.264 164.124V210.157H566.264V164.124H565.264ZM565.411 210.51L577.173 222.273L577.88 221.566L566.118 209.803L565.411 210.51Z" fill="url(#paint1_linear_1284_703)" />
  <defs>
    <linearGradient id="paint0_linear_1284_703" x1="1.38062" y1="29.6272" x2="439.051" y2="337.722" gradientUnits="userSpaceOnUse">
      <stop stop-color="#34CEFF" />
      <stop offset="1" stop-color="#3941FF" />
    </linearGradient>
    <linearGradient id="paint1_linear_1284_703" x1="299.454" y1="0.627197" x2="299.19" y2="222.627" gradientUnits="userSpaceOnUse">
      <stop stop-color="#65D4FF" />
      <stop offset="1" stop-color="#399BFF" />
    </linearGradient>
  </defs>
</svg>