<svg width="551" height="286" viewBox="0 0 551 286" fill="none" xmlns="http://www.w3.org/2000/svg">
  <path d="M0.713948 3.60986C0.713948 5.08262 1.90786 6.27653 3.38062 6.27653C4.85337 6.27653 6.04728 5.08262 6.04728 3.60986C6.04728 2.1371 4.85337 0.943197 3.38062 0.943197C1.90786 0.943197 0.713948 2.1371 0.713948 3.60986ZM3.38062 26.6099H2.88062V26.817L3.02706 26.9634L3.38062 26.6099ZM32.8806 56.1099L32.5271 56.4634L32.6735 56.6099H32.8806V56.1099ZM107.881 56.1099L108.234 55.7563L108.088 55.6099H107.881V56.1099ZM141.381 89.6099H141.881V89.4028L141.734 89.2563L141.381 89.6099ZM138.714 107.11C138.714 108.583 139.908 109.777 141.381 109.777C142.853 109.777 144.047 108.583 144.047 107.11C144.047 105.637 142.853 104.443 141.381 104.443C139.908 104.443 138.714 105.637 138.714 107.11ZM7.21395 3.60986C7.21395 5.08262 8.40786 6.27653 9.88062 6.27653C11.3534 6.27653 12.5473 5.08262 12.5473 3.60986C12.5473 2.1371 11.3534 0.943197 9.88062 0.943197C8.40786 0.943197 7.21395 2.1371 7.21395 3.60986ZM9.88062 23.6099H9.38062V23.817L9.52706 23.9634L9.88062 23.6099ZM35.8806 49.6099L35.5271 49.9634L35.6735 50.1099H35.8806V49.6099ZM111.381 49.6099L111.734 49.2563L111.588 49.1099H111.381V49.6099ZM147.381 85.6099H147.881V85.4028L147.734 85.2563L147.381 85.6099ZM144.714 107.11C144.714 108.583 145.908 109.777 147.381 109.777C148.853 109.777 150.047 108.583 150.047 107.11C150.047 105.637 148.853 104.443 147.381 104.443C145.908 104.443 144.714 105.637 144.714 107.11ZM14.2139 3.60986C14.2139 5.08262 15.4079 6.27653 16.8806 6.27653C18.3534 6.27653 19.5473 5.08262 19.5473 3.60986C19.5473 2.1371 18.3534 0.943197 16.8806 0.943197C15.4079 0.943197 14.2139 2.1371 14.2139 3.60986ZM16.8806 20.6099H16.3806V20.817L16.5271 20.9634L16.8806 20.6099ZM38.8806 42.6099L38.5271 42.9634L38.6735 43.1099H38.8806V42.6099ZM73.3806 42.6099V43.1099H73.5877L73.7341 42.9634L73.3806 42.6099ZM78.8806 37.1099V36.6099H78.6734L78.527 36.7563L78.8806 37.1099ZM107.881 37.1099L108.234 36.7563L108.088 36.6099H107.881V37.1099ZM153.381 82.6099H153.881V82.4028L153.734 82.2563L153.381 82.6099ZM153.381 95.1099H152.881V95.317L153.027 95.4634L153.381 95.1099ZM159.881 101.61H160.381V101.403L160.234 101.256L159.881 101.61ZM157.214 107.11C157.214 108.583 158.408 109.777 159.881 109.777C161.353 109.777 162.547 108.583 162.547 107.11C162.547 105.637 161.353 104.443 159.881 104.443C158.408 104.443 157.214 105.637 157.214 107.11ZM163.714 107.11C163.714 108.583 164.908 109.777 166.381 109.777C167.853 109.777 169.047 108.583 169.047 107.11C169.047 105.637 167.853 104.443 166.381 104.443C164.908 104.443 163.714 105.637 163.714 107.11ZM166.381 98.1099H166.881V97.9028L166.734 97.7563L166.381 98.1099ZM159.881 91.6099H159.381V91.817L159.527 91.9634L159.881 91.6099ZM159.881 49.6099H160.381V49.4028L160.234 49.2563L159.881 49.6099ZM153.381 43.1099H152.881V43.317L153.027 43.4634L153.381 43.1099ZM150.714 11.1099C150.714 12.5826 151.908 13.7765 153.381 13.7765C154.853 13.7765 156.047 12.5826 156.047 11.1099C156.047 9.6371 154.853 8.4432 153.381 8.4432C151.908 8.4432 150.714 9.6371 150.714 11.1099ZM157.214 11.1099C157.214 12.5826 158.408 13.7765 159.881 13.7765C161.353 13.7765 162.547 12.5826 162.547 11.1099C162.547 9.6371 161.353 8.4432 159.881 8.4432C158.408 8.4432 157.214 9.6371 157.214 11.1099ZM159.881 40.1099H159.381V40.317L159.527 40.4634L159.881 40.1099ZM166.381 46.6099H166.881V46.4028L166.734 46.2563L166.381 46.6099ZM166.381 88.6099H165.881V88.817L166.027 88.9634L166.381 88.6099ZM172.881 95.1099H173.381V94.9028L173.234 94.7563L172.881 95.1099ZM170.214 107.11C170.214 108.583 171.408 109.777 172.881 109.777C174.353 109.777 175.547 108.583 175.547 107.11C175.547 105.637 174.353 104.443 172.881 104.443C171.408 104.443 170.214 105.637 170.214 107.11ZM176.714 107.11C176.714 108.583 177.908 109.777 179.381 109.777C180.853 109.777 182.047 108.583 182.047 107.11C182.047 105.637 180.853 104.443 179.381 104.443C177.908 104.443 176.714 105.637 176.714 107.11ZM179.381 34.1099H179.881V33.9028L179.734 33.7563L179.381 34.1099ZM183.214 107.11C183.214 108.583 184.408 109.777 185.881 109.777C187.353 109.777 188.547 108.583 188.547 107.11C188.547 105.637 187.353 104.443 185.881 104.443C184.408 104.443 183.214 105.637 183.214 107.11ZM185.881 31.6099H186.381V31.4028L186.234 31.2563L185.881 31.6099ZM172.881 27.6099H172.381V27.817L172.527 27.9634L172.881 27.6099ZM170.214 11.1099C170.214 12.5826 171.408 13.7765 172.881 13.7765C174.353 13.7765 175.547 12.5826 175.547 11.1099C175.547 9.6371 174.353 8.4432 172.881 8.4432C171.408 8.4432 170.214 9.6371 170.214 11.1099ZM179.381 25.1099H178.881V25.317L179.027 25.4634L179.381 25.1099ZM176.714 11.1099C176.714 12.5826 177.908 13.7765 179.381 13.7765C180.853 13.7765 182.047 12.5826 182.047 11.1099C182.047 9.6371 180.853 8.4432 179.381 8.4432C177.908 8.4432 176.714 9.6371 176.714 11.1099ZM384.214 230.61C384.214 232.083 385.408 233.277 386.881 233.277C388.353 233.277 389.547 232.083 389.547 230.61C389.547 229.137 388.353 227.943 386.881 227.943C385.408 227.943 384.214 229.137 384.214 230.61ZM386.881 254.61L387.234 254.963L387.381 254.817V254.61H386.881ZM391.214 230.61C391.214 232.083 392.408 233.277 393.881 233.277C395.353 233.277 396.547 232.083 396.547 230.61C396.547 229.137 395.353 227.943 393.881 227.943C392.408 227.943 391.214 229.137 391.214 230.61ZM393.881 258.11H393.381V258.317L393.527 258.463L393.881 258.11ZM398.214 230.61C398.214 232.083 399.408 233.277 400.881 233.277C402.353 233.277 403.547 232.083 403.547 230.61C403.547 229.137 402.353 227.943 400.881 227.943C399.408 227.943 398.214 229.137 398.214 230.61ZM400.881 254.61H400.381V254.817L400.527 254.963L400.881 254.61ZM405.214 230.61C405.214 232.083 406.408 233.277 407.881 233.277C409.353 233.277 410.547 232.083 410.547 230.61C410.547 229.137 409.353 227.943 407.881 227.943C406.408 227.943 405.214 229.137 405.214 230.61ZM405.214 251.11C405.214 252.583 406.408 253.777 407.881 253.777C409.353 253.777 410.547 252.583 410.547 251.11C410.547 249.637 409.353 248.443 407.881 248.443C406.408 248.443 405.214 249.637 405.214 251.11ZM407.881 261.61H408.381V261.403L408.234 261.256L407.881 261.61ZM405.214 283.11C405.214 284.583 406.408 285.777 407.881 285.777C409.353 285.777 410.547 284.583 410.547 283.11C410.547 281.637 409.353 280.443 407.881 280.443C406.408 280.443 405.214 281.637 405.214 283.11ZM400.881 265.11H401.381V264.903L401.234 264.756L400.881 265.11ZM398.214 283.11C398.214 284.583 399.408 285.777 400.881 285.777C402.353 285.777 403.547 284.583 403.547 283.11C403.547 281.637 402.353 280.443 400.881 280.443C399.408 280.443 398.214 281.637 398.214 283.11ZM379.881 261.61L379.527 261.256L379.381 261.403V261.61H379.881ZM377.214 283.11C377.214 284.583 378.408 285.777 379.881 285.777C381.353 285.777 382.547 284.583 382.547 283.11C382.547 281.637 381.353 280.443 379.881 280.443C378.408 280.443 377.214 281.637 377.214 283.11ZM2.88062 3.60986V26.6099H3.88062V3.60986H2.88062ZM3.02706 26.9634L32.5271 56.4634L33.2342 55.7563L3.73417 26.2563L3.02706 26.9634ZM32.8806 56.6099H107.881V55.6099H32.8806V56.6099ZM107.527 56.4634L141.027 89.9634L141.734 89.2563L108.234 55.7563L107.527 56.4634ZM140.881 89.6099V107.11H141.881V89.6099H140.881ZM9.38062 3.60986V23.6099H10.3806V3.60986H9.38062ZM9.52706 23.9634L35.5271 49.9634L36.2342 49.2563L10.2342 23.2563L9.52706 23.9634ZM35.8806 50.1099H111.381V49.1099H35.8806V50.1099ZM111.027 49.9634L147.027 85.9634L147.734 85.2563L111.734 49.2563L111.027 49.9634ZM146.881 85.6099V107.11H147.881V85.6099H146.881ZM16.3806 3.60986V20.6099H17.3806V3.60986H16.3806ZM16.5271 20.9634L38.5271 42.9634L39.2342 42.2563L17.2342 20.2563L16.5271 20.9634ZM38.8806 43.1099H73.3806V42.1099H38.8806V43.1099ZM73.7341 42.9634L79.2341 37.4634L78.527 36.7563L73.027 42.2563L73.7341 42.9634ZM78.8806 37.6099H107.881V36.6099H78.8806V37.6099ZM107.527 37.4634L153.027 82.9634L153.734 82.2563L108.234 36.7563L107.527 37.4634ZM152.881 82.6099V95.1099H153.881V82.6099H152.881ZM153.027 95.4634L159.527 101.963L160.234 101.256L153.734 94.7563L153.027 95.4634ZM159.381 101.61V107.11H160.381V101.61H159.381ZM166.881 107.11V98.1099H165.881V107.11H166.881ZM166.734 97.7563L160.234 91.2563L159.527 91.9634L166.027 98.4634L166.734 97.7563ZM160.381 91.6099V49.6099H159.381V91.6099H160.381ZM160.234 49.2563L153.734 42.7563L153.027 43.4634L159.527 49.9634L160.234 49.2563ZM153.881 43.1099V11.1099H152.881V43.1099H153.881ZM159.381 11.1099V40.1099H160.381V11.1099H159.381ZM159.527 40.4634L166.027 46.9634L166.734 46.2563L160.234 39.7563L159.527 40.4634ZM165.881 46.6099V88.6099H166.881V46.6099H165.881ZM166.027 88.9634L172.527 95.4634L173.234 94.7563L166.734 88.2563L166.027 88.9634ZM172.381 95.1099V107.11H173.381V95.1099H172.381ZM179.881 107.11V34.1099H178.881V107.11H179.881ZM186.381 107.11V31.6099H185.381V107.11H186.381ZM179.734 33.7563L173.234 27.2563L172.527 27.9634L179.027 34.4634L179.734 33.7563ZM173.381 27.6099V11.1099H172.381V27.6099H173.381ZM186.234 31.2563L179.734 24.7563L179.027 25.4634L185.527 31.9634L186.234 31.2563ZM179.881 25.1099V11.1099H178.881V25.1099H179.881ZM386.381 230.61V254.61H387.381V230.61H386.381ZM393.381 230.61V258.11H394.381V230.61H393.381ZM400.381 230.61V254.61H401.381V230.61H400.381ZM407.381 230.61V251.11H408.381V230.61H407.381ZM400.527 254.963L407.527 261.963L408.234 261.256L401.234 254.256L400.527 254.963ZM407.381 261.61V283.11H408.381V261.61H407.381ZM393.527 258.463L400.527 265.463L401.234 264.756L394.234 257.756L393.527 258.463ZM400.381 265.11V283.11H401.381V265.11H400.381ZM386.527 254.256L379.527 261.256L380.234 261.963L387.234 254.963L386.527 254.256ZM379.381 261.61V283.11H380.381V261.61H379.381Z" fill="url(#paint0_linear_1284_704)" />
  <path d="M390.185 172.563V184.831H394.327L400.185 190.689V198.973L394.327 204.831H390.185V217.098M390.185 172.563L392.918 169.831M390.185 172.563L387.452 169.831M392.918 169.831H405.185V173.973L411.043 179.831H419.327L425.185 173.973V169.831H437.452M392.918 169.831L390.185 167.098M437.452 169.831L440.185 172.563M437.452 169.831L440.185 167.098M440.185 172.563V184.831H436.043L430.185 190.689V198.973L436.043 204.831H440.185V217.098M440.185 172.563L442.918 169.831M440.185 217.098L437.452 219.831H425.185V215.689L419.327 209.831H411.043L405.185 215.689V219.831H392.918L390.185 217.098M440.185 217.098L442.918 219.831H455.185V215.689L461.043 209.831H469.327L475.185 215.689V219.831H487.452L490.185 217.098M390.185 217.098L387.452 219.831H375.185V223.973L369.327 229.831H361.043L355.185 223.973V219.831H342.918L340.185 217.098V204.831H344.327L350.185 198.973V190.689L344.327 184.831H340.185V172.563L342.918 169.831M70.2451 88.5594L68.1935 100.654L72.2773 101.347L77.073 108.102L75.6875 116.269L68.9325 121.065L64.8487 120.372L62.7971 132.467M70.2451 88.5594L73.3964 86.3222L85.4909 88.3738L84.7981 92.4576L89.5938 99.2126L97.7614 100.598L104.516 95.8024L105.209 91.7186L117.304 93.7702L119.541 96.9215L117.489 109.016L113.406 108.323L106.65 113.119L105.265 121.287L110.061 128.042L114.145 128.734L112.093 140.829L108.942 143.066L96.8471 141.014L97.5399 136.931L92.7442 130.176L84.5766 128.79L77.8216 133.586L77.1288 137.67L65.0343 135.618L62.7971 132.467M70.2451 88.5594L68.0078 85.4081L55.9133 83.3565L55.2206 87.4403L48.4656 92.236L40.2979 90.8505L35.5023 84.0955L36.195 80.0117L24.1005 77.9601L20.9492 80.1973L18.8976 92.2918L14.8139 91.5991L8.05881 96.3948L6.67334 104.562L11.469 111.317L15.5528 112.01L13.5012 124.105L15.7385 127.256L27.833 129.307L28.5257 125.224L35.2808 120.428L43.4483 121.813L48.244 128.569L47.5513 132.652L59.6458 134.704L62.7971 132.467M490.185 217.098V204.831H486.043L480.185 198.973V190.689L486.043 184.831H490.185V172.563M490.185 217.098L492.918 219.831H505.185V215.689L511.043 209.831H519.327L525.185 215.689V219.831H537.452L540.185 217.098V204.831H544.327L550.185 198.973V190.689L544.327 184.831H540.185V172.563L537.452 169.831M490.185 172.563L487.452 169.831M490.185 172.563L492.918 169.831M487.452 169.831H475.185V173.973L469.327 179.831H461.043L455.185 173.973V169.831H442.918M487.452 169.831L490.185 167.098M442.918 169.831L440.185 167.098M490.185 167.098V154.831H486.043L480.185 148.973V140.689L486.043 134.831H490.185V122.563M490.185 167.098L492.918 169.831M492.918 169.831H505.185V173.973L511.043 179.831H519.327L525.185 173.973V169.831H537.452M537.452 169.831L540.185 167.098V154.831H536.043L530.185 148.973V140.689L536.043 134.831H540.185V122.563L537.452 119.831H525.185V115.689L519.327 109.831H511.043L505.185 115.689V119.831H492.918L490.185 122.563M490.185 122.563L487.452 119.831H475.185V123.973L469.327 129.831H461.043L455.185 123.973V119.831H442.918L440.185 122.563M190.185 122.563L187.452 119.831H175.185V123.973L169.327 129.831H161.043L155.185 123.973V119.831H142.918L140.185 122.563V134.831H136.043L130.185 140.689V148.973L136.043 154.831H140.185V167.098L142.918 169.831M190.185 122.563V134.831H194.327L200.185 140.689V148.973L194.327 154.831H190.185V167.098M190.185 122.563L192.918 119.831H205.185V123.973L211.043 129.831H219.327L225.185 123.973V119.831H237.452L240.185 122.563L240.185 134.831H244.327L250.185 140.689V148.973L244.327 154.831H240.185V167.098L237.452 169.831H225.185V173.973L219.327 179.831H211.043L205.185 173.973V169.831H192.918L190.185 167.098M190.185 167.098L187.452 169.831M187.452 169.831H175.185V165.689L169.327 159.831H161.043L155.185 165.689V169.831H142.918M187.452 169.831L190.185 172.563V184.831H186.043L180.185 190.689V198.973L186.043 204.831H190.185V217.098L187.452 219.831H175.185V223.973L169.327 229.831H161.043L155.185 223.973V219.831H142.918L140.185 217.098M142.918 169.831L140.185 172.563M140.185 217.098V204.831H144.327L150.185 198.973V190.689L144.327 184.831H140.185V172.563M140.185 217.098L137.452 219.831H125.185V215.689L119.327 209.831H111.043L105.185 215.689V219.831H92.9178L90.1851 217.098V204.831H86.0429L80.1851 198.973V190.689L86.0429 184.831H90.1851V172.563L92.9178 169.831H105.185V165.689L111.043 159.831H119.327L125.185 165.689V169.831H137.452L140.185 172.563M437.452 119.831H425.185V115.689L419.327 109.831H411.043L405.185 115.689V119.831H392.918M437.452 119.831L440.185 122.563M437.452 119.831L440.185 117.098V104.831H444.327L450.185 98.9728V90.6886L444.327 84.8307H440.185V72.5634L437.452 69.8307H425.185V73.9728L419.327 79.8307H411.043L405.185 73.9728V69.8307L392.918 69.8307L390.185 72.5634M440.185 122.563V134.831H436.043L430.185 140.689V148.973L436.043 154.831H440.185V167.098M390.185 167.098V154.831H394.327L400.185 148.973V140.689L394.327 134.831H390.185V122.563M390.185 167.098L387.452 169.831M390.185 122.563L392.918 119.831M390.185 122.563L387.452 119.831M392.918 119.831L390.185 117.098M340.185 72.5634V84.8307H336.043L330.185 90.6886V98.9728L336.043 104.831H340.185V117.098M340.185 72.5634L342.918 69.8307L355.185 69.8307V73.9728L361.043 79.8307H369.327L375.185 73.9728V69.8307H387.452L390.185 72.5634M340.185 72.5634L337.452 69.8307H325.185V65.6886L319.327 59.8307H311.043L305.185 65.6886V69.8307L292.918 69.8307L290.185 72.5634M390.185 72.5634V84.8307H386.043L380.185 90.6886V98.9728L386.043 104.831H390.185V117.098M390.185 117.098L387.452 119.831M387.452 119.831H375.185V123.973L369.327 129.831H361.043L355.185 123.973V119.831H342.918M342.918 119.831L340.185 117.098M342.918 119.831L340.185 122.563M340.185 117.098L337.452 119.831M290.185 117.098V104.831H286.043L280.185 98.9728V90.6886L286.043 84.8307H290.185V72.5634M290.185 117.098L292.918 119.831M290.185 117.098L287.452 119.831H275.185V123.973L269.327 129.831H261.043L255.185 123.973V119.831H242.918L240.185 117.098V104.831H236.043L230.185 98.9728V90.6886L236.043 84.8307H240.185V72.5634L242.918 69.8307L255.185 69.8307V73.9728L261.043 79.8307H269.327L275.185 73.9728V69.8307H287.452L290.185 72.5634M292.918 119.831H305.185V123.973L311.043 129.831H319.327L325.185 123.973V119.831H337.452M292.918 119.831L290.185 122.563V134.831H286.043L280.185 140.689V148.973L286.043 154.831H290.185V167.098L292.918 169.831H305.185V173.973L311.043 179.831H319.327L325.185 173.973V169.831H337.452L340.185 167.098M337.452 119.831L340.185 122.563M387.452 169.831H375.185V173.973L369.327 179.831H361.043L355.185 173.973V169.831H342.918M340.185 122.563V134.831H336.043L330.185 140.689V148.973L336.043 154.831H340.185V167.098M340.185 167.098L342.918 169.831M319.277 149.922L320.338 148.862M317.863 148.508L318.923 147.448M316.449 147.094L317.509 146.033M315.034 145.68L316.095 144.619M313.267 144.619L314.681 143.205M312.206 142.851L313.267 141.791M310.792 141.437L311.852 140.377M309.377 140.023L310.438 138.962M307.963 138.609L309.024 137.548M306.195 137.548L307.61 136.134M489.977 85.5879L493.873 92.8988L492.665 96.8611L504.4 100.437L507.811 98.619L511.386 86.8844L507.424 85.6771L503.528 78.3662L505.942 70.4417L513.253 66.5455L517.215 67.7528L520.791 56.0182L518.973 52.6076L507.239 49.0321L506.031 52.9944L498.721 56.8905L490.796 54.4759L486.9 47.165L488.107 43.2027L476.373 39.6272L472.962 41.4448L469.386 53.1794L473.349 54.3867L477.245 61.6976L474.83 69.6222L467.519 73.5183L463.557 72.311L459.982 84.0456L461.799 87.4562L473.534 91.0317L474.741 87.0695L482.052 83.1733L489.977 85.5879ZM300.372 265.077L299.261 269.067L303.334 276.281L311.315 278.502L318.529 274.429L319.64 270.439L331.458 273.728L334.823 271.828L338.112 260.01L342.103 261.12L349.317 257.048L351.538 249.067L347.465 241.853L343.475 240.742L346.764 228.924L344.864 225.559L333.046 222.27L331.935 226.26L324.721 230.333L316.74 228.112L312.667 220.898L313.778 216.907L301.96 213.618L298.594 215.518L295.305 227.336L299.296 228.447L303.368 235.661L301.147 243.642L293.933 247.715L289.943 246.604L286.654 258.422L288.554 261.788L300.372 265.077ZM359.566 134.91H357.067L355.384 134.144L351.512 135.82H351.185V135.214L355.629 131.831L359.566 134.91ZM378.002 137.321C378.002 139.385 376.289 141.058 374.177 141.058C372.064 141.058 370.351 139.385 370.351 137.321C370.351 135.258 372.064 133.585 374.177 133.585C376.289 133.585 378.002 135.258 378.002 137.321ZM365.42 153.961C364.7 153.961 364.116 154.531 364.116 155.234V156.831H378.185V155.234C378.185 154.531 377.601 153.961 376.881 153.961H365.42ZM357.067 140.437H359.566L355.629 143.516L351.185 140.133V139.527H351.512L355.384 141.203L357.067 140.437ZM369.836 135.297H362.021V135.789H361.06V135.297H358.073V136.693L360.143 137.299V138.048L358.073 138.654V140.05H361.06V139.558H362.021V140.05H370.262C369.698 139.281 369.367 138.339 369.367 137.321C369.367 136.596 369.535 135.91 369.836 135.297ZM371.576 141.273L366.307 153.37H376.253V141.559C375.625 141.854 374.92 142.019 374.176 142.019C373.218 142.019 372.326 141.745 371.576 141.273ZM351.326 137.674L355.766 136.53L359.426 137.411V137.936L355.766 138.817L351.326 137.674ZM155.39 139.831C155.135 139.831 154.927 140.035 154.927 140.288V140.352H170.966V140.288C170.966 140.035 170.759 139.831 170.503 139.831H155.39ZM152.185 142.31C152.185 141.942 152.365 141.596 152.668 141.381L153.183 141.017C153.379 140.877 153.615 140.803 153.857 140.803H173.205C173.362 140.803 173.518 140.834 173.662 140.896L177.485 142.52C177.91 142.7 178.185 143.113 178.185 143.57V144.761H177.259C177.184 144.776 177.107 144.784 177.027 144.784H153.343C153.263 144.784 153.186 144.776 153.111 144.761H152.185V142.31ZM178.185 145.235H152.185V146.699C152.185 147.583 152.911 148.3 153.806 148.3H156.415C156.245 148.03 156.146 147.712 156.146 147.371C156.146 146.4 156.943 145.613 157.926 145.613C158.908 145.613 159.705 146.4 159.705 147.371C159.705 147.712 159.606 148.03 159.436 148.3H170.934C170.764 148.03 170.665 147.712 170.665 147.371C170.665 146.4 171.462 145.613 172.444 145.613C173.427 145.613 174.224 146.4 174.224 147.371C174.224 147.712 174.125 148.03 173.955 148.3H176.564C177.459 148.3 178.185 147.583 178.185 146.699V145.235ZM157.926 148.831C158.742 148.831 159.404 148.177 159.404 147.371C159.404 146.564 158.742 145.91 157.926 145.91C157.109 145.91 156.448 146.564 156.448 147.371C156.448 148.177 157.109 148.831 157.926 148.831ZM157.926 148.203C158.391 148.203 158.769 147.83 158.769 147.371C158.769 146.911 158.391 146.538 157.926 146.538C157.46 146.538 157.083 146.911 157.083 147.371C157.083 147.83 157.46 148.203 157.926 148.203ZM173.923 147.371C173.923 148.177 173.261 148.831 172.444 148.831C171.628 148.831 170.966 148.177 170.966 147.371C170.966 146.564 171.628 145.91 172.444 145.91C173.261 145.91 173.923 146.564 173.923 147.371ZM173.287 147.371C173.287 147.83 172.91 148.203 172.444 148.203C171.979 148.203 171.601 147.83 171.601 147.371C171.601 146.911 171.979 146.538 172.444 146.538C172.91 146.538 173.287 146.911 173.287 147.371ZM316.022 236.216C314.777 235.87 313.467 236.671 313.096 238.007L311.45 243.92L326.864 248.21L328.51 242.296C328.882 240.961 328.174 239.598 326.93 239.252L316.022 236.216ZM313.128 248.134L310.063 259.145C310.981 260.885 312.532 262.233 314.505 262.782C316.477 263.331 318.501 262.978 320.186 261.962L323.251 250.951C322.333 249.211 320.782 247.864 318.809 247.315C316.837 246.766 314.813 247.119 313.128 248.134ZM315.399 259.567C316.882 259.98 318.442 259.025 318.885 257.434C319.327 255.844 318.485 254.22 317.002 253.807C315.52 253.395 313.96 254.35 313.517 255.94C313.074 257.531 313.917 259.155 315.399 259.567ZM316.843 257.575C316.707 258.064 316.227 258.357 315.771 258.231C315.316 258.104 315.057 257.605 315.193 257.116C315.329 256.627 315.808 256.333 316.264 256.46C316.72 256.587 316.979 257.086 316.843 257.575ZM311.816 244.542L313.526 245.018L309.768 258.521C309.115 256.966 308.938 255.161 309.369 253.357L309.363 253.356L311.816 244.542ZM324.519 248.078L326.23 248.554L323.869 257.037L323.866 257.045L323.864 257.054C323.862 257.06 323.861 257.065 323.859 257.071L323.777 257.367L323.771 257.366C323.208 259.132 322.124 260.586 320.761 261.58L324.519 248.078ZM512.884 157.831C512.884 157.01 512.733 156.197 512.439 155.439C512.145 154.681 511.714 153.992 511.171 153.412C510.628 152.831 509.983 152.371 509.273 152.057C508.563 151.743 507.803 151.581 507.035 151.581C506.266 151.581 505.506 151.743 504.796 152.057C504.086 152.371 503.442 152.831 502.898 153.412C502.355 153.992 501.924 154.681 501.63 155.439C501.336 156.197 501.185 157.01 501.185 157.831H512.884ZM504.336 151.585C505.157 151.18 506.071 150.954 507.035 150.954C507.998 150.954 508.912 151.18 509.733 151.585V143.514H509.731C509.677 141.973 508.491 140.741 507.035 140.741C505.579 140.741 504.392 141.973 504.338 143.514H504.336V151.585ZM502.963 143.514C502.963 144.622 503.35 145.633 503.989 146.401V143.514H503.99C504.045 141.768 505.387 140.37 507.035 140.37C508.682 140.37 510.025 141.768 510.079 143.514H510.081V146.401C510.719 145.633 511.106 144.622 511.106 143.514C511.106 141.112 509.283 139.164 507.035 139.164C504.786 139.164 502.963 141.112 502.963 143.514ZM513.965 139.955C512.168 139.929 510.719 138.365 510.719 136.439C510.719 136.396 510.72 136.352 510.722 136.309L508.217 138.985C509.841 139.468 511.087 140.921 511.373 142.724L513.965 139.955ZM511.086 136.439C511.086 138.164 512.395 139.563 514.01 139.563C514.703 139.563 515.339 139.306 515.84 138.876H514.173V138.87C514.119 138.874 514.065 138.876 514.01 138.876C512.751 138.876 511.73 137.785 511.73 136.439C511.73 135.093 512.751 134.003 514.01 134.003C514.065 134.003 514.119 134.005 514.173 134.009V134.003H515.841C515.34 133.572 514.703 133.315 514.01 133.315C512.395 133.315 511.086 134.714 511.086 136.439ZM519.565 138.513C519.085 137.973 518.79 137.243 518.79 136.439C518.79 135.635 519.085 134.905 519.565 134.365H514.173V134.372C514.119 134.367 514.065 134.365 514.01 134.365C512.938 134.365 512.069 135.294 512.069 136.439C512.069 137.585 512.938 138.513 514.01 138.513C514.065 138.513 514.119 138.511 514.173 138.506V138.513H519.565ZM519.149 136.439C519.149 137.892 520.251 139.07 521.612 139.07C522.972 139.07 524.074 137.892 524.074 136.439C524.074 134.986 522.972 133.808 521.612 133.808C520.251 133.808 519.149 134.986 519.149 136.439ZM527.185 140.085C526.456 140.689 525.54 141.048 524.547 141.048C523.233 141.048 522.057 140.42 521.265 139.431C521.379 139.446 521.494 139.453 521.612 139.453C522.281 139.453 522.896 139.204 523.38 138.788C523.898 139.278 524.578 139.575 525.324 139.575C526.031 139.575 526.679 139.308 527.185 138.864V140.085ZM521.265 133.447C522.057 132.458 523.233 131.831 524.547 131.831C525.54 131.831 526.456 132.19 527.185 132.793V134.014C526.679 133.57 526.031 133.304 525.324 133.304C524.579 133.304 523.898 133.601 523.38 134.09C522.896 133.674 522.281 133.425 521.612 133.425C521.494 133.425 521.379 133.433 521.265 133.447ZM458.642 195.201C457.873 195.408 457.071 195.461 456.282 195.356C455.493 195.252 454.732 194.992 454.043 194.591C453.354 194.191 452.75 193.658 452.265 193.022C451.781 192.387 451.425 191.662 451.219 190.888L469.974 185.831L471.543 191.722L458.642 195.201ZM471.793 192.662L458.892 196.14L459.627 198.902L465.445 197.334L468.268 200.175C468.592 199.26 469.33 198.511 470.318 198.215L468.597 196.483L472.529 195.423L471.793 192.662ZM452.14 194.346L453.438 199.22L458.66 197.812L458.252 196.281C457.561 196.4 456.854 196.413 456.156 196.321C455.241 196.2 454.359 195.898 453.56 195.434C453.041 195.133 452.564 194.767 452.14 194.346ZM450.659 194.413C450.318 194.505 450.116 194.858 450.207 195.201L450.861 197.656C450.952 197.999 451.302 198.202 451.643 198.11L452.41 197.904L451.426 194.206L450.659 194.413ZM472.844 187.532C472.275 187.079 471.596 186.774 470.871 186.655L472.896 194.259C473.464 193.791 473.901 193.185 474.169 192.506L472.844 187.532ZM475.137 201.639L474.265 201.874C474.364 201.405 474.357 200.907 474.225 200.412C474.094 199.918 473.852 199.483 473.534 199.126L474.406 198.891C475.16 198.688 475.935 199.138 476.137 199.897C476.339 200.656 475.891 201.435 475.137 201.639ZM471.88 203.741C473.261 203.369 474.081 201.941 473.711 200.551C473.341 199.161 471.921 198.337 470.54 198.709C469.16 199.082 468.34 200.51 468.71 201.899C469.08 203.289 470.5 204.114 471.88 203.741ZM458.642 145.201C457.873 145.408 457.071 145.461 456.282 145.356C455.493 145.252 454.732 144.992 454.043 144.591C453.354 144.191 452.75 143.658 452.265 143.022C451.781 142.387 451.425 141.662 451.219 140.888L469.974 135.831L471.543 141.722L458.642 145.201ZM471.793 142.662L458.892 146.14L459.627 148.902L465.445 147.334L468.268 150.175C468.592 149.26 469.33 148.511 470.318 148.215L468.597 146.483L472.529 145.423L471.793 142.662ZM452.14 144.346L453.438 149.22L458.66 147.812L458.252 146.281C457.561 146.4 456.854 146.413 456.156 146.321C455.241 146.2 454.359 145.898 453.56 145.434C453.041 145.133 452.564 144.767 452.14 144.346ZM450.659 144.413C450.318 144.505 450.116 144.858 450.207 145.201L450.861 147.656C450.952 147.999 451.302 148.202 451.643 148.11L452.41 147.904L451.426 144.206L450.659 144.413ZM472.844 137.532C472.275 137.079 471.596 136.774 470.871 136.655L472.896 144.259C473.464 143.791 473.901 143.185 474.169 142.506L472.844 137.532ZM475.137 151.639L474.265 151.874C474.364 151.405 474.357 150.907 474.225 150.412C474.094 149.918 473.852 149.483 473.534 149.126L474.406 148.891C475.16 148.688 475.935 149.138 476.137 149.897C476.339 150.656 475.891 151.435 475.137 151.639ZM471.88 153.741C473.261 153.369 474.081 151.941 473.711 150.551C473.341 149.161 471.921 148.337 470.54 148.709C469.16 149.082 468.34 150.51 468.71 151.899C469.08 153.289 470.5 154.114 471.88 153.741ZM510.642 195.201C509.873 195.408 509.071 195.461 508.282 195.356C507.493 195.252 506.732 194.992 506.043 194.591C505.354 194.191 504.75 193.658 504.265 193.022C503.781 192.387 503.425 191.662 503.219 190.888L521.974 185.831L523.543 191.722L510.642 195.201ZM523.793 192.662L510.892 196.14L511.627 198.902L517.445 197.334L520.268 200.175C520.592 199.26 521.33 198.511 522.318 198.215L520.597 196.483L524.529 195.423L523.793 192.662ZM504.14 194.346L505.438 199.22L510.66 197.812L510.252 196.281C509.561 196.4 508.854 196.413 508.156 196.321C507.241 196.2 506.359 195.898 505.56 195.434C505.041 195.133 504.564 194.767 504.14 194.346ZM502.659 194.413C502.318 194.505 502.116 194.858 502.207 195.201L502.861 197.656C502.952 197.999 503.302 198.202 503.643 198.11L504.41 197.904L503.426 194.206L502.659 194.413ZM524.844 187.532C524.275 187.079 523.596 186.774 522.871 186.655L524.896 194.259C525.464 193.791 525.901 193.185 526.169 192.506L524.844 187.532ZM527.137 201.639L526.265 201.874C526.364 201.405 526.357 200.907 526.225 200.412C526.094 199.918 525.852 199.483 525.534 199.126L526.406 198.891C527.16 198.688 527.935 199.138 528.137 199.897C528.339 200.656 527.891 201.435 527.137 201.639ZM523.88 203.741C525.261 203.369 526.081 201.941 525.711 200.551C525.341 199.161 523.921 198.337 522.54 198.709C521.16 199.082 520.34 200.51 520.71 201.899C521.08 203.289 522.5 204.114 523.88 203.741ZM267.728 95.8535C268.497 96.0531 269.299 96.104 270.088 96.0033C270.877 95.9027 271.638 95.6524 272.327 95.2668C273.016 94.8811 273.62 94.3677 274.105 93.7559C274.589 93.144 274.945 92.4456 275.151 91.7007L256.396 86.8307L254.827 92.5035L267.728 95.8535ZM254.577 93.4086L267.478 96.7585L266.743 99.4181L260.925 97.9075L258.102 100.644C257.778 99.763 257.04 99.0416 256.052 98.7565L257.773 97.0889L253.842 96.0682L254.577 93.4086ZM274.23 95.0304L272.932 99.7244L267.71 98.3684L268.118 96.894C268.809 97.0081 269.516 97.0213 270.214 96.9323C271.129 96.8156 272.011 96.5253 272.81 96.0782C273.329 95.7882 273.806 95.4358 274.23 95.0304ZM275.711 95.0952C276.052 95.1837 276.254 95.5234 276.163 95.8539L275.51 98.2175C275.418 98.548 275.068 98.7441 274.727 98.6556L273.96 98.4565L274.944 94.8961L275.711 95.0952ZM253.526 88.4694C254.095 88.0329 254.775 87.7391 255.499 87.6243L253.475 94.9464C252.906 94.4959 252.47 93.9123 252.202 93.2584L253.526 88.4694ZM251.233 102.053L252.105 102.28C252.006 101.828 252.013 101.348 252.145 100.872C252.276 100.396 252.518 99.9771 252.836 99.634L251.964 99.4076C251.211 99.2118 250.436 99.6454 250.234 100.376C250.032 101.107 250.479 101.858 251.233 102.053ZM254.49 104.078C253.109 103.719 252.29 102.344 252.66 101.006C253.03 99.6677 254.449 98.8737 255.83 99.2322C257.21 99.5907 258.03 100.966 257.66 102.304C257.29 103.642 255.871 104.436 254.49 104.078ZM106.185 180.34C106.185 178.954 107.298 177.831 108.67 177.831H120.7C122.073 177.831 123.185 178.954 123.185 180.34V186.473H106.185V180.34ZM106.737 186.98H108.623L108.623 200.996C107.511 199.673 106.816 197.981 106.743 196.128H106.737V186.98ZM120.747 186.98H122.634V195.786C122.634 195.792 122.634 195.797 122.634 195.803C122.634 195.809 122.634 195.815 122.634 195.82V196.128H122.627C122.554 197.981 121.859 199.673 120.747 200.996V186.98ZM114.685 196.722C115.188 196.722 115.595 196.311 115.595 195.803C115.595 195.296 115.188 194.884 114.685 194.884C114.183 194.884 113.775 195.296 113.775 195.803C113.775 196.311 114.183 196.722 114.685 196.722ZM115.223 195.803C115.223 196.103 114.982 196.347 114.685 196.347C114.388 196.347 114.147 196.103 114.147 195.803C114.147 195.503 114.388 195.26 114.685 195.26C114.982 195.26 115.223 195.503 115.223 195.803ZM109.077 201.492V190.114C110.515 188.669 112.496 187.776 114.685 187.776C116.874 187.776 118.856 188.669 120.293 190.114V201.492C118.856 202.937 116.874 203.831 114.685 203.831C112.496 203.831 110.515 202.937 109.077 201.492ZM114.685 200.512C117.26 200.512 119.348 198.404 119.348 195.803C119.348 193.203 117.26 191.094 114.685 191.094C112.11 191.094 110.023 193.203 110.023 195.803C110.023 198.404 112.11 200.512 114.685 200.512ZM114.685 202.72C114.856 202.72 114.995 202.58 114.995 202.407C114.995 202.234 114.856 202.094 114.685 202.094C114.514 202.094 114.375 202.234 114.375 202.407C114.375 202.58 114.514 202.72 114.685 202.72ZM409.508 85.8307H413.607C413.821 85.8307 414.019 85.9521 414.126 86.1493L414.665 87.1408C414.706 87.216 414.731 87.2945 414.741 87.3728H425.965C427.191 87.3728 428.185 88.4284 428.185 89.7305V100.155C428.185 101.457 427.191 102.513 425.965 102.513H416.742C418.334 101.001 419.336 98.8024 419.336 96.3559C419.336 91.7944 415.853 88.0966 411.557 88.0966C407.261 88.0966 403.779 91.7944 403.779 96.3559C403.779 98.8024 404.781 101.001 406.372 102.513H404.406C403.179 102.513 402.185 101.457 402.185 100.155V89.7305C402.185 88.4284 403.179 87.3728 404.406 87.3728H408.373C408.383 87.2945 408.408 87.216 408.449 87.1408L408.988 86.1493C409.095 85.9521 409.293 85.8307 409.508 85.8307ZM411.557 103.831C415.445 103.831 418.597 100.484 418.597 96.3558C418.597 92.2276 415.445 88.881 411.557 88.881C407.669 88.881 404.517 92.2276 404.517 96.3558C404.517 100.484 407.669 103.831 411.557 103.831ZM407.615 95.7184L406.506 93.6774C407.276 92.043 408.729 90.8344 410.467 90.4734L407.615 95.7184ZM410.106 92.4125L411.215 90.3726C411.328 90.3655 411.442 90.3618 411.557 90.3618C413.253 90.3618 414.774 91.1557 415.809 92.4125H410.106ZM414.048 93.0498H416.267C416.858 93.9974 417.202 95.1339 417.202 96.3558C417.202 97.0346 417.096 97.687 416.9 98.2953L414.048 93.0498ZM415.499 96.9929L416.609 99.0338C415.839 100.668 414.386 101.877 412.647 102.238L415.499 96.9929ZM413.008 100.299L411.899 102.339C411.786 102.346 411.672 102.35 411.557 102.35C409.861 102.35 408.34 101.556 407.306 100.299H413.008ZM409.067 99.6618H406.848C406.256 98.7142 405.912 97.5777 405.912 96.3558C405.912 95.677 406.018 95.0246 406.214 94.4162L409.067 99.6618ZM303.799 131.616L324.55 152.367L321.721 155.195L300.97 134.444C300.537 134.011 300.818 133.026 301.599 132.245C302.38 131.464 303.365 131.182 303.799 131.616ZM322.129 155.603L324.957 152.774L326.977 154.794C327.411 155.228 327.129 156.213 326.348 156.994C325.567 157.775 324.582 158.056 324.149 157.623L322.129 155.603ZM311.884 107.831C311.884 107.01 311.733 106.197 311.439 105.439C311.145 104.681 310.714 103.992 310.171 103.412C309.628 102.831 308.983 102.371 308.273 102.057C307.563 101.743 306.803 101.581 306.035 101.581C305.266 101.581 304.506 101.743 303.796 102.057C303.086 102.371 302.442 102.831 301.898 103.412C301.355 103.992 300.924 104.681 300.63 105.439C300.336 106.197 300.185 107.01 300.185 107.831H311.884ZM303.336 101.585C304.157 101.18 305.071 100.954 306.035 100.954C306.998 100.954 307.912 101.18 308.733 101.585V93.5141H308.731C308.677 91.9729 307.491 90.7412 306.035 90.7412C304.579 90.7412 303.392 91.9729 303.338 93.5141H303.336V101.585ZM301.963 93.5141C301.963 94.6217 302.35 95.6327 302.989 96.4006V93.5141H302.99C303.045 91.7678 304.387 90.37 306.035 90.37C307.682 90.37 309.025 91.7678 309.079 93.5141H309.081V96.4005C309.719 95.6326 310.106 94.6217 310.106 93.5141C310.106 91.1117 308.283 89.1642 306.035 89.1642C303.786 89.1642 301.963 91.1117 301.963 93.5141ZM312.965 89.9545C311.168 89.9285 309.719 88.3646 309.719 86.4391C309.719 86.3955 309.72 86.3521 309.722 86.3089L307.217 88.985C308.841 89.4678 310.087 90.9213 310.373 92.7238L312.965 89.9545ZM310.086 86.4391C310.086 88.1644 311.395 89.563 313.01 89.563C313.703 89.563 314.339 89.3058 314.84 88.8758H313.173V88.8697C313.119 88.8737 313.065 88.8758 313.01 88.8758C311.751 88.8758 310.73 87.7849 310.73 86.4392C310.73 85.0935 311.751 84.0026 313.01 84.0026C313.065 84.0026 313.119 84.0046 313.173 84.0087V84.0026H314.841C314.34 83.5725 313.703 83.3151 313.01 83.3151C311.395 83.3151 310.086 84.7138 310.086 86.4391ZM318.565 88.5134C318.085 87.973 317.79 87.2428 317.79 86.4391C317.79 85.6355 318.085 84.9053 318.565 84.3649H313.173V84.3721C313.119 84.3673 313.065 84.3649 313.01 84.3649C311.938 84.3649 311.069 85.2936 311.069 86.4392C311.069 87.5847 311.938 88.5134 313.01 88.5134C313.065 88.5134 313.119 88.511 313.173 88.5062V88.5134H318.565ZM311.546 86.4391C311.546 87.3029 312.202 88.0032 313.01 88.0032C313.819 88.0032 314.474 87.3029 314.474 86.4391C314.474 85.5752 313.819 84.8749 313.01 84.8749C312.202 84.8749 311.546 85.5752 311.546 86.4391ZM318.149 86.4391C318.149 87.8922 319.251 89.0701 320.612 89.0701C321.972 89.0701 323.074 87.8922 323.074 86.4391C323.074 84.986 321.972 83.8081 320.612 83.8081C319.251 83.8081 318.149 84.986 318.149 86.4391ZM326.185 90.0854C325.456 90.6887 324.54 91.0477 323.547 91.0477C322.233 91.0477 321.057 90.4204 320.265 89.4308C320.379 89.4457 320.494 89.4533 320.612 89.4533C321.281 89.4533 321.896 89.2042 322.38 88.788C322.898 89.2776 323.578 89.5748 324.324 89.5748C325.031 89.5748 325.679 89.3083 326.185 88.8643V90.0854ZM320.265 83.4474C321.057 82.4579 322.233 81.8307 323.547 81.8307C324.54 81.8307 325.456 82.1897 326.185 82.7929V84.0141C325.679 83.57 325.031 83.3035 324.324 83.3035C323.579 83.3035 322.898 83.6007 322.38 84.0903C321.896 83.6741 321.281 83.4249 320.612 83.4249C320.494 83.4249 320.379 83.4326 320.265 83.4474Z" stroke="url(#paint1_linear_1284_704)" stroke-width="1.5" />
  <defs>
    <linearGradient id="paint0_linear_1284_704" x1="205.631" y1="3.60986" x2="205.299" y2="283.109" gradientUnits="userSpaceOnUse">
      <stop stopColor="#8F82FE" />
      <stop offset="1" stopColor="#F83AE1" />
    </linearGradient>
    <linearGradient id="paint1_linear_1284_704" x1="6.18506" y1="39.8307" x2="525.179" y2="324.431" gradientUnits="userSpaceOnUse">
      <stop stopColor="#8886FF" />
      <stop offset="1" stopColor="#FF34DF" />
    </linearGradient>
  </defs>
</svg>