<svg width="16" height="21" viewBox="0 0 16 21" fill="none" xmlns="http://www.w3.org/2000/svg">
<path d="M14.9601 5.24016L9.9601 0.240165C9.81724 0.0973074 9.67439 0.0258789 9.4601 0.0258789H2.31724C1.53153 0.0258789 0.888672 0.668736 0.888672 1.45445V18.5973C0.888672 19.383 1.53153 20.0259 2.31724 20.0259H13.7458C14.5315 20.0259 15.1744 19.383 15.1744 18.5973V5.74016C15.1744 5.52588 15.103 5.38302 14.9601 5.24016ZM9.4601 1.74016L13.4601 5.74016H9.4601V1.74016ZM13.7458 18.5973H2.31724V1.45445H8.03153V5.74016C8.03153 6.52588 8.67439 7.16874 9.4601 7.16874H13.7458V18.5973Z" fill="#666666"/>
</svg>
