<svg width="21" height="21" viewBox="0 0 21 21" fill="none" xmlns="http://www.w3.org/2000/svg">
<path fill-rule="evenodd" clip-rule="evenodd" d="M10.3643 0.0258789C4.69952 0.0258789 0.111328 4.61407 0.111328 10.2788C0.111328 14.8157 3.04623 18.6478 7.12177 20.0063C7.63442 20.096 7.82666 19.7884 7.82666 19.5193C7.82666 19.2758 7.81385 18.4684 7.81385 17.6097C5.2378 18.0839 4.57136 16.9817 4.3663 16.4049C4.25095 16.1102 3.75112 15.2002 3.31537 14.9567C2.95652 14.7645 2.44387 14.2903 3.30256 14.2775C4.10997 14.2646 4.6867 15.0208 4.87894 15.3284C5.80171 16.8791 7.27557 16.4434 7.86511 16.1743C7.95483 15.5078 8.22397 15.0592 8.51874 14.8029C6.23746 14.5466 3.85365 13.6623 3.85365 9.74054C3.85365 8.62553 4.25095 7.70277 4.90458 6.98506C4.80205 6.72874 4.44319 5.67781 5.00711 4.26803C5.00711 4.26803 5.86579 3.99889 7.82666 5.31896C8.6469 5.08827 9.5184 4.97292 10.3899 4.97292C11.2614 4.97292 12.1329 5.08827 12.9531 5.31896C14.914 3.98608 15.7727 4.26803 15.7727 4.26803C16.3366 5.67781 15.9778 6.72874 15.8752 6.98506C16.5288 7.70277 16.9261 8.61271 16.9261 9.74054C16.9261 13.6751 14.5295 14.5466 12.2482 14.8029C12.6199 15.1233 12.9403 15.7385 12.9403 16.6997C12.9403 18.071 12.9275 19.1732 12.9275 19.5193C12.9275 19.7884 13.1197 20.1088 13.6324 20.0063C15.6678 19.3191 17.4364 18.011 18.6894 16.266C19.9423 14.521 20.6166 12.4271 20.6172 10.2788C20.6172 4.61407 16.029 0.0258789 10.3643 0.0258789Z" fill="#666666"/>
</svg>
