<svg width="31" height="26" viewBox="0 0 31 26" fill="none" xmlns="http://www.w3.org/2000/svg">
<path d="M28.3017 0H2.91707C2.30503 0 1.71806 0.243131 1.28528 0.675907C0.852506 1.10868 0.609375 1.69565 0.609375 2.30769V23.0769C0.609375 23.689 0.852506 24.2759 1.28528 24.7087C1.71806 25.1415 2.30503 25.3846 2.91707 25.3846H28.3017C28.9137 25.3846 29.5007 25.1415 29.9335 24.7087C30.3662 24.2759 30.6094 23.689 30.6094 23.0769V2.30769C30.6094 1.69565 30.3662 1.10868 29.9335 0.675907C29.5007 0.243131 28.9137 0 28.3017 0ZM23.6863 13.8462C23.6863 14.1522 23.5647 14.4457 23.3483 14.662C23.132 14.8784 22.8385 15 22.5325 15H11.47L12.97 16.4856C13.1866 16.7043 13.3082 16.9998 13.3082 17.3077C13.3082 17.6156 13.1866 17.911 12.97 18.1298C12.7494 18.3431 12.4546 18.4623 12.1478 18.4623C11.8411 18.4623 11.5463 18.3431 11.3257 18.1298L7.86418 14.6683C7.64751 14.4495 7.52596 14.1541 7.52596 13.8462C7.52596 13.5383 7.64751 13.2428 7.86418 13.024L11.3257 9.5625C11.5499 9.3785 11.8345 9.28448 12.1242 9.2987C12.4139 9.31293 12.6879 9.4344 12.893 9.63947C13.0981 9.84455 13.2195 10.1186 13.2337 10.4083C13.248 10.6979 13.1539 10.9825 12.97 11.2067L11.47 12.6923H21.3786V9.23077C21.3786 8.92475 21.5002 8.63126 21.7166 8.41488C21.9329 8.19849 22.2264 8.07692 22.5325 8.07692C22.8385 8.07692 23.132 8.19849 23.3483 8.41488C23.5647 8.63126 23.6863 8.92475 23.6863 9.23077V13.8462Z" fill="#EEEEEE"/>
</svg>
