<svg width="30" height="31" viewBox="0 0 30 31" fill="none" xmlns="http://www.w3.org/2000/svg">
<path d="M29.5631 3.61575C29.5621 3.49846 29.529 3.38368 29.4673 3.2839C29.4057 3.18412 29.3178 3.10316 29.2134 3.04982C29.1089 2.99647 28.9918 2.97279 28.8749 2.98135C28.7579 2.98991 28.6455 3.03038 28.5499 3.09836L26.0332 4.90244L25.8351 5.04512C23.1233 2.33879 19.4012 0.646484 15.2769 0.646484C7.00592 0.646484 0.277344 7.37591 0.277344 15.6465C0.277344 23.9171 7.00634 30.6465 15.2769 30.6465C17.7329 30.6469 20.1514 30.0442 22.32 28.8912C24.4885 27.7382 26.3406 26.0702 27.7137 24.0339C27.7691 23.9523 27.8078 23.8606 27.8277 23.764C27.8476 23.6674 27.8482 23.5678 27.8295 23.471C27.8109 23.3741 27.7732 23.2819 27.7188 23.1997C27.6645 23.1174 27.5944 23.0466 27.5126 22.9915L23.76 20.3872C23.5835 20.2692 23.3675 20.2257 23.159 20.2663C22.9506 20.3069 22.7667 20.4283 22.6474 20.604C20.9885 23.0563 18.2398 24.5204 15.2909 24.5204C10.3973 24.5204 6.41571 20.5396 6.41571 15.6473C6.41571 10.755 10.3973 6.77426 15.2909 6.77426C17.3562 6.77426 19.2505 7.49234 20.7586 8.67954L20.3348 8.98438L17.8164 10.788C17.7215 10.8569 17.6472 10.9505 17.6018 11.0587C17.5564 11.1668 17.5416 11.2854 17.5589 11.4014C17.5762 11.5174 17.6251 11.6264 17.7002 11.7165C17.7752 11.8067 17.8736 11.8745 17.9845 11.9126L28.7582 15.583C28.9534 15.6511 29.1672 15.6181 29.3374 15.497C29.5063 15.3742 29.6037 15.1808 29.6029 14.9758L29.5631 3.61575Z" fill="#399BFF"/>
</svg>
