<svg width="21" height="21" viewBox="0 0 21 21" fill="none" xmlns="http://www.w3.org/2000/svg">
<path d="M18.946 7.10369C19.4282 7.10369 19.8907 7.29526 20.2316 7.63625C20.5726 7.97724 20.7642 8.43973 20.7642 8.92196V12.5585C20.7642 13.0407 20.5726 13.5032 20.2316 13.8442C19.8907 14.1852 19.4282 14.3768 18.946 14.3768H17.9805C17.7589 16.1344 16.9035 17.7507 15.5748 18.9224C14.2462 20.0942 12.5356 20.7407 10.7642 20.7407V18.9225C12.2108 18.9225 13.5982 18.3477 14.6211 17.3248C15.644 16.3018 16.2187 14.9143 16.2187 13.4676V8.01283C16.2187 6.56612 15.644 5.17867 14.6211 4.15569C13.5982 3.13272 12.2108 2.55801 10.7642 2.55801C9.31752 2.55801 7.93014 3.13272 6.90721 4.15569C5.88429 5.17867 5.30961 6.56612 5.30961 8.01283V14.3768H2.58234C2.10013 14.3768 1.63767 14.1852 1.29669 13.8442C0.955718 13.5032 0.76416 13.0407 0.76416 12.5585V8.92196C0.76416 8.43973 0.955718 7.97724 1.29669 7.63625C1.63767 7.29526 2.10013 7.10369 2.58234 7.10369H3.5478C3.76964 5.34624 4.62514 3.73014 5.95377 2.55863C7.2824 1.38712 8.99285 0.740723 10.7642 0.740723C12.5355 0.740723 14.2459 1.38712 15.5745 2.55863C16.9032 3.73014 17.7587 5.34624 17.9805 7.10369H18.946ZM6.90962 14.1813L7.87325 12.6394C8.73968 13.1822 9.74177 13.4693 10.7642 13.4676C11.7866 13.4693 12.7886 13.1822 13.6551 12.6394L14.6187 14.1813C13.4635 14.9051 12.1274 15.288 10.7642 15.2859C9.40094 15.288 8.06483 14.9051 6.90962 14.1813Z" fill="white"/>
</svg>
