<svg width="1920" height="1072" viewBox="0 0 1920 1072" fill="none" xmlns="http://www.w3.org/2000/svg">
<path opacity="0.302" d="M-45.2979 407.492C161.989 480.36 599.651 699.711 475.515 900.312C351.378 1100.91 5.04729 1070.64 -101.385 1016.51C-207.818 962.372 -107.388 592.136 -114.74 562.416C-122.091 532.696 -252.585 334.617 -45.2979 407.492Z" fill="url(#paint0_linear_8190_118115)"/>
<path opacity="0.302" d="M2031.27 763.448C2031.27 763.448 2031.08 764.466 2030.63 766.387C2024.35 792.68 1967.26 988.379 1645.33 1059.94C1272.19 1142.89 1204.86 773.493 1177.94 611.195C1151.02 448.897 1422.91 88.5399 1753.5 -52.5762C2066.44 -186.152 1928.44 -56.5829 1928.44 -56.5829L2011.24 692.664" fill="url(#paint1_linear_8190_118115)"/>
<path d="M1929.78 119.012C1767.5 95.9416 1417.77 160.25 1199.31 391.465C980.845 622.681 948.164 765.656 998.993 876.272C1049.82 986.888 1260.72 1056.26 1527.82 999.143C1794.92 942.029 1958.07 928.21 2008.57 917.674C2059.06 907.138 2028.22 313.602 2039.28 255.239C2050.34 196.875 2047.63 135.76 1929.78 119.012Z" fill="url(#paint2_linear_8190_118115)"/>
<g clipPath="url(#clip0_8190_118115)">
<path d="M1461.85 376.103L1506.06 384.291" stroke="#040A2E" strokeWidth="3.71" strokeMiterlimit="10"/>
<path d="M1467.22 209.572L1446.8 171.776" stroke="#040A2E" strokeWidth="3.71" strokeMiterlimit="10"/>
<path d="M1567.14 171.776L1608.96 199.76" stroke="#040A2E" strokeWidth="3.71" strokeMiterlimit="10"/>
<path d="M1517.95 214.637L1547.55 175.197" stroke="#040A2E" strokeWidth="3.71" strokeMiterlimit="10"/>
<path d="M1539.59 162.387C1539.59 165.417 1540.48 168.379 1542.17 170.898C1543.85 173.417 1546.24 175.38 1549.04 176.54C1551.84 177.699 1554.92 178.002 1557.89 177.411C1560.86 176.82 1563.59 175.361 1565.74 173.219C1567.88 171.077 1569.34 168.347 1569.93 165.376C1570.52 162.404 1570.22 159.324 1569.06 156.525C1567.9 153.726 1565.93 151.334 1563.41 149.651C1560.9 147.967 1557.93 147.069 1554.9 147.069C1552.89 147.069 1550.9 147.465 1549.04 148.235C1547.18 149.005 1545.49 150.133 1544.07 151.556C1542.65 152.978 1541.52 154.667 1540.75 156.525C1539.98 158.384 1539.59 160.376 1539.59 162.387" stroke="#003C76" strokeWidth="3.83" strokeMiterlimit="10"/>
<path d="M1625.97 231.262C1637.95 231.262 1647.66 221.551 1647.66 209.572C1647.66 197.593 1637.95 187.882 1625.97 187.882C1613.99 187.882 1604.28 197.593 1604.28 209.572C1604.28 221.551 1613.99 231.262 1625.97 231.262Z" fill="white" stroke="#003C76" strokeWidth="3.83" strokeMiterlimit="10"/>
<path d="M1647.66 205.315L1723.64 177.705" stroke="#040A2E" strokeWidth="3.71" strokeMiterlimit="10"/>
<path d="M1735.78 183.405C1738.73 176.257 1735.33 168.068 1728.18 165.116C1721.03 162.163 1712.84 165.564 1709.89 172.713C1706.94 179.861 1710.34 188.05 1717.49 191.002C1724.63 193.955 1732.82 190.554 1735.78 183.405Z" fill="#003C76"/>
<path d="M1629.11 337.721L1671.05 305.509" stroke="#040A2E" strokeWidth="3.71" strokeMiterlimit="10"/>
<path d="M1271.11 233.722L1319.89 213.013" stroke="#040A2E" strokeWidth="3.71" strokeMiterlimit="10"/>
<path d="M1348.22 320.461L1437.46 279.148" stroke="#040A2E" strokeWidth="3.71" strokeMiterlimit="10"/>
<path d="M1347.64 320.317L1451.6 373.854" stroke="#040A2E" strokeWidth="3.71" strokeMiterlimit="10"/>
<path d="M1367.01 324.885C1369.54 314.172 1362.9 303.438 1352.19 300.909C1341.48 298.38 1330.74 305.015 1328.22 315.729C1325.69 326.442 1332.32 337.177 1343.03 339.705C1353.75 342.234 1364.48 335.599 1367.01 324.885Z" fill="#9BC848"/>
<path d="M1214.93 353.481C1214.93 354.154 1214.73 354.812 1214.36 355.371C1213.99 355.931 1213.45 356.367 1212.83 356.624C1212.21 356.882 1211.53 356.949 1210.87 356.818C1210.21 356.687 1209.6 356.363 1209.13 355.887C1208.65 355.411 1208.33 354.805 1208.19 354.145C1208.06 353.485 1208.13 352.801 1208.39 352.179C1208.65 351.558 1209.08 351.027 1209.64 350.653C1210.2 350.279 1210.86 350.079 1211.53 350.079C1211.98 350.078 1212.42 350.165 1212.83 350.336C1213.25 350.506 1213.62 350.757 1213.94 351.073C1214.26 351.389 1214.51 351.765 1214.68 352.178C1214.85 352.591 1214.93 353.034 1214.93 353.481Z" fill="#040A2E"/>
<path d="M1191.34 282.896C1194.53 282.896 1197.12 280.31 1197.12 277.121C1197.12 273.931 1194.53 271.345 1191.34 271.345C1188.15 271.345 1185.56 273.931 1185.56 277.121C1185.56 280.31 1188.15 282.896 1191.34 282.896Z" fill="#040A2E"/>
<path d="M1244.48 310.755C1249.16 310.755 1252.95 306.965 1252.95 302.289C1252.95 297.613 1249.16 293.823 1244.48 293.823C1239.81 293.823 1236.02 297.613 1236.02 302.289C1236.02 306.965 1239.81 310.755 1244.48 310.755Z" fill="#040A2E"/>
<path d="M1446.51 653.35C1444.95 653.35 1443.41 653.427 1441.88 653.543C1440.59 644.455 1436.82 635.898 1431 628.805C1425.17 621.712 1417.51 616.356 1408.85 613.322C1400.18 610.288 1390.85 609.693 1381.88 611.602C1372.9 613.511 1364.62 617.85 1357.94 624.146C1355.85 610.861 1350.28 598.366 1341.8 587.927C1333.32 577.489 1322.23 569.48 1309.65 564.711C1297.08 559.942 1283.46 558.584 1270.19 560.774C1256.92 562.965 1244.47 568.625 1234.09 577.182C1224.9 564.615 1212.43 554.817 1198.04 548.859C1183.66 542.901 1167.91 541.012 1152.52 543.399C1137.14 545.785 1122.7 552.355 1110.79 562.391C1098.89 572.427 1089.97 585.542 1085.02 600.304H1084.05C1069.62 600.328 1055.76 605.922 1045.35 615.92C1034.94 625.917 1028.8 639.547 1028.19 653.966C1019.82 652.739 1011.28 653.33 1003.15 655.698C995.025 658.066 987.504 662.156 981.099 667.689C974.695 673.222 969.556 680.069 966.033 687.765C962.51 695.461 960.685 703.825 960.682 712.288H1505.45C1505.45 696.657 1499.24 681.666 1488.19 670.613C1477.14 659.56 1462.14 653.35 1446.51 653.35Z" fill="white"/>
<path d="M1505.45 711.01C1505.45 703.27 1503.93 695.606 1500.97 688.456C1498 681.305 1493.66 674.808 1488.19 669.335C1482.72 663.862 1476.22 659.521 1469.07 656.559C1461.92 653.597 1454.25 652.072 1446.51 652.072C1444.95 652.072 1443.41 652.149 1441.88 652.265C1440.59 643.177 1436.83 634.62 1431 627.526C1425.17 620.433 1417.51 615.077 1408.85 612.044C1400.19 609.01 1390.86 608.415 1381.88 610.324C1372.9 612.233 1364.62 616.572 1357.94 622.868C1355.85 609.583 1350.28 597.087 1341.8 586.649C1333.32 576.211 1322.23 568.201 1309.65 563.433C1297.08 558.664 1283.46 557.306 1270.19 559.496C1256.92 561.686 1244.47 567.347 1234.1 575.904C1224.9 563.337 1212.43 553.539 1198.04 547.581C1183.66 541.623 1167.91 539.734 1152.52 542.121C1137.14 544.507 1122.7 551.077 1110.8 561.113C1098.89 571.149 1089.97 584.264 1085.02 599.025H1084.06C1069.62 599.05 1055.76 604.644 1045.35 614.642C1034.94 624.639 1028.8 638.268 1028.19 652.687C1019.82 651.469 1011.29 652.065 1003.17 654.437C995.046 656.808 987.532 660.899 981.133 666.431C974.733 671.964 969.599 678.808 966.079 686.5C962.559 694.192 960.735 702.551 960.73 711.01" stroke="#00509D" strokeWidth="3.5" strokeMiterlimit="10"/>
<path d="M1024.72 658.078C1024.72 658.078 1030.94 658.078 1044.61 661.346" stroke="#00509D" strokeWidth="3.5" strokeMiterlimit="10"/>
<path d="M1255.63 572.723C1255.63 572.723 1238.79 581.17 1233.33 603.859" stroke="#00509D" strokeWidth="3.5" strokeMiterlimit="10"/>
<path d="M1296.25 428.247C1296.62 428.245 1296.98 428.352 1297.29 428.556C1297.6 428.76 1297.84 429.05 1297.98 429.391C1298.12 429.731 1298.16 430.106 1298.09 430.469C1298.02 430.831 1297.84 431.164 1297.58 431.426C1297.32 431.687 1296.99 431.866 1296.63 431.939C1296.27 432.011 1295.89 431.975 1295.55 431.834C1295.21 431.693 1294.92 431.454 1294.71 431.148C1294.51 430.841 1294.4 430.48 1294.4 430.111C1294.4 429.618 1294.59 429.145 1294.94 428.796C1295.29 428.447 1295.76 428.249 1296.25 428.247Z" fill="#003C76"/>
<path d="M1296.25 422.827C1297.28 422.827 1298.11 421.996 1298.11 420.972C1298.11 419.948 1297.28 419.117 1296.25 419.117C1295.23 419.117 1294.4 419.948 1294.4 420.972C1294.4 421.996 1295.23 422.827 1296.25 422.827Z" fill="#003C76"/>
<path d="M1296.25 413.688C1297.28 413.688 1298.11 412.857 1298.11 411.833C1298.11 410.809 1297.28 409.978 1296.25 409.978C1295.23 409.978 1294.4 410.809 1294.4 411.833C1294.4 412.857 1295.23 413.688 1296.25 413.688Z" fill="#003C76"/>
<path d="M1296.25 400.839C1296.62 400.837 1296.98 400.945 1297.29 401.149C1297.6 401.353 1297.84 401.644 1297.98 401.986C1298.12 402.327 1298.16 402.702 1298.09 403.065C1298.02 403.427 1297.84 403.76 1297.58 404.022C1297.32 404.283 1296.98 404.461 1296.62 404.532C1296.26 404.604 1295.88 404.566 1295.54 404.424C1295.2 404.282 1294.91 404.041 1294.71 403.733C1294.5 403.425 1294.39 403.063 1294.4 402.694C1294.4 402.202 1294.59 401.73 1294.94 401.382C1295.29 401.035 1295.76 400.839 1296.25 400.839Z" fill="#003C76"/>
<path d="M1296.25 395.41C1297.28 395.41 1298.11 394.579 1298.11 393.555C1298.11 392.531 1297.28 391.7 1296.25 391.7C1295.23 391.7 1294.4 392.531 1294.4 393.555C1294.4 394.579 1295.23 395.41 1296.25 395.41Z" fill="#003C76"/>
<path d="M1290.54 442.537C1290.54 443.677 1290.88 444.792 1291.51 445.74C1292.15 446.688 1293.05 447.427 1294.1 447.864C1295.16 448.3 1296.32 448.414 1297.43 448.192C1298.55 447.969 1299.58 447.42 1300.39 446.614C1301.19 445.808 1301.74 444.78 1301.96 443.662C1302.19 442.543 1302.07 441.384 1301.64 440.33C1301.2 439.277 1300.46 438.376 1299.51 437.742C1298.56 437.109 1297.45 436.771 1296.31 436.771C1294.78 436.771 1293.31 437.378 1292.23 438.46C1291.15 439.541 1290.54 441.007 1290.54 442.537ZM1299.9 442.537C1299.9 443.249 1299.69 443.946 1299.3 444.539C1298.9 445.131 1298.34 445.593 1297.68 445.866C1297.02 446.139 1296.3 446.21 1295.6 446.071C1294.9 445.932 1294.26 445.589 1293.75 445.085C1293.25 444.581 1292.9 443.939 1292.76 443.24C1292.63 442.541 1292.7 441.816 1292.97 441.158C1293.24 440.499 1293.7 439.936 1294.3 439.54C1294.89 439.144 1295.59 438.933 1296.3 438.933C1297.25 438.943 1298.15 439.328 1298.82 440.003C1299.49 440.678 1299.86 441.588 1299.86 442.537H1299.9Z" fill="#003C76"/>
<path d="M1345.4 640.137C1345.4 640.137 1350.2 627.336 1365.01 617.313" stroke="#00509D" strokeWidth="3.5" strokeMiterlimit="10"/>
<path d="M1285.22 326.593C1283.18 327.06 1281.17 327.638 1279.19 328.323C1271.86 330.671 1265.48 335.33 1261.01 341.603C1258.41 345.274 1255.85 348.974 1254.92 350.608L1226.42 391.402C1225.34 392.998 1223.67 394.109 1221.79 394.499C1219.9 394.888 1217.93 394.526 1216.31 393.488L1194.05 379.236C1180.6 382.196 1161.33 412.246 1164.26 425.729L1196.37 446.285C1201.07 449.293 1206.31 451.346 1211.8 452.327C1217.3 453.307 1222.93 453.197 1228.38 452.001C1233.83 450.805 1238.99 448.548 1243.57 445.357C1248.14 442.167 1252.05 438.106 1255.05 433.407C1255.05 433.407 1296.43 369.309 1297.72 367.243C1300.63 362.582 1285.22 326.593 1285.22 326.593Z" fill="#E3ABC6"/>
<path d="M1271.11 332.08C1271.11 332.08 1294.8 313.59 1296.1 300.367C1296.1 300.367 1302.63 296.917 1304.53 304.586C1304.58 304.807 1304.62 305.028 1304.67 305.249C1305.09 307.696 1304.72 310.211 1303.62 312.437L1298.52 323.152C1298.52 323.152 1343.82 316.522 1346.41 318.242C1348.63 319.731 1349.99 323.421 1345.36 326.554C1344 327.45 1342.47 328.061 1340.87 328.351L1321.36 332.099C1321.36 332.099 1331.51 354.558 1316.25 364.475C1300.99 374.393 1284.92 364.35 1284.92 364.35L1271.11 332.08Z" fill="#E3ABC6"/>
<path d="M1212.5 391.075L1171.77 357.642L1100.83 385.646L1180.48 435.983L1212.5 391.075Z" fill="#0064CC"/>
<path d="M1187.33 533.937C1187.33 534.818 1187.61 535.676 1188.13 536.388C1188.64 537.1 1189.38 537.628 1190.22 537.896L1273.17 538.771C1278.98 538.883 1284.7 540.172 1290 542.558C1295.29 544.945 1300.05 548.38 1303.98 552.656C1307.91 556.932 1310.94 561.96 1312.87 567.438C1314.8 572.915 1315.61 578.727 1315.23 584.524L1306.41 720.581L1228.23 719.957V630.882C1228.23 628.8 1227.41 626.802 1225.94 625.327C1224.47 623.852 1222.47 623.019 1220.39 623.012H1170.57C1165.77 612.556 1108.25 594.931 1108.25 560.48V534.533L1187.33 533.937Z" fill="#040A2E"/>
<path d="M1187.33 533.937C1187.33 534.818 1187.61 535.676 1188.13 536.388C1188.64 537.1 1189.38 537.628 1190.22 537.896L1273.17 538.771C1278.98 538.883 1284.7 540.172 1290 542.558C1295.29 544.945 1300.05 548.38 1303.98 552.656C1307.91 556.932 1310.94 561.96 1312.87 567.438C1314.8 572.915 1315.61 578.727 1315.23 584.524L1306.41 720.581L1228.23 719.957V630.882C1228.23 628.8 1227.41 626.802 1225.94 625.327C1224.47 623.852 1222.47 623.019 1220.39 623.012H1170.57C1165.77 612.556 1108.25 594.931 1108.25 560.48V534.533L1187.33 533.937Z" stroke="white" strokeWidth="3.5" strokeMiterlimit="10"/>
<path d="M1040.42 534.427L1038.39 396.534C1036.53 375.325 1051.34 355.778 1074.17 349.205C1091.31 344.275 1125.65 344.4 1147.21 347.956C1178.56 353.135 1189.09 373.364 1191.32 401.569L1185.72 437.876C1179.54 471.636 1187.92 506.971 1189.37 524.529L1187.45 534.427H1040.42Z" fill="#0064CC"/>
<path d="M1112 533.937C1112 534.818 1112.27 535.676 1112.79 536.388C1113.31 537.1 1114.04 537.628 1114.88 537.896L1133.97 544.46C1157.69 544.921 1192.7 542.259 1210.65 559.701C1227.23 575.817 1220.26 606.79 1219.95 624.155L1215.97 720.581L1141.33 719.957L1140.63 624.309C1140.6 620.833 1139.2 617.508 1136.74 615.058C1134.27 612.608 1130.94 611.232 1127.46 611.23H1103.11C1086.56 611.176 1070.71 604.564 1059.03 592.843C1047.34 581.121 1040.79 565.247 1040.79 548.698V534.465L1112 533.937Z" fill="#040A2E"/>
<path d="M1112 533.937C1112 534.818 1112.27 535.676 1112.79 536.388C1113.31 537.1 1114.04 537.628 1114.88 537.896L1133.97 544.46C1157.69 544.921 1192.7 542.259 1210.65 559.701C1227.23 575.817 1220.26 606.79 1219.95 624.155L1215.97 720.581L1141.33 719.957L1140.63 624.309C1140.6 620.833 1139.2 617.508 1136.74 615.058C1134.27 612.608 1130.94 611.232 1127.46 611.23H1103.11C1086.56 611.176 1070.71 604.564 1059.03 592.843C1047.34 581.121 1040.79 565.247 1040.79 548.698V534.465L1112 533.937Z" stroke="white" strokeWidth="3.5" strokeMiterlimit="10"/>
<path d="M1039.22 445.708L1040.43 534.427L1179.83 534.571L1184.04 514.448L1039.22 445.708Z" fill="#0064CC"/>
<path d="M1039.22 445.708L1094 426.248C1095.92 431.86 1103.61 448.351 1103.61 448.351C1103.61 448.351 1157.76 470.04 1158.71 470.453C1162.07 472.02 1166.09 472.03 1169.66 473.039L1182.27 476.585C1187.98 478.317 1193.54 480.542 1198.87 483.235C1204.28 485.839 1209.82 488.549 1214.24 492.643C1216.34 494.565 1223.96 502.637 1218.18 504.915C1216.57 505.549 1214.82 504.425 1213.51 503.281C1208.47 498.889 1203.46 492.931 1196.78 493.316C1200.31 496.129 1203.18 499.685 1205.19 503.733C1207.19 507.781 1208.28 512.22 1208.37 516.735C1208.5 518.244 1208.16 519.756 1207.41 521.069C1204.64 525.153 1202.77 518.321 1201.89 516.524C1199.97 512.535 1197.58 508.509 1193.69 506.154C1193.2 508.346 1194.05 510.69 1194.18 512.881C1194.37 515.825 1194.31 518.779 1194 521.713C1193.68 524.596 1192.71 527.825 1190.03 528.872C1189.78 528.992 1189.5 529.057 1189.22 529.066C1188.94 529.074 1188.66 529.025 1188.4 528.92C1188 528.69 1187.68 528.336 1187.5 527.911C1186.2 525.442 1186.8 522.472 1186.9 519.685C1187.05 515.795 1186.2 511.932 1184.44 508.461C1183.92 507.433 1182.64 506.327 1181.83 507.125C1183.01 510.904 1183.33 514.897 1182.79 518.818C1182.24 522.739 1180.84 526.49 1178.67 529.805C1178.43 530.291 1178.09 530.719 1177.66 531.062C1177.24 531.405 1176.75 531.655 1176.22 531.794C1174.7 531.976 1173.52 530.41 1173.09 528.911C1171.97 525.067 1173.29 520.675 1171.31 517.225C1168.66 512.603 1159.36 515.899 1154.85 515.515C1148.67 514.976 1139.15 511.027 1139.15 511.027C1132.42 508.961 1091.54 492.768 1070.46 484.215C1055.42 478.132 1042.98 461.555 1039.22 445.708Z" fill="#E3ABC6"/>
<path d="M1127.44 611.23H1156.67" stroke="white" strokeWidth="3.5" strokeMiterlimit="10"/>
<path d="M1104.66 536.272H1204.05V549.399H1113.72C1111.33 549.399 1109.03 548.449 1107.34 546.756C1105.65 545.064 1104.7 542.769 1104.7 540.376V536.272H1104.66Z" fill="#131D48"/>
<path d="M1308.17 549.409H1161.29L1191.82 468.56C1193.18 464.974 1195.59 461.885 1198.75 459.705C1201.9 457.525 1205.65 456.357 1209.48 456.356H1328.5C1330.16 456.35 1331.8 456.748 1333.27 457.514C1334.74 458.28 1336 459.393 1336.95 460.755C1337.89 462.118 1338.49 463.69 1338.69 465.336C1338.9 466.981 1338.7 468.652 1338.11 470.204L1308.17 549.409Z" fill="#192760"/>
<path d="M1321.13 490.865L1318.23 498.553" stroke="white" strokeWidth="3.5" strokeMiterlimit="10"/>
<path d="M1172.73 545.027L1194.91 486.291L1199.32 474.596C1200.5 471.471 1202.6 468.78 1205.35 466.88C1208.09 464.98 1211.35 463.96 1214.69 463.957H1318.41C1319.86 463.958 1321.29 464.31 1322.57 464.984C1323.85 465.658 1324.94 466.634 1325.76 467.827C1326.58 469.02 1327.1 470.394 1327.27 471.831C1327.44 473.268 1327.25 474.725 1326.74 476.076L1322.89 486.301" stroke="white" strokeWidth="3.5" strokeMiterlimit="10"/>
<path d="M1241.25 488.424H1243.28L1238.91 498.572H1236.87L1241.25 488.424Z" fill="white"/>
<path d="M1253.73 485.551H1255.75L1241.44 518.772H1239.41L1253.73 485.551Z" fill="white"/>
<path d="M1249.46 482.677L1250.29 484.119L1242.07 489.856L1241.24 488.424L1249.46 482.677Z" fill="white"/>
<path d="M1257.83 482.677L1258.65 484.119L1254.54 486.992L1253.73 485.551L1257.83 482.677Z" fill="white"/>
<path d="M1242.2 502.877L1240.14 504.319L1236.87 498.572L1238.93 497.14L1242.2 502.877Z" fill="white"/>
<path d="M1237.82 513.035H1235.79L1240.17 502.878H1242.2L1237.82 513.035Z" fill="white"/>
<path d="M1246.59 518.773H1244.56L1251.4 502.878H1253.44L1246.59 518.773Z" fill="white"/>
<path d="M1267.34 513.035H1265.31L1269.68 502.878H1271.71L1267.34 513.035Z" fill="white"/>
<path d="M1270.6 518.773H1268.58L1275.42 502.878H1277.46L1270.6 518.773Z" fill="white"/>
<path d="M1252.68 518.772H1250.65L1258.95 499.514H1260.97L1252.68 518.772Z" fill="white"/>
<path d="M1253.44 502.877L1251.38 504.319L1248.12 498.572L1250.17 497.14L1253.44 502.877Z" fill="white"/>
<path d="M1270.62 517.341L1268.58 518.772L1265.31 513.035L1267.36 511.594L1270.62 517.341Z" fill="white"/>
<path d="M1229.61 518.772L1228.79 517.341L1237.01 511.594L1237.82 513.035L1229.61 518.772Z" fill="white"/>
<path fillRule="evenodd" clipRule="evenodd" d="M1259.39 500.85C1263.05 500.908 1265.55 495.084 1261.84 495.17C1258.13 495.257 1255.68 500.908 1259.39 500.85ZM1260.18 499.024C1261.48 499.024 1262.38 496.977 1261.05 496.996C1259.72 497.015 1258.83 499.043 1260.18 499.024Z" fill="white"/>
<path fillRule="evenodd" clipRule="evenodd" d="M1249.67 485.522C1253.34 485.58 1255.84 479.756 1252.12 479.842C1248.4 479.929 1245.96 485.58 1249.67 485.522ZM1250.46 483.696C1251.78 483.696 1252.66 481.649 1251.33 481.668C1250.01 481.687 1249.13 483.763 1250.46 483.696Z" fill="white"/>
<path d="M1278.03 482.677L1278.85 484.119L1270.63 489.856L1269.81 488.424L1278.03 482.677Z" fill="white"/>
<path fillRule="evenodd" clipRule="evenodd" d="M1278.24 485.522C1281.91 485.58 1284.4 479.756 1280.69 479.842C1276.98 479.929 1274.53 485.58 1278.24 485.522ZM1279.03 483.696C1280.34 483.696 1281.23 481.649 1279.9 481.668C1278.58 481.687 1277.7 483.763 1279.01 483.696H1279.03Z" fill="white"/>
<path fillRule="evenodd" clipRule="evenodd" d="M1226.95 521.617C1230.61 521.675 1233.11 515.851 1229.4 515.938C1225.69 516.024 1223.27 521.675 1226.95 521.617ZM1227.73 519.791C1229.04 519.791 1229.93 517.744 1228.61 517.763C1227.28 517.783 1226.41 519.81 1227.73 519.791Z" fill="white"/>
<path d="M1254.39 528.93H1252.36L1269.81 488.424H1271.85L1254.39 528.93Z" fill="white"/>
<path d="M1246.17 534.667L1245.36 533.235L1253.57 527.489L1254.39 528.93L1246.17 534.667Z" fill="white"/>
<path fillRule="evenodd" clipRule="evenodd" d="M1243.52 537.512C1247.18 537.57 1249.68 531.746 1245.96 531.823C1242.24 531.9 1239.8 537.579 1243.52 537.512ZM1244.3 535.686C1245.62 535.686 1246.5 533.639 1245.18 533.658C1243.85 533.678 1242.98 535.705 1244.3 535.657V535.686Z" fill="white"/>
<path d="M1265.56 500.696C1268.44 500.696 1266.52 505.107 1263.64 505.069C1260.75 505.03 1262.73 500.658 1265.56 500.696Z" fill="white"/>
<path d="M1141.87 313.264C1141.87 313.264 1135.74 352.857 1139.09 370.548C1142.43 388.24 1123.6 388.625 1123.6 388.625C1123.6 388.625 1086.95 389.778 1101.35 359.045C1101.35 359.045 1109.31 327.438 1107.83 308.641L1141.87 313.264Z" fill="#E3ABC6"/>
<path d="M1139.97 327.333L1138.49 344.736L1137.72 344.602C1132.14 343.53 1126.97 340.915 1122.8 337.054C1118.64 333.193 1115.64 328.24 1114.14 322.758L1113.33 319.808L1139.97 327.333Z" fill="#040A2E"/>
<path d="M1134.06 329.668C1144.15 331.513 1154.95 327.871 1153.02 317.175C1150.07 300.78 1146.21 281.724 1142.99 273.411C1136.77 257.372 1114.86 270.961 1114.86 270.961C1114.86 270.961 1102.32 303.096 1106.99 311.745C1115.14 326.948 1134.06 329.668 1134.06 329.668Z" fill="#E3ABC6"/>
<path d="M1105.33 309.573C1104.84 307.805 1104.34 306.037 1103.84 304.269C1103.17 301.876 1104.25 300.261 1104.25 297.897C1104.12 296.668 1103.82 295.463 1103.36 294.313C1103.03 293.027 1102.99 291.681 1103.26 290.379C1103.53 289.078 1104.09 287.856 1104.91 286.807C1103.77 284.967 1103.27 282.802 1103.48 280.647C1103.7 278.493 1104.62 276.47 1106.1 274.891C1105.06 272.294 1105.08 269.394 1106.15 266.809C1107.35 263.926 1110.73 261.043 1113.91 263.052C1113.53 262.811 1115.83 260.342 1116.08 260.169C1117.09 259.389 1118.28 258.861 1119.53 258.631C1122.2 258.114 1124.95 258.578 1127.3 259.938C1128.06 258.645 1129.17 257.602 1130.52 256.936C1131.86 256.27 1133.37 256.011 1134.85 256.19C1136.33 256.405 1137.76 256.918 1139.04 257.698C1140.31 258.477 1141.42 259.507 1142.29 260.726C1142.97 259.952 1143.87 259.409 1144.87 259.171C1145.87 258.933 1146.92 259.013 1147.87 259.4C1148.82 259.811 1149.66 260.434 1150.32 261.22C1150.99 262.007 1151.47 262.936 1151.72 263.936C1152.2 265.943 1152.08 268.046 1151.39 269.99C1150.38 273.075 1148.17 275.939 1145.07 276.871C1141.22 278.014 1137.14 275.91 1134.11 273.334C1131.28 270.874 1128.59 270.394 1126.04 273.7C1124.03 276.528 1122.65 279.756 1122 283.165C1121.6 284.895 1121.29 286.654 1120.98 288.403C1120.72 289.806 1120.66 291.766 1119.74 292.929C1119.53 293.227 1119.23 293.448 1118.88 293.556C1118.53 293.663 1118.16 293.653 1117.81 293.525C1115.7 292.497 1116.78 287.644 1116.74 285.837C1116.74 283.79 1116.07 281.522 1114.29 280.503C1112.83 288.422 1111.6 296.379 1110.62 304.374C1110.28 307.075 1109.93 309.881 1108.44 312.159C1108.26 312.5 1107.97 312.769 1107.61 312.918C1106.65 313.196 1106.02 312.024 1105.76 311.092L1105.33 309.573Z" fill="#040A2E"/>
<path d="M1137.55 282.602C1137.61 281.404 1137.06 280.4 1136.31 280.358C1135.55 280.316 1134.89 281.253 1134.82 282.451C1134.76 283.649 1135.31 284.653 1136.07 284.695C1136.82 284.737 1137.48 283.8 1137.55 282.602Z" fill="#040A2E"/>
<path d="M1143.59 283.482C1143.63 283.31 1143.73 283.155 1143.86 283.032C1143.99 282.91 1144.15 282.827 1144.32 282.791C1144.5 282.755 1144.68 282.768 1144.84 282.829C1145.01 282.89 1145.16 282.996 1145.27 283.136C1145.27 283.136 1148.69 287.24 1153.52 296.215C1153.71 296.532 1153.81 296.897 1153.8 297.266C1153.79 297.636 1153.67 297.994 1153.46 298.299C1153.25 298.603 1152.96 298.84 1152.62 298.982C1152.27 299.124 1151.9 299.164 1151.53 299.098L1144.64 297.33C1143.47 297.028 1142.47 296.279 1141.85 295.243C1141.23 294.208 1141.04 292.969 1141.32 291.795L1143.59 283.482Z" fill="#FE8FA7"/>
<path d="M1116.78 282.915C1116.78 282.915 1112.28 273.968 1107.62 280.292C1102.96 286.615 1099.58 293.986 1104.47 297.436C1109.35 300.886 1116 298.397 1116 298.397L1116.78 282.915Z" fill="#E3ABC6"/>
<path d="M1113.44 290.2L1108.92 288.134" stroke="#040A2E" strokeWidth="3.5" strokeMiterlimit="10"/>
<path d="M1096.36 445.477L1110.16 452.973" stroke="#040A2E" strokeWidth="3.5" strokeMiterlimit="10"/>
<path d="M1280.67 351.723C1280.67 351.723 1292.6 350.32 1296.25 335.28" stroke="#040A2E" strokeWidth="3.5" strokeMiterlimit="10"/>
<path d="M1315.08 332.561L1342.7 327.842C1342.7 327.842 1348.96 326.41 1348.22 320.462" stroke="#040A2E" strokeWidth="3.5" strokeMiterlimit="10"/>
<path d="M1300.38 341.104C1300.38 341.104 1294.25 343.804 1295.57 348.503C1296.28 351.021 1299.36 350.838 1302.06 350.127C1305.12 349.305 1307.93 347.737 1310.24 345.563C1312.29 343.641 1314.52 340.892 1315.05 337.721" stroke="#040A2E" strokeWidth="3.5" strokeMiterlimit="10"/>
<path d="M1305.19 348.965C1305.19 348.965 1299.07 351.675 1300.38 356.374C1301.1 358.892 1304.17 358.709 1306.87 357.998C1309.94 357.175 1312.75 355.607 1315.06 353.433C1317.11 351.511 1319.34 348.763 1319.86 345.591" stroke="#040A2E" strokeWidth="3.5" strokeMiterlimit="10"/>
<path d="M1308.08 357.585C1308.08 357.585 1301.96 360.285 1303.28 364.984C1303.99 367.502 1307.06 367.32 1309.76 366.609C1312.83 365.791 1315.64 364.222 1317.95 362.044C1320 360.122 1322.23 357.373 1322.75 354.202C1322.75 354.202 1324.63 346.168 1321.35 332.099" stroke="#040A2E" strokeWidth="3.5" strokeMiterlimit="10"/>
<path d="M1229.86 386.472L1218.79 402.502" stroke="#040A2E" strokeWidth="3.5" strokeMiterlimit="10"/>
<path d="M1059.74 719.94C1102.2 719.458 1136.23 684.65 1135.74 642.193C1135.26 599.736 1100.45 565.709 1058 566.19C1015.54 566.672 981.514 601.481 981.995 643.937C982.477 686.394 1017.29 720.422 1059.74 719.94Z" fill="white"/>
<path d="M1012.81 704.677C1002.31 696.832 993.986 686.431 988.634 674.462C983.282 662.493 981.08 649.355 982.237 636.295C983.394 623.236 987.872 610.689 995.245 599.848C1002.62 589.006 1012.64 580.23 1024.36 574.354C1036.08 568.478 1049.11 565.697 1062.21 566.275C1075.3 566.853 1088.04 570.771 1099.19 577.657C1110.35 584.543 1119.56 594.167 1125.95 605.616C1132.34 617.064 1135.69 629.957 1135.7 643.068" stroke="#00509D" strokeWidth="3.5" strokeMiterlimit="10"/>
<path d="M1373.03 506.424C1373.1 506.066 1373.29 505.739 1373.55 505.485C1373.81 505.23 1374.15 505.06 1374.51 504.995C1374.87 504.93 1375.24 504.974 1375.58 505.12C1375.91 505.266 1376.2 505.509 1376.4 505.817C1376.6 506.125 1376.7 506.485 1376.69 506.852C1376.69 507.218 1376.57 507.575 1376.36 507.876C1376.15 508.177 1375.86 508.41 1375.52 508.545C1375.18 508.68 1374.81 508.711 1374.45 508.634C1373.97 508.528 1373.55 508.236 1373.28 507.822C1373.01 507.408 1372.92 506.905 1373.03 506.424Z" fill="#003C76"/>
<path d="M1365.91 506.731C1366.94 506.731 1367.77 505.901 1367.77 504.876C1367.77 503.852 1366.94 503.022 1365.91 503.022C1364.89 503.022 1364.06 503.852 1364.06 504.876C1364.06 505.901 1364.89 506.731 1365.91 506.731Z" fill="#003C76"/>
<path d="M1356.99 504.79C1358.01 504.79 1358.84 503.96 1358.84 502.935C1358.84 501.911 1358.01 501.081 1356.99 501.081C1355.96 501.081 1355.13 501.911 1355.13 502.935C1355.13 503.96 1355.96 504.79 1356.99 504.79Z" fill="#003C76"/>
<path d="M1346.28 500.6C1346.36 500.242 1346.54 499.915 1346.81 499.661C1347.07 499.407 1347.4 499.236 1347.76 499.172C1348.13 499.107 1348.5 499.15 1348.83 499.296C1349.17 499.443 1349.45 499.685 1349.65 499.993C1349.85 500.302 1349.95 500.662 1349.95 501.028C1349.94 501.394 1349.83 501.751 1349.62 502.052C1349.41 502.354 1349.12 502.587 1348.78 502.721C1348.43 502.856 1348.06 502.887 1347.7 502.81C1347.46 502.76 1347.24 502.663 1347.04 502.524C1346.83 502.386 1346.66 502.208 1346.53 502.003C1346.4 501.797 1346.31 501.567 1346.26 501.326C1346.22 501.086 1346.23 500.839 1346.28 500.6Z" fill="#003C76"/>
<path d="M1339.13 500.917C1340.16 500.917 1340.99 500.087 1340.99 499.063C1340.99 498.038 1340.16 497.208 1339.13 497.208C1338.11 497.208 1337.28 498.038 1337.28 499.063C1337.28 500.087 1338.11 500.917 1339.13 500.917Z" fill="#003C76"/>
<path d="M1385.77 515.082C1386.88 515.325 1388.05 515.231 1389.11 514.813C1390.17 514.395 1391.08 513.672 1391.73 512.734C1392.38 511.797 1392.74 510.688 1392.76 509.547C1392.78 508.407 1392.46 507.286 1391.84 506.327C1391.23 505.368 1390.34 504.613 1389.29 504.159C1388.24 503.705 1387.09 503.571 1385.96 503.775C1384.84 503.978 1383.81 504.511 1382.99 505.304C1382.17 506.097 1381.6 507.115 1381.36 508.23C1381.04 509.724 1381.32 511.284 1382.15 512.569C1382.97 513.854 1384.28 514.758 1385.77 515.082ZM1387.76 505.934C1388.45 506.086 1389.09 506.442 1389.58 506.955C1390.08 507.469 1390.41 508.117 1390.53 508.818C1390.66 509.519 1390.57 510.242 1390.29 510.894C1390 511.547 1389.53 512.101 1388.93 512.486C1388.33 512.871 1387.63 513.069 1386.92 513.057C1386.21 513.044 1385.52 512.82 1384.93 512.414C1384.35 512.008 1383.89 511.438 1383.63 510.776C1383.37 510.113 1383.31 509.388 1383.46 508.692C1383.56 508.228 1383.75 507.789 1384.02 507.399C1384.29 507.01 1384.64 506.677 1385.04 506.421C1385.44 506.165 1385.88 505.99 1386.35 505.906C1386.82 505.822 1387.3 505.832 1387.76 505.934Z" fill="#003C76"/>
<path d="M1678.67 586.955C1678.67 587.371 1678.8 587.778 1679.03 588.124C1679.26 588.47 1679.59 588.74 1679.97 588.899C1680.36 589.059 1680.78 589.1 1681.19 589.019C1681.6 588.938 1681.97 588.737 1682.26 588.443C1682.56 588.149 1682.76 587.774 1682.84 587.366C1682.92 586.957 1682.88 586.534 1682.72 586.15C1682.56 585.765 1682.29 585.436 1681.95 585.205C1681.6 584.974 1681.19 584.85 1680.78 584.85C1680.22 584.85 1679.68 585.072 1679.29 585.467C1678.89 585.861 1678.67 586.397 1678.67 586.955Z" fill="#040A2E"/>
<path d="M1693.14 538.625C1694.52 535.089 1692.77 531.106 1689.23 529.729C1685.69 528.352 1681.71 530.102 1680.33 533.638C1678.96 537.174 1680.71 541.157 1684.24 542.534C1687.78 543.912 1691.76 542.162 1693.14 538.625Z" fill="#040A2E"/>
<path d="M1711.79 580.065C1711.79 581.015 1712.07 581.944 1712.6 582.734C1713.12 583.524 1713.88 584.14 1714.75 584.504C1715.63 584.868 1716.6 584.963 1717.53 584.777C1718.46 584.592 1719.32 584.134 1719.99 583.462C1720.66 582.79 1721.12 581.934 1721.3 581.002C1721.49 580.07 1721.39 579.104 1721.03 578.226C1720.67 577.348 1720.05 576.598 1719.26 576.07C1718.47 575.542 1717.54 575.26 1716.59 575.26C1715.32 575.26 1714.1 575.766 1713.19 576.667C1712.29 577.568 1711.79 578.79 1711.79 580.065Z" fill="#040A2E"/>
<path d="M1757.32 899.442H1497.01V716.276H1734.06C1740.23 716.276 1746.15 718.726 1750.51 723.088C1754.87 727.449 1757.32 733.364 1757.32 739.532V899.442Z" fill="white"/>
<path d="M1757.32 739.552V753.803H1497.01V716.324H1734.06C1740.23 716.324 1746.14 718.77 1750.5 723.126C1754.86 727.481 1757.31 733.389 1757.32 739.552Z" fill="#00296B"/>
<path d="M1757.32 899.442H1497.01V716.276H1734.06C1740.23 716.276 1746.15 718.726 1750.51 723.088C1754.87 727.449 1757.32 733.364 1757.32 739.532V899.442V899.442Z" stroke="#003F88" strokeWidth="3.5" strokeMiterlimit="10"/>
<path d="M1564.27 836.901H1734.48C1737.24 836.901 1739.47 834.663 1739.47 831.903V773.331C1739.47 770.571 1737.24 768.334 1734.48 768.334H1564.27C1561.51 768.334 1559.28 770.571 1559.28 773.331V831.903C1559.28 834.663 1561.51 836.901 1564.27 836.901Z" fill="#9BC848"/>
<path d="M1563.05 863.472H1735.69C1737.81 863.472 1739.52 861.76 1739.52 859.647V853.651C1739.52 851.538 1737.81 849.826 1735.69 849.826H1563.05C1560.94 849.826 1559.23 851.538 1559.23 853.651V859.647C1559.23 861.76 1560.94 863.472 1563.05 863.472Z" fill="#0064CC"/>
<path d="M1562.97 883.105H1662.03C1664.26 883.105 1666.06 881.298 1666.06 879.069V873.495C1666.06 871.266 1664.26 869.459 1662.03 869.459H1562.97C1560.74 869.459 1558.93 871.266 1558.93 873.495V879.069C1558.93 881.298 1560.74 883.105 1562.97 883.105Z" fill="#0064CC"/>
<path d="M1632.34 716.305L1529.1 732.498L1557.41 863.837H1544.03L1552.36 899.471H1497.02V716.305H1632.34Z" fill="#040A2E"/>
<path d="M1426.46 549.111C1417 541.746 1410.07 531.62 1406.62 520.137C1402.16 504.953 1430.59 539.79 1430.59 539.79L1426.46 549.111Z" fill="#E3ABC6"/>
<path d="M1476.74 552.129L1439.73 561.008C1438.98 561.172 1438.19 561.084 1437.5 560.757C1436.8 560.431 1436.24 559.884 1435.88 559.202L1398.47 491.836C1398.2 491.36 1398.04 490.827 1398 490.279C1397.97 489.731 1398.06 489.182 1398.27 488.674C1398.48 488.167 1398.8 487.714 1399.21 487.351C1399.63 486.988 1400.12 486.724 1400.64 486.579L1437.65 477.7C1438.4 477.536 1439.19 477.624 1439.88 477.95C1440.58 478.277 1441.14 478.824 1441.5 479.506L1478.9 546.872C1479.17 547.348 1479.33 547.88 1479.37 548.427C1479.41 548.975 1479.32 549.523 1479.11 550.031C1478.9 550.538 1478.58 550.991 1478.17 551.355C1477.75 551.718 1477.27 551.983 1476.74 552.129Z" fill="#192760"/>
<path d="M1410.22 503.8L1406.18 496.314C1405.95 495.93 1405.82 495.499 1405.79 495.054C1405.76 494.61 1405.83 494.165 1406 493.753C1406.17 493.341 1406.44 492.975 1406.77 492.682C1407.11 492.39 1407.51 492.179 1407.94 492.066L1433.78 485.868C1434.74 485.655 1435.74 485.766 1436.63 486.183C1437.52 486.6 1438.25 487.3 1438.7 488.174L1470.41 544.988C1470.64 545.372 1470.77 545.803 1470.8 546.246C1470.83 546.69 1470.76 547.135 1470.59 547.546C1470.42 547.958 1470.16 548.324 1469.83 548.618C1469.49 548.911 1469.09 549.122 1468.66 549.236L1461.22 551.033" stroke="white" strokeWidth="3.5" strokeMiterlimit="10"/>
<path d="M1478.9 546.872L1441.49 479.506C1441.13 478.824 1440.57 478.277 1439.87 477.95C1439.18 477.624 1438.39 477.536 1437.64 477.7L1400.63 486.579C1399.96 486.745 1399.36 487.108 1398.9 487.622C1398.44 488.137 1398.14 488.778 1398.05 489.462C1398.49 488.984 1399.07 488.649 1399.7 488.501L1436.71 479.622C1437.46 479.459 1438.24 479.548 1438.94 479.875C1439.63 480.201 1440.2 480.747 1440.55 481.428L1477.97 548.794C1478.36 549.521 1478.51 550.359 1478.38 551.177C1478.91 550.606 1479.24 549.882 1479.33 549.109C1479.43 548.336 1479.27 547.553 1478.9 546.872Z" fill="#475280"/>
<path d="M1537.21 527.652L1496.4 587.714L1460.21 554.521L1434.26 573.059L1478.26 625.52C1481.01 628.805 1484.47 631.428 1488.38 633.193C1492.29 634.958 1496.55 635.821 1500.84 635.716C1505.12 635.612 1509.33 634.544 1513.15 632.59C1516.97 630.637 1520.3 627.85 1522.89 624.434L1580.03 549.111L1537.21 527.652Z" fill="#E3ABC6"/>
<path d="M1537.21 527.652L1505.84 573.818L1539.11 603.023L1582.08 549.889L1537.21 527.652Z" fill="#040A2E"/>
<path d="M1434.23 573.059C1434.23 573.059 1423.66 554.445 1422.18 544.556C1419.55 526.749 1418.34 511.613 1422.24 510.681C1424.97 510.028 1426.08 518.811 1428.16 526.605C1429.34 530.873 1430.91 535.024 1432.86 539.002L1431.16 529.497C1430.63 526.579 1430.65 523.588 1431.2 520.675C1432.26 515.198 1434.27 507.164 1436.75 509.662C1440.35 513.305 1439.42 525.999 1439.42 525.999L1440.92 540.799C1440.92 540.799 1442.28 524.221 1449.96 522.098C1457.65 519.974 1448.9 532.467 1448.9 532.467L1449.11 543.441L1460.24 554.522L1434.23 573.059Z" fill="#E3ABC6"/>
<path d="M1420.77 512.132C1420.77 512.132 1414.04 537.964 1432.3 569.465" stroke="#040A2E" strokeWidth="3.5" strokeMiterlimit="10"/>
<path d="M1434.03 510.892C1434.03 510.892 1427.46 523.078 1433.59 542.461" stroke="#040A2E" strokeWidth="3.5" strokeMiterlimit="10"/>
<path d="M1448.84 522.491C1448.84 522.491 1442.47 524.644 1440.92 540.75" stroke="#040A2E" strokeWidth="3.5" strokeMiterlimit="10"/>
<path d="M1406.14 517.581C1406.14 517.581 1408.43 532.428 1422.38 545.69" stroke="#040A2E" strokeWidth="3.5" strokeMiterlimit="10"/>
<path d="M1665.29 542.461L1655.32 633.285H1557.08L1533.24 544.489L1555.35 516.793L1642.26 516.677L1665.29 542.461Z" fill="#040A2E"/>
<path d="M1490.71 582.285L1500.5 591.635" stroke="#040A2E" strokeWidth="3.5" strokeMiterlimit="10"/>
<path d="M1600.87 420.857C1602.46 416.561 1606.3 412.659 1610.88 412.746C1614.5 412.813 1617.71 415.379 1619.45 418.512C1620.74 420.9 1621.35 423.593 1621.22 426.302C1621.09 429.012 1620.22 431.634 1618.71 433.888C1615.83 438.126 1609.95 443.498 1604.84 439.586C1599.73 435.675 1598.73 426.613 1600.87 420.857Z" fill="#040A2E"/>
<path d="M1566.49 461.66C1569.73 468.073 1572.19 474.847 1573.83 481.841C1576.02 491.634 1576.06 502.022 1572.87 511.536L1596.05 507.529C1596.59 507.494 1597.11 507.285 1597.52 506.933C1597.88 506.457 1598.05 505.871 1598 505.28C1598.73 487.016 1593.26 469.043 1582.46 454.29C1579.53 450.311 1576.01 446.429 1571.54 444.161C1567.95 442.344 1560.63 440.374 1560.01 446.496C1559.73 449.206 1561.17 451.752 1562.51 454.117C1563.86 456.481 1565.23 459.066 1566.49 461.66Z" fill="#040A2E"/>
<path d="M1587.91 479.41C1587.91 479.41 1586.7 506.943 1585.36 521.771C1584.4 532.246 1593.86 531.871 1593.86 531.871C1593.86 531.871 1618.55 534.158 1613.43 518.196C1612.77 516.182 1612.23 514.132 1611.81 512.055C1610.35 504.56 1606.12 489.299 1607.1 481.063L1587.91 479.41Z" fill="#E3ABC6"/>
<path d="M1597.98 487.771L1587.27 492.653L1586.69 502.954C1586.69 502.954 1597.64 497.044 1597.98 487.771Z" fill="#040A2E"/>
<path d="M1606.22 482.264C1606.22 482.264 1584.96 498.976 1574.83 492.057C1567.62 487.137 1568.47 465.572 1569.57 453.511C1569.83 450.591 1570.76 447.768 1572.27 445.259C1573.79 442.749 1575.86 440.619 1578.32 439.029C1584.89 434.81 1595.47 431.802 1598.96 442.767C1604.79 461.142 1606.22 482.264 1606.22 482.264Z" fill="#E3ABC6"/>
<path d="M1572.49 466.1C1571.7 468.906 1570.1 471.588 1566.13 476.902C1565.93 477.16 1565.82 477.466 1565.79 477.787C1565.76 478.108 1565.82 478.43 1565.97 478.718C1566.11 479.005 1566.33 479.247 1566.61 479.415C1566.88 479.583 1567.2 479.671 1567.52 479.67L1573.11 478.564C1573.88 478.414 1574.56 477.987 1575.02 477.367C1575.49 476.746 1575.72 475.975 1575.65 475.201L1574.97 467.071C1574.43 464.976 1572.81 464.957 1572.49 466.1Z" fill="#FE8FA7"/>
<path d="M1578.92 464.697C1579.09 465.764 1579.77 466.543 1580.45 466.427C1581.12 466.312 1581.51 465.361 1581.34 464.294C1581.17 463.227 1580.47 462.458 1579.8 462.564C1579.13 462.67 1578.74 463.631 1578.92 464.697Z" fill="#040A2E"/>
<path d="M1568.84 463.352C1568.94 463.273 1569.06 463.221 1569.18 463.198C1569.86 463.092 1570.54 463.861 1570.71 464.928C1570.88 465.994 1570.49 466.946 1569.83 467.061C1569.59 467.073 1569.36 467.016 1569.16 466.898C1568.96 466.781 1568.8 466.607 1568.69 466.398C1568.73 465.36 1568.78 464.342 1568.84 463.352Z" fill="#040A2E"/>
<path d="M1586.27 457.288C1592.63 462.593 1596.64 470.944 1597.8 479.304C1599.4 490.663 1596.73 502.147 1593.83 513.247C1603.11 511.609 1612.19 509.034 1620.93 505.559C1622.13 505.309 1623.2 504.64 1623.95 503.673C1624.7 502.706 1625.08 501.504 1625.02 500.283C1626.29 489.783 1626.26 479.167 1624.92 468.676C1623.74 459.392 1621.45 450.032 1616.35 442.181C1606 426.267 1586.09 423.038 1570.83 434.368C1567.36 436.944 1564.1 441.095 1565.38 445.199C1566.15 447.736 1568.47 449.533 1570.92 450.561C1573.37 451.589 1576.03 452.031 1578.54 452.896C1581.37 453.871 1583.99 455.36 1586.27 457.288Z" fill="#040A2E"/>
<path d="M1357.66 834.412L1345.64 855.083C1337.87 868.429 1326.8 879.552 1313.49 887.382L1299.5 895.617V899.461H1381.49L1417.95 834.402L1357.66 834.412Z" fill="#E3ABC6"/>
<path d="M1344.74 856.582L1401.46 863.837L1404.53 858.273L1344.74 856.582Z" fill="#040A2E"/>
<path d="M1519.98 842.292H1463.52L1466.97 858.033C1468.18 863.531 1467.75 869.264 1465.74 874.522C1463.73 879.78 1460.22 884.334 1455.65 887.622L1445.26 895.07V899.481H1531.59L1519.98 842.292Z" fill="#E3ABC6"/>
<path d="M1467.39 860.493L1524.35 863.837L1523.26 858.427L1467.39 860.493Z" fill="#040A2E"/>
<path d="M1460.33 881.308C1457.56 882.172 1454.62 882.376 1451.76 881.904C1450.5 881.716 1449.28 881.374 1448.11 880.885C1447.36 880.539 1446.68 880.145 1447.08 879.338C1448.04 877.358 1451.14 877.868 1452.73 878.617C1455.42 879.895 1457.75 882.038 1460.09 883.835C1460.48 884.06 1460.94 884.122 1461.37 884.008C1461.8 883.895 1462.17 883.615 1462.4 883.23C1462.61 882.842 1462.67 882.385 1462.56 881.955C1462.45 881.525 1462.17 881.155 1461.79 880.924C1457.67 877.781 1452.51 872.755 1446.87 875.244C1444.43 876.33 1442.57 879.348 1444.16 881.885C1445.57 884.133 1448.86 884.844 1451.29 885.219C1454.61 885.747 1458.01 885.517 1461.22 884.546C1463.29 883.922 1462.42 880.703 1460.33 881.308Z" fill="white"/>
<path d="M1462.06 881.087C1458.51 879.099 1455.72 875.98 1454.14 872.227C1453.99 871.865 1453.88 871.488 1453.82 871.102C1453.78 870.928 1453.78 870.748 1453.82 870.574C1453.85 870.46 1453.92 870.359 1454.01 870.285C1454.01 870.285 1454.23 870.151 1454.15 870.18C1454.33 870.118 1454.51 870.066 1454.69 870.026C1455.02 869.997 1455.34 870.036 1455.65 870.141C1457.26 870.612 1458.35 872.303 1458.85 873.985C1459.64 876.638 1459.7 879.54 1459.98 882.288C1459.99 882.731 1460.17 883.153 1460.48 883.467C1460.79 883.78 1461.21 883.96 1461.66 883.97C1462.1 883.967 1462.53 883.789 1462.84 883.475C1463.16 883.16 1463.34 882.734 1463.34 882.288C1462.8 876.964 1462.95 869.161 1456.83 866.989C1454.06 866.028 1450.65 867.364 1450.39 870.554C1450.4 872.029 1450.8 873.475 1451.55 874.744C1452.1 875.88 1452.77 876.962 1453.53 877.973C1455.34 880.414 1457.63 882.461 1460.25 883.989C1462.18 885.065 1463.84 882.163 1461.96 881.106L1462.06 881.087Z" fill="white"/>
<path d="M1525.03 866.999H1467.5C1467.11 871.086 1465.85 875.041 1463.8 878.601C1461.76 882.161 1458.97 885.243 1455.64 887.641L1445.26 895.07V899.481H1531.59L1525.03 866.999Z" fill="#040A2E"/>
<path d="M1529.97 891.514L1531.59 899.471H1445.25V895.06L1450.19 891.514H1529.97Z" fill="white"/>
<path d="M1508.49 889.477C1512.77 889.477 1516.24 886.004 1516.24 881.721C1516.24 877.438 1512.77 873.966 1508.49 873.966C1504.2 873.966 1500.73 877.438 1500.73 881.721C1500.73 886.004 1504.2 889.477 1508.49 889.477Z" fill="white"/>
<path d="M1321.48 880.587C1317.02 880.015 1312.9 877.952 1309.76 874.735C1309.45 874.428 1309.19 874.07 1308.99 873.678C1308.91 873.515 1308.87 873.339 1308.86 873.159C1308.85 873.055 1308.88 872.952 1308.93 872.861C1309.12 872.562 1309.38 872.317 1309.7 872.148C1310.01 871.98 1310.36 871.895 1310.72 871.9C1312.73 871.813 1314.5 873.207 1315.65 874.783C1317.28 877.265 1318.71 879.867 1319.94 882.567C1320.17 882.948 1320.54 883.225 1320.97 883.338C1321.4 883.451 1321.86 883.392 1322.25 883.172C1322.62 882.939 1322.9 882.569 1323.01 882.14C1323.12 881.711 1323.07 881.255 1322.85 880.866C1321.43 878.127 1320.16 875.167 1318.28 872.698C1316.39 870.228 1313.8 868.402 1310.72 868.536C1307.63 868.671 1304.7 871.073 1305.66 874.302C1306.19 875.726 1307.1 876.981 1308.28 877.935C1309.34 878.906 1310.48 879.784 1311.69 880.559C1314.39 882.259 1317.42 883.376 1320.57 883.835C1321 883.938 1321.46 883.875 1321.84 883.657C1322.22 883.439 1322.51 883.084 1322.64 882.663C1322.76 882.232 1322.7 881.774 1322.48 881.385C1322.26 880.997 1321.9 880.711 1321.47 880.587H1321.48Z" fill="white"/>
<path d="M1323.07 881.183C1321.36 878.758 1320.2 875.991 1319.66 873.072C1319.4 871.663 1319.3 870.228 1319.37 868.796C1319.37 868.094 1319.5 866.874 1320.38 866.797C1320.91 866.825 1321.41 867 1321.84 867.3C1322.28 867.601 1322.61 868.015 1322.82 868.498C1323.38 869.586 1323.61 870.81 1323.49 872.025C1323.31 873.634 1322.91 875.211 1322.31 876.715C1321.76 878.339 1321.18 879.953 1320.6 881.568C1320.48 881.998 1320.54 882.459 1320.76 882.848C1320.98 883.237 1321.34 883.523 1321.77 883.643C1322.21 883.763 1322.67 883.707 1323.06 883.487C1323.44 883.267 1323.73 882.902 1323.85 882.471C1325.68 877.272 1329.26 869.978 1324.54 865.221C1322.43 863.097 1318.65 862.607 1316.85 865.432C1315.41 867.729 1315.89 871.198 1316.34 873.687C1316.92 876.999 1318.24 880.139 1320.18 882.884C1320.41 883.259 1320.78 883.531 1321.21 883.643C1321.63 883.756 1322.09 883.701 1322.48 883.49C1322.86 883.263 1323.14 882.893 1323.25 882.461C1323.37 882.029 1323.31 881.57 1323.08 881.183H1323.07Z" fill="white"/>
<path d="M1399.72 866.941H1337.4C1330.69 875.103 1322.6 882.022 1313.49 887.381L1299.5 895.617V899.461H1381.49L1399.72 866.941Z" fill="#040A2E"/>
<path d="M1305.87 891.879H1385.75L1381.49 899.471H1299.49V895.627L1305.87 891.879Z" fill="white"/>
<path d="M1372.19 889.477C1376.47 889.477 1379.95 886.004 1379.95 881.721C1379.95 877.438 1376.47 873.966 1372.19 873.966C1367.91 873.966 1364.44 877.438 1364.44 881.721C1364.44 886.004 1367.91 889.477 1372.19 889.477Z" fill="white"/>
<path d="M1323.28 856.063L1414.1 858.273L1500.49 716.497L1444.11 669.889L1323.28 856.063Z" fill="#0064CC"/>
<path d="M1424.49 700.122L1444.71 808.051L1414.1 858.273L1424.49 700.122Z" fill="#040A2E"/>
<path d="M1323.28 856.063L1414.1 858.273L1500.49 716.497L1444.11 669.889L1323.28 856.063Z" stroke="white" strokeWidth="3.5" strokeMiterlimit="10"/>
<path d="M1566.1 566.183C1579.34 563.21 1587.66 550.065 1584.69 536.822C1581.72 523.58 1568.57 515.255 1555.33 518.227C1542.09 521.2 1533.76 534.345 1536.74 547.588C1539.71 560.83 1552.85 569.155 1566.1 566.183Z" fill="#040A2E"/>
<path d="M1654.59 633.285L1662.28 658.155C1664.36 664.864 1664.85 671.971 1663.68 678.901C1662.52 685.831 1659.75 692.391 1655.58 698.052C1651.42 703.712 1645.98 708.315 1639.72 711.489C1633.45 714.663 1626.52 716.319 1619.49 716.324H1509.28L1537.46 858.013L1454.53 860.512L1423.1 692.751C1421.74 685.502 1422 678.042 1423.85 670.903C1425.7 663.764 1429.11 657.12 1433.82 651.445C1438.53 645.769 1444.43 641.202 1451.1 638.066C1457.78 634.931 1465.06 633.305 1472.44 633.304L1654.59 633.285Z" fill="#0064CC"/>
<path d="M1654.59 633.285L1662.28 658.155C1664.36 664.864 1664.85 671.971 1663.68 678.901C1662.52 685.831 1659.75 692.391 1655.58 698.052C1651.42 703.712 1645.99 708.315 1639.72 711.489C1633.45 714.663 1626.52 716.319 1619.49 716.324H1509.29L1537.46 858.013L1454.53 860.512L1423.16 693.26C1421.79 685.951 1422.05 678.43 1423.92 671.232C1425.79 664.034 1429.22 657.336 1433.97 651.614C1438.72 645.892 1444.67 641.287 1451.4 638.126C1458.13 634.964 1465.48 633.325 1472.91 633.323L1654.59 633.285Z" stroke="white" strokeWidth="3.5" strokeMiterlimit="10"/>
<path d="M1617.63 532.909L1587.29 593.384L1525.52 552.955L1518.41 540.895C1514.86 534.829 1510.22 529.47 1504.72 525.086C1498.28 519.974 1489.94 514.285 1485.5 514.967C1477.57 516.168 1503.19 535.494 1503.19 535.494C1503.19 535.494 1497.08 530.968 1492.99 537.993C1492.24 539.092 1491.88 540.41 1491.97 541.735C1492.07 543.061 1492.6 544.318 1493.48 545.306C1493.48 545.306 1487.15 550.111 1492.21 556.934C1492.21 556.934 1487.9 562.027 1494.13 566.832C1499.43 570.907 1508.48 577.98 1508.48 577.98L1571.84 636.889C1575.62 640.401 1580.16 642.989 1585.11 644.448C1590.06 645.907 1595.27 646.199 1600.35 645.299C1605.43 644.399 1610.23 642.333 1614.38 639.262C1618.52 636.192 1621.9 632.202 1624.24 627.605L1662.74 552.062L1617.63 532.909Z" fill="#E3ABC6"/>
<path d="M1493.47 545.267C1494.5 546.003 1495.75 546.366 1497.01 546.295" stroke="#040A2E" strokeWidth="3.5" strokeMiterlimit="10"/>
<path d="M1492.19 556.934C1493.26 557.398 1494.41 557.656 1495.57 557.693" stroke="#040A2E" strokeWidth="3.5" strokeMiterlimit="10"/>
<path d="M1582.08 589.973L1593.41 597.305" stroke="#040A2E" strokeWidth="3.5" strokeMiterlimit="10"/>
<path d="M1640.87 565.611C1654.38 565.611 1665.33 554.657 1665.33 541.144C1665.33 527.632 1654.38 516.677 1640.87 516.677C1627.35 516.677 1616.4 527.632 1616.4 541.144C1616.4 554.657 1627.35 565.611 1640.87 565.611Z" fill="#040A2E"/>
<path d="M1490.85 562.084C1490.85 562.084 1489.89 564.698 1501.37 572.425C1514.54 581.285 1567.36 632.679 1567.36 632.679" stroke="#040A2E" strokeWidth="3.5" strokeMiterlimit="10"/>
<path d="M1618.75 530.65L1591.46 580.363L1635.2 613.94L1662.77 552.061L1618.75 530.65Z" fill="#040A2E"/>
<path d="M1632.34 611.749L1651.08 574.981" stroke="white" strokeWidth="3.5" strokeMiterlimit="10"/>
<path d="M1553.44 619.763L1567.99 633.285H1557.08L1553.44 619.763Z" fill="#040A2E"/>
<path d="M1601.97 645.816V656.819C1601.97 658.925 1601.14 660.944 1599.65 662.432C1598.16 663.921 1596.14 664.757 1594.03 664.757H1490.58C1486.23 664.758 1481.93 665.73 1477.99 667.602C1474.06 669.475 1470.59 672.201 1467.85 675.582C1465.1 678.963 1463.14 682.914 1462.11 687.148C1461.09 691.381 1461.02 695.79 1461.91 700.055L1495.23 859.272" stroke="white" strokeWidth="3.5" strokeMiterlimit="10"/>
<path d="M1635.77 633.948L1642.32 655.686C1643.18 658.541 1644.7 661.151 1646.77 663.299C1648.84 665.448 1651.38 667.075 1654.2 668.044L1662.63 670.927" stroke="white" strokeWidth="3.5" strokeMiterlimit="10"/>
<path d="M1507.96 538.809C1507.96 538.809 1486.4 523.299 1483.93 516.793" stroke="#040A2E" strokeWidth="3.5" strokeMiterlimit="10"/>
<path d="M1519.06 716.305H1500.58" stroke="white" strokeWidth="3.5" strokeMiterlimit="10"/>
<path d="M1151.12 721.831L1139.07 781.067H1230.89L1232.01 759.848L1217.22 758.608C1201.75 756.177 1197.7 741.656 1204.45 730.259L1209.34 721.86L1151.12 721.831Z" fill="#E3ABC6"/>
<path d="M1209.34 721.831L1204.01 731.018L1150.42 725.262L1151.12 721.831H1209.34Z" fill="#040A2E"/>
<path d="M1202.32 734.852L1159.43 734.026L1154.05 733.93L1151.48 733.881C1150.95 733.881 1149.2 733.545 1148.79 733.881C1148.05 734.42 1147.89 737.725 1147.7 738.686L1146.64 743.943L1142.37 764.941L1139.07 781.105H1231.23L1232 759.886C1224.21 755.504 1214.7 753.755 1208.42 747.393C1205.08 744.011 1202.95 739.618 1202.37 734.9L1202.32 734.852Z" fill="#040A2E"/>
<path d="M1139.07 781.067H1231.23L1231.56 772.177L1140.87 772.245L1139.07 781.067Z" fill="white"/>
<path d="M1164.48 761.787C1165.7 756.652 1162.52 751.507 1157.38 750.295C1152.25 749.084 1147.1 752.264 1145.89 757.398C1144.68 762.533 1147.86 767.677 1152.99 768.889C1158.13 770.101 1163.27 766.921 1164.48 761.787Z" fill="white"/>
<path d="M1221.46 755.581L1215.22 781.067H1237.66L1235.85 761.607L1221.46 755.581Z" fill="#040A2E"/>
<path d="M1237.99 721.831L1225.95 781.067H1317.75L1318.87 759.848L1304.08 758.608C1288.61 756.177 1284.58 741.656 1291.31 730.259L1296.2 721.86L1237.99 721.831Z" fill="#E3ABC6"/>
<path d="M1296.2 721.831L1290.88 731.018L1237.29 725.262L1237.99 721.831H1296.2Z" fill="#040A2E"/>
<path d="M1289.19 734.852L1246.34 734.026L1240.97 733.93L1238.39 733.881C1237.86 733.881 1236.11 733.545 1235.7 733.881C1234.96 734.42 1234.81 737.725 1234.61 738.686L1233.55 743.943L1229.28 764.941L1225.99 781.105H1318.14L1318.92 759.886C1311.12 755.504 1301.62 753.755 1295.33 747.393C1292 744.007 1289.88 739.616 1289.29 734.9L1289.19 734.852Z" fill="#040A2E"/>
<path d="M1225.95 781.067H1318.1L1318.42 772.177L1227.73 772.245L1225.95 781.067Z" fill="white"/>
<path d="M1251.35 761.793C1252.56 756.659 1249.38 751.514 1244.25 750.302C1239.11 749.09 1233.97 752.27 1232.76 757.405C1231.54 762.539 1234.72 767.684 1239.86 768.896C1244.99 770.108 1250.14 766.928 1251.35 761.793Z" fill="white"/>
<path d="M1372.12 217.154L1437.46 241.64" stroke="#040A2E" strokeWidth="3.71" strokeMiterlimit="10"/>
<path d="M1488.76 315.061C1519.83 315.061 1545.02 289.874 1545.02 258.804C1545.02 227.734 1519.83 202.547 1488.76 202.547C1457.69 202.547 1432.5 227.734 1432.5 258.804C1432.5 289.874 1457.69 315.061 1488.76 315.061Z" fill="#003C76"/>
<path d="M1346.37 234.77C1361.27 234.77 1373.35 222.688 1373.35 207.785C1373.35 192.882 1361.27 180.8 1346.37 180.8C1331.46 180.8 1319.38 192.882 1319.38 207.785C1319.38 222.688 1331.46 234.77 1346.37 234.77Z" stroke="#003C76" strokeWidth="3.83" strokeMiterlimit="10"/>
<path d="M1255.37 256.632C1264.69 256.632 1272.24 249.081 1272.24 239.767C1272.24 230.452 1264.69 222.901 1255.37 222.901C1246.06 222.901 1238.51 230.452 1238.51 239.767C1238.51 249.081 1246.06 256.632 1255.37 256.632Z" fill="#003C76"/>
<path d="M1341.42 225.909C1340.9 225.874 1340.42 225.643 1340.06 225.264C1339.71 224.885 1339.51 224.386 1339.51 223.867C1339.51 223.348 1339.71 222.849 1340.06 222.47C1340.42 222.091 1340.9 221.86 1341.42 221.825C1341.94 221.86 1342.42 222.091 1342.78 222.47C1343.13 222.849 1343.33 223.348 1343.33 223.867C1343.33 224.386 1343.13 224.885 1342.78 225.264C1342.42 225.643 1341.94 225.874 1341.42 225.909ZM1356.51 223.862C1356.51 223.322 1356.29 222.804 1355.91 222.422C1355.53 222.04 1355.01 221.825 1354.47 221.825C1354.06 221.827 1353.67 221.949 1353.33 222.175C1353 222.402 1352.74 222.723 1352.58 223.097C1352.43 223.472 1352.39 223.884 1352.47 224.281C1352.55 224.677 1352.75 225.041 1353.04 225.326C1353.33 225.611 1353.69 225.804 1354.09 225.881C1354.49 225.958 1354.9 225.916 1355.27 225.759C1355.64 225.603 1355.96 225.339 1356.19 225.001C1356.41 224.663 1356.53 224.267 1356.53 223.862H1356.51ZM1347.91 212.042C1347.6 212.015 1347.31 211.874 1347.11 211.647C1346.9 211.42 1346.78 211.124 1346.78 210.817C1346.78 210.509 1346.9 210.213 1347.11 209.986C1347.31 209.759 1347.6 209.619 1347.91 209.591H1359.44C1359.55 209.591 1359.67 209.549 1359.75 209.473C1359.84 209.397 1359.9 209.293 1359.92 209.178L1360.88 203.249C1360.97 202.78 1360.95 202.299 1360.83 201.838C1360.71 201.377 1360.49 200.949 1360.18 200.582C1359.88 200.216 1359.5 199.92 1359.07 199.717C1358.64 199.513 1358.17 199.407 1357.69 199.405H1338.03L1337.68 197.147C1337.54 196.075 1337 195.093 1336.19 194.386C1335.37 193.678 1334.32 193.293 1333.24 193.303H1332.83C1332.5 193.303 1332.19 193.431 1331.96 193.66C1331.74 193.889 1331.61 194.199 1331.61 194.523C1331.61 194.847 1331.74 195.157 1331.96 195.386C1332.19 195.615 1332.5 195.744 1332.83 195.744H1333.24C1333.74 195.747 1334.21 195.927 1334.59 196.252C1334.96 196.576 1335.21 197.023 1335.28 197.512L1337.72 214.56C1337.83 215.338 1338.22 216.049 1338.81 216.564C1339.4 217.078 1340.16 217.359 1340.95 217.356H1354.4C1357.83 217.356 1358.79 215.665 1359.21 213.349L1359.32 212.638C1359.32 212.638 1359.43 212.061 1358.88 212.061L1347.91 212.042Z" fill="#9BC848"/>
<path d="M1457.75 235.5V281H1451.72V235.5H1457.75ZM1466.31 264.469V263.75C1466.31 261.312 1466.67 259.052 1467.38 256.969C1468.08 254.865 1469.1 253.042 1470.44 251.5C1471.77 249.938 1473.39 248.729 1475.28 247.875C1477.18 247 1479.3 246.562 1481.66 246.562C1484.03 246.562 1486.17 247 1488.06 247.875C1489.98 248.729 1491.6 249.938 1492.94 251.5C1494.29 253.042 1495.32 254.865 1496.03 256.969C1496.74 259.052 1497.09 261.312 1497.09 263.75V264.469C1497.09 266.906 1496.74 269.167 1496.03 271.25C1495.32 273.333 1494.29 275.156 1492.94 276.719C1491.6 278.26 1489.99 279.469 1488.09 280.344C1486.22 281.198 1484.09 281.625 1481.72 281.625C1479.34 281.625 1477.21 281.198 1475.31 280.344C1473.42 279.469 1471.79 278.26 1470.44 276.719C1469.1 275.156 1468.08 273.333 1467.38 271.25C1466.67 269.167 1466.31 266.906 1466.31 264.469ZM1472.09 263.75V264.469C1472.09 266.156 1472.29 267.75 1472.69 269.25C1473.08 270.729 1473.68 272.042 1474.47 273.188C1475.28 274.333 1476.29 275.24 1477.5 275.906C1478.71 276.552 1480.11 276.875 1481.72 276.875C1483.3 276.875 1484.69 276.552 1485.88 275.906C1487.08 275.24 1488.08 274.333 1488.88 273.188C1489.67 272.042 1490.26 270.729 1490.66 269.25C1491.07 267.75 1491.28 266.156 1491.28 264.469V263.75C1491.28 262.083 1491.07 260.51 1490.66 259.031C1490.26 257.531 1489.66 256.208 1488.84 255.062C1488.05 253.896 1487.05 252.979 1485.84 252.312C1484.66 251.646 1483.26 251.312 1481.66 251.312C1480.07 251.312 1478.68 251.646 1477.47 252.312C1476.28 252.979 1475.28 253.896 1474.47 255.062C1473.68 256.208 1473.08 257.531 1472.69 259.031C1472.29 260.51 1472.09 262.083 1472.09 263.75ZM1522.03 235.5V281H1516.09V235.5H1522.03ZM1536.66 235.5V240.438H1501.5V235.5H1536.66Z" fill="white"/>
<path d="M1528.28 294.236L1585.11 337.721" stroke="#040A2E" strokeWidth="3.71" strokeMiterlimit="10"/>
<path d="M1606.22 379.005C1621.12 379.005 1633.21 366.924 1633.21 352.021C1633.21 337.117 1621.12 325.036 1606.22 325.036C1591.32 325.036 1579.24 337.117 1579.24 352.021C1579.24 366.924 1591.32 379.005 1606.22 379.005Z" fill="white" stroke="#003C76" strokeWidth="3.83" strokeMiterlimit="10"/>
<path d="M1681.66 315.925C1693.64 315.925 1703.35 306.215 1703.35 294.236C1703.35 282.257 1693.64 272.546 1681.66 272.546C1669.68 272.546 1659.97 282.257 1659.97 294.236C1659.97 306.215 1669.68 315.925 1681.66 315.925Z" fill="white" stroke="#003C76" strokeWidth="3.83" strokeMiterlimit="10"/>
<path d="M1698.42 308.007L1725.06 325.036" stroke="#040A2E" strokeWidth="3.71" strokeMiterlimit="10"/>
<path d="M1737.72 345.514C1744.9 342.54 1748.31 334.31 1745.33 327.132C1742.36 319.953 1734.13 316.544 1726.95 319.518C1719.77 322.491 1716.36 330.721 1719.34 337.9C1722.31 345.078 1730.54 348.487 1737.72 345.514Z" fill="#003C76"/>
<path d="M1417.61 154.142C1417.61 158.325 1418.85 162.415 1421.17 165.893C1423.5 169.37 1426.8 172.08 1430.67 173.679C1434.54 175.278 1438.79 175.694 1442.89 174.874C1446.99 174.054 1450.76 172.036 1453.72 169.074C1456.67 166.113 1458.68 162.341 1459.49 158.237C1460.3 154.133 1459.88 149.88 1458.27 146.018C1456.66 142.156 1453.94 138.857 1450.46 136.54C1446.98 134.222 1442.88 132.99 1438.7 133C1433.1 133.013 1427.74 135.246 1423.78 139.209C1419.83 143.173 1417.61 148.543 1417.61 154.142Z" fill="#003C76"/>
<path d="M1444.88 382.705L1418.37 411.592" stroke="#040A2E" strokeWidth="3.71" strokeMiterlimit="10"/>
<path d="M1456.98 386.854C1464.16 383.881 1467.57 375.651 1464.6 368.472C1461.62 361.294 1453.39 357.885 1446.21 360.858C1439.04 363.832 1435.63 372.062 1438.6 379.24C1441.57 386.419 1449.8 389.828 1456.98 386.854Z" fill="#003C76"/>
<path d="M1408.17 449.331C1420.15 449.331 1429.86 439.62 1429.86 427.641C1429.86 415.662 1420.15 405.952 1408.17 405.952C1396.19 405.952 1386.48 415.662 1386.48 427.641C1386.48 439.62 1396.19 449.331 1408.17 449.331Z" fill="white" stroke="#003C76" strokeWidth="3.83" strokeMiterlimit="10"/>
<path d="M1514.87 395.554C1519.95 395.554 1524.07 391.436 1524.07 386.357C1524.07 381.278 1519.95 377.16 1514.87 377.16C1509.79 377.16 1505.67 381.278 1505.67 386.357C1505.67 391.436 1509.79 395.554 1514.87 395.554Z" fill="white" stroke="#003C76" strokeWidth="3.83" strokeMiterlimit="10"/>
<path fillRule="evenodd" clipRule="evenodd" d="M1401.26 416.667C1401.39 416.396 1401.56 416.152 1401.78 415.95C1402 415.747 1402.26 415.59 1402.54 415.488C1402.82 415.385 1403.12 415.339 1403.42 415.351C1403.71 415.364 1404.01 415.435 1404.28 415.562L1420.78 423.25C1421.05 423.375 1421.29 423.552 1421.49 423.771C1421.69 423.99 1421.85 424.246 1421.95 424.526C1422.05 424.805 1422.1 425.102 1422.09 425.399C1422.07 425.697 1422 425.988 1421.87 426.257L1421.83 426.334C1421.58 426.854 1421.14 427.261 1420.61 427.475C1420.08 427.689 1419.48 427.693 1418.94 427.488L1413.97 425.614L1412.24 429.285C1412.12 429.556 1411.94 429.8 1411.72 430.002C1411.5 430.204 1411.24 430.361 1410.96 430.463C1410.68 430.564 1410.38 430.61 1410.08 430.595C1409.78 430.581 1409.49 430.508 1409.22 430.38L1399.42 425.806C1399.15 425.681 1398.91 425.503 1398.7 425.283C1398.5 425.062 1398.34 424.804 1398.24 424.523C1398.14 424.241 1398.09 423.942 1398.11 423.643C1398.12 423.343 1398.19 423.05 1398.32 422.779L1401.2 416.59L1401.26 416.667ZM1403.94 421.674L1408.05 423.596L1409.02 421.529L1404.88 419.607L1403.92 421.674H1403.94Z" fill="#9BC848"/>
<path fillRule="evenodd" clipRule="evenodd" d="M1415.84 428.496L1417.03 425.911L1419.1 426.872L1417.39 430.476C1417.27 430.747 1417.03 430.956 1416.75 431.057C1416.47 431.158 1416.16 431.142 1415.89 431.014L1411.24 428.842L1412.21 426.776L1415.82 428.448L1415.84 428.496Z" fill="#9BC848"/>
<path d="M1398.76 431.975C1398.61 431.973 1398.46 432 1398.32 432.056C1398.18 432.112 1398.06 432.195 1397.95 432.301C1397.84 432.407 1397.76 432.533 1397.7 432.672C1397.64 432.81 1397.62 432.959 1397.62 433.109V438.798C1397.62 438.948 1397.65 439.096 1397.7 439.235C1397.76 439.373 1397.85 439.498 1397.95 439.604C1398.06 439.709 1398.19 439.792 1398.32 439.849C1398.46 439.905 1398.61 439.934 1398.76 439.932H1402.17C1402.47 439.932 1402.76 439.813 1402.97 439.6C1403.19 439.388 1403.31 439.099 1403.31 438.798V433.109C1403.31 432.809 1403.19 432.52 1402.97 432.307C1402.76 432.095 1402.47 431.975 1402.17 431.975H1398.76Z" fill="#9BC848"/>
<path fillRule="evenodd" clipRule="evenodd" d="M1406.73 426.853C1407.03 426.853 1407.32 426.973 1407.53 427.185C1407.74 427.398 1407.86 427.686 1407.86 427.987V433.676C1407.86 434.58 1407.5 435.447 1406.86 436.086C1406.22 436.725 1405.35 437.085 1404.45 437.088H1402.17C1401.87 437.088 1401.58 436.968 1401.37 436.756C1401.16 436.543 1401.04 436.255 1401.04 435.954C1401.04 435.653 1401.16 435.365 1401.37 435.152C1401.58 434.939 1401.87 434.82 1402.17 434.82H1404.45C1404.75 434.817 1405.04 434.696 1405.25 434.481C1405.47 434.267 1405.58 433.978 1405.58 433.676V428.026C1405.58 427.872 1405.6 427.719 1405.66 427.576C1405.71 427.433 1405.8 427.302 1405.9 427.192C1406.01 427.082 1406.14 426.996 1406.28 426.937C1406.42 426.879 1406.57 426.85 1406.73 426.853Z" fill="#9BC848"/>
<path fillRule="evenodd" clipRule="evenodd" d="M1251.31 233.03C1251.53 232.569 1251.88 232.182 1252.32 231.911C1252.75 231.641 1253.25 231.499 1253.77 231.502H1257C1257.51 231.502 1258.02 231.643 1258.45 231.912C1258.88 232.18 1259.24 232.564 1259.46 233.02L1259.83 233.732C1259.91 233.881 1260.03 234.006 1260.17 234.096C1260.31 234.185 1260.48 234.235 1260.65 234.241H1261.8C1262.53 234.241 1263.23 234.531 1263.75 235.048C1264.27 235.565 1264.56 236.267 1264.57 236.999V245.273C1264.56 246.005 1264.27 246.705 1263.75 247.221C1263.23 247.738 1262.53 248.029 1261.8 248.031H1248.93C1248.2 248.031 1247.5 247.741 1246.98 247.223C1246.46 246.706 1246.17 246.005 1246.17 245.273V236.999C1246.17 236.636 1246.24 236.277 1246.38 235.942C1246.52 235.607 1246.72 235.302 1246.98 235.046C1247.24 234.79 1247.54 234.586 1247.87 234.448C1248.21 234.31 1248.57 234.24 1248.93 234.241H1250.09C1250.25 234.234 1250.42 234.183 1250.56 234.092C1250.71 234.001 1250.82 233.873 1250.9 233.722L1251.27 233.001L1251.31 233.03ZM1252.62 240.718C1252.62 240.17 1252.78 239.633 1253.08 239.177C1253.39 238.72 1253.82 238.364 1254.33 238.153C1254.83 237.943 1255.39 237.887 1255.93 237.993C1256.47 238.1 1256.96 238.364 1257.35 238.751C1257.73 239.139 1258 239.633 1258.1 240.171C1258.21 240.709 1258.16 241.266 1257.94 241.772C1257.73 242.278 1257.38 242.71 1256.92 243.014C1256.46 243.317 1255.93 243.478 1255.38 243.476C1255.02 243.476 1254.66 243.404 1254.32 243.264C1253.98 243.124 1253.68 242.92 1253.42 242.661C1253.17 242.403 1252.96 242.097 1252.83 241.76C1252.69 241.423 1252.62 241.063 1252.62 240.699V240.718ZM1255.38 236.115C1254.47 236.115 1253.58 236.385 1252.82 236.891C1252.07 237.396 1251.48 238.115 1251.13 238.956C1250.78 239.798 1250.69 240.723 1250.87 241.616C1251.04 242.509 1251.48 243.329 1252.13 243.973C1252.77 244.617 1253.59 245.055 1254.48 245.233C1255.38 245.41 1256.3 245.319 1257.14 244.971C1257.98 244.622 1258.7 244.032 1259.21 243.275C1259.71 242.518 1259.98 241.628 1259.98 240.718C1259.99 240.112 1259.87 239.51 1259.64 238.949C1259.41 238.388 1259.07 237.878 1258.64 237.448C1258.22 237.018 1257.71 236.677 1257.15 236.445C1256.59 236.213 1255.99 236.094 1255.38 236.096V236.115Z" fill="white"/>
<path d="M1448.52 373.134L1450.06 375.373L1451.31 373.018L1452.82 375.373L1454.37 373.018" stroke="#003C76" strokeWidth="0.96" strokeLinecap="round" strokeLinejoin="round"/>
<path fillRule="evenodd" clipRule="evenodd" d="M1455.03 383.301H1448.15V381.59H1455.02L1455.03 383.301Z" fill="white"/>
<path fillRule="evenodd" clipRule="evenodd" d="M1447.72 379.87C1447.72 379.983 1447.75 380.095 1447.79 380.2C1447.83 380.304 1447.9 380.399 1447.98 380.478C1448.06 380.558 1448.15 380.621 1448.26 380.663C1448.36 380.706 1448.48 380.727 1448.59 380.725H1454.59C1454.82 380.725 1455.04 380.636 1455.2 380.476C1455.37 380.315 1455.46 380.098 1455.46 379.87V376.987C1456.67 376.16 1457.59 374.966 1458.08 373.58C1458.56 372.194 1458.59 370.688 1458.16 369.284C1457.73 367.881 1456.85 366.653 1455.67 365.78C1454.49 364.908 1453.06 364.437 1451.59 364.437C1450.12 364.437 1448.69 364.908 1447.51 365.78C1446.33 366.653 1445.46 367.881 1445.03 369.284C1444.59 370.688 1444.62 372.194 1445.11 373.58C1445.59 374.966 1446.51 376.16 1447.72 376.987V379.87ZM1450.82 367.483L1449.11 370.894C1449.03 371.022 1449 371.166 1449 371.312C1449 371.459 1449.03 371.603 1449.11 371.731C1449.18 371.855 1449.29 371.957 1449.42 372.027C1449.55 372.098 1449.69 372.135 1449.84 372.134H1451.88L1450.78 374.325L1452.31 375.084L1454.03 371.654C1454.09 371.522 1454.13 371.377 1454.13 371.231C1454.13 371.084 1454.09 370.94 1454.03 370.808C1453.95 370.683 1453.84 370.58 1453.71 370.508C1453.58 370.436 1453.44 370.397 1453.29 370.395H1451.23L1452.33 368.204L1450.79 367.425L1450.82 367.483Z" fill="white"/>
<path d="M1599.64 348.638H1601.45C1601.34 347.576 1600.84 346.593 1600.05 345.878C1599.25 345.164 1598.22 344.769 1597.15 344.769C1596.09 344.769 1595.06 345.164 1594.26 345.878C1593.47 346.593 1592.97 347.576 1592.85 348.638H1594.68C1594.82 348.091 1595.15 347.608 1595.6 347.264C1596.04 346.919 1596.59 346.733 1597.16 346.733C1597.72 346.733 1598.27 346.919 1598.72 347.264C1599.17 347.608 1599.49 348.091 1599.64 348.638Z" fill="#003C76" stroke="#003C76" strokeWidth="0.72" strokeLinecap="round" strokeLinejoin="round"/>
<path fillRule="evenodd" clipRule="evenodd" d="M1623.51 335.482L1623.22 335.241C1622.14 334.333 1620.78 333.832 1619.38 333.829C1618.45 333.83 1617.53 334.043 1616.7 334.451C1615.87 334.859 1615.14 335.452 1614.57 336.183L1614.22 336.606C1613.94 336.719 1613.68 336.868 1613.44 337.048H1609.15L1608.83 336.769C1608.03 336.08 1607.01 335.705 1605.95 335.712C1604.91 335.732 1603.91 336.105 1603.11 336.769C1602.32 337.432 1601.77 338.347 1601.56 339.364L1597.97 343.208C1597.68 343.161 1597.39 343.139 1597.1 343.141C1595.47 343.189 1593.93 343.88 1592.81 345.064C1591.7 346.248 1591.09 347.827 1591.14 349.455C1591.13 350.975 1591.65 352.452 1592.62 353.625L1592.88 353.933V360.122C1592.29 360.496 1591.75 360.945 1591.27 361.457C1590.5 362.28 1589.9 363.243 1589.5 364.292C1589.09 365.352 1588.88 366.48 1588.88 367.617V368.444H1605.33V367.646C1605.32 366.509 1605.11 365.382 1604.7 364.321C1604.3 363.271 1603.69 362.309 1602.92 361.486C1602.45 360.974 1601.91 360.525 1601.33 360.15V353.962L1601.58 353.654C1602.55 352.482 1603.08 351.005 1603.07 349.483C1603.07 349.378 1603.07 349.272 1603.07 349.166L1606.79 345.197C1607.53 345.053 1608.22 344.722 1608.79 344.236L1609.11 343.967H1613.44C1613.68 344.144 1613.95 344.293 1614.22 344.409L1614.57 344.832C1615.14 345.562 1615.87 346.153 1616.7 346.561C1617.53 346.969 1618.45 347.183 1619.38 347.187C1620.78 347.183 1622.14 346.683 1623.22 345.774L1623.51 345.534V341.844L1622.18 343.016C1621.68 343.463 1621.03 343.713 1620.36 343.717C1619.75 343.718 1619.16 343.518 1618.68 343.15C1619.26 342.401 1619.57 341.484 1619.57 340.541C1619.57 339.598 1619.26 338.681 1618.68 337.932C1619.16 337.564 1619.75 337.365 1620.36 337.365C1621.03 337.37 1621.68 337.619 1622.18 338.067L1623.51 339.239V335.482ZM1620.36 335.693C1619.96 336.17 1619.4 336.478 1618.78 336.553C1618.17 336.628 1617.55 336.465 1617.05 336.097C1617.63 335.734 1618.29 335.513 1618.98 335.451C1619.66 335.39 1620.35 335.489 1620.99 335.741C1620.78 335.711 1620.57 335.695 1620.36 335.693ZM1608.01 338.653H1611.62C1611.38 339.233 1611.26 339.853 1611.26 340.479C1611.26 341.105 1611.38 341.725 1611.62 342.305H1608.01C1608.43 341.792 1608.66 341.146 1608.66 340.479C1608.66 339.813 1608.43 339.168 1608.01 338.653ZM1600.03 343.41L1601.27 342.093C1601.49 342.856 1601.89 343.556 1602.43 344.14C1602.97 344.723 1603.63 345.174 1604.37 345.457L1603.05 346.86C1602.48 345.385 1601.42 344.159 1600.03 343.4V343.41ZM1599.64 348.647L1599.78 358.498C1598.07 357.947 1596.24 357.947 1594.53 358.498L1594.68 348.647H1592.58C1592.73 347.536 1593.27 346.516 1594.11 345.776C1594.95 345.037 1596.04 344.629 1597.16 344.629C1598.28 344.629 1599.36 345.037 1600.2 345.776C1601.04 346.516 1601.59 347.536 1601.73 348.647M1619.37 345.524C1618.55 345.523 1617.74 345.294 1617.05 344.861C1617.55 344.493 1618.17 344.329 1618.78 344.404C1619.4 344.479 1619.96 344.787 1620.36 345.265C1620.57 345.263 1620.78 345.247 1620.99 345.217C1620.47 345.418 1619.92 345.519 1619.37 345.515V345.524ZM1615.65 337.942C1616.16 337.895 1616.68 338.005 1617.13 338.257C1617.58 338.509 1617.94 338.892 1618.17 339.354C1618.4 339.816 1618.48 340.337 1618.41 340.847C1618.34 341.358 1618.11 341.835 1617.76 342.215C1617.41 342.595 1616.96 342.861 1616.46 342.978C1615.95 343.094 1615.43 343.056 1614.95 342.868C1614.47 342.681 1614.05 342.352 1613.76 341.925C1613.47 341.499 1613.32 340.995 1613.32 340.479C1613.29 339.833 1613.52 339.202 1613.96 338.725C1614.39 338.247 1615 337.962 1615.65 337.932V337.942ZM1606.04 339.297C1606.28 339.27 1606.52 339.316 1606.73 339.43C1606.95 339.543 1607.12 339.719 1607.23 339.934C1607.34 340.148 1607.38 340.391 1607.35 340.631C1607.32 340.871 1607.22 341.095 1607.06 341.275C1606.9 341.455 1606.69 341.582 1606.45 341.639C1606.22 341.696 1605.97 341.68 1605.75 341.594C1605.52 341.507 1605.33 341.355 1605.19 341.155C1605.05 340.956 1604.98 340.72 1604.98 340.479C1604.96 340.185 1605.06 339.896 1605.25 339.673C1605.44 339.45 1605.71 339.312 1606.01 339.287L1606.04 339.297ZM1603.3 364.869C1603.54 365.486 1603.69 366.133 1603.76 366.791H1590.58C1590.65 366.132 1590.81 365.486 1591.05 364.869C1591.38 364.012 1591.87 363.226 1592.5 362.553C1593.1 361.906 1593.83 361.386 1594.64 361.025C1595.43 360.672 1596.29 360.488 1597.16 360.487C1598.02 360.486 1598.88 360.67 1599.67 361.025C1600.48 361.381 1601.21 361.901 1601.82 362.553C1602.44 363.222 1602.94 364.005 1603.27 364.859L1603.3 364.869Z" fill="#003C76"/>
<path d="M1599.64 348.647L1599.78 358.498C1598.07 357.947 1596.24 357.947 1594.53 358.498L1594.68 348.647H1592.58C1592.73 347.536 1593.27 346.516 1594.11 345.776C1594.95 345.037 1596.04 344.629 1597.16 344.629C1598.28 344.629 1599.36 345.037 1600.2 345.776C1601.04 346.516 1601.59 347.536 1601.73 348.647M1623.51 335.482L1623.22 335.241C1622.14 334.333 1620.78 333.832 1619.38 333.829C1618.45 333.83 1617.53 334.043 1616.7 334.451C1615.87 334.859 1615.14 335.452 1614.57 336.183L1614.22 336.606C1613.94 336.719 1613.68 336.868 1613.44 337.048H1609.15L1608.83 336.769C1608.03 336.08 1607.01 335.705 1605.95 335.712C1604.91 335.732 1603.91 336.105 1603.11 336.769C1602.32 337.432 1601.77 338.347 1601.56 339.364L1597.97 343.208C1597.68 343.161 1597.39 343.139 1597.1 343.141C1595.47 343.189 1593.93 343.88 1592.81 345.064C1591.7 346.248 1591.09 347.827 1591.14 349.455C1591.13 350.975 1591.65 352.452 1592.62 353.625L1592.88 353.933V360.122C1592.29 360.496 1591.75 360.945 1591.27 361.457C1590.5 362.28 1589.9 363.243 1589.5 364.292C1589.09 365.352 1588.88 366.48 1588.88 367.617V368.444H1605.33V367.646C1605.32 366.509 1605.11 365.382 1604.7 364.321C1604.3 363.271 1603.69 362.309 1602.92 361.486C1602.45 360.974 1601.91 360.525 1601.33 360.15V353.962L1601.58 353.654C1602.55 352.482 1603.08 351.005 1603.07 349.483C1603.07 349.378 1603.07 349.272 1603.07 349.166L1606.79 345.197C1607.53 345.053 1608.22 344.722 1608.79 344.236L1609.11 343.967H1613.44C1613.68 344.144 1613.95 344.293 1614.22 344.409L1614.57 344.832C1615.14 345.562 1615.87 346.153 1616.7 346.561C1617.53 346.969 1618.45 347.183 1619.38 347.187C1620.78 347.183 1622.14 346.683 1623.22 345.774L1623.51 345.534V341.844L1622.18 343.016C1621.68 343.463 1621.03 343.713 1620.36 343.717C1619.75 343.718 1619.16 343.518 1618.68 343.15C1619.26 342.401 1619.57 341.484 1619.57 340.541C1619.57 339.598 1619.26 338.681 1618.68 337.932C1619.16 337.564 1619.75 337.365 1620.36 337.365C1621.03 337.37 1621.68 337.619 1622.18 338.067L1623.51 339.239V335.482ZM1620.36 335.693C1619.96 336.17 1619.4 336.478 1618.78 336.553C1618.17 336.628 1617.55 336.465 1617.05 336.097C1617.63 335.734 1618.29 335.513 1618.98 335.451C1619.66 335.39 1620.35 335.489 1620.99 335.741C1620.78 335.711 1620.57 335.695 1620.36 335.693V335.693ZM1608.01 338.653H1611.62C1611.38 339.233 1611.26 339.853 1611.26 340.479C1611.26 341.105 1611.38 341.725 1611.62 342.305H1608.01C1608.43 341.792 1608.66 341.146 1608.66 340.479C1608.66 339.813 1608.43 339.168 1608.01 338.653V338.653ZM1600.03 343.41L1601.27 342.093C1601.49 342.856 1601.89 343.556 1602.43 344.14C1602.97 344.723 1603.63 345.174 1604.37 345.457L1603.05 346.86C1602.48 345.385 1601.42 344.159 1600.03 343.4V343.41ZM1619.37 345.524C1618.55 345.523 1617.74 345.294 1617.05 344.861C1617.55 344.493 1618.17 344.329 1618.78 344.404C1619.4 344.479 1619.96 344.787 1620.36 345.265C1620.57 345.263 1620.78 345.247 1620.99 345.217C1620.47 345.418 1619.92 345.519 1619.37 345.515V345.524ZM1615.65 337.942C1616.16 337.895 1616.68 338.005 1617.13 338.257C1617.58 338.509 1617.94 338.892 1618.17 339.354C1618.4 339.816 1618.48 340.337 1618.41 340.847C1618.34 341.358 1618.11 341.835 1617.76 342.215C1617.41 342.595 1616.96 342.861 1616.46 342.978C1615.95 343.094 1615.43 343.056 1614.95 342.868C1614.47 342.681 1614.05 342.352 1613.76 341.925C1613.47 341.499 1613.32 340.995 1613.32 340.479C1613.29 339.833 1613.52 339.202 1613.96 338.725C1614.39 338.247 1615 337.962 1615.65 337.932V337.942ZM1606.04 339.297C1606.28 339.27 1606.52 339.316 1606.73 339.43C1606.95 339.543 1607.12 339.719 1607.23 339.934C1607.34 340.148 1607.38 340.391 1607.35 340.631C1607.32 340.871 1607.22 341.095 1607.06 341.275C1606.9 341.455 1606.69 341.582 1606.45 341.639C1606.22 341.696 1605.97 341.68 1605.75 341.594C1605.52 341.507 1605.33 341.355 1605.19 341.155C1605.05 340.956 1604.98 340.72 1604.98 340.479C1604.96 340.185 1605.06 339.896 1605.25 339.673C1605.44 339.45 1605.71 339.312 1606.01 339.287L1606.04 339.297ZM1603.3 364.869C1603.54 365.486 1603.69 366.133 1603.76 366.791H1590.58C1590.65 366.132 1590.81 365.486 1591.05 364.869C1591.38 364.012 1591.87 363.226 1592.5 362.553C1593.1 361.906 1593.83 361.386 1594.64 361.025C1595.43 360.672 1596.29 360.488 1597.16 360.487C1598.02 360.486 1598.88 360.67 1599.67 361.025C1600.48 361.381 1601.21 361.901 1601.82 362.553C1602.44 363.222 1602.94 364.005 1603.27 364.859L1603.3 364.869Z" stroke="#003C76" strokeWidth="0.72" strokeLinecap="round" strokeLinejoin="round"/>
<path d="M1450.76 154.142C1450.76 156.084 1450.3 157.999 1449.4 159.722C1448.5 161.446 1447.21 162.927 1445.61 164.041C1444.02 165.155 1442.19 165.868 1440.26 166.119C1438.33 166.371 1436.38 166.153 1434.55 165.485C1432.73 164.817 1431.09 163.719 1429.78 162.283C1428.48 160.847 1427.53 159.117 1427.04 157.239C1426.54 155.361 1426.51 153.391 1426.94 151.496C1427.37 149.602 1428.25 147.839 1429.5 146.358L1428.61 145.474C1428.42 145.284 1428.32 145.028 1428.32 144.763C1428.32 144.497 1428.42 144.242 1428.61 144.052C1428.7 143.952 1428.81 143.873 1428.93 143.819C1429.05 143.765 1429.19 143.737 1429.32 143.737C1429.45 143.737 1429.59 143.765 1429.71 143.819C1429.83 143.873 1429.94 143.952 1430.03 144.052L1439.41 153.431C1439.58 153.56 1439.69 153.741 1439.75 153.944C1439.8 154.147 1439.79 154.363 1439.71 154.557C1439.62 154.751 1439.48 154.913 1439.3 155.019C1439.12 155.124 1438.91 155.167 1438.7 155.141C1438.43 155.14 1438.18 155.037 1437.99 154.853L1436.26 153.114C1436.12 153.439 1436.05 153.788 1436.05 154.142C1436.05 154.672 1436.2 155.191 1436.5 155.632C1436.79 156.072 1437.21 156.416 1437.7 156.619C1438.19 156.822 1438.73 156.875 1439.25 156.772C1439.77 156.668 1440.25 156.413 1440.62 156.038C1441 155.663 1441.25 155.185 1441.36 154.665C1441.46 154.145 1441.41 153.606 1441.21 153.116C1441 152.626 1440.66 152.207 1440.22 151.913C1439.78 151.618 1439.26 151.461 1438.73 151.461V147.732C1440.17 147.723 1441.57 148.199 1442.7 149.084C1443.84 149.969 1444.64 151.21 1444.98 152.608C1445.33 154.005 1445.19 155.478 1444.59 156.787C1443.99 158.097 1442.97 159.167 1441.69 159.824C1440.41 160.482 1438.95 160.69 1437.54 160.413C1436.13 160.136 1434.85 159.392 1433.91 158.3C1432.97 157.207 1432.43 155.831 1432.37 154.393C1432.31 152.956 1432.74 151.54 1433.59 150.375L1432.15 148.933C1430.98 150.424 1430.35 152.266 1430.37 154.16C1430.38 156.053 1431.04 157.885 1432.23 159.358C1433.42 160.83 1435.07 161.855 1436.92 162.265C1438.77 162.676 1440.7 162.447 1442.4 161.617C1444.11 160.788 1445.48 159.405 1446.29 157.696C1447.11 155.987 1447.32 154.053 1446.89 152.208C1446.46 150.363 1445.42 148.718 1443.94 147.54C1442.46 146.362 1440.62 145.722 1438.73 145.724V142.043C1440.31 142.047 1441.88 142.363 1443.34 142.973C1444.81 143.583 1446.13 144.476 1447.25 145.599C1448.37 146.723 1449.25 148.056 1449.86 149.521C1450.46 150.987 1450.76 152.557 1450.76 154.142Z" fill="white"/>
<path fillRule="evenodd" clipRule="evenodd" d="M1741.34 323.517C1741.22 323.404 1741.08 323.323 1740.92 323.284C1740.77 323.245 1740.61 323.249 1740.45 323.296L1735.34 325.007C1735.18 325.059 1735.04 325.16 1734.95 325.295L1735.02 325.228C1735.1 325.146 1735.19 325.081 1735.3 325.037C1735.4 324.992 1735.51 324.969 1735.62 324.969C1735.74 324.969 1735.85 324.992 1735.95 325.037C1736.05 325.081 1736.15 325.146 1736.22 325.228L1739.63 328.63C1739.72 328.719 1739.78 328.828 1739.82 328.948C1739.86 329.069 1739.87 329.196 1739.86 329.322L1741.52 324.353C1741.56 324.21 1741.57 324.058 1741.54 323.911C1741.51 323.765 1741.44 323.629 1741.34 323.517Z" fill="white"/>
<path fillRule="evenodd" clipRule="evenodd" d="M1739.2 330.004C1739.07 330.037 1738.92 330.034 1738.78 329.995C1738.64 329.957 1738.52 329.884 1738.42 329.783L1735 326.372C1734.9 326.27 1734.83 326.144 1734.79 326.006C1734.75 325.868 1734.75 325.723 1734.78 325.584C1734.82 325.469 1734.87 325.361 1734.95 325.267L1729.33 330.965H1729.64C1729.81 330.966 1729.98 331.016 1730.12 331.11C1730.26 331.204 1730.37 331.338 1730.43 331.494C1730.5 331.652 1730.53 331.83 1730.5 332.002C1730.47 332.174 1730.38 332.332 1730.26 332.455L1727.7 335.011C1727.62 335.09 1727.53 335.153 1727.43 335.196C1727.32 335.239 1727.21 335.261 1727.1 335.261C1726.99 335.261 1726.88 335.239 1726.78 335.196C1726.67 335.153 1726.58 335.09 1726.5 335.011V335.069L1729.9 338.48C1729.82 338.402 1729.76 338.308 1729.72 338.205C1729.67 338.102 1729.65 337.991 1729.65 337.88C1729.65 337.768 1729.67 337.657 1729.72 337.554C1729.76 337.451 1729.82 337.358 1729.9 337.279L1732.47 334.723C1732.59 334.603 1732.74 334.521 1732.91 334.488C1733.07 334.455 1733.24 334.472 1733.4 334.537C1733.56 334.602 1733.69 334.711 1733.78 334.852C1733.88 334.993 1733.93 335.159 1733.93 335.328V335.713L1739.69 329.947C1739.83 329.804 1739.91 329.622 1739.93 329.428V329.581C1739.85 329.707 1739.75 329.812 1739.62 329.886C1739.49 329.96 1739.35 330 1739.2 330.004Z" fill="white"/>
<path fillRule="evenodd" clipRule="evenodd" d="M1726.5 333.752L1729.33 330.869H1724.52C1724.35 330.868 1724.19 330.916 1724.05 331.009C1723.91 331.101 1723.8 331.233 1723.74 331.387C1723.67 331.541 1723.65 331.712 1723.69 331.876C1723.72 332.04 1723.8 332.192 1723.92 332.31L1726.43 334.828C1726.31 334.671 1726.25 334.475 1726.26 334.277C1726.28 334.079 1726.36 333.892 1726.5 333.752Z" fill="white"/>
<path fillRule="evenodd" clipRule="evenodd" d="M1729.93 338.374L1732.46 340.911C1732.58 341.03 1732.73 341.11 1732.89 341.142C1733.06 341.174 1733.23 341.155 1733.38 341.089C1733.54 341.023 1733.67 340.912 1733.76 340.771C1733.85 340.63 1733.9 340.465 1733.9 340.296V335.568L1731.1 338.365C1730.95 338.518 1730.74 338.604 1730.52 338.606C1730.3 338.607 1730.09 338.525 1729.93 338.374Z" fill="white"/>
<path d="M1726.51 337.167L1723.1 340.578L1724.3 341.781L1727.71 338.369L1726.51 337.167Z" fill="white"/>
<path fillRule="evenodd" clipRule="evenodd" d="M1723.1 340.566L1723.09 340.556L1723.1 340.566Z" fill="white"/>
<path d="M1728.19 338.828L1726.49 340.534L1727.69 341.737L1729.39 340.031L1728.19 338.828Z" fill="white"/>
<path d="M1724.82 335.487L1723.12 337.192L1724.32 338.395L1726.03 336.689L1724.82 335.487Z" fill="white"/>
<path fillRule="evenodd" clipRule="evenodd" d="M1561.54 166.971V167.134C1561.66 167.547 1561.69 167.982 1561.61 168.404C1561.53 168.827 1561.36 169.227 1561.1 169.571C1560.85 169.915 1560.51 170.194 1560.13 170.387C1559.74 170.579 1559.32 170.68 1558.89 170.681H1558.66C1558.07 170.686 1557.49 170.502 1557.02 170.156C1556.54 169.81 1556.19 169.32 1556.01 168.759L1555.49 167.038H1548.54C1548.4 167.037 1548.27 167.004 1548.15 166.942C1547.25 166.754 1546.43 166.272 1545.84 165.573C1545.24 164.873 1544.9 163.995 1544.86 163.076C1544.81 162.158 1545.08 161.253 1545.61 160.501C1546.14 159.75 1546.9 159.197 1547.78 158.928C1548.04 158.076 1548.56 157.329 1549.27 156.798C1549.99 156.267 1550.85 155.979 1551.74 155.977H1551.93C1552.31 155.405 1552.83 154.936 1553.43 154.613C1554.04 154.291 1554.72 154.124 1555.4 154.129C1556.09 154.134 1556.77 154.309 1557.37 154.641C1557.97 154.972 1558.48 155.448 1558.85 156.025C1559.6 156.162 1560.3 156.504 1560.87 157.013C1561.44 157.521 1561.86 158.177 1562.08 158.908C1562.99 159.18 1563.77 159.753 1564.3 160.532C1564.84 161.311 1565.09 162.249 1565.01 163.191C1564.94 164.132 1564.54 165.02 1563.9 165.706C1563.25 166.392 1562.38 166.835 1561.45 166.961L1561.54 166.971ZM1554.64 156.89L1552.8 160.11C1552.72 160.247 1552.68 160.404 1552.68 160.563C1552.68 160.722 1552.72 160.878 1552.8 161.015C1552.88 161.153 1552.99 161.267 1553.13 161.346C1553.27 161.425 1553.43 161.466 1553.59 161.465H1555.68L1554.61 163.31L1556.21 164.271L1558.04 161.051C1558.11 160.909 1558.15 160.752 1558.14 160.593C1558.14 160.434 1558.09 160.28 1558.01 160.143C1557.93 160.006 1557.82 159.891 1557.68 159.808C1557.55 159.725 1557.4 159.677 1557.24 159.668H1555.14L1556.19 157.822L1554.59 156.861L1554.64 156.89Z" fill="#9BC848"/>
<path d="M1632.18 221.133H1619.75C1619.54 221.081 1619.36 220.961 1619.23 220.792C1619.1 220.623 1619.02 220.415 1619.02 220.201C1619.02 219.987 1619.1 219.779 1619.23 219.61C1619.36 219.441 1619.54 219.321 1619.75 219.269H1632.18C1632.32 219.233 1632.47 219.231 1632.61 219.261C1632.75 219.291 1632.89 219.353 1633 219.443C1633.12 219.533 1633.21 219.648 1633.27 219.779C1633.34 219.911 1633.37 220.055 1633.37 220.201C1633.37 220.347 1633.34 220.491 1633.27 220.622C1633.21 220.754 1633.12 220.869 1633 220.959C1632.89 221.048 1632.75 221.111 1632.61 221.141C1632.47 221.171 1632.32 221.169 1632.18 221.133ZM1637.15 203.095V212.465C1637.15 215.136 1635.9 216.472 1633.42 216.472H1618.51C1616.03 216.472 1614.78 215.136 1614.78 212.465V203.095C1614.78 200.424 1616.03 199.078 1618.51 199.078H1633.42C1635.91 199.078 1637.15 200.424 1637.15 203.095ZM1629.17 206.853L1625.26 204.46C1625.08 204.351 1624.88 204.291 1624.68 204.284C1624.47 204.278 1624.27 204.326 1624.09 204.424C1623.91 204.521 1623.76 204.665 1623.65 204.84C1623.54 205.015 1623.48 205.216 1623.48 205.421V210.072C1623.49 210.276 1623.55 210.475 1623.66 210.648C1623.76 210.821 1623.91 210.964 1624.09 211.061C1624.27 211.158 1624.48 211.206 1624.68 211.202C1624.88 211.197 1625.08 211.139 1625.26 211.033L1629.17 208.64C1629.32 208.542 1629.44 208.409 1629.52 208.253C1629.6 208.097 1629.65 207.923 1629.65 207.746C1629.65 207.57 1629.6 207.396 1629.52 207.24C1629.44 207.084 1629.32 206.951 1629.17 206.853Z" fill="#003C76"/>
<path d="M1688.65 288.412H1688.4V286.077C1688.39 285.846 1688.3 285.625 1688.14 285.462L1685.81 283.127C1685.73 283.044 1685.63 282.979 1685.52 282.934C1685.42 282.89 1685.3 282.867 1685.19 282.867H1677.03C1676.49 282.87 1675.97 283.087 1675.59 283.47C1675.2 283.854 1674.99 284.373 1674.99 284.914V288.412H1674.7C1672.36 288.412 1671.2 289.578 1671.2 291.91V298.291C1671.2 298.521 1671.25 298.749 1671.33 298.962C1671.42 299.175 1671.55 299.368 1671.71 299.531C1671.88 299.694 1672.07 299.822 1672.28 299.91C1672.49 299.997 1672.72 300.042 1672.95 300.04H1674.94V303.538C1674.94 304.078 1675.16 304.595 1675.54 304.976C1675.92 305.358 1676.44 305.573 1676.98 305.576H1686.31C1686.85 305.573 1687.37 305.358 1687.75 304.976C1688.13 304.595 1688.34 304.078 1688.35 303.538V300.04H1690.38C1690.62 300.043 1690.84 300 1691.06 299.913C1691.27 299.826 1691.47 299.697 1691.63 299.534C1691.79 299.372 1691.92 299.178 1692.01 298.964C1692.1 298.751 1692.14 298.522 1692.14 298.291V291.882C1692.14 289.569 1690.98 288.412 1688.65 288.412ZM1676.7 284.914C1676.7 284.837 1676.73 284.763 1676.78 284.707C1676.84 284.651 1676.91 284.619 1676.99 284.616H1684.79L1686.61 286.442V288.412H1676.7V284.914ZM1686.61 303.567C1686.61 303.606 1686.6 303.644 1686.59 303.679C1686.57 303.715 1686.55 303.747 1686.53 303.774C1686.5 303.801 1686.47 303.822 1686.43 303.836C1686.4 303.85 1686.36 303.857 1686.32 303.856H1676.99C1676.95 303.857 1676.91 303.85 1676.88 303.836C1676.84 303.822 1676.81 303.801 1676.78 303.774C1676.75 303.747 1676.73 303.715 1676.72 303.679C1676.71 303.644 1676.7 303.606 1676.7 303.567V298.609H1686.61V303.567ZM1687.48 294.236C1687.25 294.236 1687.03 294.168 1686.84 294.04C1686.65 293.912 1686.5 293.731 1686.41 293.518C1686.32 293.306 1686.3 293.072 1686.34 292.846C1686.39 292.621 1686.5 292.414 1686.66 292.251C1686.82 292.088 1687.03 291.978 1687.26 291.933C1687.48 291.888 1687.71 291.911 1687.93 291.999C1688.14 292.087 1688.32 292.236 1688.45 292.427C1688.58 292.618 1688.65 292.843 1688.65 293.073C1688.65 293.382 1688.52 293.677 1688.3 293.895C1688.09 294.114 1687.79 294.236 1687.48 294.236Z" fill="#9BC848"/>
</g>
<defs>
<linearGradient id="paint0_linear_8190_118115" x1="430.055" y1="225.174" x2="-102.194" y2="1219.13" gradientUnits="userSpaceOnUse">
<stop stopColor="#88C3FF"/>
<stop offset="0.493055" stopColor="#A2EADD"/>
<stop offset="1" stopColor="#C5EA81"/>
</linearGradient>
<linearGradient id="paint1_linear_8190_118115" x1="1944.04" y1="-409.229" x2="856.897" y2="1069.31" gradientUnits="userSpaceOnUse">
<stop stopColor="#88C3FF"/>
<stop offset="0.493055" stopColor="#A2EADD"/>
<stop offset="1" stopColor="#C5EA81"/>
</linearGradient>
<linearGradient id="paint2_linear_8190_118115" x1="1934.83" y1="-111.635" x2="1283.05" y2="1334.33" gradientUnits="userSpaceOnUse">
<stop stopColor="#88C3FF"/>
<stop offset="0.493055" stopColor="#A2EADD"/>
<stop offset="1" stopColor="#C5EA81"/>
</linearGradient>
<clipPath id="clip0_8190_118115">
<rect width="800" height="768.153" fill="white" transform="translate(959 133)"/>
</clipPath>
</defs>
</svg>
