<svg width="61" height="60" viewBox="0 0 61 60" fill="none" xmlns="http://www.w3.org/2000/svg">
<path d="M7.24419 5C6.2809 5 5.5 5.7809 5.5 6.74419V53.2558C5.5 54.2191 6.2809 55 7.24419 55H53.7558C54.7191 55 55.5 54.2191 55.5 53.2558V6.74419C55.5 5.7809 54.7191 5 53.7558 5H7.24419Z" fill="#ECEFF1"/>
<path d="M7.24419 5C6.2809 5 5.5 5.7809 5.5 6.74419V18.3721C5.5 19.3354 6.2809 20.1163 7.24419 20.1163H53.7558C54.7191 20.1163 55.5 19.3354 55.5 18.3721V6.74419C55.5 5.7809 54.7191 5 53.7558 5H7.24419Z" fill="#999999"/>
<path fill-rule="evenodd" clip-rule="evenodd" d="M11.3125 12.5584C11.3125 11.5951 12.0934 10.8142 13.0567 10.8142H17.7078C18.6711 10.8142 19.452 11.5951 19.452 12.5584C19.452 13.5217 18.6711 14.3026 17.7078 14.3026H13.0567C12.0934 14.3026 11.3125 13.5217 11.3125 12.5584Z" fill="#ECEFF1"/>
<path fill-rule="evenodd" clip-rule="evenodd" d="M20.6152 12.5584C20.6152 11.5951 21.3961 10.8142 22.3594 10.8142H27.0106C27.9739 10.8142 28.7548 11.5951 28.7548 12.5584C28.7548 13.5217 27.9739 14.3026 27.0106 14.3026H22.3594C21.3961 14.3026 20.6152 13.5217 20.6152 12.5584Z" fill="#ECEFF1"/>
<path fill-rule="evenodd" clip-rule="evenodd" d="M29.918 12.5584C29.918 11.5951 30.6989 10.8142 31.6622 10.8142H36.3133C37.2766 10.8142 38.0575 11.5951 38.0575 12.5584C38.0575 13.5217 37.2766 14.3026 36.3133 14.3026H31.6622C30.6989 14.3026 29.918 13.5217 29.918 12.5584Z" fill="#ECEFF1"/>
<path d="M16.545 22.442C15.5817 22.442 14.8008 23.2229 14.8008 24.1862V40.4653C14.8008 41.1085 15.1548 41.6996 15.722 42.0031C16.2891 42.3066 16.9773 42.2733 17.5125 41.9165L24.0498 37.5583H35.1496C36.1129 37.5583 36.8938 36.7774 36.8938 35.8141V24.1862C36.8938 23.2229 36.1129 22.442 35.1496 22.442H16.545Z" fill="#399BFF"/>
<path fill-rule="evenodd" clip-rule="evenodd" d="M46.1992 31.1631C46.1992 30.1998 45.4183 29.4189 44.455 29.4189H39.8039C38.8406 29.4189 38.0597 30.1998 38.0597 31.1631C38.0597 32.1264 38.8406 32.9073 39.8039 32.9073H42.7108V44.6201L38.2583 42.3938C38.0161 42.2727 37.7491 42.2096 37.4783 42.2096H27.5946V40.4655C27.5946 39.5022 26.8137 38.7213 25.8504 38.7213C24.8871 38.7213 24.1062 39.5022 24.1062 40.4655V43.9538C24.1062 44.9171 24.8871 45.698 25.8504 45.698H37.0665L43.675 49.0022C44.2157 49.2726 44.8578 49.2437 45.372 48.9259C45.8862 48.6081 46.1992 48.0467 46.1992 47.4422V31.1631Z" fill="#399BFF"/>
</svg>
