<svg width="61" height="60" viewBox="0 0 61 60" fill="none" xmlns="http://www.w3.org/2000/svg">
<path d="M6.30959 4C5.31018 4 4.5 4.81018 4.5 5.80959V44.4142C4.5 45.4137 5.31018 46.2238 6.30959 46.2238H18.2009L29.279 55.4556C29.8184 55.9051 30.5692 56.002 31.205 55.7042C31.8409 55.4063 32.2471 54.7676 32.2471 54.0654V46.2238H54.5654C55.5648 46.2238 56.375 45.4137 56.375 44.4142V5.80959C56.375 4.81018 55.5648 4 54.5654 4H6.30959Z" fill="#ECEFF1"/>
<path d="M32.732 12.3964L33.9202 8.49072L35.1085 12.3964L37.4849 13.6983L35.1085 15.0002L33.9202 18.472L32.732 15.0002L30.3555 13.6983L32.732 12.3964Z" fill="#399BFF"/>
<path d="M12.1259 23.6578L13.1576 21.2356L14.1893 23.6578L16.2526 24.4653L14.1893 25.2727L13.1576 27.4258L12.1259 25.2727L10.0625 24.4653L12.1259 23.6578Z" fill="#399BFF"/>
<path d="M15.5332 35.8861L23.374 22.1647L37.0955 30.0055L46.8965 14.3239" stroke="#999999" stroke-width="2"/>
<circle cx="15.5298" cy="35.885" r="3.92041" fill="#399BFF"/>
<circle cx="23.3696" cy="22.1646" r="3.92041" fill="#399BFF"/>
<circle cx="37.0942" cy="30.0061" r="3.92041" fill="#399BFF"/>
<circle cx="46.895" cy="14.3235" r="3.92041" fill="#399BFF"/>
</svg>
