<svg width="61" height="60" viewBox="0 0 61 60" fill="none" xmlns="http://www.w3.org/2000/svg">
<g clip-path="url(#clip0_7507_118892)">
<path d="M14.875 3.33333C9.69733 3.33333 5.5 7.53066 5.5 12.7083V47.7083C5.5 52.886 9.69733 57.0833 14.875 57.0833H39.875C45.0527 57.0833 49.25 52.886 49.25 47.7083V12.7083C49.25 7.53066 45.0527 3.33333 39.875 3.33333H14.875Z" fill="#ECEFF1"/>
<path fill-rule="evenodd" clip-rule="evenodd" d="M15.5 17.7083C15.5 16.6728 16.3395 15.8333 17.375 15.8333H37.375C38.4105 15.8333 39.25 16.6728 39.25 17.7083C39.25 18.7439 38.4105 19.5833 37.375 19.5833H17.375C16.3395 19.5833 15.5 18.7439 15.5 17.7083Z" fill="#8B98A6"/>
<path fill-rule="evenodd" clip-rule="evenodd" d="M15.5 30.2083C15.5 29.1728 16.3395 28.3333 17.375 28.3333H37.375C38.4105 28.3333 39.25 29.1728 39.25 30.2083C39.25 31.2439 38.4105 32.0833 37.375 32.0833H17.375C16.3395 32.0833 15.5 31.2439 15.5 30.2083Z" fill="#8B98A6"/>
<path fill-rule="evenodd" clip-rule="evenodd" d="M15.5 42.7083C15.5 41.6728 16.3395 40.8333 17.375 40.8333H27.375C28.4105 40.8333 29.25 41.6728 29.25 42.7083C29.25 43.7439 28.4105 44.5833 27.375 44.5833H17.375C16.3395 44.5833 15.5 43.7439 15.5 42.7083Z" fill="#8B98A6"/>
<path d="M59.877 37.3419L56.6068 40.615C56.1818 41.0275 55.6121 41.2569 55.0198 41.2541C54.4276 41.2513 53.8601 41.0165 53.439 40.6L51.9101 39.0684C51.7027 38.8618 51.5382 38.6163 51.426 38.346C51.3137 38.0756 51.2559 37.7858 51.2559 37.4931C51.2559 37.2003 51.3137 36.9105 51.426 36.6402C51.5382 36.3698 51.7027 36.1243 51.9101 35.9177L55.1578 32.6296C53.8938 32.1211 52.5282 31.9161 51.1706 32.0311C49.813 32.1461 48.5013 32.5778 47.3408 33.2917C46.2662 33.9211 45.3602 34.8016 44.7001 35.8577C44.6516 35.917 44.6112 35.9826 44.5802 36.0526C43.5065 37.7801 43.0765 39.831 43.3661 41.8443C43.4166 42.1825 43.3856 42.5279 43.2757 42.8517C43.1657 43.1754 42.98 43.4683 42.734 43.7058L34.7521 51.7012C33.9504 52.503 33.5 53.5905 33.5 54.7244C33.5 55.8584 33.9504 56.9459 34.7521 57.7477C35.5538 58.5495 36.6412 59 37.775 59C38.9088 59 39.9962 58.5495 40.7979 57.7477L48.7923 49.7523C49.0295 49.5067 49.3219 49.3215 49.6452 49.212C49.9686 49.1024 50.3134 49.0718 50.651 49.1227C52.6584 49.4108 54.7033 48.9855 56.4294 47.9208C57.5657 47.2511 58.5151 46.3058 59.19 45.1724C59.91 44.0123 60.3473 42.6992 60.4667 41.3391C60.586 39.9789 60.384 38.6097 59.877 37.3419V37.3419ZM38.0298 56.0112C37.6323 56.0132 37.2502 55.8572 36.9677 55.5774C36.6852 55.2977 36.5254 54.9172 36.5234 54.5196C36.5214 54.122 36.6774 53.7399 36.9571 53.4573C37.2368 53.1748 37.6173 53.0149 38.0148 53.0129H38.0298C38.4274 53.0129 38.8086 53.1709 39.0897 53.452C39.3708 53.7332 39.5288 54.1145 39.5288 54.5121C39.5288 54.9097 39.3708 55.291 39.0897 55.5721C38.8086 55.8533 38.4274 56.0112 38.0298 56.0112Z" fill="#399BFF"/>
</g>
<defs>
<clipPath id="clip0_7507_118892">
<rect width="60" height="60" fill="white" transform="translate(0.5)"/>
</clipPath>
</defs>
</svg>
