<svg width="81" height="45" viewBox="0 0 81 45" fill="none" xmlns="http://www.w3.org/2000/svg">
<rect x="2.3999" y="6.95508" width="1.57307" height="7.86537" fill="white"/>
<rect x="11.1079" y="4.73047" width="1.57307" height="25.7417" fill="white"/>
<rect x="6.84912" y="2.50586" width="1.57307" height="6.29229" transform="rotate(45 6.84912 2.50586)" fill="white"/>
<rect x="13.3325" y="2.50586" width="1.57307" height="3.14615" transform="rotate(45 13.3325 2.50586)" fill="white"/>
<rect x="7.96191" y="18.1577" width="1.57307" height="6.29229" transform="rotate(135 7.96191 18.1577)" fill="white"/>
<rect x="7.96191" y="26.0229" width="1.57307" height="7.86537" transform="rotate(-180 7.96191 26.0229)" fill="white"/>
<rect x="16.6694" y="30.4722" width="1.57307" height="12.3147" transform="rotate(-180 16.6694 30.4722)" fill="white"/>
<rect x="30.8271" y="26.0229" width="1.57307" height="7.86537" transform="rotate(-180 30.8271 26.0229)" fill="white"/>
<rect x="35.2764" y="30.4722" width="1.57307" height="12.3147" transform="rotate(-180 35.2764 30.4722)" fill="white"/>
<rect x="21.3887" y="30.4722" width="1.57307" height="14.9243" transform="rotate(-180 21.3887 30.4722)" fill="white"/>
<rect x="16.6694" y="18.1577" width="1.57307" height="6.29229" transform="rotate(135 16.6694 18.1577)" fill="white"/>
<rect x="34.8159" y="29.3599" width="1.57307" height="6.29229" transform="rotate(135 34.8159 29.3599)" fill="white"/>
<rect x="3.51221" y="30.4722" width="1.57307" height="6.29229" transform="rotate(-135 3.51221 30.4722)" fill="white"/>
<path fill-rule="evenodd" clip-rule="evenodd" d="M20.6022 16.5848C21.8185 16.5848 22.8045 15.5988 22.8045 14.3825C22.8045 13.1662 21.8185 12.1802 20.6022 12.1802C19.3859 12.1802 18.3999 13.1662 18.3999 14.3825C18.3999 15.5988 19.3859 16.5848 20.6022 16.5848ZM20.6027 15.169C21.0371 15.169 21.3892 14.8168 21.3892 14.3824C21.3892 13.9481 21.0371 13.5959 20.6027 13.5959C20.1683 13.5959 19.8161 13.9481 19.8161 14.3824C19.8161 14.8168 20.1683 15.169 20.6027 15.169Z" fill="white"/>
<path fill-rule="evenodd" clip-rule="evenodd" d="M7.96158 4.70832C9.17788 4.70832 10.1639 3.72231 10.1639 2.50601C10.1639 1.28972 9.17788 0.303711 7.96158 0.303711C6.74528 0.303711 5.75928 1.28972 5.75928 2.50601C5.75928 3.72231 6.74528 4.70832 7.96158 4.70832ZM7.96164 3.2928C8.39603 3.2928 8.74818 2.94066 8.74818 2.50626C8.74818 2.07187 8.39603 1.71973 7.96164 1.71973C7.52725 1.71973 7.1751 2.07187 7.1751 2.50626C7.1751 2.94066 7.52725 3.2928 7.96164 3.2928Z" fill="white"/>
<rect x="28.9839" y="2.50586" width="1.57307" height="6.29229" transform="rotate(45 28.9839 2.50586)" fill="white"/>
<path fill-rule="evenodd" clip-rule="evenodd" d="M30.0963 4.70832C31.3126 4.70832 32.2986 3.72231 32.2986 2.50601C32.2986 1.28972 31.3126 0.303711 30.0963 0.303711C28.88 0.303711 27.894 1.28972 27.894 2.50601C27.894 3.72231 28.88 4.70832 30.0963 4.70832ZM30.0964 3.2928C30.5308 3.2928 30.883 2.94066 30.883 2.50626C30.883 2.07187 30.5308 1.71973 30.0964 1.71973C29.662 1.71973 29.3099 2.07187 29.3099 2.50626C29.3099 2.94066 29.662 3.2928 30.0964 3.2928Z" fill="white"/>
<path fill-rule="evenodd" clip-rule="evenodd" d="M2.40006 32.6746C3.61635 32.6746 4.60236 31.6886 4.60236 30.4723C4.60236 29.256 3.61635 28.27 2.40006 28.27C1.18376 28.27 0.197754 29.256 0.197754 30.4723C0.197754 31.6886 1.18376 32.6746 2.40006 32.6746ZM2.40031 31.2588C2.8347 31.2588 3.18684 30.9067 3.18684 30.4723C3.18684 30.0379 2.8347 29.6858 2.40031 29.6858C1.96591 29.6858 1.61377 30.0379 1.61377 30.4723C1.61377 30.9067 1.96591 31.2588 2.40031 31.2588Z" fill="white"/>
<rect x="26.1079" y="38.3379" width="1.57307" height="31.3824" transform="rotate(-180 26.1079 38.3379)" fill="white"/>
<rect x="21.6582" y="42.7871" width="1.57307" height="6.29229" transform="rotate(-135 21.6582 42.7871)" fill="white"/>
<path fill-rule="evenodd" clip-rule="evenodd" d="M20.5461 44.9896C21.7624 44.9896 22.7484 44.0036 22.7484 42.7873C22.7484 41.571 21.7624 40.585 20.5461 40.585C19.3298 40.585 18.3438 41.571 18.3438 42.7873C18.3438 44.0036 19.3298 44.9896 20.5461 44.9896ZM20.546 43.5741C20.9804 43.5741 21.3326 43.2219 21.3326 42.7875C21.3326 42.3531 20.9804 42.001 20.546 42.001C20.1116 42.001 19.7595 42.3531 19.7595 42.7875C19.7595 43.2219 20.1116 43.5741 20.546 43.5741Z" fill="white"/>
<circle cx="25.3214" cy="18.1579" r="1.69105" fill="white"/>
<path d="M67.3665 26.023H65.7935L65.7935 17.8877L67.3665 17.8877L67.3665 26.023Z" fill="#B9D1EB"/>
<path d="M71.8159 30.4723H70.2428L70.2428 17.8877L71.8159 17.8877L71.8159 30.4723Z" fill="#B9D1EB"/>
<path d="M71.3551 29.36L70.2428 30.4723L65.7935 26.023L66.9058 24.9106L71.3551 29.36Z" fill="#B9D1EB"/>
<path d="M58.9847 30.4723H57.4116L57.4116 17.8877L58.9847 17.8877L58.9847 30.4723Z" fill="#B9D1EB"/>
<path d="M63.434 26.023H61.861L61.861 22.337L63.434 22.337L63.434 26.023Z" fill="#B9D1EB"/>
<path d="M63.434 22.337L62.3217 23.4494L57.8724 19L58.9847 17.8877L63.434 22.337Z" fill="#B9D1EB"/>
<path d="M58.9847 30.4723L57.8724 29.36L62.3217 24.9106L63.434 26.023L58.9847 30.4723Z" fill="#B9D1EB"/>
<path d="M78.6251 6.94922H80.1982V30.4721H78.6251V6.94922Z" fill="#B9D1EB"/>
<path d="M74.1758 22.3368H75.7489V26.0227H74.1758V22.3368Z" fill="#B9D1EB"/>
<path d="M74.1758 26.0227L75.2881 24.9104L79.7374 29.3597L78.6251 30.4721L74.1758 26.0227Z" fill="#B9D1EB"/>
<path d="M78.6251 17.8875L79.7375 18.9998L75.2881 23.4491L74.1758 22.3368L78.6251 17.8875Z" fill="#B9D1EB"/>
<path d="M51.0628 26.0227H49.4898L49.4897 6.94922L51.0628 6.94922L51.0628 26.0227Z" fill="#B9D1EB"/>
<path d="M55.0514 29.3597L53.9391 30.472L49.4898 26.0227L50.6021 24.9104L55.0514 29.3597Z" fill="#B9D1EB"/>
<path d="M41.5688 11.3985H43.1419V26.0227H41.5688V11.3985Z" fill="#B9D1EB"/>
<path d="M46.0182 6.94922L47.1305 8.06155L42.6812 12.5109L41.5689 11.3985L46.0182 6.94922Z" fill="#B9D1EB"/>
<path d="M47.1305 29.3597L46.0182 30.4721L41.5689 26.0227L42.6812 24.9104L47.1305 29.3597Z" fill="#B9D1EB"/>
</svg>
