<svg width="31" height="40" viewBox="0 0 31 40" fill="none" xmlns="http://www.w3.org/2000/svg">
<path d="M1.93752 6.58237H3.28267V13.3081H1.93752V6.58237Z" fill="#399BFF"/>
<path d="M9.38363 4.68005H10.7288V26.6919H9.38363V4.68005Z" fill="#399BFF"/>
<path d="M5.74218 2.77773L6.69334 3.72889L2.8887 7.53353L1.93754 6.58237L5.74218 2.77773Z" fill="#399BFF"/>
<path d="M11.286 2.77773L12.2371 3.72889L10.3348 5.63121L9.38364 4.68005L11.286 2.77773Z" fill="#399BFF"/>
<path d="M6.69334 16.1616L5.74218 17.1127L1.93754 13.3081L2.8887 12.3569L6.69334 16.1616Z" fill="#399BFF"/>
<path d="M6.69334 22.8873H5.3482L5.3482 16.1616H6.69334V22.8873Z" fill="#399BFF"/>
<path d="M14.1394 26.6919H12.7943L12.7943 16.1616H14.1394L14.1394 26.6919Z" fill="#399BFF"/>
<path d="M26.2457 22.8873H24.9006V16.1616H26.2457V22.8873Z" fill="#399BFF"/>
<path d="M30.0504 26.6919H28.7052V16.1616H30.0504V26.6919Z" fill="#399BFF"/>
<path d="M18.1749 26.6919H16.8297L16.8297 13.93H18.1749L18.1749 26.6919Z" fill="#399BFF"/>
<path d="M14.1394 16.1616L13.1883 17.1127L9.38362 13.3081L10.3348 12.3569L14.1394 16.1616Z" fill="#399BFF"/>
<path d="M29.6564 25.7408L28.7052 26.6919L24.9006 22.8873L25.8517 21.9361L29.6564 25.7408Z" fill="#399BFF"/>
<path d="M2.88869 26.6919L1.93753 25.7408L5.74217 21.9361L6.69333 22.8873L2.88869 26.6919Z" fill="#399BFF"/>
<path fill-rule="evenodd" clip-rule="evenodd" d="M17.5023 14.8164C18.5423 14.8164 19.3855 13.9733 19.3855 12.9332C19.3855 11.8932 18.5423 11.05 17.5023 11.05C16.4622 11.05 15.6191 11.8932 15.6191 12.9332C15.6191 13.9733 16.4622 14.8164 17.5023 14.8164ZM17.5023 13.6058C17.8737 13.6058 18.1749 13.3047 18.1749 12.9332C18.1749 12.5618 17.8737 12.2607 17.5023 12.2607C17.1308 12.2607 16.8297 12.5618 16.8297 12.9332C16.8297 13.3047 17.1308 13.6058 17.5023 13.6058Z" fill="#399BFF"/>
<path fill-rule="evenodd" clip-rule="evenodd" d="M6.69334 4.66093C7.73341 4.66093 8.57654 3.8178 8.57654 2.77773C8.57654 1.73767 7.73341 0.894531 6.69334 0.894531C5.65328 0.894531 4.81014 1.73767 4.81014 2.77773C4.81014 3.8178 5.65328 4.66093 6.69334 4.66093ZM6.69334 3.4503C7.06479 3.4503 7.36591 3.14918 7.36591 2.77773C7.36591 2.40628 7.06479 2.10516 6.69334 2.10516C6.32189 2.10516 6.02077 2.40628 6.02077 2.77773C6.02077 3.14918 6.32189 3.4503 6.69334 3.4503Z" fill="#399BFF"/>
<path d="M24.6698 2.77773L25.621 3.72889L21.8163 7.53353L20.8652 6.58237L24.6698 2.77773Z" fill="#399BFF"/>
<path fill-rule="evenodd" clip-rule="evenodd" d="M25.621 4.66093C26.661 4.66093 27.5042 3.8178 27.5042 2.77773C27.5042 1.73767 26.661 0.894531 25.621 0.894531C24.5809 0.894531 23.7378 1.73767 23.7378 2.77773C23.7378 3.8178 24.5809 4.66093 25.621 4.66093ZM25.621 3.4503C25.9924 3.4503 26.2935 3.14918 26.2935 2.77773C26.2935 2.40628 25.9924 2.10516 25.621 2.10516C25.2495 2.10516 24.9484 2.40628 24.9484 2.77773C24.9484 3.14918 25.2495 3.4503 25.621 3.4503Z" fill="#399BFF"/>
<path fill-rule="evenodd" clip-rule="evenodd" d="M1.93752 28.5751C2.97759 28.5751 3.82072 27.732 3.82072 26.6919C3.82072 25.6519 2.97759 24.8087 1.93752 24.8087C0.897459 24.8087 0.0543213 25.6519 0.0543213 26.6919C0.0543213 27.732 0.897459 28.5751 1.93752 28.5751ZM1.93752 27.3645C2.30897 27.3645 2.61009 27.0634 2.61009 26.6919C2.61009 26.3205 2.30897 26.0193 1.93752 26.0193C1.56607 26.0193 1.26495 26.3205 1.26495 26.6919C1.26495 27.0634 1.56607 27.3645 1.93752 27.3645Z" fill="#399BFF"/>
<path d="M22.2103 33.4176H20.8651L20.8651 6.58237H22.2103L22.2103 33.4176Z" fill="#399BFF"/>
<path d="M18.4056 37.2223L17.4545 36.2711L21.2591 32.4665L22.2103 33.4177L18.4056 37.2223Z" fill="#399BFF"/>
<path fill-rule="evenodd" clip-rule="evenodd" d="M17.4545 39.1055C18.4946 39.1055 19.3377 38.2624 19.3377 37.2223C19.3377 36.1822 18.4946 35.3391 17.4545 35.3391C16.4144 35.3391 15.5713 36.1822 15.5713 37.2223C15.5713 38.2624 16.4144 39.1055 17.4545 39.1055ZM17.4545 37.8949C17.8259 37.8949 18.127 37.5937 18.127 37.2223C18.127 36.8508 17.8259 36.5497 17.4545 36.5497C17.083 36.5497 16.7819 36.8508 16.7819 37.2223C16.7819 37.5937 17.083 37.8949 17.4545 37.8949Z" fill="#399BFF"/>
<path d="M22.9837 16.1616C22.9837 16.9602 22.3363 17.6076 21.5377 17.6076C20.7391 17.6076 20.0917 16.9602 20.0917 16.1616C20.0917 15.3629 20.7391 14.7155 21.5377 14.7155C22.3363 14.7155 22.9837 15.3629 22.9837 16.1616Z" fill="#399BFF"/>
</svg>
